<?xml version="1.0" encoding="UTF-8" standalone="no"?><svg xmlns="http://www.w3.org/2000/svg" xmlns:xlink="http://www.w3.org/1999/xlink" contentScriptType="application/ecmascript" contentStyleType="text/css" height="705px" preserveAspectRatio="none" style="width:572px;height:705px;" version="1.1" viewBox="0 0 572 705" width="572px" zoomAndPan="magnify"><defs><filter height="300%" id="ffa3lvo31vt6q" width="300%" x="-1" y="-1"><feGaussianBlur result="blurOut" stdDeviation="2.0"/><feColorMatrix in="blurOut" result="blurOut2" type="matrix" values="0 0 0 0 0 0 0 0 0 0 0 0 0 0 0 0 0 0 .4 0"/><feOffset dx="4.0" dy="4.0" in="blurOut2" result="blurOut3"/><feBlend in="SourceGraphic" in2="blurOut3" mode="normal"/></filter></defs><g><!--MD5=[02456e6632d968d6f68141e5893c6991]
class AreaAtividade--><rect codeLine="2" fill="#FEFECE" filter="url(#ffa3lvo31vt6q)" height="103.3438" id="AreaAtividade" style="stroke:#A80036;stroke-width:1.5;" width="287" x="7" y="588"/><ellipse cx="109.25" cy="604" fill="#ADD1B2" rx="11" ry="11" style="stroke:#A80036;stroke-width:1.0;"/><path d="M112.0156,599.875 Q112.1719,599.6563 112.3594,599.5469 Q112.5469,599.4375 112.7656,599.4375 Q113.1406,599.4375 113.375,599.7031 Q113.6094,599.9531 113.6094,600.5625 L113.6094,602.0156 Q113.6094,602.625 113.375,602.8906 Q113.1406,603.1563 112.7656,603.1563 Q112.4219,603.1563 112.2188,602.9531 Q112.0156,602.7656 111.9063,602.25 Q111.8594,601.8906 111.6719,601.7031 Q111.3438,601.3281 110.7344,601.1094 Q110.125,600.8906 109.5,600.8906 Q108.7344,600.8906 108.0938,601.2188 Q107.4688,601.5469 106.9688,602.2969 Q106.4844,603.0469 106.4844,604.0781 L106.4844,605.1719 Q106.4844,606.4063 107.375,607.2344 Q108.2656,608.0469 109.8594,608.0469 Q110.7969,608.0469 111.4531,607.7969 Q111.8438,607.6406 112.2656,607.2031 Q112.5313,606.9375 112.6719,606.8594 Q112.8281,606.7813 113.0313,606.7813 Q113.3594,606.7813 113.6094,607.0469 Q113.875,607.2969 113.875,607.6406 Q113.875,607.9844 113.5313,608.3906 Q113.0313,608.9688 112.2344,609.2969 Q111.1563,609.75 109.8594,609.75 Q108.3438,609.75 107.1406,609.125 Q106.1563,608.625 105.4688,607.5625 Q104.7813,606.4844 104.7813,605.2031 L104.7813,604.0469 Q104.7813,602.7188 105.3906,601.5781 Q106.0156,600.4219 107.1094,599.8125 Q108.2031,599.1875 109.4375,599.1875 Q110.1719,599.1875 110.8125,599.3594 Q111.4688,599.5156 112.0156,599.875 Z " fill="#000000"/><text fill="#000000" font-family="sans-serif" font-size="12" lengthAdjust="spacing" textLength="74" x="129.75" y="608.9102">AreaAtividade</text><line style="stroke:#A80036;stroke-width:1.5;" x1="8" x2="293" y1="620" y2="620"/><text fill="#000000" font-family="sans-serif" font-size="11" lengthAdjust="spacing" textLength="67" x="13" y="635.4189">-String codigo</text><text fill="#000000" font-family="sans-serif" font-size="11" lengthAdjust="spacing" textLength="88" x="13" y="649.2549">-String descBreve</text><text fill="#000000" font-family="sans-serif" font-size="11" lengthAdjust="spacing" textLength="107" x="13" y="663.0908">-String descDetalhada</text><line style="stroke:#A80036;stroke-width:1.5;" x1="8" x2="293" y1="669.5078" y2="669.5078"/><text fill="#000000" font-family="sans-serif" font-size="11" lengthAdjust="spacing" textLength="275" x="13" y="684.9268">+AreaAtividade(String cod, String dsBreve, String dsDet)</text><!--MD5=[ecaed46f78f8cfe1e9ce18477649be18]
class Plataforma--><rect codeLine="9" fill="#FEFECE" filter="url(#ffa3lvo31vt6q)" height="75.6719" id="Plataforma" style="stroke:#A80036;stroke-width:1.5;" width="240" x="174.5" y="253"/><ellipse cx="260.25" cy="269" fill="#ADD1B2" rx="11" ry="11" style="stroke:#A80036;stroke-width:1.0;"/><path d="M263.0156,264.875 Q263.1719,264.6563 263.3594,264.5469 Q263.5469,264.4375 263.7656,264.4375 Q264.1406,264.4375 264.375,264.7031 Q264.6094,264.9531 264.6094,265.5625 L264.6094,267.0156 Q264.6094,267.625 264.375,267.8906 Q264.1406,268.1563 263.7656,268.1563 Q263.4219,268.1563 263.2188,267.9531 Q263.0156,267.7656 262.9063,267.25 Q262.8594,266.8906 262.6719,266.7031 Q262.3438,266.3281 261.7344,266.1094 Q261.125,265.8906 260.5,265.8906 Q259.7344,265.8906 259.0938,266.2188 Q258.4688,266.5469 257.9688,267.2969 Q257.4844,268.0469 257.4844,269.0781 L257.4844,270.1719 Q257.4844,271.4063 258.375,272.2344 Q259.2656,273.0469 260.8594,273.0469 Q261.7969,273.0469 262.4531,272.7969 Q262.8438,272.6406 263.2656,272.2031 Q263.5313,271.9375 263.6719,271.8594 Q263.8281,271.7813 264.0313,271.7813 Q264.3594,271.7813 264.6094,272.0469 Q264.875,272.2969 264.875,272.6406 Q264.875,272.9844 264.5313,273.3906 Q264.0313,273.9688 263.2344,274.2969 Q262.1563,274.75 260.8594,274.75 Q259.3438,274.75 258.1406,274.125 Q257.1563,273.625 256.4688,272.5625 Q255.7813,271.4844 255.7813,270.2031 L255.7813,269.0469 Q255.7813,267.7188 256.3906,266.5781 Q257.0156,265.4219 258.1094,264.8125 Q259.2031,264.1875 260.4375,264.1875 Q261.1719,264.1875 261.8125,264.3594 Q262.4688,264.5156 263.0156,264.875 Z " fill="#000000"/><text fill="#000000" font-family="sans-serif" font-size="12" lengthAdjust="spacing" textLength="60" x="280.75" y="273.9102">Plataforma</text><line style="stroke:#A80036;stroke-width:1.5;" x1="175.5" x2="413.5" y1="285" y2="285"/><text fill="#000000" font-family="sans-serif" font-size="11" lengthAdjust="spacing" textLength="91" x="180.5" y="300.4189">-String designacao</text><line style="stroke:#A80036;stroke-width:1.5;" x1="175.5" x2="413.5" y1="306.8359" y2="306.8359"/><text fill="#000000" font-family="sans-serif" font-size="11" lengthAdjust="spacing" textLength="228" x="180.5" y="322.2549">+ListaAreasAtividade getListaAreasAtividade()</text><!--MD5=[0752550bd33ca17fc5a87f012d1235bf]
class ListaAreasAtividade--><rect codeLine="15" fill="#FEFECE" filter="url(#ffa3lvo31vt6q)" height="103.3438" id="ListaAreasAtividade" style="stroke:#A80036;stroke-width:1.5;" width="383" x="175" y="407"/><ellipse cx="308.25" cy="423" fill="#ADD1B2" rx="11" ry="11" style="stroke:#A80036;stroke-width:1.0;"/><path d="M311.0156,418.875 Q311.1719,418.6563 311.3594,418.5469 Q311.5469,418.4375 311.7656,418.4375 Q312.1406,418.4375 312.375,418.7031 Q312.6094,418.9531 312.6094,419.5625 L312.6094,421.0156 Q312.6094,421.625 312.375,421.8906 Q312.1406,422.1563 311.7656,422.1563 Q311.4219,422.1563 311.2188,421.9531 Q311.0156,421.7656 310.9063,421.25 Q310.8594,420.8906 310.6719,420.7031 Q310.3438,420.3281 309.7344,420.1094 Q309.125,419.8906 308.5,419.8906 Q307.7344,419.8906 307.0938,420.2188 Q306.4688,420.5469 305.9688,421.2969 Q305.4844,422.0469 305.4844,423.0781 L305.4844,424.1719 Q305.4844,425.4063 306.375,426.2344 Q307.2656,427.0469 308.8594,427.0469 Q309.7969,427.0469 310.4531,426.7969 Q310.8438,426.6406 311.2656,426.2031 Q311.5313,425.9375 311.6719,425.8594 Q311.8281,425.7813 312.0313,425.7813 Q312.3594,425.7813 312.6094,426.0469 Q312.875,426.2969 312.875,426.6406 Q312.875,426.9844 312.5313,427.3906 Q312.0313,427.9688 311.2344,428.2969 Q310.1563,428.75 308.8594,428.75 Q307.3438,428.75 306.1406,428.125 Q305.1563,427.625 304.4688,426.5625 Q303.7813,425.4844 303.7813,424.2031 L303.7813,423.0469 Q303.7813,421.7188 304.3906,420.5781 Q305.0156,419.4219 306.1094,418.8125 Q307.2031,418.1875 308.4375,418.1875 Q309.1719,418.1875 309.8125,418.3594 Q310.4688,418.5156 311.0156,418.875 Z " fill="#000000"/><text fill="#000000" font-family="sans-serif" font-size="12" lengthAdjust="spacing" textLength="108" x="328.75" y="427.9102">ListaAreasAtividade</text><line style="stroke:#A80036;stroke-width:1.5;" x1="176" x2="557" y1="439" y2="439"/><line style="stroke:#A80036;stroke-width:1.5;" x1="176" x2="557" y1="447" y2="447"/><text fill="#000000" font-family="sans-serif" font-size="11" lengthAdjust="spacing" textLength="371" x="181" y="462.4189">+AreaAtividade novaAreaAtividade(String cod, String dsBreve, String dsDet)</text><text fill="#000000" font-family="sans-serif" font-size="11" lengthAdjust="spacing" textLength="205" x="181" y="476.2549">+validaAreaAtividade(AreaAtividade area)</text><text fill="#000000" font-family="sans-serif" font-size="11" lengthAdjust="spacing" textLength="210" x="181" y="490.0908">+registaAreaAtividade(AreaAtividade area)</text><text fill="#000000" font-family="sans-serif" font-size="11" lengthAdjust="spacing" textLength="193" x="181" y="503.9268">-addAreaAtividade(AreaAtividade area)</text><!--MD5=[52e4e871a42a73946b148d098b3e0767]
class DefinirAreaController--><rect codeLine="22" fill="#FEFECE" filter="url(#ffa3lvo31vt6q)" height="75.6719" id="DefinirAreaController" style="stroke:#A80036;stroke-width:1.5;" width="311" x="139" y="116"/><ellipse cx="232.75" cy="132" fill="#ADD1B2" rx="11" ry="11" style="stroke:#A80036;stroke-width:1.0;"/><path d="M235.5156,127.875 Q235.6719,127.6563 235.8594,127.5469 Q236.0469,127.4375 236.2656,127.4375 Q236.6406,127.4375 236.875,127.7031 Q237.1094,127.9531 237.1094,128.5625 L237.1094,130.0156 Q237.1094,130.625 236.875,130.8906 Q236.6406,131.1563 236.2656,131.1563 Q235.9219,131.1563 235.7188,130.9531 Q235.5156,130.7656 235.4063,130.25 Q235.3594,129.8906 235.1719,129.7031 Q234.8438,129.3281 234.2344,129.1094 Q233.625,128.8906 233,128.8906 Q232.2344,128.8906 231.5938,129.2188 Q230.9688,129.5469 230.4688,130.2969 Q229.9844,131.0469 229.9844,132.0781 L229.9844,133.1719 Q229.9844,134.4063 230.875,135.2344 Q231.7656,136.0469 233.3594,136.0469 Q234.2969,136.0469 234.9531,135.7969 Q235.3438,135.6406 235.7656,135.2031 Q236.0313,134.9375 236.1719,134.8594 Q236.3281,134.7813 236.5313,134.7813 Q236.8594,134.7813 237.1094,135.0469 Q237.375,135.2969 237.375,135.6406 Q237.375,135.9844 237.0313,136.3906 Q236.5313,136.9688 235.7344,137.2969 Q234.6563,137.75 233.3594,137.75 Q231.8438,137.75 230.6406,137.125 Q229.6563,136.625 228.9688,135.5625 Q228.2813,134.4844 228.2813,133.2031 L228.2813,132.0469 Q228.2813,130.7188 228.8906,129.5781 Q229.5156,128.4219 230.6094,127.8125 Q231.7031,127.1875 232.9375,127.1875 Q233.6719,127.1875 234.3125,127.3594 Q234.9688,127.5156 235.5156,127.875 Z " fill="#000000"/><text fill="#000000" font-family="sans-serif" font-size="12" lengthAdjust="spacing" textLength="115" x="253.25" y="136.9102">DefinirAreaController</text><line style="stroke:#A80036;stroke-width:1.5;" x1="140" x2="449" y1="148" y2="148"/><line style="stroke:#A80036;stroke-width:1.5;" x1="140" x2="449" y1="156" y2="156"/><text fill="#000000" font-family="sans-serif" font-size="11" lengthAdjust="spacing" textLength="299" x="145" y="171.4189">+novaAreaAtividade(String cod, String dsBreve, String dsDet)</text><text fill="#000000" font-family="sans-serif" font-size="11" lengthAdjust="spacing" textLength="116" x="145" y="185.2549">+registaAreaAtividade()</text><!--MD5=[a73238f1d13e652ec4ebc941dc1ac63d]
class DefinirAreaUI--><rect codeLine="27" fill="#FEFECE" filter="url(#ffa3lvo31vt6q)" height="48" id="DefinirAreaUI" style="stroke:#A80036;stroke-width:1.5;" width="105" x="242" y="7"/><ellipse cx="257" cy="23" fill="#ADD1B2" rx="11" ry="11" style="stroke:#A80036;stroke-width:1.0;"/><path d="M259.7656,18.875 Q259.9219,18.6563 260.1094,18.5469 Q260.2969,18.4375 260.5156,18.4375 Q260.8906,18.4375 261.125,18.7031 Q261.3594,18.9531 261.3594,19.5625 L261.3594,21.0156 Q261.3594,21.625 261.125,21.8906 Q260.8906,22.1563 260.5156,22.1563 Q260.1719,22.1563 259.9688,21.9531 Q259.7656,21.7656 259.6563,21.25 Q259.6094,20.8906 259.4219,20.7031 Q259.0938,20.3281 258.4844,20.1094 Q257.875,19.8906 257.25,19.8906 Q256.4844,19.8906 255.8438,20.2188 Q255.2188,20.5469 254.7188,21.2969 Q254.2344,22.0469 254.2344,23.0781 L254.2344,24.1719 Q254.2344,25.4063 255.125,26.2344 Q256.0156,27.0469 257.6094,27.0469 Q258.5469,27.0469 259.2031,26.7969 Q259.5938,26.6406 260.0156,26.2031 Q260.2813,25.9375 260.4219,25.8594 Q260.5781,25.7813 260.7813,25.7813 Q261.1094,25.7813 261.3594,26.0469 Q261.625,26.2969 261.625,26.6406 Q261.625,26.9844 261.2813,27.3906 Q260.7813,27.9688 259.9844,28.2969 Q258.9063,28.75 257.6094,28.75 Q256.0938,28.75 254.8906,28.125 Q253.9063,27.625 253.2188,26.5625 Q252.5313,25.4844 252.5313,24.2031 L252.5313,23.0469 Q252.5313,21.7188 253.1406,20.5781 Q253.7656,19.4219 254.8594,18.8125 Q255.9531,18.1875 257.1875,18.1875 Q257.9219,18.1875 258.5625,18.3594 Q259.2188,18.5156 259.7656,18.875 Z " fill="#000000"/><text fill="#000000" font-family="sans-serif" font-size="12" lengthAdjust="spacing" textLength="73" x="271" y="27.9102">DefinirAreaUI</text><line style="stroke:#A80036;stroke-width:1.5;" x1="243" x2="346" y1="39" y2="39"/><line style="stroke:#A80036;stroke-width:1.5;" x1="243" x2="346" y1="47" y2="47"/><!--MD5=[6b612a1e5e59cc8b145cfd6c9f06b931]
link DefinirAreaUI to DefinirAreaController--><path codeLine="31" d="M294.5,55.04 C294.5,70.71 294.5,91.91 294.5,110.58 " fill="none" id="DefinirAreaUI-to-DefinirAreaController" style="stroke:#A80036;stroke-width:1.0;stroke-dasharray:7.0,7.0;"/><polygon fill="#A80036" points="294.5,115.77,298.5,106.77,294.5,110.77,290.5,106.77,294.5,115.77" style="stroke:#A80036;stroke-width:1.0;"/><!--MD5=[d44f1c5ec820c81f12ff3f79e1965be9]
link DefinirAreaController to Plataforma--><path codeLine="32" d="M294.5,192.25 C294.5,209.36 294.5,229.75 294.5,247.47 " fill="none" id="DefinirAreaController-to-Plataforma" style="stroke:#A80036;stroke-width:1.0;stroke-dasharray:7.0,7.0;"/><polygon fill="#A80036" points="294.5,252.87,298.5,243.87,294.5,247.87,290.5,243.87,294.5,252.87" style="stroke:#A80036;stroke-width:1.0;"/><!--MD5=[c91d42e7091ba4e220af244b45750840]
link DefinirAreaController to ListaAreasAtividade--><path codeLine="33" d="M372.94,192.14 C396.44,207.47 419.42,227.67 432.5,253 C457.32,301.07 432.84,360.3 406.95,402.63 " fill="none" id="DefinirAreaController-to-ListaAreasAtividade" style="stroke:#A80036;stroke-width:1.0;stroke-dasharray:7.0,7.0;"/><polygon fill="#A80036" points="404.28,406.93,412.4118,401.3736,406.9069,402.6756,405.6048,397.1707,404.28,406.93" style="stroke:#A80036;stroke-width:1.0;"/><!--MD5=[8cc80a894aa07068b56dc5450933edc8]
link DefinirAreaController to AreaAtividade--><path codeLine="34" d="M216.65,192.03 C193.04,207.39 169.84,227.65 156.5,253 C100.91,358.63 119.86,504.17 136.47,582.75 " fill="none" id="DefinirAreaController-to-AreaAtividade" style="stroke:#A80036;stroke-width:1.0;stroke-dasharray:7.0,7.0;"/><polygon fill="#A80036" points="137.56,587.83,139.5662,578.1876,136.5026,582.9431,131.7471,579.8795,137.56,587.83" style="stroke:#A80036;stroke-width:1.0;"/><!--MD5=[fd18195ee191f7298a166da0087fb3d1]
link Plataforma to ListaAreasAtividade--><path codeLine="36" d="M310.66,329.14 C320.03,350.67 332,378.2 342.46,402.23 " fill="none" id="Plataforma-to-ListaAreasAtividade" style="stroke:#A80036;stroke-width:1.0;"/><polygon fill="#A80036" points="344.53,406.99,344.6243,397.1416,342.5432,402.4017,337.2831,400.3205,344.53,406.99" style="stroke:#A80036;stroke-width:1.0;"/><text fill="#000000" font-family="sans-serif" font-size="13" lengthAdjust="spacing" textLength="22" x="331.5" y="373.4951">tem</text><text fill="#000000" font-family="sans-serif" font-size="13" lengthAdjust="spacing" textLength="7" x="305.6777" y="350.0428">1</text><text fill="#000000" font-family="sans-serif" font-size="13" lengthAdjust="spacing" textLength="7" x="333.9483" y="396.1171">1</text><!--MD5=[cdc8a58407771e9bc3112782821e56ff]
link ListaAreasAtividade to AreaAtividade--><path codeLine="37" d="M305.47,510.08 C277.53,533.23 244.37,560.71 215.92,584.29 " fill="none" id="ListaAreasAtividade-to-AreaAtividade" style="stroke:#A80036;stroke-width:1.0;"/><polygon fill="#A80036" points="211.75,587.74,221.2364,585.0928,215.6051,584.556,216.142,578.9246,211.75,587.74" style="stroke:#A80036;stroke-width:1.0;"/><text fill="#000000" font-family="sans-serif" font-size="13" lengthAdjust="spacing" textLength="38" x="266.5" y="554.4951">possui</text><text fill="#000000" font-family="sans-serif" font-size="13" lengthAdjust="spacing" textLength="7" x="289.3955" y="531.9541">1</text><text fill="#000000" font-family="sans-serif" font-size="13" lengthAdjust="spacing" textLength="5" x="214.6445" y="577.2054">*</text><!--MD5=[c8852fef4303f3549c6b224674c83724]
@startuml
skinparam classAttributeIconSize 0
class AreaAtividade {
  -String codigo
  -String descBreve
  -String descDetalhada
  +AreaAtividade(String cod, String dsBreve, String dsDet)
}

class Plataforma {
  -String designacao
  
  +ListaAreasAtividade getListaAreasAtividade()
}

class ListaAreasAtividade {
  +AreaAtividade novaAreaAtividade(String cod, String dsBreve, String dsDet)
  +validaAreaAtividade(AreaAtividade area)
  +registaAreaAtividade(AreaAtividade area)
  -addAreaAtividade(AreaAtividade area)
}

class DefinirAreaController {
  +novaAreaAtividade(String cod, String dsBreve, String dsDet)
  +registaAreaAtividade()
}

class DefinirAreaUI {
  
}

DefinirAreaUI ..> DefinirAreaController
DefinirAreaController ..> Plataforma
DefinirAreaController ..> ListaAreasAtividade
DefinirAreaController ..> AreaAtividade

Plataforma "1" - -> "1" ListaAreasAtividade : tem
ListaAreasAtividade "1" - -> "*" AreaAtividade : possui


@enduml

PlantUML version 1.2021.00(Sun Jan 10 10:25:05 WET 2021)
(GPL source distribution)
Java Runtime: Java(TM) SE Runtime Environment
JVM: Java HotSpot(TM) 64-Bit Server VM
Default Encoding: Cp1252
Language: pt
Country: PT
--></g></svg>