<?xml version="1.0" encoding="UTF-8" standalone="no"?><svg xmlns="http://www.w3.org/2000/svg" xmlns:xlink="http://www.w3.org/1999/xlink" contentScriptType="application/ecmascript" contentStyleType="text/css" height="829px" preserveAspectRatio="none" style="width:1447px;height:829px;" version="1.1" viewBox="0 0 1447 829" width="1447px" zoomAndPan="magnify"><defs><filter height="300%" id="fzq4a2tod7y1r" width="300%" x="-1" y="-1"><feGaussianBlur result="blurOut" stdDeviation="2.0"/><feColorMatrix in="blurOut" result="blurOut2" type="matrix" values="0 0 0 0 0 0 0 0 0 0 0 0 0 0 0 0 0 0 .4 0"/><feOffset dx="4.0" dy="4.0" in="blurOut2" result="blurOut3"/><feBlend in="SourceGraphic" in2="blurOut3" mode="normal"/></filter></defs><g><rect fill="#FFFFFF" filter="url(#fzq4a2tod7y1r)" height="626.2344" style="stroke:#A80036;stroke-width:1.0;" width="10" x="47" y="99.6094"/><rect fill="#FFFFFF" filter="url(#fzq4a2tod7y1r)" height="46.7031" style="stroke:#A80036;stroke-width:1.0;" width="10" x="318" y="121.9609"/><rect fill="#FFFFFF" filter="url(#fzq4a2tod7y1r)" height="258.3672" style="stroke:#A80036;stroke-width:1.0;" width="10" x="318" y="199.0156"/><rect fill="#FFFFFF" filter="url(#fzq4a2tod7y1r)" height="238.1094" style="stroke:#A80036;stroke-width:1.0;" width="10" x="318" y="487.7344"/><rect fill="#FFFFFF" filter="url(#fzq4a2tod7y1r)" height="197.6641" style="stroke:#A80036;stroke-width:1.0;" width="10" x="588" y="229.3672"/><rect fill="#FFFFFF" filter="url(#fzq4a2tod7y1r)" height="177.4063" style="stroke:#A80036;stroke-width:1.0;" width="10" x="588" y="518.0859"/><rect fill="#FFFFFF" filter="url(#fzq4a2tod7y1r)" height="30" style="stroke:#A80036;stroke-width:1.0;" width="10" x="814" y="259.7188"/><rect fill="#FFFFFF" filter="url(#fzq4a2tod7y1r)" height="30.3516" style="stroke:#A80036;stroke-width:1.0;" width="10" x="952" y="320.0703"/><rect fill="#FFFFFF" filter="url(#fzq4a2tod7y1r)" height="30" style="stroke:#A80036;stroke-width:1.0;" width="10" x="952" y="397.0313"/><rect fill="#FFFFFF" filter="url(#fzq4a2tod7y1r)" height="147.0547" style="stroke:#A80036;stroke-width:1.0;" width="10" x="952" y="548.4375"/><rect fill="#FFFFFF" filter="url(#fzq4a2tod7y1r)" height="30" style="stroke:#A80036;stroke-width:1.0;" width="10" x="1384.5" y="665.4922"/><line style="stroke:#A80036;stroke-width:1.0;stroke-dasharray:5.0,5.0;" x1="52" x2="52" y1="89.6094" y2="743.8438"/><line style="stroke:#A80036;stroke-width:1.0;stroke-dasharray:5.0,5.0;" x1="322.5" x2="322.5" y1="89.6094" y2="743.8438"/><line style="stroke:#A80036;stroke-width:1.0;stroke-dasharray:5.0,5.0;" x1="592.5" x2="592.5" y1="89.6094" y2="743.8438"/><line style="stroke:#A80036;stroke-width:1.0;stroke-dasharray:5.0,5.0;" x1="819" x2="819" y1="89.6094" y2="743.8438"/><line style="stroke:#A80036;stroke-width:1.0;stroke-dasharray:5.0,5.0;" x1="957" x2="957" y1="89.6094" y2="743.8438"/><line style="stroke:#A80036;stroke-width:1.0;stroke-dasharray:5.0,5.0;" x1="1253" x2="1253" y1="361.375" y2="743.8438"/><line style="stroke:#A80036;stroke-width:1.0;stroke-dasharray:5.0,5.0;" x1="1389" x2="1389" y1="89.6094" y2="743.8438"/><text fill="#000000" font-family="sans-serif" font-size="14" lengthAdjust="spacing" textLength="88" x="5" y="86.5332">Administrativo</text><ellipse cx="52" cy="15" fill="#FEFECE" filter="url(#fzq4a2tod7y1r)" rx="8" ry="8" style="stroke:#A80036;stroke-width:2.0;"/><path d="M52,23 L52,50 M39,31 L65,31 M52,50 L39,65 M52,50 L65,65 " fill="none" filter="url(#fzq4a2tod7y1r)" style="stroke:#A80036;stroke-width:2.0;"/><text fill="#000000" font-family="sans-serif" font-size="14" lengthAdjust="spacing" textLength="88" x="5" y="757.377">Administrativo</text><ellipse cx="52" cy="770.4531" fill="#FEFECE" filter="url(#fzq4a2tod7y1r)" rx="8" ry="8" style="stroke:#A80036;stroke-width:2.0;"/><path d="M52,778.4531 L52,805.4531 M39,786.4531 L65,786.4531 M52,805.4531 L39,820.4531 M52,805.4531 L65,820.4531 " fill="none" filter="url(#fzq4a2tod7y1r)" style="stroke:#A80036;stroke-width:2.0;"/><rect fill="#FEFECE" filter="url(#fzq4a2tod7y1r)" height="31.6094" style="stroke:#A80036;stroke-width:1.5;" width="101" x="270.5" y="53"/><text fill="#000000" font-family="sans-serif" font-size="14" lengthAdjust="spacing" textLength="87" x="277.5" y="74.5332">:DefinirAreaUI</text><rect fill="#FEFECE" filter="url(#fzq4a2tod7y1r)" height="31.6094" style="stroke:#A80036;stroke-width:1.5;" width="101" x="270.5" y="742.8438"/><text fill="#000000" font-family="sans-serif" font-size="14" lengthAdjust="spacing" textLength="87" x="277.5" y="764.377">:DefinirAreaUI</text><rect fill="#FEFECE" filter="url(#fzq4a2tod7y1r)" height="31.6094" style="stroke:#A80036;stroke-width:1.5;" width="151" x="515.5" y="53"/><text fill="#000000" font-family="sans-serif" font-size="14" lengthAdjust="spacing" textLength="137" x="522.5" y="74.5332">:DefinirAreaController</text><rect fill="#FEFECE" filter="url(#fzq4a2tod7y1r)" height="31.6094" style="stroke:#A80036;stroke-width:1.5;" width="151" x="515.5" y="742.8438"/><text fill="#000000" font-family="sans-serif" font-size="14" lengthAdjust="spacing" textLength="137" x="522.5" y="764.377">:DefinirAreaController</text><rect fill="#FEFECE" filter="url(#fzq4a2tod7y1r)" height="31.6094" style="stroke:#A80036;stroke-width:1.5;" width="86" x="774" y="53"/><text fill="#000000" font-family="sans-serif" font-size="14" lengthAdjust="spacing" textLength="72" x="781" y="74.5332">:Plataforma</text><rect fill="#FEFECE" filter="url(#fzq4a2tod7y1r)" height="31.6094" style="stroke:#A80036;stroke-width:1.5;" width="86" x="774" y="742.8438"/><text fill="#000000" font-family="sans-serif" font-size="14" lengthAdjust="spacing" textLength="72" x="781" y="764.377">:Plataforma</text><rect fill="#FEFECE" filter="url(#fzq4a2tod7y1r)" height="31.6094" style="stroke:#A80036;stroke-width:1.5;" width="162" x="874" y="53"/><text fill="#000000" font-family="sans-serif" font-size="14" lengthAdjust="spacing" textLength="148" x="881" y="74.5332">lat: ListaAreasAtividade</text><rect fill="#FEFECE" filter="url(#fzq4a2tod7y1r)" height="31.6094" style="stroke:#A80036;stroke-width:1.5;" width="162" x="874" y="742.8438"/><text fill="#000000" font-family="sans-serif" font-size="14" lengthAdjust="spacing" textLength="148" x="881" y="764.377">lat: ListaAreasAtividade</text><rect fill="#FEFECE" filter="url(#fzq4a2tod7y1r)" height="31.6094" style="stroke:#A80036;stroke-width:1.5;" width="135" x="1184" y="742.8438"/><text fill="#000000" font-family="sans-serif" font-size="14" lengthAdjust="spacing" textLength="121" x="1191" y="764.377">area:AreaAtividade</text><text fill="#000000" font-family="sans-serif" font-size="14" lengthAdjust="spacing" textLength="107" x="1333" y="86.5332">AreaAtividadeDB</text><path d="M1371.5,36 C1371.5,26 1389.5,26 1389.5,26 C1389.5,26 1407.5,26 1407.5,36 L1407.5,62 C1407.5,72 1389.5,72 1389.5,72 C1389.5,72 1371.5,72 1371.5,62 L1371.5,36 " fill="#FEFECE" filter="url(#fzq4a2tod7y1r)" style="stroke:#000000;stroke-width:1.5;"/><path d="M1371.5,36 C1371.5,46 1389.5,46 1389.5,46 C1389.5,46 1407.5,46 1407.5,36 " fill="none" style="stroke:#000000;stroke-width:1.5;"/><text fill="#000000" font-family="sans-serif" font-size="14" lengthAdjust="spacing" textLength="107" x="1333" y="757.377">AreaAtividadeDB</text><path d="M1371.5,770.4531 C1371.5,760.4531 1389.5,760.4531 1389.5,760.4531 C1389.5,760.4531 1407.5,760.4531 1407.5,770.4531 L1407.5,796.4531 C1407.5,806.4531 1389.5,806.4531 1389.5,806.4531 C1389.5,806.4531 1371.5,806.4531 1371.5,796.4531 L1371.5,770.4531 " fill="#FEFECE" filter="url(#fzq4a2tod7y1r)" style="stroke:#000000;stroke-width:1.5;"/><path d="M1371.5,770.4531 C1371.5,780.4531 1389.5,780.4531 1389.5,780.4531 C1389.5,780.4531 1407.5,780.4531 1407.5,770.4531 " fill="none" style="stroke:#000000;stroke-width:1.5;"/><rect fill="#FFFFFF" filter="url(#fzq4a2tod7y1r)" height="626.2344" style="stroke:#A80036;stroke-width:1.0;" width="10" x="47" y="99.6094"/><rect fill="#FFFFFF" filter="url(#fzq4a2tod7y1r)" height="46.7031" style="stroke:#A80036;stroke-width:1.0;" width="10" x="318" y="121.9609"/><rect fill="#FFFFFF" filter="url(#fzq4a2tod7y1r)" height="258.3672" style="stroke:#A80036;stroke-width:1.0;" width="10" x="318" y="199.0156"/><rect fill="#FFFFFF" filter="url(#fzq4a2tod7y1r)" height="238.1094" style="stroke:#A80036;stroke-width:1.0;" width="10" x="318" y="487.7344"/><rect fill="#FFFFFF" filter="url(#fzq4a2tod7y1r)" height="197.6641" style="stroke:#A80036;stroke-width:1.0;" width="10" x="588" y="229.3672"/><rect fill="#FFFFFF" filter="url(#fzq4a2tod7y1r)" height="177.4063" style="stroke:#A80036;stroke-width:1.0;" width="10" x="588" y="518.0859"/><rect fill="#FFFFFF" filter="url(#fzq4a2tod7y1r)" height="30" style="stroke:#A80036;stroke-width:1.0;" width="10" x="814" y="259.7188"/><rect fill="#FFFFFF" filter="url(#fzq4a2tod7y1r)" height="30.3516" style="stroke:#A80036;stroke-width:1.0;" width="10" x="952" y="320.0703"/><rect fill="#FFFFFF" filter="url(#fzq4a2tod7y1r)" height="30" style="stroke:#A80036;stroke-width:1.0;" width="10" x="952" y="397.0313"/><rect fill="#FFFFFF" filter="url(#fzq4a2tod7y1r)" height="147.0547" style="stroke:#A80036;stroke-width:1.0;" width="10" x="952" y="548.4375"/><rect fill="#FFFFFF" filter="url(#fzq4a2tod7y1r)" height="30" style="stroke:#A80036;stroke-width:1.0;" width="10" x="1384.5" y="665.4922"/><polygon fill="#A80036" points="306,117.9609,316,121.9609,306,125.9609,310,121.9609" style="stroke:#A80036;stroke-width:1.0;"/><line style="stroke:#A80036;stroke-width:1.0;" x1="57" x2="312" y1="121.9609" y2="121.9609"/><text fill="#000000" font-family="sans-serif" font-size="13" font-weight="bold" lengthAdjust="spacing" textLength="7" x="64" y="117.1045">1</text><text fill="#000000" font-family="sans-serif" font-size="13" lengthAdjust="spacing" textLength="127" x="75" y="117.1045">nova área de atividade</text><polygon fill="#A80036" points="68,164.6641,58,168.6641,68,172.6641,64,168.6641" style="stroke:#A80036;stroke-width:1.0;"/><line style="stroke:#A80036;stroke-width:1.0;stroke-dasharray:2.0,2.0;" x1="62" x2="322" y1="168.6641" y2="168.6641"/><text fill="#000000" font-family="sans-serif" font-size="13" font-weight="bold" lengthAdjust="spacing" textLength="7" x="74" y="155.6318">2</text><text fill="#000000" font-family="sans-serif" font-size="13" lengthAdjust="spacing" textLength="80" x="85" y="147.4561">solicita dados</text><text fill="#000000" font-family="sans-serif" font-size="13" lengthAdjust="spacing" textLength="215" x="85" y="163.8076">(código, descrição breve e detalhada)</text><polygon fill="#A80036" points="306,195.0156,316,199.0156,306,203.0156,310,199.0156" style="stroke:#A80036;stroke-width:1.0;"/><line style="stroke:#A80036;stroke-width:1.0;" x1="57" x2="312" y1="199.0156" y2="199.0156"/><text fill="#000000" font-family="sans-serif" font-size="13" font-weight="bold" lengthAdjust="spacing" textLength="7" x="64" y="194.1592">3</text><text fill="#000000" font-family="sans-serif" font-size="13" lengthAdjust="spacing" textLength="169" x="75" y="194.1592">introduz os dados solicitados</text><polygon fill="#A80036" points="576,225.3672,586,229.3672,576,233.3672,580,229.3672" style="stroke:#A80036;stroke-width:1.0;"/><line style="stroke:#A80036;stroke-width:1.0;" x1="328" x2="582" y1="229.3672" y2="229.3672"/><text fill="#000000" font-family="sans-serif" font-size="13" font-weight="bold" lengthAdjust="spacing" textLength="7" x="335" y="224.5107">4</text><text fill="#000000" font-family="sans-serif" font-size="13" lengthAdjust="spacing" textLength="230" x="346" y="224.5107">novaAreaAtividade(cod, dsBreve, dsDet)</text><polygon fill="#A80036" points="802,255.7188,812,259.7188,802,263.7188,806,259.7188" style="stroke:#A80036;stroke-width:1.0;"/><line style="stroke:#A80036;stroke-width:1.0;" x1="598" x2="808" y1="259.7188" y2="259.7188"/><text fill="#000000" font-family="sans-serif" font-size="13" font-weight="bold" lengthAdjust="spacing" textLength="7" x="605" y="254.8623">5</text><text fill="#000000" font-family="sans-serif" font-size="13" lengthAdjust="spacing" textLength="186" x="616" y="254.8623">lat = getRegistoAreasAtividade()</text><polygon fill="#A80036" points="940,316.0703,950,320.0703,940,324.0703,944,320.0703" style="stroke:#A80036;stroke-width:1.0;"/><line style="stroke:#A80036;stroke-width:1.0;" x1="598" x2="946" y1="320.0703" y2="320.0703"/><text fill="#000000" font-family="sans-serif" font-size="13" font-weight="bold" lengthAdjust="spacing" textLength="7" x="605" y="315.2139">6</text><text fill="#000000" font-family="sans-serif" font-size="13" lengthAdjust="spacing" textLength="263" x="616" y="315.2139">area=novaAreaAtividade(cod, dsBreve, dsDet)</text><polygon fill="#A80036" points="1172,346.4219,1182,350.4219,1172,354.4219,1176,350.4219" style="stroke:#A80036;stroke-width:1.0;"/><line style="stroke:#A80036;stroke-width:1.0;stroke-dasharray:2.0,2.0;" x1="957" x2="1178" y1="350.4219" y2="350.4219"/><text fill="#000000" font-family="sans-serif" font-size="13" font-weight="bold" lengthAdjust="spacing" textLength="7" x="964" y="345.5654">7</text><text fill="#000000" font-family="sans-serif" font-size="13" lengthAdjust="spacing" textLength="187" x="975" y="345.5654">aa = create(cod, dsBreve,dsDet)</text><rect fill="#FEFECE" filter="url(#fzq4a2tod7y1r)" height="31.6094" style="stroke:#A80036;stroke-width:1.5;" width="135" x="1184" y="328.0703"/><text fill="#000000" font-family="sans-serif" font-size="14" lengthAdjust="spacing" textLength="121" x="1191" y="349.6035">area:AreaAtividade</text><polygon fill="#A80036" points="940,393.0313,950,397.0313,940,401.0313,944,397.0313" style="stroke:#A80036;stroke-width:1.0;"/><line style="stroke:#A80036;stroke-width:1.0;" x1="598" x2="946" y1="397.0313" y2="397.0313"/><text fill="#000000" font-family="sans-serif" font-size="13" font-weight="bold" lengthAdjust="spacing" textLength="7" x="605" y="392.1748">8</text><text fill="#000000" font-family="sans-serif" font-size="13" lengthAdjust="spacing" textLength="144" x="616" y="392.1748">validaAreaAtividade(area)</text><polygon fill="#A80036" points="68,453.3828,58,457.3828,68,461.3828,64,457.3828" style="stroke:#A80036;stroke-width:1.0;"/><line style="stroke:#A80036;stroke-width:1.0;stroke-dasharray:2.0,2.0;" x1="62" x2="322" y1="457.3828" y2="457.3828"/><text fill="#000000" font-family="sans-serif" font-size="13" font-weight="bold" lengthAdjust="spacing" textLength="7" x="74" y="452.5264">9</text><text fill="#000000" font-family="sans-serif" font-size="13" lengthAdjust="spacing" textLength="226" x="85" y="452.5264">apresenta dados e solicita confirmação</text><polygon fill="#A80036" points="306,483.7344,316,487.7344,306,491.7344,310,487.7344" style="stroke:#A80036;stroke-width:1.0;"/><line style="stroke:#A80036;stroke-width:1.0;" x1="57" x2="312" y1="487.7344" y2="487.7344"/><text fill="#000000" font-family="sans-serif" font-size="13" font-weight="bold" lengthAdjust="spacing" textLength="14" x="64" y="482.8779">10</text><text fill="#000000" font-family="sans-serif" font-size="13" lengthAdjust="spacing" textLength="49" x="82" y="482.8779">confirma</text><polygon fill="#A80036" points="576,514.0859,586,518.0859,576,522.0859,580,518.0859" style="stroke:#A80036;stroke-width:1.0;"/><line style="stroke:#A80036;stroke-width:1.0;" x1="328" x2="582" y1="518.0859" y2="518.0859"/><text fill="#000000" font-family="sans-serif" font-size="13" font-weight="bold" lengthAdjust="spacing" textLength="14" x="335" y="513.2295">11</text><text fill="#000000" font-family="sans-serif" font-size="13" lengthAdjust="spacing" textLength="126" x="353" y="513.2295">registaAreaAtividade()</text><polygon fill="#A80036" points="940,544.4375,950,548.4375,940,552.4375,944,548.4375" style="stroke:#A80036;stroke-width:1.0;"/><line style="stroke:#A80036;stroke-width:1.0;" x1="598" x2="946" y1="548.4375" y2="548.4375"/><text fill="#000000" font-family="sans-serif" font-size="13" font-weight="bold" lengthAdjust="spacing" textLength="14" x="605" y="543.5811">12</text><text fill="#000000" font-family="sans-serif" font-size="13" lengthAdjust="spacing" textLength="155" x="623" y="543.5811">registaAreaAtivadade(area)</text><line style="stroke:#A80036;stroke-width:1.0;" x1="962" x2="1004" y1="578.7891" y2="578.7891"/><line style="stroke:#A80036;stroke-width:1.0;" x1="1004" x2="1004" y1="578.7891" y2="591.7891"/><line style="stroke:#A80036;stroke-width:1.0;" x1="963" x2="1004" y1="591.7891" y2="591.7891"/><polygon fill="#A80036" points="973,587.7891,963,591.7891,973,595.7891,969,591.7891" style="stroke:#A80036;stroke-width:1.0;"/><text fill="#000000" font-family="sans-serif" font-size="13" font-weight="bold" lengthAdjust="spacing" textLength="14" x="969" y="573.9326">13</text><text fill="#000000" font-family="sans-serif" font-size="13" lengthAdjust="spacing" textLength="144" x="987" y="573.9326">validaAreaAtividade(area)</text><line style="stroke:#A80036;stroke-width:1.0;" x1="962" x2="1004" y1="622.1406" y2="622.1406"/><line style="stroke:#A80036;stroke-width:1.0;" x1="1004" x2="1004" y1="622.1406" y2="635.1406"/><line style="stroke:#A80036;stroke-width:1.0;" x1="963" x2="1004" y1="635.1406" y2="635.1406"/><polygon fill="#A80036" points="973,631.1406,963,635.1406,973,639.1406,969,635.1406" style="stroke:#A80036;stroke-width:1.0;"/><text fill="#000000" font-family="sans-serif" font-size="13" font-weight="bold" lengthAdjust="spacing" textLength="14" x="969" y="617.2842">14</text><text fill="#000000" font-family="sans-serif" font-size="13" lengthAdjust="spacing" textLength="133" x="987" y="617.2842">addAreaAtividade(area)</text><polygon fill="#A80036" points="1372.5,661.4922,1382.5,665.4922,1372.5,669.4922,1376.5,665.4922" style="stroke:#A80036;stroke-width:1.0;"/><line style="stroke:#A80036;stroke-width:1.0;" x1="962" x2="1378.5" y1="665.4922" y2="665.4922"/><text fill="#000000" font-family="sans-serif" font-size="13" font-weight="bold" lengthAdjust="spacing" textLength="14" x="969" y="660.6357">15</text><text fill="#000000" font-family="sans-serif" font-size="13" lengthAdjust="spacing" textLength="72" x="987" y="660.6357">insertAA(aa)</text><polygon fill="#A80036" points="63,721.8438,53,725.8438,63,729.8438,59,725.8438" style="stroke:#A80036;stroke-width:1.0;"/><line style="stroke:#A80036;stroke-width:1.0;stroke-dasharray:2.0,2.0;" x1="57" x2="322" y1="725.8438" y2="725.8438"/><text fill="#000000" font-family="sans-serif" font-size="13" font-weight="bold" lengthAdjust="spacing" textLength="14" x="69" y="720.9873">16</text><text fill="#000000" font-family="sans-serif" font-size="13" lengthAdjust="spacing" textLength="138" x="87" y="720.9873">operação bem sucedida</text><!--MD5=[81cf21bd261122146b42dba04dd09519]
@startuml
autonumber
actor "Administrativo" as ADM

participant ":DefinirAreaUI" as UI
participant ":DefinirAreaController" as CTRL
participant ":Plataforma" as PLAT
participant "lat: ListaAreasAtividade" as REG_AT
participant "area:AreaAtividade" as AREA
database AreaAtividadeDB as aaDB

activate ADM
ADM -> UI : nova área de atividade
activate UI
UI - -> ADM : solicita dados \n(código, descrição breve e detalhada)
deactivate UI

ADM -> UI : introduz os dados solicitados
activate UI
UI -> CTRL : novaAreaAtividade(cod, dsBreve, dsDet)
activate CTRL
CTRL -> PLAT: lat = getRegistoAreasAtividade()
activate PLAT
deactivate PLAT
CTRL -> REG_AT: area=novaAreaAtividade(cod, dsBreve, dsDet)
activate REG_AT
REG_AT - -> AREA ** : aa = create(cod, dsBreve,dsDet)
deactivate REG_AT

CTRL -> REG_AT: validaAreaAtividade(area)
activate REG_AT
deactivate REG_AT

deactivate CTRL
UI - -> ADM : apresenta dados e solicita confirmação
deactivate UI

ADM -> UI : confirma
activate UI

UI -> CTRL: registaAreaAtividade()
activate CTRL
CTRL ->REG_AT: registaAreaAtivadade(area)
activate REG_AT
REG_AT -> REG_AT: validaAreaAtividade(area)
REG_AT -> REG_AT: addAreaAtividade(area)
REG_AT -> aaDB: insertAA(aa)
activate aaDB
deactivate aaDB
deactivate REG_AT
deactivate CTRL

UI - -> ADM : operação bem sucedida
deactivate UI

deactivate ADM
@enduml

PlantUML version 1.2021.00(Sun Jan 10 10:25:05 WET 2021)
(GPL source distribution)
Java Runtime: Java(TM) SE Runtime Environment
JVM: Java HotSpot(TM) 64-Bit Server VM
Default Encoding: Cp1252
Language: pt
Country: PT
--></g></svg>