<?xml version="1.0" encoding="UTF-8" standalone="no"?><svg xmlns="http://www.w3.org/2000/svg" xmlns:xlink="http://www.w3.org/1999/xlink" contentScriptType="application/ecmascript" contentStyleType="text/css" height="383px" preserveAspectRatio="none" style="width:957px;height:383px;" version="1.1" viewBox="0 0 957 383" width="957px" zoomAndPan="magnify"><defs><filter height="300%" id="f114jerpy80320" width="300%" x="-1" y="-1"><feGaussianBlur result="blurOut" stdDeviation="2.0"/><feColorMatrix in="blurOut" result="blurOut2" type="matrix" values="0 0 0 0 0 0 0 0 0 0 0 0 0 0 0 0 0 0 .4 0"/><feOffset dx="4.0" dy="4.0" in="blurOut2" result="blurOut3"/><feBlend in="SourceGraphic" in2="blurOut3" mode="normal"/></filter></defs><g><!--MD5=[ecaed46f78f8cfe1e9ce18477649be18]
class Plataforma--><rect codeLine="5" fill="#FEFECE" filter="url(#f114jerpy80320)" height="53.8359" id="Plataforma" style="stroke:#A80036;stroke-width:1.5;" width="103" x="7" y="137"/><ellipse cx="26.95" cy="153" fill="#ADD1B2" rx="11" ry="11" style="stroke:#A80036;stroke-width:1.0;"/><path d="M29.7156,148.875 Q29.8719,148.6563 30.0594,148.5469 Q30.2469,148.4375 30.4656,148.4375 Q30.8406,148.4375 31.075,148.7031 Q31.3094,148.9531 31.3094,149.5625 L31.3094,151.0156 Q31.3094,151.625 31.075,151.8906 Q30.8406,152.1563 30.4656,152.1563 Q30.1219,152.1563 29.9188,151.9531 Q29.7156,151.7656 29.6063,151.25 Q29.5594,150.8906 29.3719,150.7031 Q29.0438,150.3281 28.4344,150.1094 Q27.825,149.8906 27.2,149.8906 Q26.4344,149.8906 25.7938,150.2188 Q25.1688,150.5469 24.6688,151.2969 Q24.1844,152.0469 24.1844,153.0781 L24.1844,154.1719 Q24.1844,155.4063 25.075,156.2344 Q25.9656,157.0469 27.5594,157.0469 Q28.4969,157.0469 29.1531,156.7969 Q29.5438,156.6406 29.9656,156.2031 Q30.2313,155.9375 30.3719,155.8594 Q30.5281,155.7813 30.7313,155.7813 Q31.0594,155.7813 31.3094,156.0469 Q31.575,156.2969 31.575,156.6406 Q31.575,156.9844 31.2313,157.3906 Q30.7313,157.9688 29.9344,158.2969 Q28.8563,158.75 27.5594,158.75 Q26.0438,158.75 24.8406,158.125 Q23.8563,157.625 23.1688,156.5625 Q22.4813,155.4844 22.4813,154.2031 L22.4813,153.0469 Q22.4813,151.7188 23.0906,150.5781 Q23.7156,149.4219 24.8094,148.8125 Q25.9031,148.1875 27.1375,148.1875 Q27.8719,148.1875 28.5125,148.3594 Q29.1688,148.5156 29.7156,148.875 Z " fill="#000000"/><text fill="#000000" font-family="sans-serif" font-size="12" lengthAdjust="spacing" textLength="60" x="42.05" y="157.9102">Plataforma</text><line style="stroke:#A80036;stroke-width:1.5;" x1="8" x2="109" y1="169" y2="169"/><text fill="#000000" font-family="sans-serif" font-size="11" lengthAdjust="spacing" textLength="91" x="13" y="184.4189">-String designacao</text><!--MD5=[ac8682ea5466d223e49472789fb200d2]
class Colaborador--><rect codeLine="9" fill="#FEFECE" filter="url(#f114jerpy80320)" height="95.3438" id="Colaborador" style="stroke:#A80036;stroke-width:1.5;" width="101" x="842" y="152.5"/><ellipse cx="857" cy="168.5" fill="#ADD1B2" rx="11" ry="11" style="stroke:#A80036;stroke-width:1.0;"/><path d="M859.7656,164.375 Q859.9219,164.1563 860.1094,164.0469 Q860.2969,163.9375 860.5156,163.9375 Q860.8906,163.9375 861.125,164.2031 Q861.3594,164.4531 861.3594,165.0625 L861.3594,166.5156 Q861.3594,167.125 861.125,167.3906 Q860.8906,167.6563 860.5156,167.6563 Q860.1719,167.6563 859.9688,167.4531 Q859.7656,167.2656 859.6563,166.75 Q859.6094,166.3906 859.4219,166.2031 Q859.0938,165.8281 858.4844,165.6094 Q857.875,165.3906 857.25,165.3906 Q856.4844,165.3906 855.8438,165.7188 Q855.2188,166.0469 854.7188,166.7969 Q854.2344,167.5469 854.2344,168.5781 L854.2344,169.6719 Q854.2344,170.9063 855.125,171.7344 Q856.0156,172.5469 857.6094,172.5469 Q858.5469,172.5469 859.2031,172.2969 Q859.5938,172.1406 860.0156,171.7031 Q860.2813,171.4375 860.4219,171.3594 Q860.5781,171.2813 860.7813,171.2813 Q861.1094,171.2813 861.3594,171.5469 Q861.625,171.7969 861.625,172.1406 Q861.625,172.4844 861.2813,172.8906 Q860.7813,173.4688 859.9844,173.7969 Q858.9063,174.25 857.6094,174.25 Q856.0938,174.25 854.8906,173.625 Q853.9063,173.125 853.2188,172.0625 Q852.5313,170.9844 852.5313,169.7031 L852.5313,168.5469 Q852.5313,167.2188 853.1406,166.0781 Q853.7656,164.9219 854.8594,164.3125 Q855.9531,163.6875 857.1875,163.6875 Q857.9219,163.6875 858.5625,163.8594 Q859.2188,164.0156 859.7656,164.375 Z " fill="#000000"/><text fill="#000000" font-family="sans-serif" font-size="12" lengthAdjust="spacing" textLength="69" x="871" y="173.4102">Colaborador</text><line style="stroke:#A80036;stroke-width:1.5;" x1="843" x2="942" y1="184.5" y2="184.5"/><text fill="#000000" font-family="sans-serif" font-size="11" lengthAdjust="spacing" textLength="61" x="848" y="199.9189">-String nome</text><text fill="#000000" font-family="sans-serif" font-size="11" lengthAdjust="spacing" textLength="69" x="848" y="213.7549">-String funcao</text><text fill="#000000" font-family="sans-serif" font-size="11" lengthAdjust="spacing" textLength="74" x="848" y="227.5908">-String telefone</text><text fill="#000000" font-family="sans-serif" font-size="11" lengthAdjust="spacing" textLength="59" x="848" y="241.4268">-String email</text><!--MD5=[27c2d4bbe9f7b9d3b0ea2797cc54308a]
class Tarefa--><rect codeLine="16" fill="#FEFECE" filter="url(#f114jerpy80320)" height="123.0156" id="Tarefa" style="stroke:#A80036;stroke-width:1.5;" width="109" x="553.5" y="204.5"/><ellipse cx="587.4" cy="220.5" fill="#ADD1B2" rx="11" ry="11" style="stroke:#A80036;stroke-width:1.0;"/><path d="M590.1656,216.375 Q590.3219,216.1563 590.5094,216.0469 Q590.6969,215.9375 590.9156,215.9375 Q591.2906,215.9375 591.525,216.2031 Q591.7594,216.4531 591.7594,217.0625 L591.7594,218.5156 Q591.7594,219.125 591.525,219.3906 Q591.2906,219.6563 590.9156,219.6563 Q590.5719,219.6563 590.3688,219.4531 Q590.1656,219.2656 590.0563,218.75 Q590.0094,218.3906 589.8219,218.2031 Q589.4938,217.8281 588.8844,217.6094 Q588.275,217.3906 587.65,217.3906 Q586.8844,217.3906 586.2438,217.7188 Q585.6188,218.0469 585.1188,218.7969 Q584.6344,219.5469 584.6344,220.5781 L584.6344,221.6719 Q584.6344,222.9063 585.525,223.7344 Q586.4156,224.5469 588.0094,224.5469 Q588.9469,224.5469 589.6031,224.2969 Q589.9938,224.1406 590.4156,223.7031 Q590.6813,223.4375 590.8219,223.3594 Q590.9781,223.2813 591.1813,223.2813 Q591.5094,223.2813 591.7594,223.5469 Q592.025,223.7969 592.025,224.1406 Q592.025,224.4844 591.6813,224.8906 Q591.1813,225.4688 590.3844,225.7969 Q589.3063,226.25 588.0094,226.25 Q586.4938,226.25 585.2906,225.625 Q584.3063,225.125 583.6188,224.0625 Q582.9313,222.9844 582.9313,221.7031 L582.9313,220.5469 Q582.9313,219.2188 583.5406,218.0781 Q584.1656,216.9219 585.2594,216.3125 Q586.3531,215.6875 587.5875,215.6875 Q588.3219,215.6875 588.9625,215.8594 Q589.6188,216.0156 590.1656,216.375 Z " fill="#000000"/><text fill="#000000" font-family="sans-serif" font-size="12" lengthAdjust="spacing" textLength="35" x="605.6" y="225.4102">Tarefa</text><line style="stroke:#A80036;stroke-width:1.5;" x1="554.5" x2="661.5" y1="236.5" y2="236.5"/><text fill="#000000" font-family="sans-serif" font-size="11" lengthAdjust="spacing" textLength="85" x="559.5" y="251.9189">-String referencia</text><text fill="#000000" font-family="sans-serif" font-size="11" lengthAdjust="spacing" textLength="91" x="559.5" y="265.7549">-String designacao</text><text fill="#000000" font-family="sans-serif" font-size="11" lengthAdjust="spacing" textLength="97" x="559.5" y="279.5908">-String descInformal</text><text fill="#000000" font-family="sans-serif" font-size="11" lengthAdjust="spacing" textLength="97" x="559.5" y="293.4268">-String descTecnica</text><text fill="#000000" font-family="sans-serif" font-size="11" lengthAdjust="spacing" textLength="95" x="559.5" y="307.2627">-Integer duracaoEst</text><text fill="#000000" font-family="sans-serif" font-size="11" lengthAdjust="spacing" textLength="82" x="559.5" y="321.0986">-Double custoEst</text><!--MD5=[d0e9f237fb3c72e1245c36c562ad52c4]
class TipoRegimento--><rect codeLine="25" fill="#FEFECE" filter="url(#f114jerpy80320)" height="67.6719" id="TipoRegimento" style="stroke:#A80036;stroke-width:1.5;" width="130" x="543" y="7"/><ellipse cx="563.85" cy="23" fill="#ADD1B2" rx="11" ry="11" style="stroke:#A80036;stroke-width:1.0;"/><path d="M566.6156,18.875 Q566.7719,18.6563 566.9594,18.5469 Q567.1469,18.4375 567.3656,18.4375 Q567.7406,18.4375 567.975,18.7031 Q568.2094,18.9531 568.2094,19.5625 L568.2094,21.0156 Q568.2094,21.625 567.975,21.8906 Q567.7406,22.1563 567.3656,22.1563 Q567.0219,22.1563 566.8188,21.9531 Q566.6156,21.7656 566.5063,21.25 Q566.4594,20.8906 566.2719,20.7031 Q565.9438,20.3281 565.3344,20.1094 Q564.725,19.8906 564.1,19.8906 Q563.3344,19.8906 562.6938,20.2188 Q562.0688,20.5469 561.5688,21.2969 Q561.0844,22.0469 561.0844,23.0781 L561.0844,24.1719 Q561.0844,25.4063 561.975,26.2344 Q562.8656,27.0469 564.4594,27.0469 Q565.3969,27.0469 566.0531,26.7969 Q566.4438,26.6406 566.8656,26.2031 Q567.1313,25.9375 567.2719,25.8594 Q567.4281,25.7813 567.6313,25.7813 Q567.9594,25.7813 568.2094,26.0469 Q568.475,26.2969 568.475,26.6406 Q568.475,26.9844 568.1313,27.3906 Q567.6313,27.9688 566.8344,28.2969 Q565.7563,28.75 564.4594,28.75 Q562.9438,28.75 561.7406,28.125 Q560.7563,27.625 560.0688,26.5625 Q559.3813,25.4844 559.3813,24.2031 L559.3813,23.0469 Q559.3813,21.7188 559.9906,20.5781 Q560.6156,19.4219 561.7094,18.8125 Q562.8031,18.1875 564.0375,18.1875 Q564.7719,18.1875 565.4125,18.3594 Q566.0688,18.5156 566.6156,18.875 Z " fill="#000000"/><text fill="#000000" font-family="sans-serif" font-size="12" lengthAdjust="spacing" textLength="85" x="579.15" y="27.9102">TipoRegimento</text><line style="stroke:#A80036;stroke-width:1.5;" x1="544" x2="672" y1="39" y2="39"/><text fill="#000000" font-family="sans-serif" font-size="11" lengthAdjust="spacing" textLength="91" x="549" y="54.4189">-String designacao</text><text fill="#000000" font-family="sans-serif" font-size="11" lengthAdjust="spacing" textLength="118" x="549" y="68.2549">-String descricaoRegras</text><!--MD5=[19db0db7353a4bf63eefc676e5ba9b80]
class Anuncio--><rect codeLine="31" fill="#FEFECE" filter="url(#f114jerpy80320)" height="123.0156" id="Anuncio" style="stroke:#A80036;stroke-width:1.5;" width="132" x="271" y="102.5"/><ellipse cx="311.2" cy="118.5" fill="#ADD1B2" rx="11" ry="11" style="stroke:#A80036;stroke-width:1.0;"/><path d="M313.9656,114.375 Q314.1219,114.1563 314.3094,114.0469 Q314.4969,113.9375 314.7156,113.9375 Q315.0906,113.9375 315.325,114.2031 Q315.5594,114.4531 315.5594,115.0625 L315.5594,116.5156 Q315.5594,117.125 315.325,117.3906 Q315.0906,117.6563 314.7156,117.6563 Q314.3719,117.6563 314.1688,117.4531 Q313.9656,117.2656 313.8563,116.75 Q313.8094,116.3906 313.6219,116.2031 Q313.2938,115.8281 312.6844,115.6094 Q312.075,115.3906 311.45,115.3906 Q310.6844,115.3906 310.0438,115.7188 Q309.4188,116.0469 308.9188,116.7969 Q308.4344,117.5469 308.4344,118.5781 L308.4344,119.6719 Q308.4344,120.9063 309.325,121.7344 Q310.2156,122.5469 311.8094,122.5469 Q312.7469,122.5469 313.4031,122.2969 Q313.7938,122.1406 314.2156,121.7031 Q314.4813,121.4375 314.6219,121.3594 Q314.7781,121.2813 314.9813,121.2813 Q315.3094,121.2813 315.5594,121.5469 Q315.825,121.7969 315.825,122.1406 Q315.825,122.4844 315.4813,122.8906 Q314.9813,123.4688 314.1844,123.7969 Q313.1063,124.25 311.8094,124.25 Q310.2938,124.25 309.0906,123.625 Q308.1063,123.125 307.4188,122.0625 Q306.7313,120.9844 306.7313,119.7031 L306.7313,118.5469 Q306.7313,117.2188 307.3406,116.0781 Q307.9656,114.9219 309.0594,114.3125 Q310.1531,113.6875 311.3875,113.6875 Q312.1219,113.6875 312.7625,113.8594 Q313.4188,114.0156 313.9656,114.375 Z " fill="#000000"/><text fill="#000000" font-family="sans-serif" font-size="12" lengthAdjust="spacing" textLength="44" x="330.8" y="123.4102">Anuncio</text><line style="stroke:#A80036;stroke-width:1.5;" x1="272" x2="402" y1="134.5" y2="134.5"/><text fill="#000000" font-family="sans-serif" font-size="11" lengthAdjust="spacing" textLength="119" x="277" y="149.9189">-Date dtInicioPublicitacao</text><text fill="#000000" font-family="sans-serif" font-size="11" lengthAdjust="spacing" textLength="111" x="277" y="163.7549">-Date dtFimPublicitacao</text><text fill="#000000" font-family="sans-serif" font-size="11" lengthAdjust="spacing" textLength="120" x="277" y="177.5908">-Date dtInicioCandidatura</text><text fill="#000000" font-family="sans-serif" font-size="11" lengthAdjust="spacing" textLength="112" x="277" y="191.4268">-Date dtFimCandidatura</text><text fill="#000000" font-family="sans-serif" font-size="11" lengthAdjust="spacing" textLength="105" x="277" y="205.2627">-Date dtInicioSeriacao</text><text fill="#000000" font-family="sans-serif" font-size="11" lengthAdjust="spacing" textLength="97" x="277" y="219.0986">-Date dtFimSeriacao</text><!--MD5=[807977ceb130c090ed5febfb6de2bdea]
class Organizacao--><rect codeLine="41" fill="#FEFECE" filter="url(#f114jerpy80320)" height="109.1797" id="Organizacao" style="stroke:#A80036;stroke-width:1.5;" width="101" x="286.5" y="260.5"/><ellipse cx="301.5" cy="276.5" fill="#ADD1B2" rx="11" ry="11" style="stroke:#A80036;stroke-width:1.0;"/><path d="M304.2656,272.375 Q304.4219,272.1563 304.6094,272.0469 Q304.7969,271.9375 305.0156,271.9375 Q305.3906,271.9375 305.625,272.2031 Q305.8594,272.4531 305.8594,273.0625 L305.8594,274.5156 Q305.8594,275.125 305.625,275.3906 Q305.3906,275.6563 305.0156,275.6563 Q304.6719,275.6563 304.4688,275.4531 Q304.2656,275.2656 304.1563,274.75 Q304.1094,274.3906 303.9219,274.2031 Q303.5938,273.8281 302.9844,273.6094 Q302.375,273.3906 301.75,273.3906 Q300.9844,273.3906 300.3438,273.7188 Q299.7188,274.0469 299.2188,274.7969 Q298.7344,275.5469 298.7344,276.5781 L298.7344,277.6719 Q298.7344,278.9063 299.625,279.7344 Q300.5156,280.5469 302.1094,280.5469 Q303.0469,280.5469 303.7031,280.2969 Q304.0938,280.1406 304.5156,279.7031 Q304.7813,279.4375 304.9219,279.3594 Q305.0781,279.2813 305.2813,279.2813 Q305.6094,279.2813 305.8594,279.5469 Q306.125,279.7969 306.125,280.1406 Q306.125,280.4844 305.7813,280.8906 Q305.2813,281.4688 304.4844,281.7969 Q303.4063,282.25 302.1094,282.25 Q300.5938,282.25 299.3906,281.625 Q298.4063,281.125 297.7188,280.0625 Q297.0313,278.9844 297.0313,277.7031 L297.0313,276.5469 Q297.0313,275.2188 297.6406,274.0781 Q298.2656,272.9219 299.3594,272.3125 Q300.4531,271.6875 301.6875,271.6875 Q302.4219,271.6875 303.0625,271.8594 Q303.7188,272.0156 304.2656,272.375 Z " fill="#000000"/><text fill="#000000" font-family="sans-serif" font-size="12" lengthAdjust="spacing" textLength="69" x="315.5" y="281.4102">Organizacao</text><line style="stroke:#A80036;stroke-width:1.5;" x1="287.5" x2="386.5" y1="292.5" y2="292.5"/><text fill="#000000" font-family="sans-serif" font-size="11" lengthAdjust="spacing" textLength="61" x="292.5" y="307.9189">-String nome</text><text fill="#000000" font-family="sans-serif" font-size="11" lengthAdjust="spacing" textLength="50" x="292.5" y="321.7549">-String NIF</text><text fill="#000000" font-family="sans-serif" font-size="11" lengthAdjust="spacing" textLength="74" x="292.5" y="335.5908">-String website</text><text fill="#000000" font-family="sans-serif" font-size="11" lengthAdjust="spacing" textLength="74" x="292.5" y="349.4268">-String telefone</text><text fill="#000000" font-family="sans-serif" font-size="11" lengthAdjust="spacing" textLength="59" x="292.5" y="363.2627">-String email</text><!--MD5=[3d9e8e0d764359bffb897b36dc4b633a]
link Plataforma to Anuncio--><path codeLine="49" d="M110.21,164 C155.43,164 221.86,164 270.97,164 " fill="none" id="Plataforma-Anuncio" style="stroke:#A80036;stroke-width:1.0;"/><polygon fill="#000000" points="169,155.1758,159.9549,152.2369,159.9549,158.1147,169,155.1758" style="stroke:#000000;stroke-width:1.0;"/><text fill="#000000" font-family="sans-serif" font-size="13" lengthAdjust="spacing" textLength="48" x="173" y="160.4951">publicita</text><text fill="#000000" font-family="sans-serif" font-size="13" lengthAdjust="spacing" textLength="7" x="117.9739" y="178.6564">1</text><text fill="#000000" font-family="sans-serif" font-size="13" lengthAdjust="spacing" textLength="5" x="258.0462" y="178.4395">*</text><!--MD5=[956ecced288de5de0c5f024757c210bf]
link Plataforma to TipoRegimento--><path codeLine="50" d="M110.41,142.22 C152.76,124.78 214.95,100.71 271,85 C341.59,65.22 360.33,63.64 433,54 C469.19,49.2 509.86,46.04 542.78,44.04 " fill="none" id="Plataforma-TipoRegimento" style="stroke:#A80036;stroke-width:1.0;"/><polygon fill="#000000" points="317.8759,49.0686,308.4045,48.2055,309.7061,53.9375,317.8759,49.0686" style="stroke:#000000;stroke-width:1.0;"/><text fill="#000000" font-family="sans-serif" font-size="13" lengthAdjust="spacing" textLength="43" x="322" y="55.4951">suporta</text><text fill="#000000" font-family="sans-serif" font-size="13" lengthAdjust="spacing" textLength="7" x="117.8557" y="153.8981">1</text><text fill="#000000" font-family="sans-serif" font-size="13" lengthAdjust="spacing" textLength="5" x="529.9499" y="58.8509">*</text><!--MD5=[1c2ad462e362697fcdc859a6327d55c7]
link Plataforma to Organizacao--><path codeLine="51" d="M109.25,191.17 C159.32,218.51 236.09,260.44 286.18,287.79 " fill="none" id="Plataforma-Organizacao" style="stroke:#A80036;stroke-width:1.0;"/><polygon fill="#000000" points="149.3883,202.5722,142.8584,195.6577,140.0412,200.8164,149.3883,202.5722" style="stroke:#000000;stroke-width:1.0;"/><text fill="#000000" font-family="sans-serif" font-size="13" lengthAdjust="spacing" textLength="86" x="154" y="205.4951">tem registadas</text><text fill="#000000" font-family="sans-serif" font-size="13" lengthAdjust="spacing" textLength="7" x="112.5859" y="212.415">1</text><text fill="#000000" font-family="sans-serif" font-size="13" lengthAdjust="spacing" textLength="5" x="273.3486" y="298.4763">*</text><!--MD5=[cf2deab2ed1f09cef5b70f58ef028e55]
link Organizacao to Tarefa--><path codeLine="53" d="M387.63,316.09 C423,315.85 471.44,313.45 513,304 C526.39,300.96 540.34,296.24 553.28,291.15 " fill="none" id="Organizacao-Tarefa" style="stroke:#A80036;stroke-width:1.0;"/><polygon fill="#000000" points="456.4443,294.4314,447.0624,292.8718,447.9375,298.6842,456.4443,294.4314" style="stroke:#000000;stroke-width:1.0;"/><text fill="#000000" font-family="sans-serif" font-size="13" lengthAdjust="spacing" textLength="38" x="460.5" y="300.4951">possui</text><text fill="#000000" font-family="sans-serif" font-size="13" lengthAdjust="spacing" textLength="7" x="395.5803" y="330.9328">1</text><text fill="#000000" font-family="sans-serif" font-size="13" lengthAdjust="spacing" textLength="5" x="540.5911" y="309.1222">*</text><!--MD5=[ebe0b2adceebb6ee2636cb1948c7c8a9]
link Tarefa to Colaborador--><path codeLine="55" d="M662.8,253.43 C714.35,241.39 791.52,223.36 841.69,211.64 " fill="none" id="Tarefa-Colaborador" style="stroke:#A80036;stroke-width:1.0;"/><polygon fill="#000000" points="712.8689,210.0384,703.3924,209.2341,704.7295,214.9578,712.8689,210.0384" style="stroke:#000000;stroke-width:1.0;"/><text fill="#000000" font-family="sans-serif" font-size="13" lengthAdjust="spacing" textLength="94" x="717" y="216.4951">especificada por</text><text fill="#000000" font-family="sans-serif" font-size="13" lengthAdjust="spacing" textLength="5" x="670.4997" y="266.3336">*</text><text fill="#000000" font-family="sans-serif" font-size="13" lengthAdjust="spacing" textLength="7" x="827.0527" y="227.8975">1</text><!--MD5=[439a6ad1de0b5aa57a973cae1bf36ce5]
link Anuncio to Tarefa--><path codeLine="57" d="M403.41,180.68 C436.73,189.96 477.58,202.55 513,217 C526.29,222.42 540.21,229.09 553.14,235.74 " fill="none" id="Anuncio-Tarefa" style="stroke:#A80036;stroke-width:1.0;"/><polygon fill="#000000" points="451.1928,183.9014,443.7178,178.0213,441.6891,183.538,451.1928,183.9014" style="stroke:#000000;stroke-width:1.0;"/><text fill="#000000" font-family="sans-serif" font-size="13" lengthAdjust="spacing" textLength="48" x="455.5" y="187.4951">publicita</text><text fill="#000000" font-family="sans-serif" font-size="13" lengthAdjust="spacing" textLength="22" x="411.03" y="196.6211">0..1</text><text fill="#000000" font-family="sans-serif" font-size="13" lengthAdjust="spacing" textLength="7" x="538.6626" y="246.4046">1</text><!--MD5=[439a6ad1de0b5aa57a973cae1bf36ce5]
link Anuncio to Tarefa--><path codeLine="58" d="M402.82,225.64 C412.41,232.38 422.59,238.44 433,243 C470.96,259.62 517.7,265.07 553.17,266.53 " fill="none" id="Anuncio-Tarefa-1" style="stroke:#A80036;stroke-width:1.0;"/><polygon fill="#000000" points="437.1752,232.8636,445.132,238.0733,446.6746,232.4014,437.1752,232.8636" style="stroke:#000000;stroke-width:1.0;"/><text fill="#000000" font-family="sans-serif" font-size="13" lengthAdjust="spacing" textLength="57" x="451" y="239.4951">dá origem</text><text fill="#000000" font-family="sans-serif" font-size="13" lengthAdjust="spacing" textLength="22" x="387.1586" y="247.2067">0..1</text><text fill="#000000" font-family="sans-serif" font-size="13" lengthAdjust="spacing" textLength="7" x="538.3319" y="281.1939">1</text><!--MD5=[3fb03004f687adcfc695220fdd65ad26]
link Anuncio to TipoRegimento--><path codeLine="59" d="M403.23,127.88 C413.12,122.72 423.27,117.61 433,113 C468.75,96.06 509.57,79.05 542.69,65.82 " fill="none" id="Anuncio-TipoRegimento" style="stroke:#A80036;stroke-width:1.0;"/><polygon fill="#000000" points="442.5681,69.143,433.1095,70.1353,435.4992,75.5054,442.5681,69.143" style="stroke:#000000;stroke-width:1.0;"/><text fill="#000000" font-family="sans-serif" font-size="13" lengthAdjust="spacing" textLength="65" x="447" y="76.4951">rege-se por</text><text fill="#000000" font-family="sans-serif" font-size="13" lengthAdjust="spacing" textLength="5" x="411.1769" y="138.1432">*</text><text fill="#000000" font-family="sans-serif" font-size="13" lengthAdjust="spacing" textLength="7" x="528.1639" y="82.942">1</text><!--MD5=[0a535575571876f6213287bf563a867d]
link Anuncio to Colaborador--><path codeLine="60" d="M403.27,163.03 C436.2,162.89 476.74,163.22 513,165 C631.31,170.8 769.8,185.67 842,194.04 " fill="none" id="Anuncio-Colaborador" style="stroke:#A80036;stroke-width:1.0;"/><polygon fill="#000000" points="571.9876,158.5283,563.1722,154.959,562.7578,160.8222,571.9876,158.5283" style="stroke:#000000;stroke-width:1.0;"/><text fill="#000000" font-family="sans-serif" font-size="13" lengthAdjust="spacing" textLength="77" x="576" y="163.4951">publicado por</text><text fill="#000000" font-family="sans-serif" font-size="13" lengthAdjust="spacing" textLength="5" x="410.7917" y="177.3124">*</text><text fill="#000000" font-family="sans-serif" font-size="13" lengthAdjust="spacing" textLength="7" x="827.0688" y="207.8353">1</text><!--MD5=[3f25bd55d00e62009f8de5db4acf331f]
@startuml
skinparam classAttributeIconSize 0
hide methods
left to right direction

class Plataforma {
  -String designacao
}

class Colaborador {
  -String nome
  -String funcao
  -String telefone
  -String email
}

class Tarefa {
  -String referencia
  -String designacao
  -String descInformal
  -String descTecnica
  -Integer duracaoEst
  -Double custoEst
}

class TipoRegimento
{
    -String designacao
    -String descricaoRegras
}

class Anuncio
{
    -Date dtInicioPublicitacao
    -Date dtFimPublicitacao
    -Date dtInicioCandidatura
    -Date dtFimCandidatura
    -Date dtInicioSeriacao
    -Date dtFimSeriacao
}

class Organizacao {
  -String nome
  -String NIF
  -String website
  -String telefone
  -String email
}

Plataforma "1" - - "*" Anuncio : publicita >
Plataforma "1" - - "*" TipoRegimento : suporta >
Plataforma "1" - - "*" Organizacao : tem registadas >

Organizacao "1" - - "*" Tarefa: possui >

Tarefa "*" - - "1" Colaborador: especificada por >

Anuncio "0..1" - - "1" Tarefa: publicita >
Anuncio "0..1" - - "1" Tarefa: dá origem <
Anuncio "*" - - "1" TipoRegimento: rege-se por >
Anuncio "*" - - "1" Colaborador: publicado por >

@enduml

PlantUML version 1.2021.00(Sun Jan 10 10:25:05 WET 2021)
(GPL source distribution)
Java Runtime: Java(TM) SE Runtime Environment
JVM: Java HotSpot(TM) 64-Bit Server VM
Default Encoding: Cp1252
Language: pt
Country: PT
--></g></svg>