<?xml version="1.0" encoding="UTF-8" standalone="no"?><svg xmlns="http://www.w3.org/2000/svg" xmlns:xlink="http://www.w3.org/1999/xlink" contentScriptType="application/ecmascript" contentStyleType="text/css" height="914px" preserveAspectRatio="none" style="width:669px;height:914px;" version="1.1" viewBox="0 0 669 914" width="669px" zoomAndPan="magnify"><defs><filter height="300%" id="fsl3mdc344nf1" width="300%" x="-1" y="-1"><feGaussianBlur result="blurOut" stdDeviation="2.0"/><feColorMatrix in="blurOut" result="blurOut2" type="matrix" values="0 0 0 0 0 0 0 0 0 0 0 0 0 0 0 0 0 0 .4 0"/><feOffset dx="4.0" dy="4.0" in="blurOut2" result="blurOut3"/><feBlend in="SourceGraphic" in2="blurOut3" mode="normal"/></filter></defs><g><!--MD5=[f83ae91a690dfc657e1c5fbbd818f13d]
entity a--><ellipse cx="87" cy="715" fill="#FEFECE" filter="url(#fsl3mdc344nf1)" rx="8" ry="8" style="stroke:#A80036;stroke-width:1.5;"/><path d="M87,723 L87,750 M74,731 L100,731 M87,750 L74,765 M87,750 L100,765 " fill="none" filter="url(#fsl3mdc344nf1)" style="stroke:#A80036;stroke-width:1.5;"/><text fill="#000000" font-family="sans-serif" font-size="14" lengthAdjust="spacing" textLength="88" x="43" y="785.0332">Administrativo</text><!--MD5=[338e9af232e5abde8a6bc8ae9f528414]
entity g--><ellipse cx="87" cy="497" fill="#FEFECE" filter="url(#fsl3mdc344nf1)" rx="8" ry="8" style="stroke:#A80036;stroke-width:1.5;"/><path d="M87,505 L87,532 M74,513 L100,513 M87,532 L74,547 M87,532 L100,547 " fill="none" filter="url(#fsl3mdc344nf1)" style="stroke:#A80036;stroke-width:1.5;"/><text fill="#000000" font-family="sans-serif" font-size="14" lengthAdjust="spacing" textLength="43" x="65.5" y="567.0332">Gestor</text><!--MD5=[8e9b2d9d80e066cced8e5d90e9bdea61]
entity c--><ellipse cx="87" cy="291" fill="#FEFECE" filter="url(#fsl3mdc344nf1)" rx="8" ry="8" style="stroke:#A80036;stroke-width:1.5;"/><path d="M87,299 L87,326 M74,307 L100,307 M87,326 L74,341 M87,326 L100,341 " fill="none" filter="url(#fsl3mdc344nf1)" style="stroke:#A80036;stroke-width:1.5;"/><text fill="#000000" font-family="sans-serif" font-size="14" lengthAdjust="spacing" textLength="79" x="47.5" y="361.0332">Colaborador</text><!--MD5=[7d46d6cd919e02e6168a09ad91eae8b4]
entity u--><ellipse cx="87" cy="132" fill="#FEFECE" filter="url(#fsl3mdc344nf1)" rx="8" ry="8" style="stroke:#A80036;stroke-width:1.5;"/><path d="M87,140 L87,167 M74,148 L100,148 M87,167 L74,182 M87,167 L100,182 " fill="none" filter="url(#fsl3mdc344nf1)" style="stroke:#A80036;stroke-width:1.5;"/><text fill="#000000" font-family="sans-serif" font-size="14" lengthAdjust="spacing" textLength="162" x="6" y="202.0332">Utilizador_Não_Registado</text><!--MD5=[8f89c3b771be60a8fe1c771d5b27a045]
entity f--><ellipse cx="87" cy="14" fill="#FEFECE" filter="url(#fsl3mdc344nf1)" rx="8" ry="8" style="stroke:#A80036;stroke-width:1.5;"/><path d="M87,22 L87,49 M74,30 L100,30 M87,49 L74,64 M87,49 L100,64 " fill="none" filter="url(#fsl3mdc344nf1)" style="stroke:#A80036;stroke-width:1.5;"/><text fill="#000000" font-family="sans-serif" font-size="14" lengthAdjust="spacing" textLength="69" x="52.5" y="84.0332">Freelancer</text><ellipse cx="442.2512" cy="163.8502" fill="#FEFECE" filter="url(#fsl3mdc344nf1)" rx="107.2512" ry="23.8502" style="stroke:#A80036;stroke-width:1.5;"/><text fill="#000000" font-family="sans-serif" font-size="14" lengthAdjust="spacing" textLength="177" x="353.7512" y="167.5788">UC1 - Registar Organização</text><ellipse cx="442.3945" cy="614.1789" fill="#FEFECE" filter="url(#fsl3mdc344nf1)" rx="116.3945" ry="25.6789" style="stroke:#A80036;stroke-width:1.5;"/><text fill="#000000" font-family="sans-serif" font-size="14" lengthAdjust="spacing" textLength="197" x="343.8945" y="617.9074">UC2 - Definir Área de Atividade</text><ellipse cx="442.3069" cy="702.1614" fill="#FEFECE" filter="url(#fsl3mdc344nf1)" rx="123.8069" ry="27.1614" style="stroke:#A80036;stroke-width:1.5;"/><text fill="#000000" font-family="sans-serif" font-size="14" lengthAdjust="spacing" textLength="213" x="335.8069" y="705.8899">UC3 - Definir Categoria de Tarefa</text><ellipse cx="442.641" cy="793.1282" fill="#FEFECE" filter="url(#fsl3mdc344nf1)" rx="133.641" ry="29.1282" style="stroke:#A80036;stroke-width:1.5;"/><text fill="#000000" font-family="sans-serif" font-size="14" lengthAdjust="spacing" textLength="234" x="325.641" y="796.8567">UC4 - Registar Competência Técnica</text><ellipse cx="442.2982" cy="528.7596" fill="#FEFECE" filter="url(#fsl3mdc344nf1)" rx="106.7982" ry="23.7596" style="stroke:#A80036;stroke-width:1.5;"/><text fill="#000000" font-family="sans-serif" font-size="14" lengthAdjust="spacing" textLength="176" x="354.2982" y="532.4882">UC5 - Registar Colaborador</text><ellipse cx="442.3945" cy="244.8789" fill="#FEFECE" filter="url(#fsl3mdc344nf1)" rx="97.3945" ry="21.8789" style="stroke:#A80036;stroke-width:1.5;"/><text fill="#000000" font-family="sans-serif" font-size="14" lengthAdjust="spacing" textLength="155" x="364.8945" y="248.6074">UC6 - Especificar Tarefa</text><ellipse cx="442.2928" cy="879.8586" fill="#FEFECE" filter="url(#fsl3mdc344nf1)" rx="102.2928" ry="22.8586" style="stroke:#A80036;stroke-width:1.5;"/><text fill="#000000" font-family="sans-serif" font-size="14" lengthAdjust="spacing" textLength="166" x="359.2928" y="883.5871">UC7 - Registar Freelancer</text><ellipse cx="442.535" cy="322.807" fill="#FEFECE" filter="url(#fsl3mdc344nf1)" rx="89.535" ry="20.307" style="stroke:#A80036;stroke-width:1.5;"/><text fill="#000000" font-family="sans-serif" font-size="14" lengthAdjust="spacing" textLength="137" x="374.035" y="326.5355">UC8 - Publicar Tarefa</text><ellipse cx="442.6901" cy="46.038" fill="#FEFECE" filter="url(#fsl3mdc344nf1)" rx="103.1901" ry="23.038" style="stroke:#A80036;stroke-width:1.5;"/><text fill="#000000" font-family="sans-serif" font-size="14" lengthAdjust="spacing" textLength="168" x="358.6901" y="49.7665">UC9 - Efetuar Candidatura</text><ellipse cx="442.6295" cy="423.8259" fill="#FEFECE" filter="url(#fsl3mdc344nf1)" rx="214.6295" ry="45.3259" style="stroke:#A80036;stroke-width:1.5;"/><text fill="#000000" font-family="sans-serif" font-size="14" lengthAdjust="spacing" textLength="402" x="241.6295" y="427.5544">UC10 - Seriar (Não Automaticamente) Candidaturas de Anúncio</text><!--MD5=[029537e5e4461a0df5daea802c84c937]
link u to UC1--><path d="M168.21,164 C215.97,164 277.29,164 329.74,164 " fill="none" id="u-to-UC1" style="stroke:#A80036;stroke-width:1.0;"/><polygon fill="#A80036" points="334.79,164,325.79,160,329.79,164,325.79,168,334.79,164" style="stroke:#A80036;stroke-width:1.0;"/><!--MD5=[46a88b67fe0fb697a9d600a230bce57d]
link a to UC2--><path d="M131.14,713.76 C157.74,694.78 193.3,672.05 228,658 C262.19,644.16 301.29,634.48 336.6,627.8 " fill="none" id="a-to-UC2" style="stroke:#A80036;stroke-width:1.0;"/><polygon fill="#A80036" points="341.78,626.83,332.2002,624.5437,336.8643,627.7445,333.6635,632.4087,341.78,626.83" style="stroke:#A80036;stroke-width:1.0;"/><!--MD5=[edf70f88007b3901b64f31ed49bfd97b]
link a to UC3--><path d="M131.35,741.48 C180.49,735.23 262.53,724.78 329.89,716.21 " fill="none" id="a-to-UC3" style="stroke:#A80036;stroke-width:1.0;"/><polygon fill="#A80036" points="335.12,715.54,325.6883,712.7039,330.1597,716.169,326.6947,720.6404,335.12,715.54" style="stroke:#A80036;stroke-width:1.0;"/><!--MD5=[ced53a2e1ee50106e9ee477c87b6a0fe]
link a to UC4--><path d="M131.35,752.64 C178.69,758.8 256.57,768.94 322.44,777.51 " fill="none" id="a-to-UC4" style="stroke:#A80036;stroke-width:1.0;"/><polygon fill="#A80036" points="327.57,778.17,319.1737,773.022,322.6134,777.5129,318.1224,780.9526,327.57,778.17" style="stroke:#A80036;stroke-width:1.0;"/><!--MD5=[873fd7628c5de9ac019650d6894f8b6f]
link g to UC5--><path d="M108.53,529 C150.93,529 250.8,529 330.18,529 " fill="none" id="g-to-UC5" style="stroke:#A80036;stroke-width:1.0;"/><polygon fill="#A80036" points="335.37,529,326.37,525,330.37,529,326.37,533,335.37,529" style="stroke:#A80036;stroke-width:1.0;"/><!--MD5=[be446986d62d845f7e8321f52bb108a8]
link c to UC6--><path d="M126.72,311.6 C154.71,303.57 193.51,292.9 228,285 C270.83,275.19 318.9,266.03 358.57,258.95 " fill="none" id="c-to-UC6" style="stroke:#A80036;stroke-width:1.0;"/><polygon fill="#A80036" points="363.86,258.01,354.301,255.6381,358.9364,258.8806,355.6939,263.5159,363.86,258.01" style="stroke:#A80036;stroke-width:1.0;"/><!--MD5=[9d82192c559cb5c33c61ea0700ac5f42]
link a to UC7--><path d="M131.12,782.27 C157.57,802.15 192.99,825.78 228,840 C264.28,854.73 306.25,864.1 343.34,870.02 " fill="none" id="a-to-UC7" style="stroke:#A80036;stroke-width:1.0;"/><polygon fill="#A80036" points="348.3,870.8,340.0268,865.4564,343.3601,870.0268,338.7897,873.3601,348.3,870.8" style="stroke:#A80036;stroke-width:1.0;"/><!--MD5=[32406a9a5857d0c21297695dad0afb03]
link c to UC8--><path d="M126.5,323 C179.19,323 275.45,323 347.74,323 " fill="none" id="c-to-UC8" style="stroke:#A80036;stroke-width:1.0;"/><polygon fill="#A80036" points="352.91,323,343.91,319,347.91,323,343.91,327,352.91,323" style="stroke:#A80036;stroke-width:1.0;"/><!--MD5=[885a400c4d62c318d52c8ee3529c7f6b]
link f to UC9--><path d="M121.58,46 C169.96,46 261.48,46 334.28,46 " fill="none" id="f-to-UC9" style="stroke:#A80036;stroke-width:1.0;"/><polygon fill="#A80036" points="339.49,46,330.49,42,334.49,46,330.49,50,339.49,46" style="stroke:#A80036;stroke-width:1.0;"/><!--MD5=[add390f671fa171983b177096772cbd2]
link c to UC10--><path d="M126.5,334 C170.1,346.46 243.54,367.44 308.55,386.01 " fill="none" id="c-to-UC10" style="stroke:#A80036;stroke-width:1.0;"/><polygon fill="#A80036" points="313.61,387.46,306.0502,381.1473,308.8013,386.0902,303.8585,388.8413,313.61,387.46" style="stroke:#A80036;stroke-width:1.0;"/><!--MD5=[15c7252f1b3129e91e514b617a30ce63]
@startuml

left to right direction

actor Administrativo AS a
actor Gestor AS g
actor Colaborador AS c
actor Utilizador_Não_Registado AS u
actor Freelancer AS f

usecase "UC1 - Registar Organização" AS UC1
usecase "UC2 - Definir Área de Atividade" AS UC2
usecase "UC3 - Definir Categoria de Tarefa" AS UC3
usecase "UC4 - Registar Competência Técnica" AS UC4
usecase "UC5 - Registar Colaborador" AS UC5
usecase "UC6 - Especificar Tarefa" AS UC6
usecase "UC7 - Registar Freelancer" AS UC7
usecase "UC8 - Publicar Tarefa" AS UC8
usecase "UC9 - Efetuar Candidatura" AS UC9
usecase "UC10 - Seriar (Não Automaticamente) Candidaturas de Anúncio" AS UC10

u - -> UC1
a - -> UC2
a - -> UC3 
a - -> UC4
g - -> UC5 
c - -> UC6
a - -> UC7 
c - -> UC8
f - -> UC9 
c - -> UC10

@enduml

PlantUML version 1.2021.00(Sun Jan 10 10:25:05 WET 2021)
(GPL source distribution)
Java Runtime: Java(TM) SE Runtime Environment
JVM: Java HotSpot(TM) 64-Bit Server VM
Default Encoding: Cp1252
Language: pt
Country: PT
--></g></svg>