<?xml version="1.0" encoding="UTF-8" standalone="no"?><svg xmlns="http://www.w3.org/2000/svg" xmlns:xlink="http://www.w3.org/1999/xlink" contentScriptType="application/ecmascript" contentStyleType="text/css" height="1243px" preserveAspectRatio="none" style="width:3413px;height:1243px;" version="1.1" viewBox="0 0 3413 1243" width="3413px" zoomAndPan="magnify"><defs><filter height="300%" id="fixpti083txzp" width="300%" x="-1" y="-1"><feGaussianBlur result="blurOut" stdDeviation="2.0"/><feColorMatrix in="blurOut" result="blurOut2" type="matrix" values="0 0 0 0 0 0 0 0 0 0 0 0 0 0 0 0 0 0 .4 0"/><feOffset dx="4.0" dy="4.0" in="blurOut2" result="blurOut3"/><feBlend in="SourceGraphic" in2="blurOut3" mode="normal"/></filter></defs><g><!--MD5=[ecaed46f78f8cfe1e9ce18477649be18]
class Plataforma--><rect codeLine="5" fill="#FEFECE" filter="url(#fixpti083txzp)" height="53.8359" id="Plataforma" style="stroke:#A80036;stroke-width:1.5;" width="103" x="7" y="298.3564"/><ellipse cx="26.95" cy="314.3564" fill="#ADD1B2" rx="11" ry="11" style="stroke:#A80036;stroke-width:1.0;"/><path d="M29.7156,310.2314 Q29.8719,310.0127 30.0594,309.9033 Q30.2469,309.7939 30.4656,309.7939 Q30.8406,309.7939 31.075,310.0596 Q31.3094,310.3096 31.3094,310.9189 L31.3094,312.3721 Q31.3094,312.9814 31.075,313.2471 Q30.8406,313.5127 30.4656,313.5127 Q30.1219,313.5127 29.9188,313.3096 Q29.7156,313.1221 29.6063,312.6064 Q29.5594,312.2471 29.3719,312.0596 Q29.0438,311.6846 28.4344,311.4658 Q27.825,311.2471 27.2,311.2471 Q26.4344,311.2471 25.7938,311.5752 Q25.1688,311.9033 24.6688,312.6533 Q24.1844,313.4033 24.1844,314.4346 L24.1844,315.5283 Q24.1844,316.7627 25.075,317.5908 Q25.9656,318.4033 27.5594,318.4033 Q28.4969,318.4033 29.1531,318.1533 Q29.5438,317.9971 29.9656,317.5596 Q30.2313,317.2939 30.3719,317.2158 Q30.5281,317.1377 30.7313,317.1377 Q31.0594,317.1377 31.3094,317.4033 Q31.575,317.6533 31.575,317.9971 Q31.575,318.3408 31.2313,318.7471 Q30.7313,319.3252 29.9344,319.6533 Q28.8563,320.1064 27.5594,320.1064 Q26.0438,320.1064 24.8406,319.4814 Q23.8563,318.9814 23.1688,317.9189 Q22.4813,316.8408 22.4813,315.5596 L22.4813,314.4033 Q22.4813,313.0752 23.0906,311.9346 Q23.7156,310.7783 24.8094,310.1689 Q25.9031,309.5439 27.1375,309.5439 Q27.8719,309.5439 28.5125,309.7158 Q29.1688,309.8721 29.7156,310.2314 Z " fill="#000000"/><text fill="#000000" font-family="sans-serif" font-size="12" lengthAdjust="spacing" textLength="60" x="42.05" y="319.2666">Plataforma</text><line style="stroke:#A80036;stroke-width:1.5;" x1="8" x2="109" y1="330.3564" y2="330.3564"/><text fill="#000000" font-family="sans-serif" font-size="11" lengthAdjust="spacing" textLength="91" x="13" y="345.7754">-String designacao</text><!--MD5=[02456e6632d968d6f68141e5893c6991]
class AreaAtividade--><rect codeLine="9" fill="#FEFECE" filter="url(#fixpti083txzp)" height="81.5078" id="AreaAtividade" style="stroke:#A80036;stroke-width:1.5;" width="119" x="3096" y="149.3564"/><ellipse cx="3116.85" cy="165.3564" fill="#ADD1B2" rx="11" ry="11" style="stroke:#A80036;stroke-width:1.0;"/><path d="M3119.6156,161.2314 Q3119.7719,161.0127 3119.9594,160.9033 Q3120.1469,160.7939 3120.3656,160.7939 Q3120.7406,160.7939 3120.975,161.0596 Q3121.2094,161.3096 3121.2094,161.9189 L3121.2094,163.3721 Q3121.2094,163.9814 3120.975,164.2471 Q3120.7406,164.5127 3120.3656,164.5127 Q3120.0219,164.5127 3119.8188,164.3096 Q3119.6156,164.1221 3119.5063,163.6064 Q3119.4594,163.2471 3119.2719,163.0596 Q3118.9438,162.6846 3118.3344,162.4658 Q3117.725,162.2471 3117.1,162.2471 Q3116.3344,162.2471 3115.6938,162.5752 Q3115.0688,162.9033 3114.5688,163.6533 Q3114.0844,164.4033 3114.0844,165.4346 L3114.0844,166.5283 Q3114.0844,167.7627 3114.975,168.5908 Q3115.8656,169.4033 3117.4594,169.4033 Q3118.3969,169.4033 3119.0531,169.1533 Q3119.4438,168.9971 3119.8656,168.5596 Q3120.1313,168.2939 3120.2719,168.2158 Q3120.4281,168.1377 3120.6313,168.1377 Q3120.9594,168.1377 3121.2094,168.4033 Q3121.475,168.6533 3121.475,168.9971 Q3121.475,169.3408 3121.1313,169.7471 Q3120.6313,170.3252 3119.8344,170.6533 Q3118.7563,171.1064 3117.4594,171.1064 Q3115.9438,171.1064 3114.7406,170.4814 Q3113.7563,169.9814 3113.0688,168.9189 Q3112.3813,167.8408 3112.3813,166.5596 L3112.3813,165.4033 Q3112.3813,164.0752 3112.9906,162.9346 Q3113.6156,161.7783 3114.7094,161.1689 Q3115.8031,160.5439 3117.0375,160.5439 Q3117.7719,160.5439 3118.4125,160.7158 Q3119.0688,160.8721 3119.6156,161.2314 Z " fill="#000000"/><text fill="#000000" font-family="sans-serif" font-size="12" lengthAdjust="spacing" textLength="74" x="3132.15" y="170.2666">AreaAtividade</text><line style="stroke:#A80036;stroke-width:1.5;" x1="3097" x2="3214" y1="181.3564" y2="181.3564"/><text fill="#000000" font-family="sans-serif" font-size="11" lengthAdjust="spacing" textLength="43" x="3102" y="196.7754">-String id</text><text fill="#000000" font-family="sans-serif" font-size="11" lengthAdjust="spacing" textLength="88" x="3102" y="210.6113">-String descBreve</text><text fill="#000000" font-family="sans-serif" font-size="11" lengthAdjust="spacing" textLength="107" x="3102" y="224.4473">-String descDetalhada</text><!--MD5=[a322db5a7ec64d2ff8f2d6cf1831dcec]
class CompetenciaTecnica--><rect codeLine="16" fill="#FEFECE" filter="url(#fixpti083txzp)" height="81.5078" id="CompetenciaTecnica" style="stroke:#A80036;stroke-width:1.5;" width="149" x="2420.5" y="184.3564"/><ellipse cx="2435.5" cy="200.3564" fill="#ADD1B2" rx="11" ry="11" style="stroke:#A80036;stroke-width:1.0;"/><path d="M2438.2656,196.2314 Q2438.4219,196.0127 2438.6094,195.9033 Q2438.7969,195.7939 2439.0156,195.7939 Q2439.3906,195.7939 2439.625,196.0596 Q2439.8594,196.3096 2439.8594,196.9189 L2439.8594,198.3721 Q2439.8594,198.9814 2439.625,199.2471 Q2439.3906,199.5127 2439.0156,199.5127 Q2438.6719,199.5127 2438.4688,199.3096 Q2438.2656,199.1221 2438.1563,198.6064 Q2438.1094,198.2471 2437.9219,198.0596 Q2437.5938,197.6846 2436.9844,197.4658 Q2436.375,197.2471 2435.75,197.2471 Q2434.9844,197.2471 2434.3438,197.5752 Q2433.7188,197.9033 2433.2188,198.6533 Q2432.7344,199.4033 2432.7344,200.4346 L2432.7344,201.5283 Q2432.7344,202.7627 2433.625,203.5908 Q2434.5156,204.4033 2436.1094,204.4033 Q2437.0469,204.4033 2437.7031,204.1533 Q2438.0938,203.9971 2438.5156,203.5596 Q2438.7813,203.2939 2438.9219,203.2158 Q2439.0781,203.1377 2439.2813,203.1377 Q2439.6094,203.1377 2439.8594,203.4033 Q2440.125,203.6533 2440.125,203.9971 Q2440.125,204.3408 2439.7813,204.7471 Q2439.2813,205.3252 2438.4844,205.6533 Q2437.4063,206.1064 2436.1094,206.1064 Q2434.5938,206.1064 2433.3906,205.4814 Q2432.4063,204.9814 2431.7188,203.9189 Q2431.0313,202.8408 2431.0313,201.5596 L2431.0313,200.4033 Q2431.0313,199.0752 2431.6406,197.9346 Q2432.2656,196.7783 2433.3594,196.1689 Q2434.4531,195.5439 2435.6875,195.5439 Q2436.4219,195.5439 2437.0625,195.7158 Q2437.7188,195.8721 2438.2656,196.2314 Z " fill="#000000"/><text fill="#000000" font-family="sans-serif" font-size="12" lengthAdjust="spacing" textLength="117" x="2449.5" y="205.2666">CompetenciaTecnica</text><line style="stroke:#A80036;stroke-width:1.5;" x1="2421.5" x2="2568.5" y1="216.3564" y2="216.3564"/><text fill="#000000" font-family="sans-serif" font-size="11" lengthAdjust="spacing" textLength="67" x="2426.5" y="231.7754">-String codigo</text><text fill="#000000" font-family="sans-serif" font-size="11" lengthAdjust="spacing" textLength="88" x="2426.5" y="245.6113">-String descBreve</text><text fill="#000000" font-family="sans-serif" font-size="11" lengthAdjust="spacing" textLength="107" x="2426.5" y="259.4473">-String descDetalhada</text><!--MD5=[0d4fe674cc1d46ec0fc990086e50801a]
class GrauProficiencia--><rect codeLine="22" fill="#FEFECE" filter="url(#fixpti083txzp)" height="67.6719" id="GrauProficiencia" style="stroke:#A80036;stroke-width:1.5;" width="123" x="3276" y="362.3564"/><ellipse cx="3291" cy="378.3564" fill="#ADD1B2" rx="11" ry="11" style="stroke:#A80036;stroke-width:1.0;"/><path d="M3293.7656,374.2314 Q3293.9219,374.0127 3294.1094,373.9033 Q3294.2969,373.7939 3294.5156,373.7939 Q3294.8906,373.7939 3295.125,374.0596 Q3295.3594,374.3096 3295.3594,374.9189 L3295.3594,376.3721 Q3295.3594,376.9814 3295.125,377.2471 Q3294.8906,377.5127 3294.5156,377.5127 Q3294.1719,377.5127 3293.9688,377.3096 Q3293.7656,377.1221 3293.6563,376.6064 Q3293.6094,376.2471 3293.4219,376.0596 Q3293.0938,375.6846 3292.4844,375.4658 Q3291.875,375.2471 3291.25,375.2471 Q3290.4844,375.2471 3289.8438,375.5752 Q3289.2188,375.9033 3288.7188,376.6533 Q3288.2344,377.4033 3288.2344,378.4346 L3288.2344,379.5283 Q3288.2344,380.7627 3289.125,381.5908 Q3290.0156,382.4033 3291.6094,382.4033 Q3292.5469,382.4033 3293.2031,382.1533 Q3293.5938,381.9971 3294.0156,381.5596 Q3294.2813,381.2939 3294.4219,381.2158 Q3294.5781,381.1377 3294.7813,381.1377 Q3295.1094,381.1377 3295.3594,381.4033 Q3295.625,381.6533 3295.625,381.9971 Q3295.625,382.3408 3295.2813,382.7471 Q3294.7813,383.3252 3293.9844,383.6533 Q3292.9063,384.1064 3291.6094,384.1064 Q3290.0938,384.1064 3288.8906,383.4814 Q3287.9063,382.9814 3287.2188,381.9189 Q3286.5313,380.8408 3286.5313,379.5596 L3286.5313,378.4033 Q3286.5313,377.0752 3287.1406,375.9346 Q3287.7656,374.7783 3288.8594,374.1689 Q3289.9531,373.5439 3291.1875,373.5439 Q3291.9219,373.5439 3292.5625,373.7158 Q3293.2188,373.8721 3293.7656,374.2314 Z " fill="#000000"/><text fill="#000000" font-family="sans-serif" font-size="12" lengthAdjust="spacing" textLength="91" x="3305" y="383.2666">GrauProficiencia</text><line style="stroke:#A80036;stroke-width:1.5;" x1="3277" x2="3398" y1="394.3564" y2="394.3564"/><text fill="#000000" font-family="sans-serif" font-size="11" lengthAdjust="spacing" textLength="64" x="3282" y="409.7754">-Integer valor</text><text fill="#000000" font-family="sans-serif" font-size="11" lengthAdjust="spacing" textLength="91" x="3282" y="423.6113">-String designacao</text><!--MD5=[7e1ce8ab2bf669717f28e918f4971b9a]
class Categoria--><rect codeLine="27" fill="#FEFECE" filter="url(#fixpti083txzp)" height="67.6719" id="Categoria" style="stroke:#A80036;stroke-width:1.5;" width="95" x="1105" y="256.3564"/><ellipse cx="1124.05" cy="272.3564" fill="#ADD1B2" rx="11" ry="11" style="stroke:#A80036;stroke-width:1.0;"/><path d="M1126.8156,268.2314 Q1126.9719,268.0127 1127.1594,267.9033 Q1127.3469,267.7939 1127.5656,267.7939 Q1127.9406,267.7939 1128.175,268.0596 Q1128.4094,268.3096 1128.4094,268.9189 L1128.4094,270.3721 Q1128.4094,270.9814 1128.175,271.2471 Q1127.9406,271.5127 1127.5656,271.5127 Q1127.2219,271.5127 1127.0188,271.3096 Q1126.8156,271.1221 1126.7063,270.6064 Q1126.6594,270.2471 1126.4719,270.0596 Q1126.1438,269.6846 1125.5344,269.4658 Q1124.925,269.2471 1124.3,269.2471 Q1123.5344,269.2471 1122.8938,269.5752 Q1122.2688,269.9033 1121.7688,270.6533 Q1121.2844,271.4033 1121.2844,272.4346 L1121.2844,273.5283 Q1121.2844,274.7627 1122.175,275.5908 Q1123.0656,276.4033 1124.6594,276.4033 Q1125.5969,276.4033 1126.2531,276.1533 Q1126.6438,275.9971 1127.0656,275.5596 Q1127.3313,275.2939 1127.4719,275.2158 Q1127.6281,275.1377 1127.8313,275.1377 Q1128.1594,275.1377 1128.4094,275.4033 Q1128.675,275.6533 1128.675,275.9971 Q1128.675,276.3408 1128.3313,276.7471 Q1127.8313,277.3252 1127.0344,277.6533 Q1125.9563,278.1064 1124.6594,278.1064 Q1123.1438,278.1064 1121.9406,277.4814 Q1120.9563,276.9814 1120.2688,275.9189 Q1119.5813,274.8408 1119.5813,273.5596 L1119.5813,272.4033 Q1119.5813,271.0752 1120.1906,269.9346 Q1120.8156,268.7783 1121.9094,268.1689 Q1123.0031,267.5439 1124.2375,267.5439 Q1124.9719,267.5439 1125.6125,267.7158 Q1126.2688,267.8721 1126.8156,268.2314 Z " fill="#000000"/><text fill="#000000" font-family="sans-serif" font-size="12" lengthAdjust="spacing" textLength="54" x="1138.95" y="277.2666">Categoria</text><line style="stroke:#A80036;stroke-width:1.5;" x1="1106" x2="1199" y1="288.3564" y2="288.3564"/><text fill="#000000" font-family="sans-serif" font-size="11" lengthAdjust="spacing" textLength="43" x="1111" y="303.7754">-String id</text><text fill="#000000" font-family="sans-serif" font-size="11" lengthAdjust="spacing" textLength="83" x="1111" y="317.6113">-String descricao</text><!--MD5=[b0f240be72c8ea8a063442502d85fc08]
class CaraterCT--><rect codeLine="32" fill="#FEFECE" filter="url(#fixpti083txzp)" height="53.8359" id="CaraterCT" style="stroke:#A80036;stroke-width:1.5;" width="109" x="1951" y="248.3564"/><ellipse cx="1975" cy="264.3564" fill="#ADD1B2" rx="11" ry="11" style="stroke:#A80036;stroke-width:1.0;"/><path d="M1977.7656,260.2314 Q1977.9219,260.0127 1978.1094,259.9033 Q1978.2969,259.7939 1978.5156,259.7939 Q1978.8906,259.7939 1979.125,260.0596 Q1979.3594,260.3096 1979.3594,260.9189 L1979.3594,262.3721 Q1979.3594,262.9814 1979.125,263.2471 Q1978.8906,263.5127 1978.5156,263.5127 Q1978.1719,263.5127 1977.9688,263.3096 Q1977.7656,263.1221 1977.6563,262.6064 Q1977.6094,262.2471 1977.4219,262.0596 Q1977.0938,261.6846 1976.4844,261.4658 Q1975.875,261.2471 1975.25,261.2471 Q1974.4844,261.2471 1973.8438,261.5752 Q1973.2188,261.9033 1972.7188,262.6533 Q1972.2344,263.4033 1972.2344,264.4346 L1972.2344,265.5283 Q1972.2344,266.7627 1973.125,267.5908 Q1974.0156,268.4033 1975.6094,268.4033 Q1976.5469,268.4033 1977.2031,268.1533 Q1977.5938,267.9971 1978.0156,267.5596 Q1978.2813,267.2939 1978.4219,267.2158 Q1978.5781,267.1377 1978.7813,267.1377 Q1979.1094,267.1377 1979.3594,267.4033 Q1979.625,267.6533 1979.625,267.9971 Q1979.625,268.3408 1979.2813,268.7471 Q1978.7813,269.3252 1977.9844,269.6533 Q1976.9063,270.1064 1975.6094,270.1064 Q1974.0938,270.1064 1972.8906,269.4814 Q1971.9063,268.9814 1971.2188,267.9189 Q1970.5313,266.8408 1970.5313,265.5596 L1970.5313,264.4033 Q1970.5313,263.0752 1971.1406,261.9346 Q1971.7656,260.7783 1972.8594,260.1689 Q1973.9531,259.5439 1975.1875,259.5439 Q1975.9219,259.5439 1976.5625,259.7158 Q1977.2188,259.8721 1977.7656,260.2314 Z " fill="#000000"/><text fill="#000000" font-family="sans-serif" font-size="12" lengthAdjust="spacing" textLength="57" x="1991" y="269.2666">CaraterCT</text><line style="stroke:#A80036;stroke-width:1.5;" x1="1952" x2="2059" y1="280.3564" y2="280.3564"/><text fill="#000000" font-family="sans-serif" font-size="11" lengthAdjust="spacing" textLength="97" x="1957" y="295.7754">-Boolean obrigatoria</text><!--MD5=[807977ceb130c090ed5febfb6de2bdea]
class Organizacao--><rect codeLine="36" fill="#FEFECE" filter="url(#fixpti083txzp)" height="109.1797" id="Organizacao" style="stroke:#A80036;stroke-width:1.5;" width="101" x="286.5" y="836.8564"/><ellipse cx="301.5" cy="852.8564" fill="#ADD1B2" rx="11" ry="11" style="stroke:#A80036;stroke-width:1.0;"/><path d="M304.2656,848.7314 Q304.4219,848.5127 304.6094,848.4033 Q304.7969,848.2939 305.0156,848.2939 Q305.3906,848.2939 305.625,848.5596 Q305.8594,848.8096 305.8594,849.4189 L305.8594,850.8721 Q305.8594,851.4814 305.625,851.7471 Q305.3906,852.0127 305.0156,852.0127 Q304.6719,852.0127 304.4688,851.8096 Q304.2656,851.6221 304.1563,851.1064 Q304.1094,850.7471 303.9219,850.5596 Q303.5938,850.1846 302.9844,849.9658 Q302.375,849.7471 301.75,849.7471 Q300.9844,849.7471 300.3438,850.0752 Q299.7188,850.4033 299.2188,851.1533 Q298.7344,851.9033 298.7344,852.9346 L298.7344,854.0283 Q298.7344,855.2627 299.625,856.0908 Q300.5156,856.9033 302.1094,856.9033 Q303.0469,856.9033 303.7031,856.6533 Q304.0938,856.4971 304.5156,856.0596 Q304.7813,855.7939 304.9219,855.7158 Q305.0781,855.6377 305.2813,855.6377 Q305.6094,855.6377 305.8594,855.9033 Q306.125,856.1533 306.125,856.4971 Q306.125,856.8408 305.7813,857.2471 Q305.2813,857.8252 304.4844,858.1533 Q303.4063,858.6064 302.1094,858.6064 Q300.5938,858.6064 299.3906,857.9814 Q298.4063,857.4814 297.7188,856.4189 Q297.0313,855.3408 297.0313,854.0596 L297.0313,852.9033 Q297.0313,851.5752 297.6406,850.4346 Q298.2656,849.2783 299.3594,848.6689 Q300.4531,848.0439 301.6875,848.0439 Q302.4219,848.0439 303.0625,848.2158 Q303.7188,848.3721 304.2656,848.7314 Z " fill="#000000"/><text fill="#000000" font-family="sans-serif" font-size="12" lengthAdjust="spacing" textLength="69" x="315.5" y="857.7666">Organizacao</text><line style="stroke:#A80036;stroke-width:1.5;" x1="287.5" x2="386.5" y1="868.8564" y2="868.8564"/><text fill="#000000" font-family="sans-serif" font-size="11" lengthAdjust="spacing" textLength="61" x="292.5" y="884.2754">-String nome</text><text fill="#000000" font-family="sans-serif" font-size="11" lengthAdjust="spacing" textLength="50" x="292.5" y="898.1113">-String NIF</text><text fill="#000000" font-family="sans-serif" font-size="11" lengthAdjust="spacing" textLength="74" x="292.5" y="911.9473">-String website</text><text fill="#000000" font-family="sans-serif" font-size="11" lengthAdjust="spacing" textLength="74" x="292.5" y="925.7832">-String telefone</text><text fill="#000000" font-family="sans-serif" font-size="11" lengthAdjust="spacing" textLength="59" x="292.5" y="939.6191">-String email</text><!--MD5=[ac8682ea5466d223e49472789fb200d2]
class Colaborador--><rect codeLine="44" fill="#FEFECE" filter="url(#fixpti083txzp)" height="95.3438" id="Colaborador" style="stroke:#A80036;stroke-width:1.5;" width="101" x="966" y="820.8564"/><ellipse cx="981" cy="836.8564" fill="#ADD1B2" rx="11" ry="11" style="stroke:#A80036;stroke-width:1.0;"/><path d="M983.7656,832.7314 Q983.9219,832.5127 984.1094,832.4033 Q984.2969,832.2939 984.5156,832.2939 Q984.8906,832.2939 985.125,832.5596 Q985.3594,832.8096 985.3594,833.4189 L985.3594,834.8721 Q985.3594,835.4814 985.125,835.7471 Q984.8906,836.0127 984.5156,836.0127 Q984.1719,836.0127 983.9688,835.8096 Q983.7656,835.6221 983.6563,835.1064 Q983.6094,834.7471 983.4219,834.5596 Q983.0938,834.1846 982.4844,833.9658 Q981.875,833.7471 981.25,833.7471 Q980.4844,833.7471 979.8438,834.0752 Q979.2188,834.4033 978.7188,835.1533 Q978.2344,835.9033 978.2344,836.9346 L978.2344,838.0283 Q978.2344,839.2627 979.125,840.0908 Q980.0156,840.9033 981.6094,840.9033 Q982.5469,840.9033 983.2031,840.6533 Q983.5938,840.4971 984.0156,840.0596 Q984.2813,839.7939 984.4219,839.7158 Q984.5781,839.6377 984.7813,839.6377 Q985.1094,839.6377 985.3594,839.9033 Q985.625,840.1533 985.625,840.4971 Q985.625,840.8408 985.2813,841.2471 Q984.7813,841.8252 983.9844,842.1533 Q982.9063,842.6064 981.6094,842.6064 Q980.0938,842.6064 978.8906,841.9814 Q977.9063,841.4814 977.2188,840.4189 Q976.5313,839.3408 976.5313,838.0596 L976.5313,836.9033 Q976.5313,835.5752 977.1406,834.4346 Q977.7656,833.2783 978.8594,832.6689 Q979.9531,832.0439 981.1875,832.0439 Q981.9219,832.0439 982.5625,832.2158 Q983.2188,832.3721 983.7656,832.7314 Z " fill="#000000"/><text fill="#000000" font-family="sans-serif" font-size="12" lengthAdjust="spacing" textLength="69" x="995" y="841.7666">Colaborador</text><line style="stroke:#A80036;stroke-width:1.5;" x1="967" x2="1066" y1="852.8564" y2="852.8564"/><text fill="#000000" font-family="sans-serif" font-size="11" lengthAdjust="spacing" textLength="61" x="972" y="868.2754">-String nome</text><text fill="#000000" font-family="sans-serif" font-size="11" lengthAdjust="spacing" textLength="69" x="972" y="882.1113">-String funcao</text><text fill="#000000" font-family="sans-serif" font-size="11" lengthAdjust="spacing" textLength="74" x="972" y="895.9473">-String telefone</text><text fill="#000000" font-family="sans-serif" font-size="11" lengthAdjust="spacing" textLength="59" x="972" y="909.7832">-String email</text><!--MD5=[dcda844062f930f807532403427d3023]
class EnderecoPostal--><rect codeLine="51" fill="#FEFECE" filter="url(#fixpti083txzp)" height="81.5078" id="EnderecoPostal" style="stroke:#A80036;stroke-width:1.5;" width="120" x="1783.5" y="926.3564"/><ellipse cx="1798.5" cy="942.3564" fill="#ADD1B2" rx="11" ry="11" style="stroke:#A80036;stroke-width:1.0;"/><path d="M1801.2656,938.2314 Q1801.4219,938.0127 1801.6094,937.9033 Q1801.7969,937.7939 1802.0156,937.7939 Q1802.3906,937.7939 1802.625,938.0596 Q1802.8594,938.3096 1802.8594,938.9189 L1802.8594,940.3721 Q1802.8594,940.9814 1802.625,941.2471 Q1802.3906,941.5127 1802.0156,941.5127 Q1801.6719,941.5127 1801.4688,941.3096 Q1801.2656,941.1221 1801.1563,940.6064 Q1801.1094,940.2471 1800.9219,940.0596 Q1800.5938,939.6846 1799.9844,939.4658 Q1799.375,939.2471 1798.75,939.2471 Q1797.9844,939.2471 1797.3438,939.5752 Q1796.7188,939.9033 1796.2188,940.6533 Q1795.7344,941.4033 1795.7344,942.4346 L1795.7344,943.5283 Q1795.7344,944.7627 1796.625,945.5908 Q1797.5156,946.4033 1799.1094,946.4033 Q1800.0469,946.4033 1800.7031,946.1533 Q1801.0938,945.9971 1801.5156,945.5596 Q1801.7813,945.2939 1801.9219,945.2158 Q1802.0781,945.1377 1802.2813,945.1377 Q1802.6094,945.1377 1802.8594,945.4033 Q1803.125,945.6533 1803.125,945.9971 Q1803.125,946.3408 1802.7813,946.7471 Q1802.2813,947.3252 1801.4844,947.6533 Q1800.4063,948.1064 1799.1094,948.1064 Q1797.5938,948.1064 1796.3906,947.4814 Q1795.4063,946.9814 1794.7188,945.9189 Q1794.0313,944.8408 1794.0313,943.5596 L1794.0313,942.4033 Q1794.0313,941.0752 1794.6406,939.9346 Q1795.2656,938.7783 1796.3594,938.1689 Q1797.4531,937.5439 1798.6875,937.5439 Q1799.4219,937.5439 1800.0625,937.7158 Q1800.7188,937.8721 1801.2656,938.2314 Z " fill="#000000"/><text fill="#000000" font-family="sans-serif" font-size="12" lengthAdjust="spacing" textLength="88" x="1812.5" y="947.2666">EnderecoPostal</text><line style="stroke:#A80036;stroke-width:1.5;" x1="1784.5" x2="1902.5" y1="958.3564" y2="958.3564"/><text fill="#000000" font-family="sans-serif" font-size="11" lengthAdjust="spacing" textLength="57" x="1789.5" y="973.7754">-String local</text><text fill="#000000" font-family="sans-serif" font-size="11" lengthAdjust="spacing" textLength="82" x="1789.5" y="987.6113">-String codPostal</text><text fill="#000000" font-family="sans-serif" font-size="11" lengthAdjust="spacing" textLength="83" x="1789.5" y="1001.4473">-String localidade</text><!--MD5=[27c2d4bbe9f7b9d3b0ea2797cc54308a]
class Tarefa--><rect codeLine="57" fill="#FEFECE" filter="url(#fixpti083txzp)" height="123.0156" id="Tarefa" style="stroke:#A80036;stroke-width:1.5;" width="109" x="584.5" y="555.8564"/><ellipse cx="618.4" cy="571.8564" fill="#ADD1B2" rx="11" ry="11" style="stroke:#A80036;stroke-width:1.0;"/><path d="M621.1656,567.7314 Q621.3219,567.5127 621.5094,567.4033 Q621.6969,567.2939 621.9156,567.2939 Q622.2906,567.2939 622.525,567.5596 Q622.7594,567.8096 622.7594,568.4189 L622.7594,569.8721 Q622.7594,570.4814 622.525,570.7471 Q622.2906,571.0127 621.9156,571.0127 Q621.5719,571.0127 621.3688,570.8096 Q621.1656,570.6221 621.0563,570.1064 Q621.0094,569.7471 620.8219,569.5596 Q620.4938,569.1846 619.8844,568.9658 Q619.275,568.7471 618.65,568.7471 Q617.8844,568.7471 617.2438,569.0752 Q616.6188,569.4033 616.1188,570.1533 Q615.6344,570.9033 615.6344,571.9346 L615.6344,573.0283 Q615.6344,574.2627 616.525,575.0908 Q617.4156,575.9033 619.0094,575.9033 Q619.9469,575.9033 620.6031,575.6533 Q620.9938,575.4971 621.4156,575.0596 Q621.6813,574.7939 621.8219,574.7158 Q621.9781,574.6377 622.1813,574.6377 Q622.5094,574.6377 622.7594,574.9033 Q623.025,575.1533 623.025,575.4971 Q623.025,575.8408 622.6813,576.2471 Q622.1813,576.8252 621.3844,577.1533 Q620.3063,577.6064 619.0094,577.6064 Q617.4938,577.6064 616.2906,576.9814 Q615.3063,576.4814 614.6188,575.4189 Q613.9313,574.3408 613.9313,573.0596 L613.9313,571.9033 Q613.9313,570.5752 614.5406,569.4346 Q615.1656,568.2783 616.2594,567.6689 Q617.3531,567.0439 618.5875,567.0439 Q619.3219,567.0439 619.9625,567.2158 Q620.6188,567.3721 621.1656,567.7314 Z " fill="#000000"/><text fill="#000000" font-family="sans-serif" font-size="12" lengthAdjust="spacing" textLength="35" x="636.6" y="576.7666">Tarefa</text><line style="stroke:#A80036;stroke-width:1.5;" x1="585.5" x2="692.5" y1="587.8564" y2="587.8564"/><text fill="#000000" font-family="sans-serif" font-size="11" lengthAdjust="spacing" textLength="85" x="590.5" y="603.2754">-String referencia</text><text fill="#000000" font-family="sans-serif" font-size="11" lengthAdjust="spacing" textLength="91" x="590.5" y="617.1113">-String designacao</text><text fill="#000000" font-family="sans-serif" font-size="11" lengthAdjust="spacing" textLength="97" x="590.5" y="630.9473">-String descInformal</text><text fill="#000000" font-family="sans-serif" font-size="11" lengthAdjust="spacing" textLength="97" x="590.5" y="644.7832">-String descTecnica</text><text fill="#000000" font-family="sans-serif" font-size="11" lengthAdjust="spacing" textLength="95" x="590.5" y="658.6191">-Integer duracaoEst</text><text fill="#000000" font-family="sans-serif" font-size="11" lengthAdjust="spacing" textLength="82" x="590.5" y="672.4551">-Double custoEst</text><!--MD5=[d0e9f237fb3c72e1245c36c562ad52c4]
class TipoRegimento--><rect codeLine="66" fill="#FEFECE" filter="url(#fixpti083txzp)" height="67.6719" id="TipoRegimento" style="stroke:#A80036;stroke-width:1.5;" width="117" x="958" y="362.3564"/><ellipse cx="973" cy="378.3564" fill="#ADD1B2" rx="11" ry="11" style="stroke:#A80036;stroke-width:1.0;"/><path d="M975.7656,374.2314 Q975.9219,374.0127 976.1094,373.9033 Q976.2969,373.7939 976.5156,373.7939 Q976.8906,373.7939 977.125,374.0596 Q977.3594,374.3096 977.3594,374.9189 L977.3594,376.3721 Q977.3594,376.9814 977.125,377.2471 Q976.8906,377.5127 976.5156,377.5127 Q976.1719,377.5127 975.9688,377.3096 Q975.7656,377.1221 975.6563,376.6064 Q975.6094,376.2471 975.4219,376.0596 Q975.0938,375.6846 974.4844,375.4658 Q973.875,375.2471 973.25,375.2471 Q972.4844,375.2471 971.8438,375.5752 Q971.2188,375.9033 970.7188,376.6533 Q970.2344,377.4033 970.2344,378.4346 L970.2344,379.5283 Q970.2344,380.7627 971.125,381.5908 Q972.0156,382.4033 973.6094,382.4033 Q974.5469,382.4033 975.2031,382.1533 Q975.5938,381.9971 976.0156,381.5596 Q976.2813,381.2939 976.4219,381.2158 Q976.5781,381.1377 976.7813,381.1377 Q977.1094,381.1377 977.3594,381.4033 Q977.625,381.6533 977.625,381.9971 Q977.625,382.3408 977.2813,382.7471 Q976.7813,383.3252 975.9844,383.6533 Q974.9063,384.1064 973.6094,384.1064 Q972.0938,384.1064 970.8906,383.4814 Q969.9063,382.9814 969.2188,381.9189 Q968.5313,380.8408 968.5313,379.5596 L968.5313,378.4033 Q968.5313,377.0752 969.1406,375.9346 Q969.7656,374.7783 970.8594,374.1689 Q971.9531,373.5439 973.1875,373.5439 Q973.9219,373.5439 974.5625,373.7158 Q975.2188,373.8721 975.7656,374.2314 Z " fill="#000000"/><text fill="#000000" font-family="sans-serif" font-size="12" lengthAdjust="spacing" textLength="85" x="987" y="383.2666">TipoRegimento</text><line style="stroke:#A80036;stroke-width:1.5;" x1="959" x2="1074" y1="394.3564" y2="394.3564"/><text fill="#000000" font-family="sans-serif" font-size="11" lengthAdjust="spacing" textLength="91" x="964" y="409.7754">-String designacao</text><text fill="#000000" font-family="sans-serif" font-size="11" lengthAdjust="spacing" textLength="94" x="964" y="423.6113">-String descRegras</text><!--MD5=[7bb95b5cb1c5d9061d1eedf13c97b467]
class Administrativo--><rect codeLine="71" fill="#FEFECE" filter="url(#fixpti083txzp)" height="40" id="Administrativo" style="stroke:#A80036;stroke-width:1.5;" width="109" x="433" y="1104.3564"/><ellipse cx="448" cy="1120.3564" fill="#ADD1B2" rx="11" ry="11" style="stroke:#A80036;stroke-width:1.0;"/><path d="M450.7656,1116.2314 Q450.9219,1116.0127 451.1094,1115.9033 Q451.2969,1115.7939 451.5156,1115.7939 Q451.8906,1115.7939 452.125,1116.0596 Q452.3594,1116.3096 452.3594,1116.9189 L452.3594,1118.3721 Q452.3594,1118.9814 452.125,1119.2471 Q451.8906,1119.5127 451.5156,1119.5127 Q451.1719,1119.5127 450.9688,1119.3096 Q450.7656,1119.1221 450.6563,1118.6064 Q450.6094,1118.2471 450.4219,1118.0596 Q450.0938,1117.6846 449.4844,1117.4658 Q448.875,1117.2471 448.25,1117.2471 Q447.4844,1117.2471 446.8438,1117.5752 Q446.2188,1117.9033 445.7188,1118.6533 Q445.2344,1119.4033 445.2344,1120.4346 L445.2344,1121.5283 Q445.2344,1122.7627 446.125,1123.5908 Q447.0156,1124.4033 448.6094,1124.4033 Q449.5469,1124.4033 450.2031,1124.1533 Q450.5938,1123.9971 451.0156,1123.5596 Q451.2813,1123.2939 451.4219,1123.2158 Q451.5781,1123.1377 451.7813,1123.1377 Q452.1094,1123.1377 452.3594,1123.4033 Q452.625,1123.6533 452.625,1123.9971 Q452.625,1124.3408 452.2813,1124.7471 Q451.7813,1125.3252 450.9844,1125.6533 Q449.9063,1126.1064 448.6094,1126.1064 Q447.0938,1126.1064 445.8906,1125.4814 Q444.9063,1124.9814 444.2188,1123.9189 Q443.5313,1122.8408 443.5313,1121.5596 L443.5313,1120.4033 Q443.5313,1119.0752 444.1406,1117.9346 Q444.7656,1116.7783 445.8594,1116.1689 Q446.9531,1115.5439 448.1875,1115.5439 Q448.9219,1115.5439 449.5625,1115.7158 Q450.2188,1115.8721 450.7656,1116.2314 Z " fill="#000000"/><text fill="#000000" font-family="sans-serif" font-size="12" lengthAdjust="spacing" textLength="77" x="462" y="1125.2666">Administrativo</text><line style="stroke:#A80036;stroke-width:1.5;" x1="434" x2="541" y1="1136.3564" y2="1136.3564"/><!--MD5=[1f687b5315377fe49fca59b457947463]
class Freelancer--><rect codeLine="75" fill="#FEFECE" filter="url(#fixpti083txzp)" height="95.3438" id="Freelancer" style="stroke:#A80036;stroke-width:1.5;" width="91" x="1507" y="652.8564"/><ellipse cx="1522" cy="668.8564" fill="#ADD1B2" rx="11" ry="11" style="stroke:#A80036;stroke-width:1.0;"/><path d="M1524.7656,664.7314 Q1524.9219,664.5127 1525.1094,664.4033 Q1525.2969,664.2939 1525.5156,664.2939 Q1525.8906,664.2939 1526.125,664.5596 Q1526.3594,664.8096 1526.3594,665.4189 L1526.3594,666.8721 Q1526.3594,667.4814 1526.125,667.7471 Q1525.8906,668.0127 1525.5156,668.0127 Q1525.1719,668.0127 1524.9688,667.8096 Q1524.7656,667.6221 1524.6563,667.1064 Q1524.6094,666.7471 1524.4219,666.5596 Q1524.0938,666.1846 1523.4844,665.9658 Q1522.875,665.7471 1522.25,665.7471 Q1521.4844,665.7471 1520.8438,666.0752 Q1520.2188,666.4033 1519.7188,667.1533 Q1519.2344,667.9033 1519.2344,668.9346 L1519.2344,670.0283 Q1519.2344,671.2627 1520.125,672.0908 Q1521.0156,672.9033 1522.6094,672.9033 Q1523.5469,672.9033 1524.2031,672.6533 Q1524.5938,672.4971 1525.0156,672.0596 Q1525.2813,671.7939 1525.4219,671.7158 Q1525.5781,671.6377 1525.7813,671.6377 Q1526.1094,671.6377 1526.3594,671.9033 Q1526.625,672.1533 1526.625,672.4971 Q1526.625,672.8408 1526.2813,673.2471 Q1525.7813,673.8252 1524.9844,674.1533 Q1523.9063,674.6064 1522.6094,674.6064 Q1521.0938,674.6064 1519.8906,673.9814 Q1518.9063,673.4814 1518.2188,672.4189 Q1517.5313,671.3408 1517.5313,670.0596 L1517.5313,668.9033 Q1517.5313,667.5752 1518.1406,666.4346 Q1518.7656,665.2783 1519.8594,664.6689 Q1520.9531,664.0439 1522.1875,664.0439 Q1522.9219,664.0439 1523.5625,664.2158 Q1524.2188,664.3721 1524.7656,664.7314 Z " fill="#000000"/><text fill="#000000" font-family="sans-serif" font-size="12" lengthAdjust="spacing" textLength="59" x="1536" y="673.7666">Freelancer</text><line style="stroke:#A80036;stroke-width:1.5;" x1="1508" x2="1597" y1="684.8564" y2="684.8564"/><text fill="#000000" font-family="sans-serif" font-size="11" lengthAdjust="spacing" textLength="61" x="1513" y="700.2754">-String nome</text><text fill="#000000" font-family="sans-serif" font-size="11" lengthAdjust="spacing" textLength="47" x="1513" y="714.1113">-String nif</text><text fill="#000000" font-family="sans-serif" font-size="11" lengthAdjust="spacing" textLength="74" x="1513" y="727.9473">-String telefone</text><text fill="#000000" font-family="sans-serif" font-size="11" lengthAdjust="spacing" textLength="59" x="1513" y="741.7832">-String email</text><!--MD5=[df9f144f4e207f6ab4cd6fad6014a9df]
class ReconhecimentoCT--><rect codeLine="82" fill="#FEFECE" filter="url(#fixpti083txzp)" height="53.8359" id="ReconhecimentoCT" style="stroke:#A80036;stroke-width:1.5;" width="142" x="1772.5" y="440.3564"/><ellipse cx="1787.5" cy="456.3564" fill="#ADD1B2" rx="11" ry="11" style="stroke:#A80036;stroke-width:1.0;"/><path d="M1790.2656,452.2314 Q1790.4219,452.0127 1790.6094,451.9033 Q1790.7969,451.7939 1791.0156,451.7939 Q1791.3906,451.7939 1791.625,452.0596 Q1791.8594,452.3096 1791.8594,452.9189 L1791.8594,454.3721 Q1791.8594,454.9814 1791.625,455.2471 Q1791.3906,455.5127 1791.0156,455.5127 Q1790.6719,455.5127 1790.4688,455.3096 Q1790.2656,455.1221 1790.1563,454.6064 Q1790.1094,454.2471 1789.9219,454.0596 Q1789.5938,453.6846 1788.9844,453.4658 Q1788.375,453.2471 1787.75,453.2471 Q1786.9844,453.2471 1786.3438,453.5752 Q1785.7188,453.9033 1785.2188,454.6533 Q1784.7344,455.4033 1784.7344,456.4346 L1784.7344,457.5283 Q1784.7344,458.7627 1785.625,459.5908 Q1786.5156,460.4033 1788.1094,460.4033 Q1789.0469,460.4033 1789.7031,460.1533 Q1790.0938,459.9971 1790.5156,459.5596 Q1790.7813,459.2939 1790.9219,459.2158 Q1791.0781,459.1377 1791.2813,459.1377 Q1791.6094,459.1377 1791.8594,459.4033 Q1792.125,459.6533 1792.125,459.9971 Q1792.125,460.3408 1791.7813,460.7471 Q1791.2813,461.3252 1790.4844,461.6533 Q1789.4063,462.1064 1788.1094,462.1064 Q1786.5938,462.1064 1785.3906,461.4814 Q1784.4063,460.9814 1783.7188,459.9189 Q1783.0313,458.8408 1783.0313,457.5596 L1783.0313,456.4033 Q1783.0313,455.0752 1783.6406,453.9346 Q1784.2656,452.7783 1785.3594,452.1689 Q1786.4531,451.5439 1787.6875,451.5439 Q1788.4219,451.5439 1789.0625,451.7158 Q1789.7188,451.8721 1790.2656,452.2314 Z " fill="#000000"/><text fill="#000000" font-family="sans-serif" font-size="12" lengthAdjust="spacing" textLength="110" x="1801.5" y="461.2666">ReconhecimentoCT</text><line style="stroke:#A80036;stroke-width:1.5;" x1="1773.5" x2="1913.5" y1="472.3564" y2="472.3564"/><text fill="#000000" font-family="sans-serif" font-size="11" lengthAdjust="spacing" textLength="130" x="1778.5" y="487.7754">-Date dataReconhecimento</text><!--MD5=[87602f047bdeda361e6d6669da197818]
class HabilitacaoAcademica--><rect codeLine="86" fill="#FEFECE" filter="url(#fixpti083txzp)" height="95.3438" id="HabilitacaoAcademica" style="stroke:#A80036;stroke-width:1.5;" width="155" x="1766" y="652.8564"/><ellipse cx="1781" cy="668.8564" fill="#ADD1B2" rx="11" ry="11" style="stroke:#A80036;stroke-width:1.0;"/><path d="M1783.7656,664.7314 Q1783.9219,664.5127 1784.1094,664.4033 Q1784.2969,664.2939 1784.5156,664.2939 Q1784.8906,664.2939 1785.125,664.5596 Q1785.3594,664.8096 1785.3594,665.4189 L1785.3594,666.8721 Q1785.3594,667.4814 1785.125,667.7471 Q1784.8906,668.0127 1784.5156,668.0127 Q1784.1719,668.0127 1783.9688,667.8096 Q1783.7656,667.6221 1783.6563,667.1064 Q1783.6094,666.7471 1783.4219,666.5596 Q1783.0938,666.1846 1782.4844,665.9658 Q1781.875,665.7471 1781.25,665.7471 Q1780.4844,665.7471 1779.8438,666.0752 Q1779.2188,666.4033 1778.7188,667.1533 Q1778.2344,667.9033 1778.2344,668.9346 L1778.2344,670.0283 Q1778.2344,671.2627 1779.125,672.0908 Q1780.0156,672.9033 1781.6094,672.9033 Q1782.5469,672.9033 1783.2031,672.6533 Q1783.5938,672.4971 1784.0156,672.0596 Q1784.2813,671.7939 1784.4219,671.7158 Q1784.5781,671.6377 1784.7813,671.6377 Q1785.1094,671.6377 1785.3594,671.9033 Q1785.625,672.1533 1785.625,672.4971 Q1785.625,672.8408 1785.2813,673.2471 Q1784.7813,673.8252 1783.9844,674.1533 Q1782.9063,674.6064 1781.6094,674.6064 Q1780.0938,674.6064 1778.8906,673.9814 Q1777.9063,673.4814 1777.2188,672.4189 Q1776.5313,671.3408 1776.5313,670.0596 L1776.5313,668.9033 Q1776.5313,667.5752 1777.1406,666.4346 Q1777.7656,665.2783 1778.8594,664.6689 Q1779.9531,664.0439 1781.1875,664.0439 Q1781.9219,664.0439 1782.5625,664.2158 Q1783.2188,664.3721 1783.7656,664.7314 Z " fill="#000000"/><text fill="#000000" font-family="sans-serif" font-size="12" lengthAdjust="spacing" textLength="123" x="1795" y="673.7666">HabilitacaoAcademica</text><line style="stroke:#A80036;stroke-width:1.5;" x1="1767" x2="1920" y1="684.8564" y2="684.8564"/><text fill="#000000" font-family="sans-serif" font-size="11" lengthAdjust="spacing" textLength="57" x="1772" y="700.2754">-String grau</text><text fill="#000000" font-family="sans-serif" font-size="11" lengthAdjust="spacing" textLength="120" x="1772" y="714.1113">-String designacaoCurso</text><text fill="#000000" font-family="sans-serif" font-size="11" lengthAdjust="spacing" textLength="109" x="1772" y="727.9473">-String nomeInstituicao</text><text fill="#000000" font-family="sans-serif" font-size="11" lengthAdjust="spacing" textLength="97" x="1772" y="741.7832">-Double mediaCurso</text><path d="M2090,687.3564 L2090,696.3564 L1921.24,700.3564 L2090,704.3564 L2090,713.708 A0,0 0 0 0 2090,713.708 L2900,713.708 A0,0 0 0 0 2900,713.708 L2900,697.3564 L2890,687.3564 L2090,687.3564 A0,0 0 0 0 2090,687.3564 " fill="#FBFB77" filter="url(#fixpti083txzp)" style="stroke:#A80036;stroke-width:1.0;"/><path d="M2890,687.3564 L2890,697.3564 L2900,697.3564 L2890,687.3564 " fill="#FBFB77" style="stroke:#A80036;stroke-width:1.0;"/><text fill="#000000" font-family="sans-serif" font-size="13" lengthAdjust="spacing" textLength="789" x="2096" y="705.8516">Curso e grau académico não foram considerados aqui por não serem, na nossa opinião, relevantes para o negócio. Rever posteriormente</text><!--MD5=[19db0db7353a4bf63eefc676e5ba9b80]
class Anuncio--><rect codeLine="99" fill="#FEFECE" filter="url(#fixpti083txzp)" height="123.0156" id="Anuncio" style="stroke:#A80036;stroke-width:1.5;" width="132" x="271" y="497.8564"/><ellipse cx="311.2" cy="513.8564" fill="#ADD1B2" rx="11" ry="11" style="stroke:#A80036;stroke-width:1.0;"/><path d="M313.9656,509.7314 Q314.1219,509.5127 314.3094,509.4033 Q314.4969,509.2939 314.7156,509.2939 Q315.0906,509.2939 315.325,509.5596 Q315.5594,509.8096 315.5594,510.4189 L315.5594,511.8721 Q315.5594,512.4814 315.325,512.7471 Q315.0906,513.0127 314.7156,513.0127 Q314.3719,513.0127 314.1688,512.8096 Q313.9656,512.6221 313.8563,512.1064 Q313.8094,511.7471 313.6219,511.5596 Q313.2938,511.1846 312.6844,510.9658 Q312.075,510.7471 311.45,510.7471 Q310.6844,510.7471 310.0438,511.0752 Q309.4188,511.4033 308.9188,512.1533 Q308.4344,512.9033 308.4344,513.9346 L308.4344,515.0283 Q308.4344,516.2627 309.325,517.0908 Q310.2156,517.9033 311.8094,517.9033 Q312.7469,517.9033 313.4031,517.6533 Q313.7938,517.4971 314.2156,517.0596 Q314.4813,516.7939 314.6219,516.7158 Q314.7781,516.6377 314.9813,516.6377 Q315.3094,516.6377 315.5594,516.9033 Q315.825,517.1533 315.825,517.4971 Q315.825,517.8408 315.4813,518.2471 Q314.9813,518.8252 314.1844,519.1533 Q313.1063,519.6064 311.8094,519.6064 Q310.2938,519.6064 309.0906,518.9814 Q308.1063,518.4814 307.4188,517.4189 Q306.7313,516.3408 306.7313,515.0596 L306.7313,513.9033 Q306.7313,512.5752 307.3406,511.4346 Q307.9656,510.2783 309.0594,509.6689 Q310.1531,509.0439 311.3875,509.0439 Q312.1219,509.0439 312.7625,509.2158 Q313.4188,509.3721 313.9656,509.7314 Z " fill="#000000"/><text fill="#000000" font-family="sans-serif" font-size="12" lengthAdjust="spacing" textLength="44" x="330.8" y="518.7666">Anuncio</text><line style="stroke:#A80036;stroke-width:1.5;" x1="272" x2="402" y1="529.8564" y2="529.8564"/><text fill="#000000" font-family="sans-serif" font-size="11" lengthAdjust="spacing" textLength="119" x="277" y="545.2754">-Date dtInicioPublicitacao</text><text fill="#000000" font-family="sans-serif" font-size="11" lengthAdjust="spacing" textLength="111" x="277" y="559.1113">-Date dtFimPublicitacao</text><text fill="#000000" font-family="sans-serif" font-size="11" lengthAdjust="spacing" textLength="120" x="277" y="572.9473">-Date dtInicioCandidatura</text><text fill="#000000" font-family="sans-serif" font-size="11" lengthAdjust="spacing" textLength="112" x="277" y="586.7832">-Date dtFimCandidatura</text><text fill="#000000" font-family="sans-serif" font-size="11" lengthAdjust="spacing" textLength="105" x="277" y="600.6191">-Date dtInicioSeriacao</text><text fill="#000000" font-family="sans-serif" font-size="11" lengthAdjust="spacing" textLength="97" x="277" y="614.4551">-Date dtFimSeriacao</text><!--MD5=[475c5b924ed41035684e2831311827d2]
class Candidatura--><rect codeLine="108" fill="#FEFECE" filter="url(#fixpti083txzp)" height="109.1797" id="Candidatura" style="stroke:#A80036;stroke-width:1.5;" width="128" x="1230" y="645.8564"/><ellipse cx="1257.6" cy="661.8564" fill="#ADD1B2" rx="11" ry="11" style="stroke:#A80036;stroke-width:1.0;"/><path d="M1260.3656,657.7314 Q1260.5219,657.5127 1260.7094,657.4033 Q1260.8969,657.2939 1261.1156,657.2939 Q1261.4906,657.2939 1261.725,657.5596 Q1261.9594,657.8096 1261.9594,658.4189 L1261.9594,659.8721 Q1261.9594,660.4814 1261.725,660.7471 Q1261.4906,661.0127 1261.1156,661.0127 Q1260.7719,661.0127 1260.5688,660.8096 Q1260.3656,660.6221 1260.2563,660.1064 Q1260.2094,659.7471 1260.0219,659.5596 Q1259.6938,659.1846 1259.0844,658.9658 Q1258.475,658.7471 1257.85,658.7471 Q1257.0844,658.7471 1256.4438,659.0752 Q1255.8188,659.4033 1255.3188,660.1533 Q1254.8344,660.9033 1254.8344,661.9346 L1254.8344,663.0283 Q1254.8344,664.2627 1255.725,665.0908 Q1256.6156,665.9033 1258.2094,665.9033 Q1259.1469,665.9033 1259.8031,665.6533 Q1260.1938,665.4971 1260.6156,665.0596 Q1260.8813,664.7939 1261.0219,664.7158 Q1261.1781,664.6377 1261.3813,664.6377 Q1261.7094,664.6377 1261.9594,664.9033 Q1262.225,665.1533 1262.225,665.4971 Q1262.225,665.8408 1261.8813,666.2471 Q1261.3813,666.8252 1260.5844,667.1533 Q1259.5063,667.6064 1258.2094,667.6064 Q1256.6938,667.6064 1255.4906,666.9814 Q1254.5063,666.4814 1253.8188,665.4189 Q1253.1313,664.3408 1253.1313,663.0596 L1253.1313,661.9033 Q1253.1313,660.5752 1253.7406,659.4346 Q1254.3656,658.2783 1255.4594,657.6689 Q1256.5531,657.0439 1257.7875,657.0439 Q1258.5219,657.0439 1259.1625,657.2158 Q1259.8188,657.3721 1260.3656,657.7314 Z " fill="#000000"/><text fill="#000000" font-family="sans-serif" font-size="12" lengthAdjust="spacing" textLength="68" x="1274.4" y="666.7666">Candidatura</text><line style="stroke:#A80036;stroke-width:1.5;" x1="1231" x2="1357" y1="677.8564" y2="677.8564"/><text fill="#000000" font-family="sans-serif" font-size="11" lengthAdjust="spacing" textLength="108" x="1236" y="693.2754">-Date dataCandidatura</text><text fill="#000000" font-family="sans-serif" font-size="11" lengthAdjust="spacing" textLength="115" x="1236" y="707.1113">-Double valorPretendido</text><text fill="#000000" font-family="sans-serif" font-size="11" lengthAdjust="spacing" textLength="71" x="1236" y="720.9473">-Integer nrDias</text><text fill="#000000" font-family="sans-serif" font-size="11" lengthAdjust="spacing" textLength="116" x="1236" y="734.7832">-String txtApresentacao</text><text fill="#000000" font-family="sans-serif" font-size="11" lengthAdjust="spacing" textLength="96" x="1236" y="748.6191">-String txtMotivacao</text><!--MD5=[716bba0e94eea125d5a66a891f2c3c34]
class Classificacao--><rect codeLine="116" fill="#FEFECE" filter="url(#fixpti083txzp)" height="53.8359" id="Classificacao" style="stroke:#A80036;stroke-width:1.5;" width="107" x="963" y="623.3564"/><ellipse cx="978" cy="639.3564" fill="#ADD1B2" rx="11" ry="11" style="stroke:#A80036;stroke-width:1.0;"/><path d="M980.7656,635.2314 Q980.9219,635.0127 981.1094,634.9033 Q981.2969,634.7939 981.5156,634.7939 Q981.8906,634.7939 982.125,635.0596 Q982.3594,635.3096 982.3594,635.9189 L982.3594,637.3721 Q982.3594,637.9814 982.125,638.2471 Q981.8906,638.5127 981.5156,638.5127 Q981.1719,638.5127 980.9688,638.3096 Q980.7656,638.1221 980.6563,637.6064 Q980.6094,637.2471 980.4219,637.0596 Q980.0938,636.6846 979.4844,636.4658 Q978.875,636.2471 978.25,636.2471 Q977.4844,636.2471 976.8438,636.5752 Q976.2188,636.9033 975.7188,637.6533 Q975.2344,638.4033 975.2344,639.4346 L975.2344,640.5283 Q975.2344,641.7627 976.125,642.5908 Q977.0156,643.4033 978.6094,643.4033 Q979.5469,643.4033 980.2031,643.1533 Q980.5938,642.9971 981.0156,642.5596 Q981.2813,642.2939 981.4219,642.2158 Q981.5781,642.1377 981.7813,642.1377 Q982.1094,642.1377 982.3594,642.4033 Q982.625,642.6533 982.625,642.9971 Q982.625,643.3408 982.2813,643.7471 Q981.7813,644.3252 980.9844,644.6533 Q979.9063,645.1064 978.6094,645.1064 Q977.0938,645.1064 975.8906,644.4814 Q974.9063,643.9814 974.2188,642.9189 Q973.5313,641.8408 973.5313,640.5596 L973.5313,639.4033 Q973.5313,638.0752 974.1406,636.9346 Q974.7656,635.7783 975.8594,635.1689 Q976.9531,634.5439 978.1875,634.5439 Q978.9219,634.5439 979.5625,634.7158 Q980.2188,634.8721 980.7656,635.2314 Z " fill="#000000"/><text fill="#000000" font-family="sans-serif" font-size="12" lengthAdjust="spacing" textLength="75" x="992" y="644.2666">Classificacao</text><line style="stroke:#A80036;stroke-width:1.5;" x1="964" x2="1069" y1="655.3564" y2="655.3564"/><text fill="#000000" font-family="sans-serif" font-size="11" lengthAdjust="spacing" textLength="64" x="969" y="670.7754">-Integer lugar</text><!--MD5=[aca0f236260d30190baee83e33cc7802]
class ProcessoSeriacao--><rect codeLine="120" fill="#FEFECE" filter="url(#fixpti083txzp)" height="53.8359" id="ProcessoSeriacao" style="stroke:#A80036;stroke-width:1.5;" width="134" x="572" y="466.3564"/><ellipse cx="587" cy="482.3564" fill="#ADD1B2" rx="11" ry="11" style="stroke:#A80036;stroke-width:1.0;"/><path d="M589.7656,478.2314 Q589.9219,478.0127 590.1094,477.9033 Q590.2969,477.7939 590.5156,477.7939 Q590.8906,477.7939 591.125,478.0596 Q591.3594,478.3096 591.3594,478.9189 L591.3594,480.3721 Q591.3594,480.9814 591.125,481.2471 Q590.8906,481.5127 590.5156,481.5127 Q590.1719,481.5127 589.9688,481.3096 Q589.7656,481.1221 589.6563,480.6064 Q589.6094,480.2471 589.4219,480.0596 Q589.0938,479.6846 588.4844,479.4658 Q587.875,479.2471 587.25,479.2471 Q586.4844,479.2471 585.8438,479.5752 Q585.2188,479.9033 584.7188,480.6533 Q584.2344,481.4033 584.2344,482.4346 L584.2344,483.5283 Q584.2344,484.7627 585.125,485.5908 Q586.0156,486.4033 587.6094,486.4033 Q588.5469,486.4033 589.2031,486.1533 Q589.5938,485.9971 590.0156,485.5596 Q590.2813,485.2939 590.4219,485.2158 Q590.5781,485.1377 590.7813,485.1377 Q591.1094,485.1377 591.3594,485.4033 Q591.625,485.6533 591.625,485.9971 Q591.625,486.3408 591.2813,486.7471 Q590.7813,487.3252 589.9844,487.6533 Q588.9063,488.1064 587.6094,488.1064 Q586.0938,488.1064 584.8906,487.4814 Q583.9063,486.9814 583.2188,485.9189 Q582.5313,484.8408 582.5313,483.5596 L582.5313,482.4033 Q582.5313,481.0752 583.1406,479.9346 Q583.7656,478.7783 584.8594,478.1689 Q585.9531,477.5439 587.1875,477.5439 Q587.9219,477.5439 588.5625,477.7158 Q589.2188,477.8721 589.7656,478.2314 Z " fill="#000000"/><text fill="#000000" font-family="sans-serif" font-size="12" lengthAdjust="spacing" textLength="102" x="601" y="487.2666">ProcessoSeriacao</text><line style="stroke:#A80036;stroke-width:1.5;" x1="573" x2="705" y1="498.3564" y2="498.3564"/><text fill="#000000" font-family="sans-serif" font-size="11" lengthAdjust="spacing" textLength="103" x="578" y="513.7754">-Date dataRealizacao</text><!--MD5=[5dd1d6732c071e710b9290b531f2fa3b]
class Utilizador--><rect codeLine="124" fill="#FEFECE" filter="url(#fixpti083txzp)" height="81.5078" id="Utilizador" style="stroke:#A80036;stroke-width:1.5;" width="97" x="1795" y="1055.3564"/><ellipse cx="1816.3" cy="1071.3564" fill="#ADD1B2" rx="11" ry="11" style="stroke:#A80036;stroke-width:1.0;"/><path d="M1819.0656,1067.2314 Q1819.2219,1067.0127 1819.4094,1066.9033 Q1819.5969,1066.7939 1819.8156,1066.7939 Q1820.1906,1066.7939 1820.425,1067.0596 Q1820.6594,1067.3096 1820.6594,1067.9189 L1820.6594,1069.3721 Q1820.6594,1069.9814 1820.425,1070.2471 Q1820.1906,1070.5127 1819.8156,1070.5127 Q1819.4719,1070.5127 1819.2688,1070.3096 Q1819.0656,1070.1221 1818.9563,1069.6064 Q1818.9094,1069.2471 1818.7219,1069.0596 Q1818.3938,1068.6846 1817.7844,1068.4658 Q1817.175,1068.2471 1816.55,1068.2471 Q1815.7844,1068.2471 1815.1438,1068.5752 Q1814.5188,1068.9033 1814.0188,1069.6533 Q1813.5344,1070.4033 1813.5344,1071.4346 L1813.5344,1072.5283 Q1813.5344,1073.7627 1814.425,1074.5908 Q1815.3156,1075.4033 1816.9094,1075.4033 Q1817.8469,1075.4033 1818.5031,1075.1533 Q1818.8938,1074.9971 1819.3156,1074.5596 Q1819.5813,1074.2939 1819.7219,1074.2158 Q1819.8781,1074.1377 1820.0813,1074.1377 Q1820.4094,1074.1377 1820.6594,1074.4033 Q1820.925,1074.6533 1820.925,1074.9971 Q1820.925,1075.3408 1820.5813,1075.7471 Q1820.0813,1076.3252 1819.2844,1076.6533 Q1818.2063,1077.1064 1816.9094,1077.1064 Q1815.3938,1077.1064 1814.1906,1076.4814 Q1813.2063,1075.9814 1812.5188,1074.9189 Q1811.8313,1073.8408 1811.8313,1072.5596 L1811.8313,1071.4033 Q1811.8313,1070.0752 1812.4406,1068.9346 Q1813.0656,1067.7783 1814.1594,1067.1689 Q1815.2531,1066.5439 1816.4875,1066.5439 Q1817.2219,1066.5439 1817.8625,1066.7158 Q1818.5188,1066.8721 1819.0656,1067.2314 Z " fill="#000000"/><text fill="#000000" font-family="sans-serif" font-size="12" lengthAdjust="spacing" textLength="51" x="1831.7" y="1076.2666">Utilizador</text><line style="stroke:#A80036;stroke-width:1.5;" x1="1796" x2="1891" y1="1087.3564" y2="1087.3564"/><text fill="#000000" font-family="sans-serif" font-size="11" lengthAdjust="spacing" textLength="61" x="1801" y="1102.7754">-String nome</text><text fill="#000000" font-family="sans-serif" font-size="11" lengthAdjust="spacing" textLength="59" x="1801" y="1116.6113">-String email</text><text fill="#000000" font-family="sans-serif" font-size="11" lengthAdjust="spacing" textLength="85" x="1801" y="1130.4473">-String password</text><!--MD5=[37bf6c08f758502d5d1a5531d651ab43]
class AlgoritmoGeradorPasswords--><rect codeLine="130" fill="#FEFECE" filter="url(#fixpti083txzp)" height="40" id="AlgoritmoGeradorPasswords" style="stroke:#A80036;stroke-width:1.5;" width="192" x="736" y="1189.3564"/><ellipse cx="751" cy="1205.3564" fill="#ADD1B2" rx="11" ry="11" style="stroke:#A80036;stroke-width:1.0;"/><path d="M753.7656,1201.2314 Q753.9219,1201.0127 754.1094,1200.9033 Q754.2969,1200.7939 754.5156,1200.7939 Q754.8906,1200.7939 755.125,1201.0596 Q755.3594,1201.3096 755.3594,1201.9189 L755.3594,1203.3721 Q755.3594,1203.9814 755.125,1204.2471 Q754.8906,1204.5127 754.5156,1204.5127 Q754.1719,1204.5127 753.9688,1204.3096 Q753.7656,1204.1221 753.6563,1203.6064 Q753.6094,1203.2471 753.4219,1203.0596 Q753.0938,1202.6846 752.4844,1202.4658 Q751.875,1202.2471 751.25,1202.2471 Q750.4844,1202.2471 749.8438,1202.5752 Q749.2188,1202.9033 748.7188,1203.6533 Q748.2344,1204.4033 748.2344,1205.4346 L748.2344,1206.5283 Q748.2344,1207.7627 749.125,1208.5908 Q750.0156,1209.4033 751.6094,1209.4033 Q752.5469,1209.4033 753.2031,1209.1533 Q753.5938,1208.9971 754.0156,1208.5596 Q754.2813,1208.2939 754.4219,1208.2158 Q754.5781,1208.1377 754.7813,1208.1377 Q755.1094,1208.1377 755.3594,1208.4033 Q755.625,1208.6533 755.625,1208.9971 Q755.625,1209.3408 755.2813,1209.7471 Q754.7813,1210.3252 753.9844,1210.6533 Q752.9063,1211.1064 751.6094,1211.1064 Q750.0938,1211.1064 748.8906,1210.4814 Q747.9063,1209.9814 747.2188,1208.9189 Q746.5313,1207.8408 746.5313,1206.5596 L746.5313,1205.4033 Q746.5313,1204.0752 747.1406,1202.9346 Q747.7656,1201.7783 748.8594,1201.1689 Q749.9531,1200.5439 751.1875,1200.5439 Q751.9219,1200.5439 752.5625,1200.7158 Q753.2188,1200.8721 753.7656,1201.2314 Z " fill="#000000"/><text fill="#000000" font-family="sans-serif" font-size="12" lengthAdjust="spacing" textLength="160" x="765" y="1210.2666">AlgoritmoGeradorPasswords</text><line style="stroke:#A80036;stroke-width:1.5;" x1="737" x2="927" y1="1221.3564" y2="1221.3564"/><ellipse cx="1843.5" cy="254.3564" fill="#000000" rx="2" ry="2" style="stroke:none;stroke-width:1.0;"/><!--MD5=[718b46c9a1975c175f4073d63ce5ccba]
link Plataforma to AreaAtividade--><path codeLine="133" d="M65.41,298.2864 C75.14,259.0764 97.8,185.9664 140,138.3564 C206.85,62.9464 235.23,24.3564 336,24.3564 C336,24.3564 336,24.3564 2496,24.3564 C2723.55,24.3564 2982.27,118.7064 3095.83,165.1464 " fill="none" id="Plataforma-AreaAtividade" style="stroke:#A80036;stroke-width:1.0;"/><polygon fill="#000000" points="1277.4952,15.3128,1268.3298,12.7737,1268.5878,18.6459,1277.4952,15.3128" style="stroke:#000000;stroke-width:1.0;"/><text fill="#000000" font-family="sans-serif" font-size="13" lengthAdjust="spacing" textLength="38" x="1281.5" y="20.8516">possui</text><text fill="#000000" font-family="sans-serif" font-size="13" lengthAdjust="spacing" textLength="7" x="59.2412" y="287.2961">1</text><text fill="#000000" font-family="sans-serif" font-size="13" lengthAdjust="spacing" textLength="5" x="3082.8645" y="176.4906">*</text><!--MD5=[a77d152358ce76c19672aacd9fb0ada1]
link Plataforma to CompetenciaTecnica--><path codeLine="134" d="M71.27,298.1964 C84.48,270.4364 108.3,227.6264 140,200.3564 C212.39,138.0864 240.51,112.3564 336,112.3564 C336,112.3564 336,112.3564 1844.5,112.3564 C2055.95,112.3564 2300.48,171.2064 2420.21,203.9664 " fill="none" id="Plataforma-CompetenciaTecnica" style="stroke:#A80036;stroke-width:1.0;"/><polygon fill="#000000" points="1135.996,103.3318,1126.8404,100.7578,1127.076,106.6309,1135.996,103.3318" style="stroke:#000000;stroke-width:1.0;"/><text fill="#000000" font-family="sans-serif" font-size="13" lengthAdjust="spacing" textLength="38" x="1140" y="108.8516">possui</text><text fill="#000000" font-family="sans-serif" font-size="13" lengthAdjust="spacing" textLength="7" x="75.0324" y="287.6204">1</text><text fill="#000000" font-family="sans-serif" font-size="13" lengthAdjust="spacing" textLength="5" x="2407.6018" y="216.185">*</text><!--MD5=[cb8556493ec2c94f9603162dd119feba]
link Plataforma to Categoria--><path codeLine="135" d="M110.22,304.1464 C164.93,283.2264 255.09,254.3564 336,254.3564 C336,254.3564 336,254.3564 833,254.3564 C930.1,254.3564 1042.81,271.0864 1104.74,281.7364 " fill="none" id="Plataforma-Categoria" style="stroke:#A80036;stroke-width:1.0;"/><polygon fill="#000000" points="470.9987,245.4196,461.8897,242.6852,462.0221,248.5615,470.9987,245.4196" style="stroke:#000000;stroke-width:1.0;"/><text fill="#000000" font-family="sans-serif" font-size="13" lengthAdjust="spacing" textLength="38" x="475" y="250.8516">possui</text><text fill="#000000" font-family="sans-serif" font-size="13" lengthAdjust="spacing" textLength="7" x="117.9853" y="315.8202">1</text><text fill="#000000" font-family="sans-serif" font-size="13" lengthAdjust="spacing" textLength="5" x="1092.0439" y="295.1887">*</text><!--MD5=[1c2ad462e362697fcdc859a6327d55c7]
link Plataforma to Organizacao--><path codeLine="136" d="M71.28,352.3564 C86.66,387.3864 114.6,450.2764 140,503.3564 C197.41,623.3464 268.67,762.0264 307.5,836.7864 " fill="none" id="Plataforma-Organizacao" style="stroke:#A80036;stroke-width:1.0;"/><polygon fill="#000000" points="147.1915,499.0264,145.8687,489.6083,140.5855,492.1845,147.1915,499.0264" style="stroke:#000000;stroke-width:1.0;"/><text fill="#000000" font-family="sans-serif" font-size="13" lengthAdjust="spacing" textLength="86" x="154" y="499.8516">tem registadas</text><text fill="#000000" font-family="sans-serif" font-size="13" lengthAdjust="spacing" textLength="7" x="66.31" y="373.5642">1</text><text fill="#000000" font-family="sans-serif" font-size="13" lengthAdjust="spacing" textLength="5" x="298.2" y="825.8853">*</text><!--MD5=[956ecced288de5de0c5f024757c210bf]
link Plataforma to TipoRegimento--><path codeLine="137" d="M110.24,325.1364 C244.49,325.2264 619.84,329.8764 928,375.3564 C937.74,376.7964 947.98,378.7964 957.89,380.9964 " fill="none" id="Plataforma-TipoRegimento" style="stroke:#A80036;stroke-width:1.0;"/><polygon fill="#000000" points="468.4892,324.861,459.6569,321.3337,459.2704,327.1988,468.4892,324.861" style="stroke:#000000;stroke-width:1.0;"/><text fill="#000000" font-family="sans-serif" font-size="13" lengthAdjust="spacing" textLength="43" x="472.5" y="329.8516">suporta</text><text fill="#000000" font-family="sans-serif" font-size="13" lengthAdjust="spacing" textLength="7" x="118.0081" y="339.7619">1</text><text fill="#000000" font-family="sans-serif" font-size="13" lengthAdjust="spacing" textLength="5" x="945.0603" y="393.5921">*</text><!--MD5=[3d9e8e0d764359bffb897b36dc4b633a]
link Plataforma to Anuncio--><path codeLine="138" d="M91.49,352.4264 C135.13,389.3564 214.35,456.3964 270.78,504.1664 " fill="none" id="Plataforma-Anuncio" style="stroke:#A80036;stroke-width:1.0;"/><polygon fill="#000000" points="167.8166,389.7623,162.8109,381.6757,159.0137,386.1623,167.8166,389.7623" style="stroke:#000000;stroke-width:1.0;"/><text fill="#000000" font-family="sans-serif" font-size="13" lengthAdjust="spacing" textLength="48" x="173" y="391.8516">publicita</text><text fill="#000000" font-family="sans-serif" font-size="13" lengthAdjust="spacing" textLength="7" x="90.9409" y="373.6495">1</text><text fill="#000000" font-family="sans-serif" font-size="13" lengthAdjust="spacing" textLength="5" x="257.8343" y="512.2246">*</text><!--MD5=[39c0de7668d8063a4eb96c23050b3de2]
link Plataforma to Freelancer--><path codeLine="139" d="M84.63,298.2064 C99.56,283.3364 119.53,265.5264 140,253.3564 C219.51,206.0864 243.5,183.3564 336,183.3564 C336,183.3564 336,183.3564 1153.5,183.3564 C1389.11,183.3564 1504.59,524.6564 1539.62,652.6464 " fill="none" id="Plataforma-Freelancer" style="stroke:#A80036;stroke-width:1.0;"/><polygon fill="#000000" points="823.3579,175.7156,815.2654,170.7194,813.8743,176.4303,823.3579,175.7156" style="stroke:#000000;stroke-width:1.0;"/><text fill="#000000" font-family="sans-serif" font-size="13" lengthAdjust="spacing" textLength="22" x="827.5" y="179.8516">tem</text><text fill="#000000" font-family="sans-serif" font-size="13" lengthAdjust="spacing" textLength="7" x="91.4819" y="287.6327">1</text><text fill="#000000" font-family="sans-serif" font-size="13" lengthAdjust="spacing" textLength="5" x="1532.3611" y="641.9597">*</text><!--MD5=[b585ec1f109bee2e6a0accf9e50b3199]
link Plataforma to Administrativo--><path codeLine="140" d="M61.9,352.7664 C68.39,419.4264 89.31,594.5764 140,731.3564 C181.15,842.3864 194.33,873.1164 271,963.3564 C323.46,1025.1064 403.8,1077.1064 450.13,1104.2064 " fill="none" id="Plataforma-Administrativo" style="stroke:#A80036;stroke-width:1.0;"/><polygon fill="#000000" points="179.295,726.9744,177.7543,717.5895,172.5322,720.2874,179.295,726.9744" style="stroke:#000000;stroke-width:1.0;"/><text fill="#000000" font-family="sans-serif" font-size="13" lengthAdjust="spacing" textLength="22" x="186" y="727.8516">tem</text><text fill="#000000" font-family="sans-serif" font-size="13" lengthAdjust="spacing" textLength="7" x="54.8794" y="373.618">1</text><text fill="#000000" font-family="sans-serif" font-size="13" lengthAdjust="spacing" textLength="5" x="433.4182" y="1093.4841">*</text><!--MD5=[49996cf4319f45f78007483382b2a228]
link Plataforma to AlgoritmoGeradorPasswords--><path codeLine="141" d="M61.2,352.6564 C67.92,456.3064 94.62,825.0164 140,932.3564 C176.6,1018.9264 195.59,1042.2664 271,1098.3564 C408.59,1200.6864 615.96,1215.3964 735.96,1214.1864 " fill="none" id="Plataforma-AlgoritmoGeradorPasswords" style="stroke:#A80036;stroke-width:1.0;"/><polygon fill="#000000" points="312.083,1093.4686,308.8195,1084.5355,304.192,1088.1598,312.083,1093.4686" style="stroke:#000000;stroke-width:1.0;"/><text fill="#000000" font-family="sans-serif" font-size="13" lengthAdjust="spacing" textLength="51" x="318" y="1094.8516">recorre a</text><text fill="#000000" font-family="sans-serif" font-size="13" lengthAdjust="spacing" textLength="7" x="62.4788" y="373.4854">1</text><text fill="#000000" font-family="sans-serif" font-size="13" lengthAdjust="spacing" textLength="7" x="721.0279" y="1228.718">1</text><!--MD5=[567db691f9836c63f305bad1024cbc66]
link Organizacao to Colaborador--><path codeLine="143" d="M387.92,908.4664 C434.8,923.5464 507.21,944.3264 572,952.3564 C729.78,971.9164 777.77,969.3864 928,917.3564 C940.67,912.9664 953.63,906.7864 965.57,900.2864 " fill="none" id="Organizacao-Colaborador" style="stroke:#A80036;stroke-width:1.0;"/><polygon fill="#000000" points="630.4995,943.4614,621.4137,940.6509,621.4969,946.5281,630.4995,943.4614" style="stroke:#000000;stroke-width:1.0;"/><text fill="#000000" font-family="sans-serif" font-size="13" lengthAdjust="spacing" textLength="22" x="634.5" y="948.8516">tem</text><text fill="#000000" font-family="sans-serif" font-size="13" lengthAdjust="spacing" textLength="7" x="395.5728" y="925.5047">1</text><text fill="#000000" font-family="sans-serif" font-size="13" lengthAdjust="spacing" textLength="20" x="938.1442" y="918.6485">1..*</text><!--MD5=[567db691f9836c63f305bad1024cbc66]
link Organizacao to Colaborador--><path codeLine="144" d="M387.54,889.6764 C512.61,885.4264 840.05,874.3164 965.55,870.0464 " fill="none" id="Organizacao-Colaborador-1" style="stroke:#A80036;stroke-width:1.0;"/><polygon fill="#000000" points="610.4971,869.3625,601.3575,866.7323,601.557,872.6068,610.4971,869.3625" style="stroke:#000000;stroke-width:1.0;"/><text fill="#000000" font-family="sans-serif" font-size="13" lengthAdjust="spacing" textLength="62" x="614.5" y="874.8516">tem gestor</text><text fill="#000000" font-family="sans-serif" font-size="13" lengthAdjust="spacing" textLength="7" x="395.4771" y="904.1124">1</text><text fill="#000000" font-family="sans-serif" font-size="13" lengthAdjust="spacing" textLength="7" x="950.893" y="884.9048">1</text><!--MD5=[ca49ec1e86bb5e8c049c02c54bfc3088]
link Organizacao to EnderecoPostal--><path codeLine="145" d="M387.81,931.3664 C401.71,940.6864 417.33,949.5664 433,955.3564 C491.34,976.8964 509.92,967.7064 572,971.3564 C1040.53,998.8964 1158.67,973.6864 1628,974.3564 C1676,974.4264 1688.03,975.9264 1736,974.3564 C1751.37,973.8464 1767.97,972.9364 1783.39,971.9364 " fill="none" id="Organizacao-EnderecoPostal" style="stroke:#A80036;stroke-width:1.0;"/><polygon fill="#000000" points="1114.9979,971.6775,1106.042,968.477,1105.8712,974.3524,1114.9979,971.6775" style="stroke:#000000;stroke-width:1.0;"/><text fill="#000000" font-family="sans-serif" font-size="13" lengthAdjust="spacing" textLength="80" x="1119" y="976.8516">localizada em</text><text fill="#000000" font-family="sans-serif" font-size="13" lengthAdjust="spacing" textLength="22" x="395.3431" y="950.7233">0..1</text><text fill="#000000" font-family="sans-serif" font-size="13" lengthAdjust="spacing" textLength="7" x="1768.6375" y="987.0162">1</text><!--MD5=[cf2deab2ed1f09cef5b70f58ef028e55]
link Organizacao to Tarefa--><path codeLine="146" d="M387.54,846.1064 C441.79,796.5564 528.5,717.3664 584.33,666.3664 " fill="none" id="Organizacao-Tarefa" style="stroke:#A80036;stroke-width:1.0;"/><polygon fill="#000000" points="469.6918,694.1602,461.0312,698.0902,464.9952,702.4302,469.6918,694.1602" style="stroke:#000000;stroke-width:1.0;"/><text fill="#000000" font-family="sans-serif" font-size="13" lengthAdjust="spacing" textLength="38" x="475" y="702.8516">possui</text><text fill="#000000" font-family="sans-serif" font-size="13" lengthAdjust="spacing" textLength="7" x="395.4771" y="854.1431">1</text><text fill="#000000" font-family="sans-serif" font-size="13" lengthAdjust="spacing" textLength="5" x="571.6478" y="687.5449">*</text><!--MD5=[e538c9efa8de58386edc6206f3c58807]
link CompetenciaTecnica to AreaAtividade--><path codeLine="148" d="M2569.62,221.4464 C2701.52,214.4364 2975.53,199.8664 3095.78,193.4764 " fill="none" id="CompetenciaTecnica-AreaAtividade" style="stroke:#A80036;stroke-width:1.0;"/><polygon fill="#000000" points="2969.993,187.2668,2960.8046,184.8122,2961.1166,190.6817,2969.993,187.2668" style="stroke:#000000;stroke-width:1.0;"/><text fill="#000000" font-family="sans-serif" font-size="13" lengthAdjust="spacing" textLength="61" x="2974" y="192.8516">referente a</text><text fill="#000000" font-family="sans-serif" font-size="13" lengthAdjust="spacing" textLength="5" x="2577.573" y="217.7568">*</text><text fill="#000000" font-family="sans-serif" font-size="13" lengthAdjust="spacing" textLength="7" x="3081.0751" y="208.3782">1</text><!--MD5=[0d731ff285a62a08178b23be6cceb109]
link CompetenciaTecnica to GrauProficiencia--><path codeLine="149" d="M2569.66,237.3564 C2704.59,259.8464 3000.16,311.3964 3246,370.3564 C3255.7,372.6764 3265.91,375.3764 3275.85,378.1264 " fill="none" id="CompetenciaTecnica-GrauProficiencia" style="stroke:#A80036;stroke-width:1.0;"/><polygon fill="#000000" points="3140.9035,329.5097,3132.6075,324.8592,3131.4584,330.6237,3140.9035,329.5097" style="stroke:#000000;stroke-width:1.0;"/><text fill="#000000" font-family="sans-serif" font-size="13" lengthAdjust="spacing" textLength="34" x="3145" y="333.8516">aplica</text><text fill="#000000" font-family="sans-serif" font-size="13" lengthAdjust="spacing" textLength="7" x="2577.7203" y="252.9576">1</text><text fill="#000000" font-family="sans-serif" font-size="13" lengthAdjust="spacing" textLength="5" x="3263.0317" y="372.4662">*</text><!--MD5=[333932e5e4606ec9852f0cecc179b212]
link Categoria to AreaAtividade--><path codeLine="151" d="M1200,299.8264 C1255.03,310.1964 1349.53,325.3564 1431.5,325.3564 C1431.5,325.3564 1431.5,325.3564 2496,325.3564 C2676.52,325.3564 2724.11,323.9764 2900,283.3564 C2969.1,267.3964 3045.07,237.9864 3095.86,216.4964 " fill="none" id="Categoria-AreaAtividade" style="stroke:#A80036;stroke-width:1.0;"/><polygon fill="#000000" points="1637.9952,316.3127,1628.8298,313.7738,1629.0879,319.6459,1637.9952,316.3127" style="stroke:#000000;stroke-width:1.0;"/><text fill="#000000" font-family="sans-serif" font-size="13" lengthAdjust="spacing" textLength="93" x="1642" y="321.8516">enquadra-se em</text><text fill="#000000" font-family="sans-serif" font-size="13" lengthAdjust="spacing" textLength="5" x="1207.9688" y="316.16">*</text><text fill="#000000" font-family="sans-serif" font-size="13" lengthAdjust="spacing" textLength="7" x="3081.1648" y="234.2038">1</text><!--MD5=[94d56233373765da1ae3f1ad00e0b121]
link Categoria to apoint43--><path d="M1200.05,287.9264 C1349.99,280.0864 1812.35,255.9264 1841.1,254.4264 " fill="none" id="Categoria-apoint43" style="stroke:#A80036;stroke-width:1.0;"/><polygon fill="#000000" points="1416.9932,265.2713,1407.8071,262.8084,1408.1138,268.6782,1416.9932,265.2713" style="stroke:#000000;stroke-width:1.0;"/><text fill="#000000" font-family="sans-serif" font-size="13" lengthAdjust="spacing" textLength="36" x="1421" y="270.8516">requer</text><text fill="#000000" font-family="sans-serif" font-size="13" lengthAdjust="spacing" textLength="5" x="1208.0267" y="302.3634">*</text><!--MD5=[3a24875c7d4d0f26b2b830274461cd6b]
link apoint43 to CompetenciaTecnica--><path d="M1845.55,254.2764 C1853.67,253.6664 1907.33,249.6764 1951,247.3564 C2118.7,238.4464 2315.71,231.2964 2420.2,227.7564 " fill="none" id="apoint43-CompetenciaTecnica" style="stroke:#A80036;stroke-width:1.0;"/><text fill="#000000" font-family="sans-serif" font-size="13" lengthAdjust="spacing" textLength="5" x="2407.5908" y="242.3168">*</text><!--MD5=[e937bcb3a57e3849f7fd7dffc75087ed]
link apoint43 to CaraterCT--><path d="M1845.52,254.4864 C1853.59,255.5464 1907.78,262.6664 1950.69,268.2964 " fill="none" id="apoint43-CaraterCT" style="stroke:#A80036;stroke-width:1.0;stroke-dasharray:7.0,7.0;"/><!--MD5=[8c0835971d966be6a8d860f4ee2f4601]
link CaraterCT to GrauProficiencia--><path codeLine="154" d="M2060.4,280.5564 C2070.24,281.4964 2080.43,282.4664 2090,283.3564 C2545.7,325.8364 3095.33,374.9064 3275.85,390.9664 " fill="none" id="CaraterCT-GrauProficiencia" style="stroke:#A80036;stroke-width:1.0;"/><polygon fill="#000000" points="2939.9795,351.9846,2931.2374,348.2394,2930.7056,354.0932,2939.9795,351.9846" style="stroke:#000000;stroke-width:1.0;"/><text fill="#000000" font-family="sans-serif" font-size="13" lengthAdjust="spacing" textLength="121" x="2944" y="356.8516">exige (como mínimo)</text><text fill="#000000" font-family="sans-serif" font-size="13" lengthAdjust="spacing" textLength="5" x="2068.1131" y="295.86">*</text><text fill="#000000" font-family="sans-serif" font-size="13" lengthAdjust="spacing" textLength="7" x="3260.9098" y="404.8211">1</text><!--MD5=[cc2561a0285988b367253361d2d1973d]
link Tarefa to Categoria--><path codeLine="156" d="M693.6,607.6364 C775.43,592.7564 922.66,565.7864 928,563.3564 C1003.76,528.9064 1022.79,512.1664 1075,447.3564 C1105.34,409.6964 1127.57,358.0164 1140.02,324.4064 " fill="none" id="Tarefa-Categoria" style="stroke:#A80036;stroke-width:1.0;"/><polygon fill="#000000" points="787.222,551.8536,778.0099,554.2177,781.1588,559.1809,787.222,551.8536" style="stroke:#000000;stroke-width:1.0;"/><text fill="#000000" font-family="sans-serif" font-size="13" lengthAdjust="spacing" textLength="93" x="792" y="559.8516">enquadra-se em</text><text fill="#000000" font-family="sans-serif" font-size="13" lengthAdjust="spacing" textLength="5" x="701.6297" y="620.9133">*</text><text fill="#000000" font-family="sans-serif" font-size="13" lengthAdjust="spacing" textLength="7" x="1130.1736" y="345.4523">1</text><!--MD5=[ebe0b2adceebb6ee2636cb1948c7c8a9]
link Tarefa to Colaborador--><path codeLine="157" d="M658.52,678.8564 C673.31,717.3864 697.98,764.7964 736,792.3564 C806.3,843.3064 845.24,802.1164 928,828.3564 C940.58,832.3464 953.73,837.6764 965.89,843.1564 " fill="none" id="Tarefa-Colaborador" style="stroke:#A80036;stroke-width:1.0;"/><polygon fill="#000000" points="786.9096,785.8893,780.318,779.0334,777.5471,784.2172,786.9096,785.8893" style="stroke:#000000;stroke-width:1.0;"/><text fill="#000000" font-family="sans-serif" font-size="13" lengthAdjust="spacing" textLength="94" x="791.5" y="788.8516">especificada por</text><text fill="#000000" font-family="sans-serif" font-size="13" lengthAdjust="spacing" textLength="5" x="655.4879" y="700.4069">*</text><text fill="#000000" font-family="sans-serif" font-size="13" lengthAdjust="spacing" textLength="7" x="950.9426" y="854.1259">1</text><!--MD5=[439a6ad1de0b5aa57a973cae1bf36ce5]
link Anuncio to Tarefa--><path codeLine="160" d="M403.13,607.7964 C412.75,612.9364 422.84,617.3764 433,620.3564 C482.69,634.9364 542.12,631.9764 584.17,626.6964 " fill="none" id="Anuncio-Tarefa" style="stroke:#A80036;stroke-width:1.0;"/><polygon fill="#000000" points="465.973,612.0514,457.2819,608.1892,456.6716,614.0353,465.973,612.0514" style="stroke:#000000;stroke-width:1.0;"/><text fill="#000000" font-family="sans-serif" font-size="13" lengthAdjust="spacing" textLength="48" x="470" y="616.8516">publicita</text><text fill="#000000" font-family="sans-serif" font-size="13" lengthAdjust="spacing" textLength="22" x="411.084" y="609.4793">0..1</text><text fill="#000000" font-family="sans-serif" font-size="13" lengthAdjust="spacing" textLength="7" x="569.3319" y="642.5442">1</text><!--MD5=[439a6ad1de0b5aa57a973cae1bf36ce5]
link Anuncio to Tarefa--><path codeLine="161" d="M403.25,571.7164 C443.3,579.3364 495.63,589.3364 542,598.3564 C555.76,601.0364 570.62,603.9564 584.44,606.6964 " fill="none" id="Anuncio-Tarefa-1" style="stroke:#A80036;stroke-width:1.0;"/><polygon fill="#000000" points="451.5907,568.5844,459.9147,573.1846,461.0288,567.4134,451.5907,568.5844" style="stroke:#000000;stroke-width:1.0;"/><text fill="#000000" font-family="sans-serif" font-size="13" lengthAdjust="spacing" textLength="57" x="465.5" y="574.8516">dá origem</text><text fill="#000000" font-family="sans-serif" font-size="13" lengthAdjust="spacing" textLength="22" x="411.2164" y="587.3285">0..1</text><text fill="#000000" font-family="sans-serif" font-size="13" lengthAdjust="spacing" textLength="7" x="569.6382" y="619.8567">1</text><!--MD5=[3fb03004f687adcfc695220fdd65ad26]
link Anuncio to TipoRegimento--><path codeLine="162" d="M403.07,506.9264 C412.77,500.4564 422.91,494.3664 433,489.3564 C609.34,401.7864 849.33,393.2964 957.93,394.4964 " fill="none" id="Anuncio-TipoRegimento" style="stroke:#A80036;stroke-width:1.0;"/><polygon fill="#000000" points="608.9004,401.5393,599.4518,400.4552,600.6191,406.2159,608.9004,401.5393" style="stroke:#000000;stroke-width:1.0;"/><text fill="#000000" font-family="sans-serif" font-size="13" lengthAdjust="spacing" textLength="65" x="613" y="407.8516">rege-se por</text><text fill="#000000" font-family="sans-serif" font-size="13" lengthAdjust="spacing" textLength="5" x="410.9984" y="515.3038">*</text><text fill="#000000" font-family="sans-serif" font-size="13" lengthAdjust="spacing" textLength="7" x="942.9773" y="408.8218">1</text><!--MD5=[0a535575571876f6213287bf563a867d]
link Anuncio to Colaborador--><path codeLine="163" d="M347.49,620.9864 C358.76,672.1564 382.81,742.6164 433,781.3564 C516.07,845.4764 840.37,862.7064 965.69,867.0164 " fill="none" id="Anuncio-Colaborador" style="stroke:#A80036;stroke-width:1.0;"/><polygon fill="#000000" points="602.6456,823.3811,595.3283,817.3058,593.1549,822.7671,602.6456,823.3811" style="stroke:#000000;stroke-width:1.0;"/><text fill="#000000" font-family="sans-serif" font-size="13" lengthAdjust="spacing" textLength="77" x="607" y="826.8516">publicado por</text><text fill="#000000" font-family="sans-serif" font-size="13" lengthAdjust="spacing" textLength="5" x="343.4138" y="642.552">*</text><text fill="#000000" font-family="sans-serif" font-size="13" lengthAdjust="spacing" textLength="7" x="951.0527" y="863.1987">1</text><!--MD5=[27b52c98fcb5387c047ce09b42fcb62d]
link Anuncio to Candidatura--><path codeLine="164" d="M403.23,618.7064 C412.87,626.1464 422.95,633.2664 433,639.3564 C490.11,673.9464 508.21,676.6464 572,696.3564 C643.21,718.3564 661.88,723.5364 736,731.3564 C914.43,750.1864 1126.29,725.5264 1229.77,710.4664 " fill="none" id="Anuncio-Candidatura" style="stroke:#A80036;stroke-width:1.0;"/><polygon fill="#000000" points="814.9695,723.0839,806.3039,719.1649,805.6553,725.0069,814.9695,723.0839" style="stroke:#000000;stroke-width:1.0;"/><text fill="#000000" font-family="sans-serif" font-size="13" lengthAdjust="spacing" textLength="39" x="819" y="727.8516">recebe</text><text fill="#000000" font-family="sans-serif" font-size="13" lengthAdjust="spacing" textLength="7" x="410.8567" y="639.5863">1</text><text fill="#000000" font-family="sans-serif" font-size="13" lengthAdjust="spacing" textLength="5" x="1217.0543" y="726.0655">*</text><!--MD5=[02d330b3691aaed85c2b7230cc23c1df]
link Anuncio to ProcessoSeriacao--><path codeLine="165" d="M403.1,545.0364 C453.07,534.0364 521.79,518.9164 572,507.8764 " fill="none" id="Anuncio-ProcessoSeriacao" style="stroke:#A80036;stroke-width:1.0;"/><polygon fill="#000000" points="465.3832,505.4579,455.9179,504.5311,457.1809,510.2717,465.3832,505.4579" style="stroke:#000000;stroke-width:1.0;"/><text fill="#000000" font-family="sans-serif" font-size="13" lengthAdjust="spacing" textLength="49" x="469.5" y="511.8516">espoleta</text><text fill="#000000" font-family="sans-serif" font-size="13" lengthAdjust="spacing" textLength="7" x="411.1475" y="557.8202">1</text><text fill="#000000" font-family="sans-serif" font-size="13" lengthAdjust="spacing" textLength="22" x="541.9563" y="523.7205">0..1</text><!--MD5=[a66e767a4304f5fa76db98d7839a7a61]
link Candidatura to Freelancer--><path codeLine="167" d="M1358.08,700.3564 C1404.21,700.3564 1465.66,700.3564 1506.8,700.3564 " fill="none" id="Candidatura-Freelancer" style="stroke:#A80036;stroke-width:1.0;"/><polygon fill="#000000" points="1398,691.5322,1388.9549,688.5933,1388.9549,694.4712,1398,691.5322" style="stroke:#000000;stroke-width:1.0;"/><text fill="#000000" font-family="sans-serif" font-size="13" lengthAdjust="spacing" textLength="74" x="1402" y="696.8516">realizada por</text><text fill="#000000" font-family="sans-serif" font-size="13" lengthAdjust="spacing" textLength="5" x="1366.1944" y="714.837">*</text><text fill="#000000" font-family="sans-serif" font-size="13" lengthAdjust="spacing" textLength="7" x="1491.9588" y="715.1272">1</text><!--MD5=[577fefe1351fe0f89ea5388d9641a019]
link ProcessoSeriacao to TipoRegimento--><path codeLine="169" d="M706.32,482.1664 C784.75,468.7864 907.31,447.3064 928,440.3564 C937.83,437.0564 947.95,432.8264 957.65,428.3064 " fill="none" id="ProcessoSeriacao-TipoRegimento" style="stroke:#A80036;stroke-width:1.0;"/><polygon fill="#000000" points="746.889,430.4845,737.4289,429.5062,738.6605,435.2535,746.889,430.4845" style="stroke:#000000;stroke-width:1.0;"/><text fill="#000000" font-family="sans-serif" font-size="13" lengthAdjust="spacing" textLength="175" x="751" y="436.8516">decorre em concordância com</text><text fill="#000000" font-family="sans-serif" font-size="13" lengthAdjust="spacing" textLength="5" x="713.9566" y="495.3409">*</text><text fill="#000000" font-family="sans-serif" font-size="13" lengthAdjust="spacing" textLength="7" x="943.0511" y="446.7119">1</text><!--MD5=[d8cba5363504d1c2665cc78c5e9b9c32]
link ProcessoSeriacao to Colaborador--><path codeLine="170" d="M687.88,520.5164 C694.59,525.7964 700.91,531.7664 706,538.3564 C730.23,569.7264 708.89,593.4264 736,622.3564 C799.57,690.1964 859.54,642.4564 928,705.3564 C962.29,736.8664 985.81,784.9764 999.76,820.7664 " fill="none" id="ProcessoSeriacao-Colaborador" style="stroke:#A80036;stroke-width:1.0;"/><polygon fill="#000000" points="796.1021,617,791.6242,608.6095,787.5476,612.844,796.1021,617" style="stroke:#000000;stroke-width:1.0;"/><text fill="#000000" font-family="sans-serif" font-size="13" lengthAdjust="spacing" textLength="74" x="801.5" y="618.8516">realizado por</text><text fill="#000000" font-family="sans-serif" font-size="13" lengthAdjust="spacing" textLength="7" x="690.8069" y="541.7592">1</text><text fill="#000000" font-family="sans-serif" font-size="13" lengthAdjust="spacing" textLength="20" x="975.8326" y="810.0974">1..*</text><!--MD5=[52bd50d7906bad09d4dfcc260d1229dc]
link ProcessoSeriacao to Classificacao--><path codeLine="171" d="M706.28,500.8564 C785.33,510.2064 909.23,526.3164 928,537.3564 C962.22,557.4864 987.84,596.5964 1002.25,623.0964 " fill="none" id="ProcessoSeriacao-Classificacao" style="stroke:#A80036;stroke-width:1.0;"/><polygon fill="#000000" points="814.6214,498.4409,807.3831,492.2717,805.1393,497.7044,814.6214,498.4409" style="stroke:#000000;stroke-width:1.0;"/><text fill="#000000" font-family="sans-serif" font-size="13" lengthAdjust="spacing" textLength="39" x="819" y="501.8516">resulta</text><text fill="#000000" font-family="sans-serif" font-size="13" lengthAdjust="spacing" textLength="7" x="714.0216" y="516.0751">1</text><text fill="#000000" font-family="sans-serif" font-size="13" lengthAdjust="spacing" textLength="5" x="993.3766" y="612.4973">*</text><!--MD5=[471b8c6ff5fcf31b4b6fb9b4f947344d]
link Classificacao to Candidatura--><path codeLine="173" d="M1070.29,659.9364 C1115.76,668.1864 1181.49,680.1164 1229.75,688.8764 " fill="none" id="Classificacao-Candidatura" style="stroke:#A80036;stroke-width:1.0;"/><polygon fill="#000000" points="1124.4196,659.4251,1116.0447,654.9182,1114.9951,660.7016,1124.4196,659.4251" style="stroke:#000000;stroke-width:1.0;"/><text fill="#000000" font-family="sans-serif" font-size="13" lengthAdjust="spacing" textLength="61" x="1128.5" y="663.8516">referente a</text><text fill="#000000" font-family="sans-serif" font-size="13" lengthAdjust="spacing" textLength="22" x="1078.1863" y="675.6055">0..1</text><text fill="#000000" font-family="sans-serif" font-size="13" lengthAdjust="spacing" textLength="7" x="1214.9164" y="701.9791">1</text><!--MD5=[83793280d21cff2204dcf19c1386ed48]
link Administrativo to Utilizador--><path codeLine="175" d="M542.16,1127.9064 C609.56,1132.0564 728.79,1138.3564 831,1138.3564 C831,1138.3564 831,1138.3564 1553.5,1138.3564 C1639.31,1138.3564 1737.98,1119.9964 1794.99,1107.5564 " fill="none" id="Administrativo-Utilizador" style="stroke:#A80036;stroke-width:1.0;"/><polygon fill="#000000" points="1124.4993,1129.451,1115.4077,1126.6594,1115.5032,1132.5365,1124.4993,1129.451" style="stroke:#000000;stroke-width:1.0;"/><text fill="#000000" font-family="sans-serif" font-size="13" lengthAdjust="spacing" textLength="61" x="1128.5" y="1134.8516">atua como</text><text fill="#000000" font-family="sans-serif" font-size="13" lengthAdjust="spacing" textLength="22" x="550.1623" y="1142.8306">0..1</text><text fill="#000000" font-family="sans-serif" font-size="13" lengthAdjust="spacing" textLength="7" x="1780.026" y="1124.0562">1</text><!--MD5=[bcb5794e8184ce78d304f04a5beabbc0]
link Colaborador to Utilizador--><path codeLine="177" d="M1027.11,915.8664 C1038.24,957.5064 1061,1015.8764 1105,1045.3564 C1218.08,1121.1264 1650.13,1106.3464 1794.9,1099.0564 " fill="none" id="Colaborador-Utilizador" style="stroke:#A80036;stroke-width:1.0;"/><polygon fill="#000000" points="1404.3635,1093.6926,1396.2474,1088.7348,1394.8833,1094.4521,1404.3635,1093.6926" style="stroke:#000000;stroke-width:1.0;"/><text fill="#000000" font-family="sans-serif" font-size="13" lengthAdjust="spacing" textLength="61" x="1408.5" y="1097.8516">atua como</text><text fill="#000000" font-family="sans-serif" font-size="13" lengthAdjust="spacing" textLength="22" x="1005.0503" y="937.8621">0..1</text><text fill="#000000" font-family="sans-serif" font-size="13" lengthAdjust="spacing" textLength="7" x="1779.9222" y="1114.2546">1</text><!--MD5=[6a7c57800a31452a20aa2f5037e36afb]
link Freelancer to Utilizador--><path codeLine="179" d="M1567.3,747.8664 C1579.73,786.2964 1600.3,840.8064 1628,883.3564 C1674.1,954.1664 1747.05,1020.1564 1794.85,1059.3864 " fill="none" id="Freelancer-Utilizador" style="stroke:#A80036;stroke-width:1.0;"/><polygon fill="#000000" points="1651.9492,878.5698,1648.9872,869.5322,1644.2408,872.9993,1651.9492,878.5698" style="stroke:#000000;stroke-width:1.0;"/><text fill="#000000" font-family="sans-serif" font-size="13" lengthAdjust="spacing" textLength="61" x="1658" y="879.8516">atua como</text><text fill="#000000" font-family="sans-serif" font-size="13" lengthAdjust="spacing" textLength="22" x="1545.8819" y="769.8621">0..1</text><text fill="#000000" font-family="sans-serif" font-size="13" lengthAdjust="spacing" textLength="7" x="1779.8645" y="1068.5101">1</text><!--MD5=[b8422db8e85907663c841d4c41f19cc1]
link Freelancer to EnderecoPostal--><path codeLine="180" d="M1598.37,737.0064 C1635.93,768.1464 1690.54,814.4864 1736,857.3564 C1759.4,879.4164 1784.47,905.1964 1804.41,926.2564 " fill="none" id="Freelancer-EnderecoPostal" style="stroke:#A80036;stroke-width:1.0;"/><polygon fill="#000000" points="1672.1824,756.9145,1667.509,748.6314,1663.5328,752.9603,1672.1824,756.9145" style="stroke:#000000;stroke-width:1.0;"/><text fill="#000000" font-family="sans-serif" font-size="13" lengthAdjust="spacing" textLength="22" x="1677.5" y="758.8516">tem</text><text fill="#000000" font-family="sans-serif" font-size="13" lengthAdjust="spacing" textLength="22" x="1606.0119" y="756.5019">0..1</text><text fill="#000000" font-family="sans-serif" font-size="13" lengthAdjust="spacing" textLength="7" x="1790.0898" y="915.385">1</text><!--MD5=[7a59ad2cb29ff6e914b8672ce881fef8]
link Freelancer to HabilitacaoAcademica--><path codeLine="181" d="M1598.02,700.3564 C1642.67,700.3564 1712.3,700.3564 1765.85,700.3564 " fill="none" id="Freelancer-HabilitacaoAcademica" style="stroke:#A80036;stroke-width:1.0;"/><polygon fill="#000000" points="1673.5,691.5322,1664.4549,688.5933,1664.4549,694.4712,1673.5,691.5322" style="stroke:#000000;stroke-width:1.0;"/><text fill="#000000" font-family="sans-serif" font-size="13" lengthAdjust="spacing" textLength="22" x="1677.5" y="696.8516">tem</text><text fill="#000000" font-family="sans-serif" font-size="13" lengthAdjust="spacing" textLength="7" x="1606.1389" y="715.1772">1</text><text fill="#000000" font-family="sans-serif" font-size="13" lengthAdjust="spacing" textLength="5" x="1752.9602" y="714.6394">*</text><!--MD5=[d8cdfe47acc319ba7387450f2c7628f2]
link Freelancer to ReconhecimentoCT--><path codeLine="182" d="M1598.02,664.4564 C1656.13,617.6064 1756.55,536.6564 1808.76,494.5564 " fill="none" id="Freelancer-ReconhecimentoCT" style="stroke:#A80036;stroke-width:1.0;"/><polygon fill="#000000" points="1656.3925,544.394,1647.5063,547.7831,1651.1955,552.359,1656.3925,544.394" style="stroke:#000000;stroke-width:1.0;"/><text fill="#000000" font-family="sans-serif" font-size="13" lengthAdjust="spacing" textLength="54" x="1661.5" y="552.8516">recebe(u)</text><text fill="#000000" font-family="sans-serif" font-size="13" lengthAdjust="spacing" textLength="7" x="1606.1389" y="673.3313">1</text><text fill="#000000" font-family="sans-serif" font-size="13" lengthAdjust="spacing" textLength="5" x="1795.6138" y="515.808">*</text><!--MD5=[f49a2ed7e599b0b3feae4bc7e03654d4]
link ReconhecimentoCT to CompetenciaTecnica--><path codeLine="185" d="M1914.62,441.2264 C2038.37,395.1164 2294.3,299.7664 2420.45,252.7664 " fill="none" id="ReconhecimentoCT-CompetenciaTecnica" style="stroke:#A80036;stroke-width:1.0;"/><polygon fill="#000000" points="1982.1854,378.7866,1972.6834,379.1905,1974.7355,384.6985,1982.1854,378.7866" style="stroke:#000000;stroke-width:1.0;"/><text fill="#000000" font-family="sans-serif" font-size="13" lengthAdjust="spacing" textLength="51" x="1986.5" y="385.8516">relativa a</text><text fill="#000000" font-family="sans-serif" font-size="13" lengthAdjust="spacing" textLength="5" x="1922.6722" y="452.7668">*</text><text fill="#000000" font-family="sans-serif" font-size="13" lengthAdjust="spacing" textLength="7" x="2405.4011" y="269.9567">1</text><!--MD5=[4c83f560ef7c82f9519d7b4f6acd253e]
link ReconhecimentoCT to GrauProficiencia--><path codeLine="186" d="M1914.96,464.0064 C2169.4,451.8964 3038.26,410.5464 3275.96,399.2364 " fill="none" id="ReconhecimentoCT-GrauProficiencia" style="stroke:#A80036;stroke-width:1.0;"/><polygon fill="#000000" points="2977.4943,400.2945,2968.3198,397.7889,2968.5992,403.6601,2977.4943,400.2945" style="stroke:#000000;stroke-width:1.0;"/><text fill="#000000" font-family="sans-serif" font-size="13" lengthAdjust="spacing" textLength="46" x="2981.5" y="405.8516">reconhe</text><text fill="#000000" font-family="sans-serif" font-size="13" lengthAdjust="spacing" textLength="5" x="1922.5871" y="478.0077">*</text><text fill="#000000" font-family="sans-serif" font-size="13" lengthAdjust="spacing" textLength="7" x="3261.0333" y="414.099">1</text><!--MD5=[4aa6a936df4ad7b844bdcf1457a2ad73]
link AlgoritmoGeradorPasswords to Utilizador--><path codeLine="190" d="M928.12,1209.3564 C991.42,1209.3564 1076.44,1209.3564 1151.5,1209.3564 C1151.5,1209.3564 1151.5,1209.3564 1553.5,1209.3564 C1637.04,1209.3564 1659.22,1197.2764 1736,1164.3564 C1756.26,1155.6664 1777.03,1143.3264 1794.78,1131.5264 " fill="none" id="AlgoritmoGeradorPasswords-Utilizador" style="stroke:#A80036;stroke-width:1.0;"/><polygon fill="#000000" points="1254.48,1200.085,1245.2083,1197.9669,1245.734,1203.8212,1254.48,1200.085" style="stroke:#000000;stroke-width:1.0;"/><text fill="#000000" font-family="sans-serif" font-size="13" lengthAdjust="spacing" textLength="84" x="1258.5" y="1205.8516">gera password</text><text fill="#000000" font-family="sans-serif" font-size="13" lengthAdjust="spacing" textLength="7" x="936.0585" y="1223.5031">1</text><text fill="#000000" font-family="sans-serif" font-size="13" lengthAdjust="spacing" textLength="5" x="1781.9369" y="1151.6966">*</text><!--MD5=[73e386493834c49b57bde715b857a06d]
@startuml
skinparam classAttributeIconSize 0
hide methods
left to right direction

class Plataforma {
  -String designacao
}

class AreaAtividade {
  -String id
  -String descBreve
  -String descDetalhada

}

class CompetenciaTecnica {
  -String codigo
  -String descBreve
  -String descDetalhada
}

class GrauProficiencia {
  -Integer valor
  -String designacao
}

class Categoria {
  -String id
  -String descricao
}

class CaraterCT {
  -Boolean obrigatoria
}

class Organizacao {
  -String nome
  -String NIF
  -String website
  -String telefone
  -String email
}

class Colaborador {
  -String nome
  -String funcao
  -String telefone
  -String email
}

class EnderecoPostal {
  -String local
  -String codPostal
  -String localidade
}

class Tarefa {
  -String referencia
  -String designacao
  -String descInformal
  -String descTecnica
  -Integer duracaoEst
  -Double custoEst
}

class TipoRegimento {
    -String designacao
    -String descRegras
}

class Administrativo {

}

class Freelancer {
    -String nome
    -String nif
    -String telefone
    -String email
}

class ReconhecimentoCT {
    -Date dataReconhecimento
}

class HabilitacaoAcademica {
    -String grau
    -String designacaoCurso
    -String nomeInstituicao
    -Double mediaCurso
}

note right
Curso e grau académico não foram considerados aqui por não serem, na nossa opinião, relevantes para o negócio. Rever posteriormente
end note



class Anuncio {
    -Date dtInicioPublicitacao
    -Date dtFimPublicitacao
    -Date dtInicioCandidatura
    -Date dtFimCandidatura
    -Date dtInicioSeriacao
    -Date dtFimSeriacao
}

class Candidatura {
    -Date dataCandidatura
    -Double valorPretendido
    -Integer nrDias
    -String txtApresentacao
    -String txtMotivacao
}

class Classificacao {
    -Integer lugar
}

class ProcessoSeriacao {
    -Date dataRealizacao
}

class Utilizador {
  -String nome
  -String email
  -String password
}

class AlgoritmoGeradorPasswords {
}

Plataforma "1" - - "*" AreaAtividade : possui >
Plataforma "1" - - "*" CompetenciaTecnica : possui >
Plataforma "1" - - "*" Categoria : possui >
Plataforma "1" - - "*" Organizacao : tem registadas >
Plataforma "1" - - "*" TipoRegimento : suporta >
Plataforma "1" - - "*" Anuncio : publicita >
Plataforma "1" - - "*" Freelancer : tem  >
Plataforma "1" - - "*" Administrativo : tem  >
Plataforma "1" - - "1" AlgoritmoGeradorPasswords : recorre a >

Organizacao "1" - - "1..*" Colaborador: tem >
Organizacao "1" - - "1" Colaborador: tem gestor >
Organizacao "0..1" - - "1" EnderecoPostal: localizada em >
Organizacao "1" - - "*" Tarefa: possui >

CompetenciaTecnica "*" - - "1" AreaAtividade : referente a >
CompetenciaTecnica "1" - - - "*" GrauProficiencia : aplica  >

Categoria "*" - - "1" AreaAtividade: enquadra-se em >
Categoria "*" - - "*" CompetenciaTecnica: requer >
(Categoria, CompetenciaTecnica) .. CaraterCT
CaraterCT "*" - - "1" GrauProficiencia: exige (como mínimo)  >

Tarefa "*" - - "1" Categoria: enquadra-se em >
Tarefa "*" - - "1" Colaborador: especificada por >


Anuncio "0..1" - - "1" Tarefa: publicita >
Anuncio "0..1" - - "1" Tarefa: dá origem <
Anuncio "*" - - "1" TipoRegimento: rege-se por >
Anuncio "*" - - "1" Colaborador: publicado por >
Anuncio "1" - - "*" Candidatura: recebe >
Anuncio "1" - - "0..1" ProcessoSeriacao: espoleta >

Candidatura "*" - - "1"  Freelancer: realizada por >

ProcessoSeriacao "*" - - "1" TipoRegimento: decorre em concordância com >
ProcessoSeriacao "1" - - "1..*" Colaborador: realizado por >
ProcessoSeriacao "1" - - "*" Classificacao: resulta >

Classificacao "0..1" - - "1" Candidatura: referente a >

Administrativo "0..1" - - "1" Utilizador: atua como >

Colaborador "0..1" - - "1" Utilizador: atua como >

Freelancer "0..1" - - "1" Utilizador: atua como >
Freelancer "0..1" - - "1" EnderecoPostal: tem >
Freelancer "1" - - "*" HabilitacaoAcademica: tem >
Freelancer "1" - - "*" ReconhecimentoCT : recebe(u) >


ReconhecimentoCT "*" - - "1" CompetenciaTecnica: relativa a >
ReconhecimentoCT "*" - - "1" GrauProficiencia: reconhe >



AlgoritmoGeradorPasswords "1" - - "*" Utilizador : gera password >

@enduml

PlantUML version 1.2021.00(Sun Jan 10 10:25:05 WET 2021)
(GPL source distribution)
Java Runtime: Java(TM) SE Runtime Environment
JVM: Java HotSpot(TM) 64-Bit Server VM
Default Encoding: Cp1252
Language: pt
Country: PT
--></g></svg>