<?xml version="1.0" encoding="UTF-8" standalone="no"?><svg xmlns="http://www.w3.org/2000/svg" xmlns:xlink="http://www.w3.org/1999/xlink" contentScriptType="application/ecmascript" contentStyleType="text/css" height="291px" preserveAspectRatio="none" style="width:2590px;height:291px;" version="1.1" viewBox="0 0 2590 291" width="2590px" zoomAndPan="magnify"><defs><filter height="300%" id="fkeo0st3nvx6k" width="300%" x="-1" y="-1"><feGaussianBlur result="blurOut" stdDeviation="2.0"/><feColorMatrix in="blurOut" result="blurOut2" type="matrix" values="0 0 0 0 0 0 0 0 0 0 0 0 0 0 0 0 0 0 .4 0"/><feOffset dx="4.0" dy="4.0" in="blurOut2" result="blurOut3"/><feBlend in="SourceGraphic" in2="blurOut3" mode="normal"/></filter></defs><g><!--MD5=[ec2a6073c5ac2ee636ecd228e03db6ae]
class RegistarCandidaturaUI--><rect codeLine="4" fill="#FEFECE" filter="url(#fkeo0st3nvx6k)" height="48" id="RegistarCandidaturaUI" style="stroke:#A80036;stroke-width:1.5;" width="159" x="7" y="89"/><ellipse cx="22" cy="105" fill="#ADD1B2" rx="11" ry="11" style="stroke:#A80036;stroke-width:1.0;"/><path d="M24.7656,100.875 Q24.9219,100.6563 25.1094,100.5469 Q25.2969,100.4375 25.5156,100.4375 Q25.8906,100.4375 26.125,100.7031 Q26.3594,100.9531 26.3594,101.5625 L26.3594,103.0156 Q26.3594,103.625 26.125,103.8906 Q25.8906,104.1563 25.5156,104.1563 Q25.1719,104.1563 24.9688,103.9531 Q24.7656,103.7656 24.6563,103.25 Q24.6094,102.8906 24.4219,102.7031 Q24.0938,102.3281 23.4844,102.1094 Q22.875,101.8906 22.25,101.8906 Q21.4844,101.8906 20.8438,102.2188 Q20.2188,102.5469 19.7188,103.2969 Q19.2344,104.0469 19.2344,105.0781 L19.2344,106.1719 Q19.2344,107.4063 20.125,108.2344 Q21.0156,109.0469 22.6094,109.0469 Q23.5469,109.0469 24.2031,108.7969 Q24.5938,108.6406 25.0156,108.2031 Q25.2813,107.9375 25.4219,107.8594 Q25.5781,107.7813 25.7813,107.7813 Q26.1094,107.7813 26.3594,108.0469 Q26.625,108.2969 26.625,108.6406 Q26.625,108.9844 26.2813,109.3906 Q25.7813,109.9688 24.9844,110.2969 Q23.9063,110.75 22.6094,110.75 Q21.0938,110.75 19.8906,110.125 Q18.9063,109.625 18.2188,108.5625 Q17.5313,107.4844 17.5313,106.2031 L17.5313,105.0469 Q17.5313,103.7188 18.1406,102.5781 Q18.7656,101.4219 19.8594,100.8125 Q20.9531,100.1875 22.1875,100.1875 Q22.9219,100.1875 23.5625,100.3594 Q24.2188,100.5156 24.7656,100.875 Z " fill="#000000"/><text fill="#000000" font-family="sans-serif" font-size="12" lengthAdjust="spacing" textLength="127" x="36" y="109.9102">RegistarCandidaturaUI</text><line style="stroke:#A80036;stroke-width:1.5;" x1="8" x2="165" y1="121" y2="121"/><line style="stroke:#A80036;stroke-width:1.5;" x1="8" x2="165" y1="129" y2="129"/><!--MD5=[a752d25bbf81d6aa83d02ada29d87957]
class RegistarCandidaturaController--><rect codeLine="7" fill="#FEFECE" filter="url(#fkeo0st3nvx6k)" height="89.5078" id="RegistarCandidaturaController" style="stroke:#A80036;stroke-width:1.5;" width="313" x="227" y="68"/><ellipse cx="294.75" cy="84" fill="#ADD1B2" rx="11" ry="11" style="stroke:#A80036;stroke-width:1.0;"/><path d="M297.5156,79.875 Q297.6719,79.6563 297.8594,79.5469 Q298.0469,79.4375 298.2656,79.4375 Q298.6406,79.4375 298.875,79.7031 Q299.1094,79.9531 299.1094,80.5625 L299.1094,82.0156 Q299.1094,82.625 298.875,82.8906 Q298.6406,83.1563 298.2656,83.1563 Q297.9219,83.1563 297.7188,82.9531 Q297.5156,82.7656 297.4063,82.25 Q297.3594,81.8906 297.1719,81.7031 Q296.8438,81.3281 296.2344,81.1094 Q295.625,80.8906 295,80.8906 Q294.2344,80.8906 293.5938,81.2188 Q292.9688,81.5469 292.4688,82.2969 Q291.9844,83.0469 291.9844,84.0781 L291.9844,85.1719 Q291.9844,86.4063 292.875,87.2344 Q293.7656,88.0469 295.3594,88.0469 Q296.2969,88.0469 296.9531,87.7969 Q297.3438,87.6406 297.7656,87.2031 Q298.0313,86.9375 298.1719,86.8594 Q298.3281,86.7813 298.5313,86.7813 Q298.8594,86.7813 299.1094,87.0469 Q299.375,87.2969 299.375,87.6406 Q299.375,87.9844 299.0313,88.3906 Q298.5313,88.9688 297.7344,89.2969 Q296.6563,89.75 295.3594,89.75 Q293.8438,89.75 292.6406,89.125 Q291.6563,88.625 290.9688,87.5625 Q290.2813,86.4844 290.2813,85.2031 L290.2813,84.0469 Q290.2813,82.7188 290.8906,81.5781 Q291.5156,80.4219 292.6094,79.8125 Q293.7031,79.1875 294.9375,79.1875 Q295.6719,79.1875 296.3125,79.3594 Q296.9688,79.5156 297.5156,79.875 Z " fill="#000000"/><text fill="#000000" font-family="sans-serif" font-size="12" lengthAdjust="spacing" textLength="169" x="315.25" y="88.9102">RegistarCandidaturaController</text><line style="stroke:#A80036;stroke-width:1.5;" x1="228" x2="539" y1="100" y2="100"/><line style="stroke:#A80036;stroke-width:1.5;" x1="228" x2="539" y1="108" y2="108"/><text fill="#000000" font-family="sans-serif" font-size="11" lengthAdjust="spacing" textLength="182" x="233" y="123.4189">+getAnunciosElegiveisDoFreelancer()</text><text fill="#000000" font-family="sans-serif" font-size="11" lengthAdjust="spacing" textLength="301" x="233" y="137.2549">+novaCandidatura(anuncioId,valorPrt,nrDias,txtApres,txtMotiv)</text><text fill="#000000" font-family="sans-serif" font-size="11" lengthAdjust="spacing" textLength="105" x="233" y="151.0908">+registaCandidatura()</text><!--MD5=[ecaed46f78f8cfe1e9ce18477649be18]
class Plataforma--><rect codeLine="13" fill="#FEFECE" filter="url(#fkeo0st3nvx6k)" height="89.5078" id="Plataforma" style="stroke:#A80036;stroke-width:1.5;" width="127" x="601" y="68"/><ellipse cx="631.75" cy="84" fill="#ADD1B2" rx="11" ry="11" style="stroke:#A80036;stroke-width:1.0;"/><path d="M634.5156,79.875 Q634.6719,79.6563 634.8594,79.5469 Q635.0469,79.4375 635.2656,79.4375 Q635.6406,79.4375 635.875,79.7031 Q636.1094,79.9531 636.1094,80.5625 L636.1094,82.0156 Q636.1094,82.625 635.875,82.8906 Q635.6406,83.1563 635.2656,83.1563 Q634.9219,83.1563 634.7188,82.9531 Q634.5156,82.7656 634.4063,82.25 Q634.3594,81.8906 634.1719,81.7031 Q633.8438,81.3281 633.2344,81.1094 Q632.625,80.8906 632,80.8906 Q631.2344,80.8906 630.5938,81.2188 Q629.9688,81.5469 629.4688,82.2969 Q628.9844,83.0469 628.9844,84.0781 L628.9844,85.1719 Q628.9844,86.4063 629.875,87.2344 Q630.7656,88.0469 632.3594,88.0469 Q633.2969,88.0469 633.9531,87.7969 Q634.3438,87.6406 634.7656,87.2031 Q635.0313,86.9375 635.1719,86.8594 Q635.3281,86.7813 635.5313,86.7813 Q635.8594,86.7813 636.1094,87.0469 Q636.375,87.2969 636.375,87.6406 Q636.375,87.9844 636.0313,88.3906 Q635.5313,88.9688 634.7344,89.2969 Q633.6563,89.75 632.3594,89.75 Q630.8438,89.75 629.6406,89.125 Q628.6563,88.625 627.9688,87.5625 Q627.2813,86.4844 627.2813,85.2031 L627.2813,84.0469 Q627.2813,82.7188 627.8906,81.5781 Q628.5156,80.4219 629.6094,79.8125 Q630.7031,79.1875 631.9375,79.1875 Q632.6719,79.1875 633.3125,79.3594 Q633.9688,79.5156 634.5156,79.875 Z " fill="#000000"/><text fill="#000000" font-family="sans-serif" font-size="12" lengthAdjust="spacing" textLength="60" x="649.25" y="88.9102">Plataforma</text><line style="stroke:#A80036;stroke-width:1.5;" x1="602" x2="727" y1="100" y2="100"/><text fill="#000000" font-family="sans-serif" font-size="11" lengthAdjust="spacing" textLength="91" x="607" y="115.4189">-String designacao</text><text fill="#000000" font-family="sans-serif" font-size="11" lengthAdjust="spacing" textLength="115" x="607" y="129.2549">+getRegistoFreelancers</text><line style="stroke:#A80036;stroke-width:1.5;" x1="602" x2="727" y1="135.6719" y2="135.6719"/><text fill="#000000" font-family="sans-serif" font-size="11" lengthAdjust="spacing" textLength="111" x="607" y="151.0908">+getRegistoAnuncios()</text><!--MD5=[5989a2e3174efcfc62cf38168ac2ffc8]
class RegistoFreelancer--><rect codeLine="19" fill="#FEFECE" filter="url(#fkeo0st3nvx6k)" height="61.8359" id="RegistoFreelancer" style="stroke:#A80036;stroke-width:1.5;" width="154" x="859" y="7"/><ellipse cx="883" cy="23" fill="#ADD1B2" rx="11" ry="11" style="stroke:#A80036;stroke-width:1.0;"/><path d="M885.7656,18.875 Q885.9219,18.6563 886.1094,18.5469 Q886.2969,18.4375 886.5156,18.4375 Q886.8906,18.4375 887.125,18.7031 Q887.3594,18.9531 887.3594,19.5625 L887.3594,21.0156 Q887.3594,21.625 887.125,21.8906 Q886.8906,22.1563 886.5156,22.1563 Q886.1719,22.1563 885.9688,21.9531 Q885.7656,21.7656 885.6563,21.25 Q885.6094,20.8906 885.4219,20.7031 Q885.0938,20.3281 884.4844,20.1094 Q883.875,19.8906 883.25,19.8906 Q882.4844,19.8906 881.8438,20.2188 Q881.2188,20.5469 880.7188,21.2969 Q880.2344,22.0469 880.2344,23.0781 L880.2344,24.1719 Q880.2344,25.4063 881.125,26.2344 Q882.0156,27.0469 883.6094,27.0469 Q884.5469,27.0469 885.2031,26.7969 Q885.5938,26.6406 886.0156,26.2031 Q886.2813,25.9375 886.4219,25.8594 Q886.5781,25.7813 886.7813,25.7813 Q887.1094,25.7813 887.3594,26.0469 Q887.625,26.2969 887.625,26.6406 Q887.625,26.9844 887.2813,27.3906 Q886.7813,27.9688 885.9844,28.2969 Q884.9063,28.75 883.6094,28.75 Q882.0938,28.75 880.8906,28.125 Q879.9063,27.625 879.2188,26.5625 Q878.5313,25.4844 878.5313,24.2031 L878.5313,23.0469 Q878.5313,21.7188 879.1406,20.5781 Q879.7656,19.4219 880.8594,18.8125 Q881.9531,18.1875 883.1875,18.1875 Q883.9219,18.1875 884.5625,18.3594 Q885.2188,18.5156 885.7656,18.875 Z " fill="#000000"/><text fill="#000000" font-family="sans-serif" font-size="12" lengthAdjust="spacing" textLength="102" x="899" y="27.9102">RegistoFreelancer</text><line style="stroke:#A80036;stroke-width:1.5;" x1="860" x2="1012" y1="39" y2="39"/><line style="stroke:#A80036;stroke-width:1.5;" x1="860" x2="1012" y1="47" y2="47"/><text fill="#000000" font-family="sans-serif" font-size="11" lengthAdjust="spacing" textLength="142" x="865" y="62.4189">+getFreelancerByEmail(email)</text><!--MD5=[a7dddfa65532da486ef518ad0cedfd89]
class RegistoAnuncios--><rect codeLine="24" fill="#FEFECE" filter="url(#fkeo0st3nvx6k)" height="75.6719" id="RegistoAnuncios" style="stroke:#A80036;stroke-width:1.5;" width="216" x="828" y="146"/><ellipse cx="884.75" cy="162" fill="#ADD1B2" rx="11" ry="11" style="stroke:#A80036;stroke-width:1.0;"/><path d="M887.5156,157.875 Q887.6719,157.6563 887.8594,157.5469 Q888.0469,157.4375 888.2656,157.4375 Q888.6406,157.4375 888.875,157.7031 Q889.1094,157.9531 889.1094,158.5625 L889.1094,160.0156 Q889.1094,160.625 888.875,160.8906 Q888.6406,161.1563 888.2656,161.1563 Q887.9219,161.1563 887.7188,160.9531 Q887.5156,160.7656 887.4063,160.25 Q887.3594,159.8906 887.1719,159.7031 Q886.8438,159.3281 886.2344,159.1094 Q885.625,158.8906 885,158.8906 Q884.2344,158.8906 883.5938,159.2188 Q882.9688,159.5469 882.4688,160.2969 Q881.9844,161.0469 881.9844,162.0781 L881.9844,163.1719 Q881.9844,164.4063 882.875,165.2344 Q883.7656,166.0469 885.3594,166.0469 Q886.2969,166.0469 886.9531,165.7969 Q887.3438,165.6406 887.7656,165.2031 Q888.0313,164.9375 888.1719,164.8594 Q888.3281,164.7813 888.5313,164.7813 Q888.8594,164.7813 889.1094,165.0469 Q889.375,165.2969 889.375,165.6406 Q889.375,165.9844 889.0313,166.3906 Q888.5313,166.9688 887.7344,167.2969 Q886.6563,167.75 885.3594,167.75 Q883.8438,167.75 882.6406,167.125 Q881.6563,166.625 880.9688,165.5625 Q880.2813,164.4844 880.2813,163.2031 L880.2813,162.0469 Q880.2813,160.7188 880.8906,159.5781 Q881.5156,158.4219 882.6094,157.8125 Q883.7031,157.1875 884.9375,157.1875 Q885.6719,157.1875 886.3125,157.3594 Q886.9688,157.5156 887.5156,157.875 Z " fill="#000000"/><text fill="#000000" font-family="sans-serif" font-size="12" lengthAdjust="spacing" textLength="94" x="905.25" y="166.9102">RegistoAnuncios</text><line style="stroke:#A80036;stroke-width:1.5;" x1="829" x2="1043" y1="178" y2="178"/><line style="stroke:#A80036;stroke-width:1.5;" x1="829" x2="1043" y1="186" y2="186"/><text fill="#000000" font-family="sans-serif" font-size="11" lengthAdjust="spacing" textLength="204" x="834" y="201.4189">+getAnunciosElegiveisDoFreelancer(freel)</text><text fill="#000000" font-family="sans-serif" font-size="11" lengthAdjust="spacing" textLength="136" x="834" y="215.2549">+getAnuncioById(anuncioId)</text><!--MD5=[1f687b5315377fe49fca59b457947463]
class Freelancer--><rect codeLine="30" fill="#FEFECE" filter="url(#fkeo0st3nvx6k)" height="103.3438" id="Freelancer" style="stroke:#A80036;stroke-width:1.5;" width="91" x="2485" y="46.5"/><ellipse cx="2500" cy="62.5" fill="#ADD1B2" rx="11" ry="11" style="stroke:#A80036;stroke-width:1.0;"/><path d="M2502.7656,58.375 Q2502.9219,58.1563 2503.1094,58.0469 Q2503.2969,57.9375 2503.5156,57.9375 Q2503.8906,57.9375 2504.125,58.2031 Q2504.3594,58.4531 2504.3594,59.0625 L2504.3594,60.5156 Q2504.3594,61.125 2504.125,61.3906 Q2503.8906,61.6563 2503.5156,61.6563 Q2503.1719,61.6563 2502.9688,61.4531 Q2502.7656,61.2656 2502.6563,60.75 Q2502.6094,60.3906 2502.4219,60.2031 Q2502.0938,59.8281 2501.4844,59.6094 Q2500.875,59.3906 2500.25,59.3906 Q2499.4844,59.3906 2498.8438,59.7188 Q2498.2188,60.0469 2497.7188,60.7969 Q2497.2344,61.5469 2497.2344,62.5781 L2497.2344,63.6719 Q2497.2344,64.9063 2498.125,65.7344 Q2499.0156,66.5469 2500.6094,66.5469 Q2501.5469,66.5469 2502.2031,66.2969 Q2502.5938,66.1406 2503.0156,65.7031 Q2503.2813,65.4375 2503.4219,65.3594 Q2503.5781,65.2813 2503.7813,65.2813 Q2504.1094,65.2813 2504.3594,65.5469 Q2504.625,65.7969 2504.625,66.1406 Q2504.625,66.4844 2504.2813,66.8906 Q2503.7813,67.4688 2502.9844,67.7969 Q2501.9063,68.25 2500.6094,68.25 Q2499.0938,68.25 2497.8906,67.625 Q2496.9063,67.125 2496.2188,66.0625 Q2495.5313,64.9844 2495.5313,63.7031 L2495.5313,62.5469 Q2495.5313,61.2188 2496.1406,60.0781 Q2496.7656,58.9219 2497.8594,58.3125 Q2498.9531,57.6875 2500.1875,57.6875 Q2500.9219,57.6875 2501.5625,57.8594 Q2502.2188,58.0156 2502.7656,58.375 Z " fill="#000000"/><text fill="#000000" font-family="sans-serif" font-size="12" lengthAdjust="spacing" textLength="59" x="2514" y="67.4102">Freelancer</text><line style="stroke:#A80036;stroke-width:1.5;" x1="2486" x2="2575" y1="78.5" y2="78.5"/><text fill="#000000" font-family="sans-serif" font-size="11" lengthAdjust="spacing" textLength="61" x="2491" y="93.9189">-String nome</text><text fill="#000000" font-family="sans-serif" font-size="11" lengthAdjust="spacing" textLength="50" x="2491" y="107.7549">-String NIF</text><text fill="#000000" font-family="sans-serif" font-size="11" lengthAdjust="spacing" textLength="74" x="2491" y="121.5908">-String telefone</text><text fill="#000000" font-family="sans-serif" font-size="11" lengthAdjust="spacing" textLength="59" x="2491" y="135.4268">-String email</text><line style="stroke:#A80036;stroke-width:1.5;" x1="2486" x2="2575" y1="141.8438" y2="141.8438"/><!--MD5=[19db0db7353a4bf63eefc676e5ba9b80]
class Anuncio--><rect codeLine="37" fill="#FEFECE" filter="url(#fkeo0st3nvx6k)" height="186.3594" id="Anuncio" style="stroke:#A80036;stroke-width:1.5;" width="338" x="1145" y="91"/><ellipse cx="1287.75" cy="107" fill="#ADD1B2" rx="11" ry="11" style="stroke:#A80036;stroke-width:1.0;"/><path d="M1290.5156,102.875 Q1290.6719,102.6563 1290.8594,102.5469 Q1291.0469,102.4375 1291.2656,102.4375 Q1291.6406,102.4375 1291.875,102.7031 Q1292.1094,102.9531 1292.1094,103.5625 L1292.1094,105.0156 Q1292.1094,105.625 1291.875,105.8906 Q1291.6406,106.1563 1291.2656,106.1563 Q1290.9219,106.1563 1290.7188,105.9531 Q1290.5156,105.7656 1290.4063,105.25 Q1290.3594,104.8906 1290.1719,104.7031 Q1289.8438,104.3281 1289.2344,104.1094 Q1288.625,103.8906 1288,103.8906 Q1287.2344,103.8906 1286.5938,104.2188 Q1285.9688,104.5469 1285.4688,105.2969 Q1284.9844,106.0469 1284.9844,107.0781 L1284.9844,108.1719 Q1284.9844,109.4063 1285.875,110.2344 Q1286.7656,111.0469 1288.3594,111.0469 Q1289.2969,111.0469 1289.9531,110.7969 Q1290.3438,110.6406 1290.7656,110.2031 Q1291.0313,109.9375 1291.1719,109.8594 Q1291.3281,109.7813 1291.5313,109.7813 Q1291.8594,109.7813 1292.1094,110.0469 Q1292.375,110.2969 1292.375,110.6406 Q1292.375,110.9844 1292.0313,111.3906 Q1291.5313,111.9688 1290.7344,112.2969 Q1289.6563,112.75 1288.3594,112.75 Q1286.8438,112.75 1285.6406,112.125 Q1284.6563,111.625 1283.9688,110.5625 Q1283.2813,109.4844 1283.2813,108.2031 L1283.2813,107.0469 Q1283.2813,105.7188 1283.8906,104.5781 Q1284.5156,103.4219 1285.6094,102.8125 Q1286.7031,102.1875 1287.9375,102.1875 Q1288.6719,102.1875 1289.3125,102.3594 Q1289.9688,102.5156 1290.5156,102.875 Z " fill="#000000"/><text fill="#000000" font-family="sans-serif" font-size="12" lengthAdjust="spacing" textLength="44" x="1308.25" y="111.9102">Anuncio</text><line style="stroke:#A80036;stroke-width:1.5;" x1="1146" x2="1482" y1="123" y2="123"/><text fill="#000000" font-family="sans-serif" font-size="11" lengthAdjust="spacing" textLength="119" x="1151" y="138.4189">-Date dtInicioPublicitacao</text><text fill="#000000" font-family="sans-serif" font-size="11" lengthAdjust="spacing" textLength="111" x="1151" y="152.2549">-Date dtFimPublicitacao</text><text fill="#000000" font-family="sans-serif" font-size="11" lengthAdjust="spacing" textLength="120" x="1151" y="166.0908">-Date dtInicioCandidatura</text><text fill="#000000" font-family="sans-serif" font-size="11" lengthAdjust="spacing" textLength="112" x="1151" y="179.9268">-Date dtFimCandidatura</text><text fill="#000000" font-family="sans-serif" font-size="11" lengthAdjust="spacing" textLength="105" x="1151" y="193.7627">-Date dtInicioSeriacao</text><text fill="#000000" font-family="sans-serif" font-size="11" lengthAdjust="spacing" textLength="97" x="1151" y="207.5986">-Date dtFimSeriacao</text><line style="stroke:#A80036;stroke-width:1.5;" x1="1146" x2="1482" y1="214.0156" y2="214.0156"/><text fill="#000000" font-family="sans-serif" font-size="11" lengthAdjust="spacing" textLength="326" x="1151" y="229.4346">+novaCandidatura(freel,dataCand,valorPrt,nrDias,txtApres,txtMotiv)</text><text fill="#000000" font-family="sans-serif" font-size="11" lengthAdjust="spacing" textLength="107" x="1151" y="243.2705">+aceitaCandidaturas()</text><text fill="#000000" font-family="sans-serif" font-size="11" lengthAdjust="spacing" textLength="130" x="1151" y="257.1064">+éFreelancerElegivel(freel)</text><text fill="#000000" font-family="sans-serif" font-size="11" lengthAdjust="spacing" textLength="129" x="1151" y="270.9424">+registaCandidatura(cand)</text><!--MD5=[ced2a86ae8bdfec1c757b7c305a75b1d]
class ListaCandidaturas--><rect codeLine="51" fill="#FEFECE" filter="url(#fkeo0st3nvx6k)" height="103.3438" id="ListaCandidaturas" style="stroke:#A80036;stroke-width:1.5;" width="338" x="1583" y="114.5"/><ellipse cx="1696.75" cy="130.5" fill="#ADD1B2" rx="11" ry="11" style="stroke:#A80036;stroke-width:1.0;"/><path d="M1699.5156,126.375 Q1699.6719,126.1563 1699.8594,126.0469 Q1700.0469,125.9375 1700.2656,125.9375 Q1700.6406,125.9375 1700.875,126.2031 Q1701.1094,126.4531 1701.1094,127.0625 L1701.1094,128.5156 Q1701.1094,129.125 1700.875,129.3906 Q1700.6406,129.6563 1700.2656,129.6563 Q1699.9219,129.6563 1699.7188,129.4531 Q1699.5156,129.2656 1699.4063,128.75 Q1699.3594,128.3906 1699.1719,128.2031 Q1698.8438,127.8281 1698.2344,127.6094 Q1697.625,127.3906 1697,127.3906 Q1696.2344,127.3906 1695.5938,127.7188 Q1694.9688,128.0469 1694.4688,128.7969 Q1693.9844,129.5469 1693.9844,130.5781 L1693.9844,131.6719 Q1693.9844,132.9063 1694.875,133.7344 Q1695.7656,134.5469 1697.3594,134.5469 Q1698.2969,134.5469 1698.9531,134.2969 Q1699.3438,134.1406 1699.7656,133.7031 Q1700.0313,133.4375 1700.1719,133.3594 Q1700.3281,133.2813 1700.5313,133.2813 Q1700.8594,133.2813 1701.1094,133.5469 Q1701.375,133.7969 1701.375,134.1406 Q1701.375,134.4844 1701.0313,134.8906 Q1700.5313,135.4688 1699.7344,135.7969 Q1698.6563,136.25 1697.3594,136.25 Q1695.8438,136.25 1694.6406,135.625 Q1693.6563,135.125 1692.9688,134.0625 Q1692.2813,132.9844 1692.2813,131.7031 L1692.2813,130.5469 Q1692.2813,129.2188 1692.8906,128.0781 Q1693.5156,126.9219 1694.6094,126.3125 Q1695.7031,125.6875 1696.9375,125.6875 Q1697.6719,125.6875 1698.3125,125.8594 Q1698.9688,126.0156 1699.5156,126.375 Z " fill="#000000"/><text fill="#000000" font-family="sans-serif" font-size="12" lengthAdjust="spacing" textLength="102" x="1717.25" y="135.4102">ListaCandidaturas</text><line style="stroke:#A80036;stroke-width:1.5;" x1="1584" x2="1920" y1="146.5" y2="146.5"/><line style="stroke:#A80036;stroke-width:1.5;" x1="1584" x2="1920" y1="154.5" y2="154.5"/><text fill="#000000" font-family="sans-serif" font-size="11" lengthAdjust="spacing" textLength="326" x="1589" y="169.9189">+novaCandidatura(freel,dataCand,valorPrt,nrDias,txtApres,txtMotiv)</text><text fill="#000000" font-family="sans-serif" font-size="11" lengthAdjust="spacing" textLength="129" x="1589" y="183.7549">+registaCandidatura(cand)</text><text fill="#000000" font-family="sans-serif" font-size="11" lengthAdjust="spacing" textLength="122" x="1589" y="197.5908">-validaCandidatura(cand)</text><text fill="#000000" font-family="sans-serif" font-size="11" lengthAdjust="spacing" textLength="112" x="1589" y="211.4268">-addCandidatura(cand)</text><!--MD5=[475c5b924ed41035684e2831311827d2]
class Candidatura--><rect codeLine="59" fill="#FEFECE" filter="url(#fkeo0st3nvx6k)" height="131.0156" id="Candidatura" style="stroke:#A80036;stroke-width:1.5;" width="314" x="2022" y="92.5"/><ellipse cx="2140.75" cy="108.5" fill="#ADD1B2" rx="11" ry="11" style="stroke:#A80036;stroke-width:1.0;"/><path d="M2143.5156,104.375 Q2143.6719,104.1563 2143.8594,104.0469 Q2144.0469,103.9375 2144.2656,103.9375 Q2144.6406,103.9375 2144.875,104.2031 Q2145.1094,104.4531 2145.1094,105.0625 L2145.1094,106.5156 Q2145.1094,107.125 2144.875,107.3906 Q2144.6406,107.6563 2144.2656,107.6563 Q2143.9219,107.6563 2143.7188,107.4531 Q2143.5156,107.2656 2143.4063,106.75 Q2143.3594,106.3906 2143.1719,106.2031 Q2142.8438,105.8281 2142.2344,105.6094 Q2141.625,105.3906 2141,105.3906 Q2140.2344,105.3906 2139.5938,105.7188 Q2138.9688,106.0469 2138.4688,106.7969 Q2137.9844,107.5469 2137.9844,108.5781 L2137.9844,109.6719 Q2137.9844,110.9063 2138.875,111.7344 Q2139.7656,112.5469 2141.3594,112.5469 Q2142.2969,112.5469 2142.9531,112.2969 Q2143.3438,112.1406 2143.7656,111.7031 Q2144.0313,111.4375 2144.1719,111.3594 Q2144.3281,111.2813 2144.5313,111.2813 Q2144.8594,111.2813 2145.1094,111.5469 Q2145.375,111.7969 2145.375,112.1406 Q2145.375,112.4844 2145.0313,112.8906 Q2144.5313,113.4688 2143.7344,113.7969 Q2142.6563,114.25 2141.3594,114.25 Q2139.8438,114.25 2138.6406,113.625 Q2137.6563,113.125 2136.9688,112.0625 Q2136.2813,110.9844 2136.2813,109.7031 L2136.2813,108.5469 Q2136.2813,107.2188 2136.8906,106.0781 Q2137.5156,104.9219 2138.6094,104.3125 Q2139.7031,103.6875 2140.9375,103.6875 Q2141.6719,103.6875 2142.3125,103.8594 Q2142.9688,104.0156 2143.5156,104.375 Z " fill="#000000"/><text fill="#000000" font-family="sans-serif" font-size="12" lengthAdjust="spacing" textLength="68" x="2161.25" y="113.4102">Candidatura</text><line style="stroke:#A80036;stroke-width:1.5;" x1="2023" x2="2335" y1="124.5" y2="124.5"/><text fill="#000000" font-family="sans-serif" font-size="11" lengthAdjust="spacing" textLength="108" x="2028" y="139.9189">-Date dataCandidatura</text><text fill="#000000" font-family="sans-serif" font-size="11" lengthAdjust="spacing" textLength="115" x="2028" y="153.7549">-Double valorPretendido</text><text fill="#000000" font-family="sans-serif" font-size="11" lengthAdjust="spacing" textLength="71" x="2028" y="167.5908">-Integer nrDias</text><text fill="#000000" font-family="sans-serif" font-size="11" lengthAdjust="spacing" textLength="116" x="2028" y="181.4268">-String txtApresentacao</text><text fill="#000000" font-family="sans-serif" font-size="11" lengthAdjust="spacing" textLength="96" x="2028" y="195.2627">-String txtMotivacao</text><line style="stroke:#A80036;stroke-width:1.5;" x1="2023" x2="2335" y1="201.6797" y2="201.6797"/><text fill="#000000" font-family="sans-serif" font-size="11" lengthAdjust="spacing" textLength="302" x="2028" y="217.0986">+Candidatura(freel,dataCand,valorPrt,nrDias,txtApres,txtMotiv)</text><!--MD5=[56eb82adad4314a456214207d508b21f]
link RegistarCandidaturaUI to RegistarCandidaturaController--><path codeLine="69" d="M166.17,113 C183.41,113 202.26,113 221.43,113 " fill="none" id="RegistarCandidaturaUI-to-RegistarCandidaturaController" style="stroke:#A80036;stroke-width:1.0;stroke-dasharray:7.0,7.0;"/><polygon fill="#A80036" points="226.84,113,217.84,109,221.84,113,217.84,117,226.84,113" style="stroke:#A80036;stroke-width:1.0;"/><!--MD5=[36c49b5e3a0fe9f263844f13d3d06d8a]
link RegistarCandidaturaController to Plataforma--><path codeLine="70" d="M540.31,113 C559.66,113 578.58,113 595.56,113 " fill="none" id="RegistarCandidaturaController-to-Plataforma" style="stroke:#A80036;stroke-width:1.0;stroke-dasharray:7.0,7.0;"/><polygon fill="#A80036" points="600.76,113,591.76,109,595.76,113,591.76,117,600.76,113" style="stroke:#A80036;stroke-width:1.0;"/><!--MD5=[07140c9d280284b061cfedbe071ae333]
link RegistarCandidaturaController to RegistoFreelancer--><path codeLine="71" d="M523.14,67.99 C548.79,61.18 575.52,55.08 601,51 C686.44,37.31 785.67,35.16 853.63,35.75 " fill="none" id="RegistarCandidaturaController-to-RegistoFreelancer" style="stroke:#A80036;stroke-width:1.0;stroke-dasharray:7.0,7.0;"/><polygon fill="#A80036" points="858.88,35.8,849.9263,31.6974,853.8803,35.7429,849.8349,39.6969,858.88,35.8" style="stroke:#A80036;stroke-width:1.0;"/><!--MD5=[cf50bdb812e1b94074b588ef535eb3ad]
link RegistarCandidaturaController to RegistoAnuncios--><path codeLine="72" d="M519.28,158.04 C546.07,165.34 574.21,171.85 601,176 C674.32,187.35 757.76,189.35 822.9,188.52 " fill="none" id="RegistarCandidaturaController-to-RegistoAnuncios" style="stroke:#A80036;stroke-width:1.0;stroke-dasharray:7.0,7.0;"/><polygon fill="#A80036" points="827.95,188.45,818.8938,184.579,822.9505,188.5214,819.0081,192.5782,827.95,188.45" style="stroke:#A80036;stroke-width:1.0;"/><!--MD5=[463821f61fd53759657c2ac769a7e835]
link Plataforma to RegistoAnuncios--><path codeLine="74" d="M728.01,129.47 C756.2,136.89 790.38,145.9 822.77,154.43 " fill="none" id="Plataforma-to-RegistoAnuncios" style="stroke:#A80036;stroke-width:1.0;"/><polygon fill="#A80036" points="827.95,155.8,820.2777,149.6245,823.1174,154.517,818.2249,157.3567,827.95,155.8" style="stroke:#A80036;stroke-width:1.0;"/><text fill="#000000" font-family="sans-serif" font-size="13" lengthAdjust="spacing" textLength="38" x="759" y="133.4951">possui</text><text fill="#000000" font-family="sans-serif" font-size="13" lengthAdjust="spacing" textLength="7" x="736.1768" y="145.9988">1</text><text fill="#000000" font-family="sans-serif" font-size="13" lengthAdjust="spacing" textLength="7" x="813.1066" y="167.8987">1</text><!--MD5=[957336f8f7652c1733534e96e2968a5f]
link Plataforma to RegistoFreelancer--><path codeLine="75" d="M728.01,95.6 C765.51,85.17 813.62,71.78 854.01,60.54 " fill="none" id="Plataforma-to-RegistoFreelancer" style="stroke:#A80036;stroke-width:1.0;"/><polygon fill="#A80036" points="858.9,59.18,849.1573,57.7377,854.0828,60.5197,851.3008,65.4452,858.9,59.18" style="stroke:#A80036;stroke-width:1.0;"/><text fill="#000000" font-family="sans-serif" font-size="13" lengthAdjust="spacing" textLength="38" x="759" y="73.4951">possui</text><text fill="#000000" font-family="sans-serif" font-size="13" lengthAdjust="spacing" textLength="7" x="736.1768" y="108.0009">1</text><text fill="#000000" font-family="sans-serif" font-size="13" lengthAdjust="spacing" textLength="7" x="843.9659" y="75.5729">1</text><!--MD5=[2903b91671052adea6f5e59eb6d59b42]
link RegistoAnuncios to Anuncio--><path codeLine="77" d="M1044.24,184 C1074.02,184 1107.12,184 1139.65,184 " fill="none" id="RegistoAnuncios-to-Anuncio" style="stroke:#A80036;stroke-width:1.0;"/><polygon fill="#A80036" points="1144.86,184,1135.86,180,1139.86,184,1135.86,188,1144.86,184" style="stroke:#A80036;stroke-width:1.0;"/><text fill="#000000" font-family="sans-serif" font-size="13" lengthAdjust="spacing" textLength="39" x="1075" y="180.4951">agrega</text><text fill="#000000" font-family="sans-serif" font-size="13" lengthAdjust="spacing" textLength="7" x="1052.0967" y="198.0815">1</text><text fill="#000000" font-family="sans-serif" font-size="13" lengthAdjust="spacing" textLength="5" x="1132.0826" y="197.8574">*</text><!--MD5=[936379bbb1fbe67f1148bc2fdcd3e3c1]
link Anuncio to ListaCandidaturas--><path codeLine="78" d="M1483.26,177.05 C1514.08,175.78 1546.31,174.45 1577.29,173.17 " fill="none" id="Anuncio-to-ListaCandidaturas" style="stroke:#A80036;stroke-width:1.0;"/><polygon fill="#A80036" points="1582.65,172.95,1573.487,169.339,1577.6546,173.1641,1573.8295,177.3317,1582.65,172.95" style="stroke:#A80036;stroke-width:1.0;"/><text fill="#000000" font-family="sans-serif" font-size="13" lengthAdjust="spacing" textLength="38" x="1514" y="170.4951">possui</text><text fill="#000000" font-family="sans-serif" font-size="13" lengthAdjust="spacing" textLength="7" x="1491.0882" y="190.5925">1</text><text fill="#000000" font-family="sans-serif" font-size="13" lengthAdjust="spacing" textLength="7" x="1567.8177" y="187.1227">1</text><!--MD5=[b3c62d3bd372a34b7ee6d6af17619677]
link ListaCandidaturas to Candidatura--><path codeLine="79" d="M1921.28,162.83 C1952.75,162.24 1985.58,161.62 2016.84,161.03 " fill="none" id="ListaCandidaturas-to-Candidatura" style="stroke:#A80036;stroke-width:1.0;"/><polygon fill="#A80036" points="2021.84,160.94,2012.7728,157.0949,2016.8407,161.0257,2012.9099,165.0937,2021.84,160.94" style="stroke:#A80036;stroke-width:1.0;"/><text fill="#000000" font-family="sans-serif" font-size="13" lengthAdjust="spacing" textLength="39" x="1952" y="157.4951">agrega</text><text fill="#000000" font-family="sans-serif" font-size="13" lengthAdjust="spacing" textLength="7" x="1929.1091" y="176.5442">1</text><text fill="#000000" font-family="sans-serif" font-size="13" lengthAdjust="spacing" textLength="5" x="2009.1065" y="174.9732">*</text><!--MD5=[a66e767a4304f5fa76db98d7839a7a61]
link Candidatura to Freelancer--><path codeLine="81" d="M2336.1,131.2 C2387.97,122.3 2442.06,113.01 2479.81,106.53 " fill="none" id="Candidatura-to-Freelancer" style="stroke:#A80036;stroke-width:1.0;"/><polygon fill="#A80036" points="2484.79,105.68,2475.2445,103.2543,2479.8615,106.5228,2476.5931,111.1399,2484.79,105.68" style="stroke:#A80036;stroke-width:1.0;"/><polygon fill="#000000" points="2375.9279,100.3298,2366.516,98.9636,2367.5105,104.7567,2375.9279,100.3298" style="stroke:#000000;stroke-width:1.0;"/><text fill="#000000" font-family="sans-serif" font-size="13" lengthAdjust="spacing" textLength="74" x="2380" y="106.4951">realizada por</text><text fill="#000000" font-family="sans-serif" font-size="13" lengthAdjust="spacing" textLength="5" x="2343.8306" y="143.7926">*</text><text fill="#000000" font-family="sans-serif" font-size="13" lengthAdjust="spacing" textLength="7" x="2469.9472" y="121.6747">1</text><!--MD5=[95795e0b4ecb0b567ae2ce3910745252]
link RegistoFreelancer to Freelancer--><path codeLine="83" d="M1013.33,38 C1089.3,38 1209.21,38 1313,38 C1313,38 1313,38 2180,38 C2288.15,38 2412.45,66.25 2479.81,83.99 " fill="none" id="RegistoFreelancer-to-Freelancer" style="stroke:#A80036;stroke-width:1.0;"/><polygon fill="#A80036" points="2484.96,85.35,2477.2923,79.1689,2480.1284,84.0635,2475.2338,86.8996,2484.96,85.35" style="stroke:#A80036;stroke-width:1.0;"/><text fill="#000000" font-family="sans-serif" font-size="13" lengthAdjust="spacing" textLength="39" x="1732.5" y="34.4951">agrega</text><text fill="#000000" font-family="sans-serif" font-size="13" lengthAdjust="spacing" textLength="7" x="1021.0341" y="52.2822">1</text><text fill="#000000" font-family="sans-serif" font-size="13" lengthAdjust="spacing" textLength="5" x="2472.0034" y="98.0756">*</text><!--MD5=[3897f619233d3309a843db445bc85487]
@startuml
skinparam classAttributeIconSize 0
left to right direction

class RegistarCandidaturaUI {
}

class RegistarCandidaturaController {
  +getAnunciosElegiveisDoFreelancer()
  +novaCandidatura(anuncioId,valorPrt,nrDias,txtApres,txtMotiv)
  +registaCandidatura()
}

class Plataforma {
    -String designacao
    +getRegistoFreelancers
    +getRegistoAnuncios()
}

class RegistoFreelancer
{
 +getFreelancerByEmail(email)
}

class RegistoAnuncios
{
  +getAnunciosElegiveisDoFreelancer(freel)
  +getAnuncioById(anuncioId)
}

class Freelancer {
    -String nome
    -String NIF
    -String telefone
    -String email
}

class Anuncio
{
    -Date dtInicioPublicitacao
    -Date dtFimPublicitacao
    -Date dtInicioCandidatura
    -Date dtFimCandidatura
    -Date dtInicioSeriacao
    -Date dtFimSeriacao
    +novaCandidatura(freel,dataCand,valorPrt,nrDias,txtApres,txtMotiv)
    +aceitaCandidaturas()
    +éFreelancerElegivel(freel)
    +registaCandidatura(cand)
}

class ListaCandidaturas
{
  +novaCandidatura(freel,dataCand,valorPrt,nrDias,txtApres,txtMotiv)
  +registaCandidatura(cand)
  -validaCandidatura(cand)
  -addCandidatura(cand)
}

class Candidatura
{
    -Date dataCandidatura
    -Double valorPretendido
    -Integer nrDias
    -String txtApresentacao
    -String txtMotivacao
    +Candidatura(freel,dataCand,valorPrt,nrDias,txtApres,txtMotiv)
}

RegistarCandidaturaUI ..> RegistarCandidaturaController
RegistarCandidaturaController ..> Plataforma
RegistarCandidaturaController ..> RegistoFreelancer
RegistarCandidaturaController ..> RegistoAnuncios

Plataforma "1" - -> "1" RegistoAnuncios : possui
Plataforma "1" - -> "1" RegistoFreelancer : possui

RegistoAnuncios "1" - -> "*" Anuncio : agrega
Anuncio "1" - -> "1" ListaCandidaturas : possui
ListaCandidaturas "1" - -> "*" Candidatura : agrega

Candidatura "*" - -> "1"  Freelancer: realizada por >

RegistoFreelancer "1" - -> "*" Freelancer: agrega


@enduml

PlantUML version 1.2021.00(Sun Jan 10 10:25:05 WET 2021)
(GPL source distribution)
Java Runtime: Java(TM) SE Runtime Environment
JVM: Java HotSpot(TM) 64-Bit Server VM
Default Encoding: Cp1252
Language: pt
Country: PT
--></g></svg>