<?xml version="1.0" encoding="UTF-8" standalone="no"?><svg xmlns="http://www.w3.org/2000/svg" xmlns:xlink="http://www.w3.org/1999/xlink" contentScriptType="application/ecmascript" contentStyleType="text/css" height="1612px" preserveAspectRatio="none" style="width:2800px;height:1612px;" version="1.1" viewBox="0 0 2800 1612" width="2800px" zoomAndPan="magnify"><defs><filter height="300%" id="f1mjha8xdmffy2" width="300%" x="-1" y="-1"><feGaussianBlur result="blurOut" stdDeviation="2.0"/><feColorMatrix in="blurOut" result="blurOut2" type="matrix" values="0 0 0 0 0 0 0 0 0 0 0 0 0 0 0 0 0 0 .4 0"/><feOffset dx="4.0" dy="4.0" in="blurOut2" result="blurOut3"/><feBlend in="SourceGraphic" in2="blurOut3" mode="normal"/></filter></defs><g><rect fill="#FFFFFF" filter="url(#f1mjha8xdmffy2)" height="1418.2266" style="stroke:#A80036;stroke-width:1.0;" width="10" x="37.5" y="99.6094"/><rect fill="#FFFFFF" filter="url(#f1mjha8xdmffy2)" height="380.1641" style="stroke:#A80036;stroke-width:1.0;" width="10" x="414.5" y="178.6641"/><rect fill="#FFFFFF" filter="url(#f1mjha8xdmffy2)" height="46.7031" style="stroke:#A80036;stroke-width:1.0;" width="10" x="414.5" y="589.1797"/><rect fill="#FFFFFF" filter="url(#f1mjha8xdmffy2)" height="440.7344" style="stroke:#A80036;stroke-width:1.0;" width="10" x="414.5" y="682.5859"/><rect fill="#FFFFFF" filter="url(#f1mjha8xdmffy2)" height="355.1641" style="stroke:#A80036;stroke-width:1.0;" width="10" x="414.5" y="1153.6719"/><rect fill="#FFFFFF" filter="url(#f1mjha8xdmffy2)" height="319.4609" style="stroke:#A80036;stroke-width:1.0;" width="10" x="866.5" y="209.0156"/><rect fill="#FFFFFF" filter="url(#f1mjha8xdmffy2)" height="380.0313" style="stroke:#A80036;stroke-width:1.0;" width="10" x="866.5" y="712.9375"/><rect fill="#FFFFFF" filter="url(#f1mjha8xdmffy2)" height="324.8125" style="stroke:#A80036;stroke-width:1.0;" width="10" x="866.5" y="1184.0234"/><rect fill="#FFFFFF" filter="url(#f1mjha8xdmffy2)" height="30" style="stroke:#A80036;stroke-width:1.0;" width="10" x="1071.5" y="239.3672"/><rect fill="#FFFFFF" filter="url(#f1mjha8xdmffy2)" height="30" style="stroke:#A80036;stroke-width:1.0;" width="10" x="1071.5" y="360.0703"/><rect fill="#FFFFFF" filter="url(#f1mjha8xdmffy2)" height="30" style="stroke:#A80036;stroke-width:1.0;" width="10" x="1194" y="299.7188"/><rect fill="#FFFFFF" filter="url(#f1mjha8xdmffy2)" height="108.0547" style="stroke:#A80036;stroke-width:1.0;" width="10" x="1333.5" y="420.4219"/><rect fill="#FFFFFF" filter="url(#f1mjha8xdmffy2)" height="30" style="stroke:#A80036;stroke-width:1.0;" width="10" x="1333.5" y="743.2891"/><rect fill="#FFFFFF" filter="url(#f1mjha8xdmffy2)" height="289.3281" style="stroke:#A80036;stroke-width:1.0;" width="10" x="1568" y="803.6406"/><rect fill="#FFFFFF" filter="url(#f1mjha8xdmffy2)" height="28" style="stroke:#A80036;stroke-width:1.0;" width="10" x="1573" y="885.3438"/><rect fill="#FFFFFF" filter="url(#f1mjha8xdmffy2)" height="117.0547" style="stroke:#A80036;stroke-width:1.0;" width="10" x="1568" y="1214.375"/><rect fill="#FFFFFF" filter="url(#f1mjha8xdmffy2)" height="94.5703" style="stroke:#A80036;stroke-width:1.0;" width="10" x="2081" y="998.3984"/><rect fill="#FFFFFF" filter="url(#f1mjha8xdmffy2)" height="177.4063" style="stroke:#A80036;stroke-width:1.0;" width="10" x="2081" y="1331.4297"/><rect fill="#FFFFFF" filter="url(#f1mjha8xdmffy2)" height="30" style="stroke:#A80036;stroke-width:1.0;" width="10" x="2643" y="498.4766"/><rect fill="#FFFFFF" filter="url(#f1mjha8xdmffy2)" height="30" style="stroke:#A80036;stroke-width:1.0;" width="10" x="2742.5" y="1448.4844"/><line style="stroke:#A80036;stroke-width:1.0;stroke-dasharray:5.0,5.0;" x1="42" x2="42" y1="89.6094" y2="1526.8359"/><line style="stroke:#A80036;stroke-width:1.0;stroke-dasharray:5.0,5.0;" x1="419" x2="419" y1="89.6094" y2="1526.8359"/><line style="stroke:#A80036;stroke-width:1.0;stroke-dasharray:5.0,5.0;" x1="871" x2="871" y1="89.6094" y2="1526.8359"/><line style="stroke:#A80036;stroke-width:1.0;stroke-dasharray:5.0,5.0;" x1="1076.5" x2="1076.5" y1="89.6094" y2="1526.8359"/><line style="stroke:#A80036;stroke-width:1.0;stroke-dasharray:5.0,5.0;" x1="1198.5" x2="1198.5" y1="89.6094" y2="1526.8359"/><line style="stroke:#A80036;stroke-width:1.0;stroke-dasharray:5.0,5.0;" x1="1338.5" x2="1338.5" y1="89.6094" y2="1526.8359"/><line style="stroke:#A80036;stroke-width:1.0;stroke-dasharray:5.0,5.0;" x1="1469.5" x2="1469.5" y1="89.6094" y2="1526.8359"/><line style="stroke:#A80036;stroke-width:1.0;stroke-dasharray:5.0,5.0;" x1="1572.5" x2="1572.5" y1="89.6094" y2="1526.8359"/><line style="stroke:#A80036;stroke-width:1.0;stroke-dasharray:5.0,5.0;" x1="1758.5" x2="1758.5" y1="89.6094" y2="1526.8359"/><line style="stroke:#A80036;stroke-width:1.0;stroke-dasharray:5.0,5.0;" x1="2085.5" x2="2085.5" y1="89.6094" y2="1526.8359"/><line style="stroke:#A80036;stroke-width:1.0;stroke-dasharray:5.0,5.0;" x1="2552" x2="2552" y1="1048.5078" y2="1526.8359"/><line style="stroke:#A80036;stroke-width:1.0;stroke-dasharray:5.0,5.0;" x1="2648" x2="2648" y1="89.6094" y2="1526.8359"/><line style="stroke:#A80036;stroke-width:1.0;stroke-dasharray:5.0,5.0;" x1="2747" x2="2747" y1="89.6094" y2="1526.8359"/><text fill="#000000" font-family="sans-serif" font-size="14" lengthAdjust="spacing" textLength="69" x="5" y="86.5332">Freelancer</text><ellipse cx="42.5" cy="15" fill="#FEFECE" filter="url(#f1mjha8xdmffy2)" rx="8" ry="8" style="stroke:#A80036;stroke-width:2.0;"/><path d="M42.5,23 L42.5,50 M29.5,31 L55.5,31 M42.5,50 L29.5,65 M42.5,50 L55.5,65 " fill="none" filter="url(#f1mjha8xdmffy2)" style="stroke:#A80036;stroke-width:2.0;"/><text fill="#000000" font-family="sans-serif" font-size="14" lengthAdjust="spacing" textLength="69" x="5" y="1540.3691">Freelancer</text><ellipse cx="42.5" cy="1553.4453" fill="#FEFECE" filter="url(#f1mjha8xdmffy2)" rx="8" ry="8" style="stroke:#A80036;stroke-width:2.0;"/><path d="M42.5,1561.4453 L42.5,1588.4453 M29.5,1569.4453 L55.5,1569.4453 M42.5,1588.4453 L29.5,1603.4453 M42.5,1588.4453 L55.5,1603.4453 " fill="none" filter="url(#f1mjha8xdmffy2)" style="stroke:#A80036;stroke-width:2.0;"/><rect fill="#FEFECE" filter="url(#f1mjha8xdmffy2)" height="31.6094" style="stroke:#A80036;stroke-width:1.5;" width="161" x="337" y="53"/><text fill="#000000" font-family="sans-serif" font-size="14" lengthAdjust="spacing" textLength="147" x="344" y="74.5332">:RegistarCandidaturaUI</text><rect fill="#FEFECE" filter="url(#f1mjha8xdmffy2)" height="31.6094" style="stroke:#A80036;stroke-width:1.5;" width="161" x="337" y="1525.8359"/><text fill="#000000" font-family="sans-serif" font-size="14" lengthAdjust="spacing" textLength="147" x="344" y="1547.3691">:RegistarCandidaturaUI</text><rect fill="#FEFECE" filter="url(#f1mjha8xdmffy2)" height="31.6094" style="stroke:#A80036;stroke-width:1.5;" width="211" x="764" y="53"/><text fill="#000000" font-family="sans-serif" font-size="14" lengthAdjust="spacing" textLength="197" x="771" y="74.5332">:RegistarCandidaturaController</text><rect fill="#FEFECE" filter="url(#f1mjha8xdmffy2)" height="31.6094" style="stroke:#A80036;stroke-width:1.5;" width="211" x="764" y="1525.8359"/><text fill="#000000" font-family="sans-serif" font-size="14" lengthAdjust="spacing" textLength="197" x="771" y="1547.3691">:RegistarCandidaturaController</text><rect fill="#FEFECE" filter="url(#f1mjha8xdmffy2)" height="31.6094" style="stroke:#A80036;stroke-width:1.5;" width="86" x="1031.5" y="53"/><text fill="#000000" font-family="sans-serif" font-size="14" lengthAdjust="spacing" textLength="72" x="1038.5" y="74.5332">:Plataforma</text><rect fill="#FEFECE" filter="url(#f1mjha8xdmffy2)" height="31.6094" style="stroke:#A80036;stroke-width:1.5;" width="86" x="1031.5" y="1525.8359"/><text fill="#000000" font-family="sans-serif" font-size="14" lengthAdjust="spacing" textLength="72" x="1038.5" y="1547.3691">:Plataforma</text><rect fill="#FEFECE" filter="url(#f1mjha8xdmffy2)" height="49.2188" style="stroke:#A80036;stroke-width:1.5;" width="131" x="1131.5" y="35.3906"/><text fill="#000000" font-family="sans-serif" font-size="14" lengthAdjust="spacing" textLength="13" x="1190.5" y="56.9238">rf:</text><text fill="#000000" font-family="sans-serif" font-size="14" lengthAdjust="spacing" textLength="117" x="1138.5" y="74.5332">RegistoFreelancer</text><rect fill="#FEFECE" filter="url(#f1mjha8xdmffy2)" height="49.2188" style="stroke:#A80036;stroke-width:1.5;" width="131" x="1131.5" y="1525.8359"/><text fill="#000000" font-family="sans-serif" font-size="14" lengthAdjust="spacing" textLength="13" x="1190.5" y="1547.3691">rf:</text><text fill="#000000" font-family="sans-serif" font-size="14" lengthAdjust="spacing" textLength="117" x="1138.5" y="1564.9785">RegistoFreelancer</text><rect fill="#FEFECE" filter="url(#f1mjha8xdmffy2)" height="49.2188" style="stroke:#A80036;stroke-width:1.5;" width="120" x="1276.5" y="35.3906"/><text fill="#000000" font-family="sans-serif" font-size="14" lengthAdjust="spacing" textLength="33" x="1320" y="56.9238">ranu:</text><text fill="#000000" font-family="sans-serif" font-size="14" lengthAdjust="spacing" textLength="106" x="1283.5" y="74.5332">RegistoAnuncios</text><rect fill="#FEFECE" filter="url(#f1mjha8xdmffy2)" height="49.2188" style="stroke:#A80036;stroke-width:1.5;" width="120" x="1276.5" y="1525.8359"/><text fill="#000000" font-family="sans-serif" font-size="14" lengthAdjust="spacing" textLength="33" x="1320" y="1547.3691">ranu:</text><text fill="#000000" font-family="sans-serif" font-size="14" lengthAdjust="spacing" textLength="106" x="1283.5" y="1564.9785">RegistoAnuncios</text><rect fill="#FEFECE" filter="url(#f1mjha8xdmffy2)" height="49.2188" style="stroke:#A80036;stroke-width:1.5;" width="114" x="1410.5" y="35.3906"/><text fill="#000000" font-family="sans-serif" font-size="14" lengthAdjust="spacing" textLength="54" x="1440.5" y="56.9238">listaAnu:</text><text fill="#000000" font-family="sans-serif" font-size="14" lengthAdjust="spacing" textLength="96" x="1421.5" y="74.5332">List&lt;Anuncios&gt;</text><rect fill="#FEFECE" filter="url(#f1mjha8xdmffy2)" height="49.2188" style="stroke:#A80036;stroke-width:1.5;" width="114" x="1410.5" y="1525.8359"/><text fill="#000000" font-family="sans-serif" font-size="14" lengthAdjust="spacing" textLength="54" x="1440.5" y="1547.3691">listaAnu:</text><text fill="#000000" font-family="sans-serif" font-size="14" lengthAdjust="spacing" textLength="96" x="1421.5" y="1564.9785">List&lt;Anuncios&gt;</text><rect fill="#FEFECE" filter="url(#f1mjha8xdmffy2)" height="49.2188" style="stroke:#A80036;stroke-width:1.5;" width="65" x="1538.5" y="35.3906"/><text fill="#000000" font-family="sans-serif" font-size="14" lengthAdjust="spacing" textLength="28" x="1557" y="56.9238">anu:</text><text fill="#000000" font-family="sans-serif" font-size="14" lengthAdjust="spacing" textLength="51" x="1545.5" y="74.5332">Anuncio</text><rect fill="#FEFECE" filter="url(#f1mjha8xdmffy2)" height="49.2188" style="stroke:#A80036;stroke-width:1.5;" width="65" x="1538.5" y="1525.8359"/><text fill="#000000" font-family="sans-serif" font-size="14" lengthAdjust="spacing" textLength="28" x="1557" y="1547.3691">anu:</text><text fill="#000000" font-family="sans-serif" font-size="14" lengthAdjust="spacing" textLength="51" x="1545.5" y="1564.9785">Anuncio</text><rect fill="#FEFECE" filter="url(#f1mjha8xdmffy2)" height="49.2188" style="stroke:#A80036;stroke-width:1.5;" width="83" x="1715.5" y="35.3906"/><text fill="#000000" font-family="sans-serif" font-size="14" lengthAdjust="spacing" textLength="32" x="1741" y="56.9238">freel:</text><text fill="#000000" font-family="sans-serif" font-size="14" lengthAdjust="spacing" textLength="69" x="1722.5" y="74.5332">Freelancer</text><rect fill="#FEFECE" filter="url(#f1mjha8xdmffy2)" height="49.2188" style="stroke:#A80036;stroke-width:1.5;" width="83" x="1715.5" y="1525.8359"/><text fill="#000000" font-family="sans-serif" font-size="14" lengthAdjust="spacing" textLength="32" x="1741" y="1547.3691">freel:</text><text fill="#000000" font-family="sans-serif" font-size="14" lengthAdjust="spacing" textLength="69" x="1722.5" y="1564.9785">Freelancer</text><rect fill="#FEFECE" filter="url(#f1mjha8xdmffy2)" height="31.6094" style="stroke:#A80036;stroke-width:1.5;" width="133" x="2017.5" y="53"/><text fill="#000000" font-family="sans-serif" font-size="14" lengthAdjust="spacing" textLength="119" x="2024.5" y="74.5332">:ListaCandidaturas</text><rect fill="#FEFECE" filter="url(#f1mjha8xdmffy2)" height="31.6094" style="stroke:#A80036;stroke-width:1.5;" width="133" x="2017.5" y="1525.8359"/><text fill="#000000" font-family="sans-serif" font-size="14" lengthAdjust="spacing" textLength="119" x="2024.5" y="1547.3691">:ListaCandidaturas</text><rect fill="#FEFECE" filter="url(#f1mjha8xdmffy2)" height="49.2188" style="stroke:#A80036;stroke-width:1.5;" width="92" x="2504" y="1525.8359"/><text fill="#000000" font-family="sans-serif" font-size="14" lengthAdjust="spacing" textLength="35" x="2532.5" y="1547.3691">cand:</text><text fill="#000000" font-family="sans-serif" font-size="14" lengthAdjust="spacing" textLength="78" x="2511" y="1564.9785">Candidatura</text><text fill="#000000" font-family="sans-serif" font-size="14" lengthAdjust="spacing" textLength="70" x="2610" y="86.5332">AnuncioDB</text><path d="M2630,36 C2630,26 2648,26 2648,26 C2648,26 2666,26 2666,36 L2666,62 C2666,72 2648,72 2648,72 C2648,72 2630,72 2630,62 L2630,36 " fill="#FEFECE" filter="url(#f1mjha8xdmffy2)" style="stroke:#000000;stroke-width:1.5;"/><path d="M2630,36 C2630,46 2648,46 2648,46 C2648,46 2666,46 2666,36 " fill="none" style="stroke:#000000;stroke-width:1.5;"/><text fill="#000000" font-family="sans-serif" font-size="14" lengthAdjust="spacing" textLength="70" x="2610" y="1540.3691">AnuncioDB</text><path d="M2630,1553.4453 C2630,1543.4453 2648,1543.4453 2648,1543.4453 C2648,1543.4453 2666,1543.4453 2666,1553.4453 L2666,1579.4453 C2666,1589.4453 2648,1589.4453 2648,1589.4453 C2648,1589.4453 2630,1589.4453 2630,1579.4453 L2630,1553.4453 " fill="#FEFECE" filter="url(#f1mjha8xdmffy2)" style="stroke:#000000;stroke-width:1.5;"/><path d="M2630,1553.4453 C2630,1563.4453 2648,1563.4453 2648,1563.4453 C2648,1563.4453 2666,1563.4453 2666,1553.4453 " fill="none" style="stroke:#000000;stroke-width:1.5;"/><text fill="#000000" font-family="sans-serif" font-size="14" lengthAdjust="spacing" textLength="97" x="2696" y="86.5332">CandidaturaDB</text><path d="M2729.5,36 C2729.5,26 2747.5,26 2747.5,26 C2747.5,26 2765.5,26 2765.5,36 L2765.5,62 C2765.5,72 2747.5,72 2747.5,72 C2747.5,72 2729.5,72 2729.5,62 L2729.5,36 " fill="#FEFECE" filter="url(#f1mjha8xdmffy2)" style="stroke:#000000;stroke-width:1.5;"/><path d="M2729.5,36 C2729.5,46 2747.5,46 2747.5,46 C2747.5,46 2765.5,46 2765.5,36 " fill="none" style="stroke:#000000;stroke-width:1.5;"/><text fill="#000000" font-family="sans-serif" font-size="14" lengthAdjust="spacing" textLength="97" x="2696" y="1540.3691">CandidaturaDB</text><path d="M2729.5,1553.4453 C2729.5,1543.4453 2747.5,1543.4453 2747.5,1543.4453 C2747.5,1543.4453 2765.5,1543.4453 2765.5,1553.4453 L2765.5,1579.4453 C2765.5,1589.4453 2747.5,1589.4453 2747.5,1589.4453 C2747.5,1589.4453 2729.5,1589.4453 2729.5,1579.4453 L2729.5,1553.4453 " fill="#FEFECE" filter="url(#f1mjha8xdmffy2)" style="stroke:#000000;stroke-width:1.5;"/><path d="M2729.5,1553.4453 C2729.5,1563.4453 2747.5,1563.4453 2747.5,1563.4453 C2747.5,1563.4453 2765.5,1563.4453 2765.5,1553.4453 " fill="none" style="stroke:#000000;stroke-width:1.5;"/><rect fill="#FFFFFF" filter="url(#f1mjha8xdmffy2)" height="1418.2266" style="stroke:#A80036;stroke-width:1.0;" width="10" x="37.5" y="99.6094"/><rect fill="#FFFFFF" filter="url(#f1mjha8xdmffy2)" height="380.1641" style="stroke:#A80036;stroke-width:1.0;" width="10" x="414.5" y="178.6641"/><rect fill="#FFFFFF" filter="url(#f1mjha8xdmffy2)" height="46.7031" style="stroke:#A80036;stroke-width:1.0;" width="10" x="414.5" y="589.1797"/><rect fill="#FFFFFF" filter="url(#f1mjha8xdmffy2)" height="440.7344" style="stroke:#A80036;stroke-width:1.0;" width="10" x="414.5" y="682.5859"/><rect fill="#FFFFFF" filter="url(#f1mjha8xdmffy2)" height="355.1641" style="stroke:#A80036;stroke-width:1.0;" width="10" x="414.5" y="1153.6719"/><rect fill="#FFFFFF" filter="url(#f1mjha8xdmffy2)" height="319.4609" style="stroke:#A80036;stroke-width:1.0;" width="10" x="866.5" y="209.0156"/><rect fill="#FFFFFF" filter="url(#f1mjha8xdmffy2)" height="380.0313" style="stroke:#A80036;stroke-width:1.0;" width="10" x="866.5" y="712.9375"/><rect fill="#FFFFFF" filter="url(#f1mjha8xdmffy2)" height="324.8125" style="stroke:#A80036;stroke-width:1.0;" width="10" x="866.5" y="1184.0234"/><rect fill="#FFFFFF" filter="url(#f1mjha8xdmffy2)" height="30" style="stroke:#A80036;stroke-width:1.0;" width="10" x="1071.5" y="239.3672"/><rect fill="#FFFFFF" filter="url(#f1mjha8xdmffy2)" height="30" style="stroke:#A80036;stroke-width:1.0;" width="10" x="1071.5" y="360.0703"/><rect fill="#FFFFFF" filter="url(#f1mjha8xdmffy2)" height="30" style="stroke:#A80036;stroke-width:1.0;" width="10" x="1194" y="299.7188"/><rect fill="#FFFFFF" filter="url(#f1mjha8xdmffy2)" height="108.0547" style="stroke:#A80036;stroke-width:1.0;" width="10" x="1333.5" y="420.4219"/><rect fill="#FFFFFF" filter="url(#f1mjha8xdmffy2)" height="30" style="stroke:#A80036;stroke-width:1.0;" width="10" x="1333.5" y="743.2891"/><rect fill="#FFFFFF" filter="url(#f1mjha8xdmffy2)" height="289.3281" style="stroke:#A80036;stroke-width:1.0;" width="10" x="1568" y="803.6406"/><rect fill="#FFFFFF" filter="url(#f1mjha8xdmffy2)" height="28" style="stroke:#A80036;stroke-width:1.0;" width="10" x="1573" y="885.3438"/><rect fill="#FFFFFF" filter="url(#f1mjha8xdmffy2)" height="117.0547" style="stroke:#A80036;stroke-width:1.0;" width="10" x="1568" y="1214.375"/><rect fill="#FFFFFF" filter="url(#f1mjha8xdmffy2)" height="94.5703" style="stroke:#A80036;stroke-width:1.0;" width="10" x="2081" y="998.3984"/><rect fill="#FFFFFF" filter="url(#f1mjha8xdmffy2)" height="177.4063" style="stroke:#A80036;stroke-width:1.0;" width="10" x="2081" y="1331.4297"/><rect fill="#FFFFFF" filter="url(#f1mjha8xdmffy2)" height="30" style="stroke:#A80036;stroke-width:1.0;" width="10" x="2643" y="498.4766"/><rect fill="#FFFFFF" filter="url(#f1mjha8xdmffy2)" height="30" style="stroke:#A80036;stroke-width:1.0;" width="10" x="2742.5" y="1448.4844"/><path d="M2091,104.6094 L2091,146.6094 L2297,146.6094 L2297,114.6094 L2287,104.6094 L2091,104.6094 " fill="#FBFB77" filter="url(#f1mjha8xdmffy2)" style="stroke:#A80036;stroke-width:1.0;"/><path d="M2287,104.6094 L2287,114.6094 L2297,114.6094 L2287,104.6094 " fill="#FBFB77" style="stroke:#A80036;stroke-width:1.0;"/><text fill="#000000" font-family="sans-serif" font-size="13" lengthAdjust="spacing" textLength="185" x="2097" y="123.1045">este objeto pertence ao anúncio</text><text fill="#000000" font-family="sans-serif" font-size="13" lengthAdjust="spacing" textLength="170" x="2097" y="139.4561">indicado como "anu:Anuncio"</text><polygon fill="#A80036" points="402.5,174.6641,412.5,178.6641,402.5,182.6641,406.5,178.6641" style="stroke:#A80036;stroke-width:1.0;"/><line style="stroke:#A80036;stroke-width:1.0;" x1="47.5" x2="408.5" y1="178.6641" y2="178.6641"/><text fill="#000000" font-family="sans-serif" font-size="13" font-weight="bold" lengthAdjust="spacing" textLength="7" x="54.5" y="173.8076">1</text><text fill="#000000" font-family="sans-serif" font-size="13" lengthAdjust="spacing" textLength="148" x="65.5" y="173.8076">inicia registar candidatura</text><polygon fill="#A80036" points="854.5,205.0156,864.5,209.0156,854.5,213.0156,858.5,209.0156" style="stroke:#A80036;stroke-width:1.0;"/><line style="stroke:#A80036;stroke-width:1.0;" x1="424.5" x2="860.5" y1="209.0156" y2="209.0156"/><text fill="#000000" font-family="sans-serif" font-size="13" font-weight="bold" lengthAdjust="spacing" textLength="7" x="431.5" y="204.1592">2</text><text fill="#000000" font-family="sans-serif" font-size="13" lengthAdjust="spacing" textLength="271" x="442.5" y="204.1592">listaAnu = getAnunciosElegiveisDoFreelancer()</text><polygon fill="#A80036" points="1059.5,235.3672,1069.5,239.3672,1059.5,243.3672,1063.5,239.3672" style="stroke:#A80036;stroke-width:1.0;"/><line style="stroke:#A80036;stroke-width:1.0;" x1="876.5" x2="1065.5" y1="239.3672" y2="239.3672"/><text fill="#000000" font-family="sans-serif" font-size="13" font-weight="bold" lengthAdjust="spacing" textLength="7" x="883.5" y="234.5107">3</text><text fill="#000000" font-family="sans-serif" font-size="13" lengthAdjust="spacing" textLength="161" x="894.5" y="234.5107">rf = getRegistoFreelancers()</text><polygon fill="#A80036" points="1182,295.7188,1192,299.7188,1182,303.7188,1186,299.7188" style="stroke:#A80036;stroke-width:1.0;"/><line style="stroke:#A80036;stroke-width:1.0;" x1="876.5" x2="1188" y1="299.7188" y2="299.7188"/><text fill="#000000" font-family="sans-serif" font-size="13" font-weight="bold" lengthAdjust="spacing" textLength="7" x="883.5" y="294.8623">4</text><text fill="#000000" font-family="sans-serif" font-size="13" lengthAdjust="spacing" textLength="204" x="894.5" y="294.8623">free = getFreelancerByEmail(email)</text><polygon fill="#A80036" points="1059.5,356.0703,1069.5,360.0703,1059.5,364.0703,1063.5,360.0703" style="stroke:#A80036;stroke-width:1.0;"/><line style="stroke:#A80036;stroke-width:1.0;" x1="876.5" x2="1065.5" y1="360.0703" y2="360.0703"/><text fill="#000000" font-family="sans-serif" font-size="13" font-weight="bold" lengthAdjust="spacing" textLength="7" x="883.5" y="355.2139">5</text><text fill="#000000" font-family="sans-serif" font-size="13" lengthAdjust="spacing" textLength="165" x="894.5" y="355.2139">ranu = getRegistoAnuncios()</text><polygon fill="#A80036" points="1321.5,416.4219,1331.5,420.4219,1321.5,424.4219,1325.5,420.4219" style="stroke:#A80036;stroke-width:1.0;"/><line style="stroke:#A80036;stroke-width:1.0;" x1="876.5" x2="1327.5" y1="420.4219" y2="420.4219"/><text fill="#000000" font-family="sans-serif" font-size="13" font-weight="bold" lengthAdjust="spacing" textLength="7" x="883.5" y="415.5654">6</text><text fill="#000000" font-family="sans-serif" font-size="13" lengthAdjust="spacing" textLength="284" x="894.5" y="415.5654">listaAnu=getAnunciosElegiveisDoFreelancer(free)</text><rect fill="#FFFFFF" filter="url(#f1mjha8xdmffy2)" height="42.7031" style="stroke:#000000;stroke-width:2.0;" width="211" x="1273.5" y="428.4219"/><polygon fill="#EEEEEE" points="1273.5,428.4219,1335.5,428.4219,1335.5,436.4219,1325.5,446.4219,1273.5,446.4219,1273.5,428.4219" style="stroke:#000000;stroke-width:2.0;"/><text fill="#000000" font-family="sans-serif" font-size="13" font-weight="bold" lengthAdjust="spacing" textLength="17" x="1286.5" y="443.917">ref</text><text fill="#000000" font-family="sans-serif" font-size="13" lengthAdjust="spacing" textLength="203" x="1279.5" y="463.917">SD_getAnunciosElegiveisFree(free)</text><polygon fill="#A80036" points="2631,494.4766,2641,498.4766,2631,502.4766,2635,498.4766" style="stroke:#A80036;stroke-width:1.0;"/><line style="stroke:#A80036;stroke-width:1.0;" x1="1343.5" x2="2637" y1="498.4766" y2="498.4766"/><text fill="#000000" font-family="sans-serif" font-size="13" font-weight="bold" lengthAdjust="spacing" textLength="7" x="1350.5" y="493.6201">7</text><text fill="#000000" font-family="sans-serif" font-size="13" lengthAdjust="spacing" textLength="41" x="1361.5" y="493.6201">getAll()</text><polygon fill="#A80036" points="58.5,554.8281,48.5,558.8281,58.5,562.8281,54.5,558.8281" style="stroke:#A80036;stroke-width:1.0;"/><line style="stroke:#A80036;stroke-width:1.0;stroke-dasharray:2.0,2.0;" x1="52.5" x2="418.5" y1="558.8281" y2="558.8281"/><text fill="#000000" font-family="sans-serif" font-size="13" font-weight="bold" lengthAdjust="spacing" textLength="7" x="64.5" y="553.9717">8</text><text fill="#000000" font-family="sans-serif" font-size="13" lengthAdjust="spacing" textLength="288" x="75.5" y="553.9717">seleccionar anuncio da lista de anuncios elegiveis</text><polygon fill="#A80036" points="402.5,585.1797,412.5,589.1797,402.5,593.1797,406.5,589.1797" style="stroke:#A80036;stroke-width:1.0;"/><line style="stroke:#A80036;stroke-width:1.0;" x1="47.5" x2="408.5" y1="589.1797" y2="589.1797"/><text fill="#000000" font-family="sans-serif" font-size="13" font-weight="bold" lengthAdjust="spacing" textLength="7" x="54.5" y="584.3232">9</text><text fill="#000000" font-family="sans-serif" font-size="13" lengthAdjust="spacing" textLength="211" x="65.5" y="584.3232">iniciar candidatura a anuncio elegivel</text><polygon fill="#A80036" points="58.5,631.8828,48.5,635.8828,58.5,639.8828,54.5,635.8828" style="stroke:#A80036;stroke-width:1.0;"/><line style="stroke:#A80036;stroke-width:1.0;stroke-dasharray:2.0,2.0;" x1="52.5" x2="418.5" y1="635.8828" y2="635.8828"/><text fill="#000000" font-family="sans-serif" font-size="13" font-weight="bold" lengthAdjust="spacing" textLength="14" x="64.5" y="622.8506">10</text><text fill="#000000" font-family="sans-serif" font-size="13" lengthAdjust="spacing" textLength="169" x="82.5" y="614.6748">solicita dados da candidatura</text><text fill="#000000" font-family="sans-serif" font-size="13" lengthAdjust="spacing" textLength="325" x="82.5" y="631.0264">(valor,nrDias,txtApresentacaoentacao,txtMotivacaoacao)</text><polygon fill="#A80036" points="402.5,678.5859,412.5,682.5859,402.5,686.5859,406.5,682.5859" style="stroke:#A80036;stroke-width:1.0;"/><line style="stroke:#A80036;stroke-width:1.0;" x1="47.5" x2="408.5" y1="682.5859" y2="682.5859"/><text fill="#000000" font-family="sans-serif" font-size="13" font-weight="bold" lengthAdjust="spacing" textLength="14" x="54.5" y="669.5537">11</text><text fill="#000000" font-family="sans-serif" font-size="13" lengthAdjust="spacing" textLength="169" x="72.5" y="661.3779">introduz os dados solicitados</text><text fill="#000000" font-family="sans-serif" font-size="13" lengthAdjust="spacing" textLength="251" x="72.5" y="677.7295">(valor,nrDias,txtApresentacao,txtMotivacao)</text><polygon fill="#A80036" points="854.5,708.9375,864.5,712.9375,854.5,716.9375,858.5,712.9375" style="stroke:#A80036;stroke-width:1.0;"/><line style="stroke:#A80036;stroke-width:1.0;" x1="424.5" x2="860.5" y1="712.9375" y2="712.9375"/><text fill="#000000" font-family="sans-serif" font-size="13" font-weight="bold" lengthAdjust="spacing" textLength="14" x="431.5" y="708.0811">12</text><text fill="#000000" font-family="sans-serif" font-size="13" lengthAdjust="spacing" textLength="405" x="449.5" y="708.0811">novaCandidatura(anuncioId,valor,nrDias,txtApresentacao,txtMotivacao)</text><polygon fill="#A80036" points="1321.5,739.2891,1331.5,743.2891,1321.5,747.2891,1325.5,743.2891" style="stroke:#A80036;stroke-width:1.0;"/><line style="stroke:#A80036;stroke-width:1.0;" x1="876.5" x2="1327.5" y1="743.2891" y2="743.2891"/><text fill="#000000" font-family="sans-serif" font-size="13" font-weight="bold" lengthAdjust="spacing" textLength="14" x="883.5" y="738.4326">13</text><text fill="#000000" font-family="sans-serif" font-size="13" lengthAdjust="spacing" textLength="191" x="901.5" y="738.4326">anu = getAnuncioById(anuncioId)</text><polygon fill="#A80036" points="1556,799.6406,1566,803.6406,1556,807.6406,1560,803.6406" style="stroke:#A80036;stroke-width:1.0;"/><line style="stroke:#A80036;stroke-width:1.0;" x1="876.5" x2="1562" y1="803.6406" y2="803.6406"/><text fill="#000000" font-family="sans-serif" font-size="13" font-weight="bold" lengthAdjust="spacing" textLength="14" x="883.5" y="798.7842">14</text><text fill="#000000" font-family="sans-serif" font-size="13" lengthAdjust="spacing" textLength="466" x="901.5" y="798.7842">cand=novaCandidatura(free,dataCand,valor,nrDias,txtApresentacao,txtMotivacao)</text><line style="stroke:#A80036;stroke-width:1.0;" x1="1578" x2="1620" y1="833.9922" y2="833.9922"/><line style="stroke:#A80036;stroke-width:1.0;" x1="1620" x2="1620" y1="833.9922" y2="846.9922"/><line style="stroke:#A80036;stroke-width:1.0;" x1="1579" x2="1620" y1="846.9922" y2="846.9922"/><polygon fill="#A80036" points="1589,842.9922,1579,846.9922,1589,850.9922,1585,846.9922" style="stroke:#A80036;stroke-width:1.0;"/><text fill="#000000" font-family="sans-serif" font-size="13" font-weight="bold" lengthAdjust="spacing" textLength="14" x="1585" y="829.1357">15</text><text fill="#000000" font-family="sans-serif" font-size="13" lengthAdjust="spacing" textLength="119" x="1603" y="829.1357">aceitaCandidaturas()</text><line style="stroke:#A80036;stroke-width:1.0;" x1="1583" x2="1625" y1="877.3438" y2="877.3438"/><line style="stroke:#A80036;stroke-width:1.0;" x1="1625" x2="1625" y1="877.3438" y2="890.3438"/><line style="stroke:#A80036;stroke-width:1.0;" x1="1584" x2="1625" y1="890.3438" y2="890.3438"/><polygon fill="#A80036" points="1594,886.3438,1584,890.3438,1594,894.3438,1590,890.3438" style="stroke:#A80036;stroke-width:1.0;"/><text fill="#000000" font-family="sans-serif" font-size="13" font-weight="bold" lengthAdjust="spacing" textLength="14" x="1590" y="872.4873">16</text><text fill="#000000" font-family="sans-serif" font-size="13" lengthAdjust="spacing" textLength="144" x="1608" y="872.4873">isFreelancerElegivel(free)</text><rect fill="#FFFFFF" filter="url(#f1mjha8xdmffy2)" height="42.7031" style="stroke:#000000;stroke-width:2.0;" width="177" x="1535.5" y="928.3438"/><polygon fill="#EEEEEE" points="1535.5,928.3438,1597.5,928.3438,1597.5,936.3438,1587.5,946.3438,1535.5,946.3438,1535.5,928.3438" style="stroke:#000000;stroke-width:2.0;"/><text fill="#000000" font-family="sans-serif" font-size="13" font-weight="bold" lengthAdjust="spacing" textLength="17" x="1548.5" y="943.8389">ref</text><text fill="#000000" font-family="sans-serif" font-size="13" lengthAdjust="spacing" textLength="169" x="1541.5" y="963.8389">SD_isFreelancerElegivel(free)</text><polygon fill="#A80036" points="2069,994.3984,2079,998.3984,2069,1002.3984,2073,998.3984" style="stroke:#A80036;stroke-width:1.0;"/><line style="stroke:#A80036;stroke-width:1.0;" x1="1578" x2="2075" y1="998.3984" y2="998.3984"/><text fill="#000000" font-family="sans-serif" font-size="13" font-weight="bold" lengthAdjust="spacing" textLength="14" x="1585" y="993.542">17</text><text fill="#000000" font-family="sans-serif" font-size="13" lengthAdjust="spacing" textLength="466" x="1603" y="993.542">cand=novaCandidatura(free,dataCand,valor,nrDias,txtApresentacao,txtMotivacao)</text><polygon fill="#A80036" points="2492,1024.75,2502,1028.75,2492,1032.75,2496,1028.75" style="stroke:#A80036;stroke-width:1.0;"/><line style="stroke:#A80036;stroke-width:1.0;stroke-dasharray:2.0,2.0;" x1="2091" x2="2498" y1="1028.75" y2="1028.75"/><text fill="#000000" font-family="sans-serif" font-size="13" font-weight="bold" lengthAdjust="spacing" textLength="14" x="2098" y="1023.8936">18</text><text fill="#000000" font-family="sans-serif" font-size="13" lengthAdjust="spacing" textLength="371" x="2116" y="1023.8936">create(free,dataCand,valor,nrDias,txtApresentacao,txtMotivacao)</text><rect fill="#FEFECE" filter="url(#f1mjha8xdmffy2)" height="49.2188" style="stroke:#A80036;stroke-width:1.5;" width="92" x="2504" y="1006.3984"/><text fill="#000000" font-family="sans-serif" font-size="14" lengthAdjust="spacing" textLength="35" x="2532.5" y="1027.9316">cand:</text><text fill="#000000" font-family="sans-serif" font-size="14" lengthAdjust="spacing" textLength="78" x="2511" y="1045.541">Candidatura</text><polygon fill="#A80036" points="2074,1088.9688,2084,1092.9688,2074,1096.9688,2078,1092.9688" style="stroke:#A80036;stroke-width:1.0;"/><line style="stroke:#A80036;stroke-width:1.0;" x1="1573" x2="2080" y1="1092.9688" y2="1092.9688"/><text fill="#000000" font-family="sans-serif" font-size="13" font-weight="bold" lengthAdjust="spacing" textLength="14" x="1580" y="1088.1123">19</text><text fill="#000000" font-family="sans-serif" font-size="13" lengthAdjust="spacing" textLength="137" x="1598" y="1088.1123">validaCandidatura(cand)</text><polygon fill="#A80036" points="58.5,1119.3203,48.5,1123.3203,58.5,1127.3203,54.5,1123.3203" style="stroke:#A80036;stroke-width:1.0;"/><line style="stroke:#A80036;stroke-width:1.0;stroke-dasharray:2.0,2.0;" x1="52.5" x2="418.5" y1="1123.3203" y2="1123.3203"/><text fill="#000000" font-family="sans-serif" font-size="13" font-weight="bold" lengthAdjust="spacing" textLength="14" x="64.5" y="1118.4639">20</text><text fill="#000000" font-family="sans-serif" font-size="13" lengthAdjust="spacing" textLength="315" x="82.5" y="1118.4639">apresenta dados da candidatura e solicita confirmacao</text><polygon fill="#A80036" points="402.5,1149.6719,412.5,1153.6719,402.5,1157.6719,406.5,1153.6719" style="stroke:#A80036;stroke-width:1.0;"/><line style="stroke:#A80036;stroke-width:1.0;" x1="47.5" x2="408.5" y1="1153.6719" y2="1153.6719"/><text fill="#000000" font-family="sans-serif" font-size="13" font-weight="bold" lengthAdjust="spacing" textLength="14" x="54.5" y="1148.8154">21</text><text fill="#000000" font-family="sans-serif" font-size="13" lengthAdjust="spacing" textLength="177" x="72.5" y="1148.8154">confirma dados da candidatura</text><polygon fill="#A80036" points="854.5,1180.0234,864.5,1184.0234,854.5,1188.0234,858.5,1184.0234" style="stroke:#A80036;stroke-width:1.0;"/><line style="stroke:#A80036;stroke-width:1.0;" x1="424.5" x2="860.5" y1="1184.0234" y2="1184.0234"/><text fill="#000000" font-family="sans-serif" font-size="13" font-weight="bold" lengthAdjust="spacing" textLength="14" x="431.5" y="1179.167">22</text><text fill="#000000" font-family="sans-serif" font-size="13" lengthAdjust="spacing" textLength="116" x="449.5" y="1179.167">registaCandidatura()</text><polygon fill="#A80036" points="1556,1210.375,1566,1214.375,1556,1218.375,1560,1214.375" style="stroke:#A80036;stroke-width:1.0;"/><line style="stroke:#A80036;stroke-width:1.0;" x1="876.5" x2="1562" y1="1214.375" y2="1214.375"/><text fill="#000000" font-family="sans-serif" font-size="13" font-weight="bold" lengthAdjust="spacing" textLength="14" x="883.5" y="1209.5186">23</text><text fill="#000000" font-family="sans-serif" font-size="13" lengthAdjust="spacing" textLength="144" x="901.5" y="1209.5186">registaCandidatura(cand)</text><line style="stroke:#A80036;stroke-width:1.0;" x1="1578" x2="1620" y1="1244.7266" y2="1244.7266"/><line style="stroke:#A80036;stroke-width:1.0;" x1="1620" x2="1620" y1="1244.7266" y2="1257.7266"/><line style="stroke:#A80036;stroke-width:1.0;" x1="1579" x2="1620" y1="1257.7266" y2="1257.7266"/><polygon fill="#A80036" points="1589,1253.7266,1579,1257.7266,1589,1261.7266,1585,1257.7266" style="stroke:#A80036;stroke-width:1.0;"/><text fill="#000000" font-family="sans-serif" font-size="13" font-weight="bold" lengthAdjust="spacing" textLength="14" x="1585" y="1239.8701">24</text><text fill="#000000" font-family="sans-serif" font-size="13" lengthAdjust="spacing" textLength="119" x="1603" y="1239.8701">aceitaCandidaturas()</text><line style="stroke:#A80036;stroke-width:1.0;" x1="1578" x2="1620" y1="1288.0781" y2="1288.0781"/><line style="stroke:#A80036;stroke-width:1.0;" x1="1620" x2="1620" y1="1288.0781" y2="1301.0781"/><line style="stroke:#A80036;stroke-width:1.0;" x1="1579" x2="1620" y1="1301.0781" y2="1301.0781"/><polygon fill="#A80036" points="1589,1297.0781,1579,1301.0781,1589,1305.0781,1585,1301.0781" style="stroke:#A80036;stroke-width:1.0;"/><text fill="#000000" font-family="sans-serif" font-size="13" font-weight="bold" lengthAdjust="spacing" textLength="14" x="1585" y="1283.2217">25</text><text fill="#000000" font-family="sans-serif" font-size="13" lengthAdjust="spacing" textLength="144" x="1603" y="1283.2217">isFreelancerElegivel(free)</text><polygon fill="#A80036" points="2069,1327.4297,2079,1331.4297,2069,1335.4297,2073,1331.4297" style="stroke:#A80036;stroke-width:1.0;"/><line style="stroke:#A80036;stroke-width:1.0;" x1="1573" x2="2075" y1="1331.4297" y2="1331.4297"/><text fill="#000000" font-family="sans-serif" font-size="13" font-weight="bold" lengthAdjust="spacing" textLength="14" x="1580" y="1326.5732">26</text><text fill="#000000" font-family="sans-serif" font-size="13" lengthAdjust="spacing" textLength="144" x="1598" y="1326.5732">registaCandidatura(cand)</text><line style="stroke:#A80036;stroke-width:1.0;" x1="2091" x2="2133" y1="1361.7813" y2="1361.7813"/><line style="stroke:#A80036;stroke-width:1.0;" x1="2133" x2="2133" y1="1361.7813" y2="1374.7813"/><line style="stroke:#A80036;stroke-width:1.0;" x1="2092" x2="2133" y1="1374.7813" y2="1374.7813"/><polygon fill="#A80036" points="2102,1370.7813,2092,1374.7813,2102,1378.7813,2098,1374.7813" style="stroke:#A80036;stroke-width:1.0;"/><text fill="#000000" font-family="sans-serif" font-size="13" font-weight="bold" lengthAdjust="spacing" textLength="14" x="2098" y="1356.9248">27</text><text fill="#000000" font-family="sans-serif" font-size="13" lengthAdjust="spacing" textLength="135" x="2116" y="1356.9248">validacandidatura(cand)</text><line style="stroke:#A80036;stroke-width:1.0;" x1="2091" x2="2133" y1="1405.1328" y2="1405.1328"/><line style="stroke:#A80036;stroke-width:1.0;" x1="2133" x2="2133" y1="1405.1328" y2="1418.1328"/><line style="stroke:#A80036;stroke-width:1.0;" x1="2092" x2="2133" y1="1418.1328" y2="1418.1328"/><polygon fill="#A80036" points="2102,1414.1328,2092,1418.1328,2102,1422.1328,2098,1418.1328" style="stroke:#A80036;stroke-width:1.0;"/><text fill="#000000" font-family="sans-serif" font-size="13" font-weight="bold" lengthAdjust="spacing" textLength="14" x="2098" y="1400.2764">28</text><text fill="#000000" font-family="sans-serif" font-size="13" lengthAdjust="spacing" textLength="126" x="2116" y="1400.2764">addCandidatura(cand)</text><polygon fill="#A80036" points="2730.5,1444.4844,2740.5,1448.4844,2730.5,1452.4844,2734.5,1448.4844" style="stroke:#A80036;stroke-width:1.0;"/><line style="stroke:#A80036;stroke-width:1.0;" x1="2091" x2="2736.5" y1="1448.4844" y2="1448.4844"/><text fill="#000000" font-family="sans-serif" font-size="13" font-weight="bold" lengthAdjust="spacing" textLength="14" x="2098" y="1443.6279">29</text><text fill="#000000" font-family="sans-serif" font-size="13" lengthAdjust="spacing" textLength="98" x="2116" y="1443.6279">insertCand(cand)</text><polygon fill="#A80036" points="58.5,1504.8359,48.5,1508.8359,58.5,1512.8359,54.5,1508.8359" style="stroke:#A80036;stroke-width:1.0;"/><line style="stroke:#A80036;stroke-width:1.0;stroke-dasharray:2.0,2.0;" x1="52.5" x2="418.5" y1="1508.8359" y2="1508.8359"/><text fill="#000000" font-family="sans-serif" font-size="13" font-weight="bold" lengthAdjust="spacing" textLength="14" x="64.5" y="1503.9795">30</text><text fill="#000000" font-family="sans-serif" font-size="13" lengthAdjust="spacing" textLength="188" x="82.5" y="1503.9795">informa do sucesso da operacao</text><!--MD5=[75c68e7627e876a604cb323db3a4713f]
@startuml
autonumber

actor "Freelancer" as FRL
participant ":RegistarCandidaturaUI" as UI
participant ":RegistarCandidaturaController" as CTRL
participant ":Plataforma" as PLAT
participant "rf:\nRegistoFreelancer" as RF
participant "ranu:\nRegistoAnuncios" as RANU
participant "listaAnu:\n List<Anuncios>" as LSTAE
participant "anu:\nAnuncio" as ANUN
participant "freel:\nFreelancer" as FREE
participant ":ListaCandidaturas" as LCAND
participant "cand:\nCandidatura" as CAND
database AnuncioDB as anunDB
database CandidaturaDB as candDB


note right of LCAND
este objeto pertence ao anúncio
indicado como "anu:Anuncio"
end note

activate FRL
FRL -> UI : inicia registar candidatura
activate UI

UI -> CTRL : listaAnu = getAnunciosElegiveisDoFreelancer()
activate CTRL

CTRL -> PLAT: rf = getRegistoFreelancers()
activate PLAT
deactivate PLAT

CTRL -> RF : free = getFreelancerByEmail(email)
activate RF
deactivate RF

CTRL -> PLAT: ranu = getRegistoAnuncios()
activate PLAT
deactivate PLAT

CTRL -> RANU : listaAnu=getAnunciosElegiveisDoFreelancer(free)
activate RANU
ref over RANU : SD_getAnunciosElegiveisFree(free)
RANU -> anunDB : getAll()
activate anunDB
deactivate anunDB
deactivate RANU
deactivate CTRL

UI - -> FRL : seleccionar anuncio da lista de anuncios elegiveis
deactivate UI
FRL -> UI : iniciar candidatura a anuncio elegivel
activate UI
UI - -> FRL : solicita dados da candidatura \n(valor,nrDias,txtApresentacaoentacao,txtMotivacaoacao)
deactivate UI

FRL -> UI : introduz os dados solicitados \n(valor,nrDias,txtApresentacao,txtMotivacao)
activate UI
UI -> CTRL : novaCandidatura(anuncioId,valor,nrDias,txtApresentacao,txtMotivacao)
activate CTRL

CTRL -> RANU: anu = getAnuncioById(anuncioId)
activate RANU
deactivate RANU

CTRL -> ANUN: cand=novaCandidatura(free,dataCand,valor,nrDias,txtApresentacao,txtMotivacao)
activate ANUN
ANUN -> ANUN: aceitaCandidaturas()
ANUN -> ANUN: isFreelancerElegivel(free)
activate ANUN
ref over ANUN : SD_isFreelancerElegivel(free)
deactivate ANUN
ANUN -> LCAND: cand=novaCandidatura(free,dataCand,valor,nrDias,txtApresentacao,txtMotivacao)
activate LCAND
LCAND - -> CAND**: create(free,dataCand,valor,nrDias,txtApresentacao,txtMotivacao)
ANUN -> LCAND: validaCandidatura(cand)
deactivate LCAND
deactivate ANUN
deactivate CTRL
UI - -> FRL : apresenta dados da candidatura e solicita confirmacao
deactivate UI

FRL -> UI : confirma dados da candidatura
activate UI
UI -> CTRL: registaCandidatura()
activate CTRL
CTRL -> ANUN: registaCandidatura(cand)
activate ANUN
ANUN -> ANUN: aceitaCandidaturas()
ANUN -> ANUN: isFreelancerElegivel(free)
ANUN -> LCAND: registaCandidatura(cand)
deactivate ANUN
activate LCAND
LCAND -> LCAND: validacandidatura(cand)
LCAND -> LCAND: addCandidatura(cand)
LCAND -> candDB : insertCand(cand)
activate candDB
deactivate candDB
UI - -> FRL: informa do sucesso da operacao
deactivate LCAND
deactivate CTRL
deactivate UI

@enduml

PlantUML version 1.2021.00(Sun Jan 10 10:25:05 WET 2021)
(GPL source distribution)
Java Runtime: Java(TM) SE Runtime Environment
JVM: Java HotSpot(TM) 64-Bit Server VM
Default Encoding: Cp1252
Language: pt
Country: PT
--></g></svg>