<?xml version="1.0" encoding="UTF-8" standalone="no"?><svg xmlns="http://www.w3.org/2000/svg" xmlns:xlink="http://www.w3.org/1999/xlink" contentScriptType="application/ecmascript" contentStyleType="text/css" height="1213px" preserveAspectRatio="none" style="width:2357px;height:1213px;" version="1.1" viewBox="0 0 2357 1213" width="2357px" zoomAndPan="magnify"><defs><filter height="300%" id="f4h0eqoq86guv" width="300%" x="-1" y="-1"><feGaussianBlur result="blurOut" stdDeviation="2.0"/><feColorMatrix in="blurOut" result="blurOut2" type="matrix" values="0 0 0 0 0 0 0 0 0 0 0 0 0 0 0 0 0 0 .4 0"/><feOffset dx="4.0" dy="4.0" in="blurOut2" result="blurOut3"/><feBlend in="SourceGraphic" in2="blurOut3" mode="normal"/></filter></defs><g><rect fill="#FFFFFF" filter="url(#f4h0eqoq86guv)" height="1019.4141" style="stroke:#A80036;stroke-width:1.0;" width="10" x="76.5" y="99.6094"/><rect fill="#FFFFFF" filter="url(#f4h0eqoq86guv)" height="46.7031" style="stroke:#A80036;stroke-width:1.0;" width="10" x="515.5" y="121.9609"/><rect fill="#FFFFFF" filter="url(#f4h0eqoq86guv)" height="367.3828" style="stroke:#A80036;stroke-width:1.0;" width="10" x="515.5" y="199.0156"/><rect fill="#FFFFFF" filter="url(#f4h0eqoq86guv)" height="513.2734" style="stroke:#A80036;stroke-width:1.0;" width="10" x="515.5" y="596.75"/><rect fill="#FFFFFF" filter="url(#f4h0eqoq86guv)" height="337.0313" style="stroke:#A80036;stroke-width:1.0;" width="10" x="821.5" y="229.3672"/><rect fill="#FFFFFF" filter="url(#f4h0eqoq86guv)" height="419.8672" style="stroke:#A80036;stroke-width:1.0;" width="10" x="821.5" y="627.1016"/><rect fill="#FFFFFF" filter="url(#f4h0eqoq86guv)" height="30" style="stroke:#A80036;stroke-width:1.0;" width="10" x="1056.5" y="259.7188"/><rect fill="#FFFFFF" filter="url(#f4h0eqoq86guv)" height="30.3516" style="stroke:#A80036;stroke-width:1.0;" width="10" x="1056.5" y="380.7734"/><rect fill="#FFFFFF" filter="url(#f4h0eqoq86guv)" height="30.3516" style="stroke:#A80036;stroke-width:1.0;" width="10" x="1149" y="320.0703"/><rect fill="#FFFFFF" filter="url(#f4h0eqoq86guv)" height="30.3516" style="stroke:#A80036;stroke-width:1.0;" width="10" x="1149" y="852.2109"/><rect fill="#FFFFFF" filter="url(#f4h0eqoq86guv)" height="30.3516" style="stroke:#A80036;stroke-width:1.0;" width="10" x="1352.5" y="411.125"/><rect fill="#FFFFFF" filter="url(#f4h0eqoq86guv)" height="30.3516" style="stroke:#A80036;stroke-width:1.0;" width="10" x="1488" y="441.4766"/><rect fill="#FFFFFF" filter="url(#f4h0eqoq86guv)" height="30" style="stroke:#A80036;stroke-width:1.0;" width="10" x="1646" y="718.1563"/><rect fill="#FFFFFF" filter="url(#f4h0eqoq86guv)" height="30.3516" style="stroke:#A80036;stroke-width:1.0;" width="10" x="1839.5" y="471.8281"/><rect fill="#FFFFFF" filter="url(#f4h0eqoq86guv)" height="73.7031" style="stroke:#A80036;stroke-width:1.0;" width="10" x="1839.5" y="778.5078"/><rect fill="#FFFFFF" filter="url(#f4h0eqoq86guv)" height="134.0547" style="stroke:#A80036;stroke-width:1.0;" width="10" x="1839.5" y="882.5625"/><rect fill="#FFFFFF" filter="url(#f4h0eqoq86guv)" height="30.3516" style="stroke:#A80036;stroke-width:1.0;" width="10" x="2189" y="657.4531"/><rect fill="#FFFFFF" filter="url(#f4h0eqoq86guv)" height="30" style="stroke:#A80036;stroke-width:1.0;" width="10" x="2299.5" y="956.2656"/><line style="stroke:#A80036;stroke-width:1.0;stroke-dasharray:5.0,5.0;" x1="81" x2="81" y1="89.6094" y2="1128.0234"/><line style="stroke:#A80036;stroke-width:1.0;stroke-dasharray:5.0,5.0;" x1="520.5" x2="520.5" y1="89.6094" y2="1128.0234"/><line style="stroke:#A80036;stroke-width:1.0;stroke-dasharray:5.0,5.0;" x1="826.5" x2="826.5" y1="89.6094" y2="1128.0234"/><line style="stroke:#A80036;stroke-width:1.0;stroke-dasharray:5.0,5.0;" x1="1061.5" x2="1061.5" y1="89.6094" y2="1128.0234"/><line style="stroke:#A80036;stroke-width:1.0;stroke-dasharray:5.0,5.0;" x1="1153.5" x2="1153.5" y1="89.6094" y2="1128.0234"/><line style="stroke:#A80036;stroke-width:1.0;stroke-dasharray:5.0,5.0;" x1="1357" x2="1357" y1="89.6094" y2="1128.0234"/><line style="stroke:#A80036;stroke-width:1.0;stroke-dasharray:5.0,5.0;" x1="1493" x2="1493" y1="89.6094" y2="1128.0234"/><line style="stroke:#A80036;stroke-width:1.0;stroke-dasharray:5.0,5.0;" x1="1651" x2="1651" y1="89.6094" y2="1128.0234"/><line style="stroke:#A80036;stroke-width:1.0;stroke-dasharray:5.0,5.0;" x1="1844" x2="1844" y1="89.6094" y2="1128.0234"/><line style="stroke:#A80036;stroke-width:1.0;stroke-dasharray:5.0,5.0;" x1="2193.5" x2="2193.5" y1="521.9375" y2="1128.0234"/><line style="stroke:#A80036;stroke-width:1.0;stroke-dasharray:5.0,5.0;" x1="2304.5" x2="2304.5" y1="89.6094" y2="1128.0234"/><text fill="#000000" font-family="sans-serif" font-size="14" lengthAdjust="spacing" textLength="147" x="5" y="86.5332">Gestor de Organização</text><ellipse cx="81.5" cy="15" fill="#FEFECE" filter="url(#f4h0eqoq86guv)" rx="8" ry="8" style="stroke:#A80036;stroke-width:2.0;"/><path d="M81.5,23 L81.5,50 M68.5,31 L94.5,31 M81.5,50 L68.5,65 M81.5,50 L94.5,65 " fill="none" filter="url(#f4h0eqoq86guv)" style="stroke:#A80036;stroke-width:2.0;"/><text fill="#000000" font-family="sans-serif" font-size="14" lengthAdjust="spacing" textLength="147" x="5" y="1141.5566">Gestor de Organização</text><ellipse cx="81.5" cy="1154.6328" fill="#FEFECE" filter="url(#f4h0eqoq86guv)" rx="8" ry="8" style="stroke:#A80036;stroke-width:2.0;"/><path d="M81.5,1162.6328 L81.5,1189.6328 M68.5,1170.6328 L94.5,1170.6328 M81.5,1189.6328 L68.5,1204.6328 M81.5,1189.6328 L94.5,1204.6328 " fill="none" filter="url(#f4h0eqoq86guv)" style="stroke:#A80036;stroke-width:2.0;"/><rect fill="#FEFECE" filter="url(#f4h0eqoq86guv)" height="31.6094" style="stroke:#A80036;stroke-width:1.5;" width="178" x="429.5" y="53"/><text fill="#000000" font-family="sans-serif" font-size="14" lengthAdjust="spacing" textLength="164" x="436.5" y="74.5332">:EspecificarColaboradorUI</text><rect fill="#FEFECE" filter="url(#f4h0eqoq86guv)" height="31.6094" style="stroke:#A80036;stroke-width:1.5;" width="178" x="429.5" y="1127.0234"/><text fill="#000000" font-family="sans-serif" font-size="14" lengthAdjust="spacing" textLength="164" x="436.5" y="1148.5566">:EspecificarColaboradorUI</text><rect fill="#FEFECE" filter="url(#f4h0eqoq86guv)" height="31.6094" style="stroke:#A80036;stroke-width:1.5;" width="228" x="710.5" y="53"/><text fill="#000000" font-family="sans-serif" font-size="14" lengthAdjust="spacing" textLength="214" x="717.5" y="74.5332">:EspecificarColaboradorController</text><rect fill="#FEFECE" filter="url(#f4h0eqoq86guv)" height="31.6094" style="stroke:#A80036;stroke-width:1.5;" width="228" x="710.5" y="1127.0234"/><text fill="#000000" font-family="sans-serif" font-size="14" lengthAdjust="spacing" textLength="214" x="717.5" y="1148.5566">:EspecificarColaboradorController</text><rect fill="#FEFECE" filter="url(#f4h0eqoq86guv)" height="31.6094" style="stroke:#A80036;stroke-width:1.5;" width="86" x="1016.5" y="53"/><text fill="#000000" font-family="sans-serif" font-size="14" lengthAdjust="spacing" textLength="72" x="1023.5" y="74.5332">:Plataforma</text><rect fill="#FEFECE" filter="url(#f4h0eqoq86guv)" height="31.6094" style="stroke:#A80036;stroke-width:1.5;" width="86" x="1016.5" y="1127.0234"/><text fill="#000000" font-family="sans-serif" font-size="14" lengthAdjust="spacing" textLength="72" x="1023.5" y="1148.5566">:Plataforma</text><rect fill="#FEFECE" filter="url(#f4h0eqoq86guv)" height="49.2188" style="stroke:#A80036;stroke-width:1.5;" width="71" x="1116.5" y="35.3906"/><text fill="#000000" font-family="sans-serif" font-size="14" lengthAdjust="spacing" textLength="33" x="1135.5" y="56.9238">uAPI:</text><text fill="#000000" font-family="sans-serif" font-size="14" lengthAdjust="spacing" textLength="57" x="1123.5" y="74.5332">UsersAPI</text><rect fill="#FEFECE" filter="url(#f4h0eqoq86guv)" height="49.2188" style="stroke:#A80036;stroke-width:1.5;" width="71" x="1116.5" y="1127.0234"/><text fill="#000000" font-family="sans-serif" font-size="14" lengthAdjust="spacing" textLength="33" x="1135.5" y="1148.5566">uAPI:</text><text fill="#000000" font-family="sans-serif" font-size="14" lengthAdjust="spacing" textLength="57" x="1123.5" y="1166.166">UsersAPI</text><rect fill="#FEFECE" filter="url(#f4h0eqoq86guv)" height="49.2188" style="stroke:#A80036;stroke-width:1.5;" width="149" x="1281" y="35.3906"/><text fill="#000000" font-family="sans-serif" font-size="14" lengthAdjust="spacing" textLength="17" x="1347" y="56.9238">ro:</text><text fill="#000000" font-family="sans-serif" font-size="14" lengthAdjust="spacing" textLength="135" x="1288" y="74.5332">RegistoOrganizacoes</text><rect fill="#FEFECE" filter="url(#f4h0eqoq86guv)" height="49.2188" style="stroke:#A80036;stroke-width:1.5;" width="149" x="1281" y="1127.0234"/><text fill="#000000" font-family="sans-serif" font-size="14" lengthAdjust="spacing" textLength="17" x="1347" y="1148.5566">ro:</text><text fill="#000000" font-family="sans-serif" font-size="14" lengthAdjust="spacing" textLength="135" x="1288" y="1166.166">RegistoOrganizacoes</text><rect fill="#FEFECE" filter="url(#f4h0eqoq86guv)" height="49.2188" style="stroke:#A80036;stroke-width:1.5;" width="94" x="1444" y="35.3906"/><text fill="#000000" font-family="sans-serif" font-size="14" lengthAdjust="spacing" textLength="12" x="1485" y="56.9238">o:</text><text fill="#000000" font-family="sans-serif" font-size="14" lengthAdjust="spacing" textLength="80" x="1451" y="74.5332">Organizacao</text><rect fill="#FEFECE" filter="url(#f4h0eqoq86guv)" height="49.2188" style="stroke:#A80036;stroke-width:1.5;" width="94" x="1444" y="1127.0234"/><text fill="#000000" font-family="sans-serif" font-size="14" lengthAdjust="spacing" textLength="12" x="1485" y="1148.5566">o:</text><text fill="#000000" font-family="sans-serif" font-size="14" lengthAdjust="spacing" textLength="80" x="1451" y="1166.166">Organizacao</text><rect fill="#FEFECE" filter="url(#f4h0eqoq86guv)" height="49.2188" style="stroke:#A80036;stroke-width:1.5;" width="194" x="1552" y="35.3906"/><text fill="#000000" font-family="sans-serif" font-size="14" lengthAdjust="spacing" textLength="28" x="1635" y="56.9238">agp:</text><text fill="#000000" font-family="sans-serif" font-size="14" lengthAdjust="spacing" textLength="180" x="1559" y="74.5332">AlgoritmoGeradorPasswords</text><rect fill="#FEFECE" filter="url(#f4h0eqoq86guv)" height="49.2188" style="stroke:#A80036;stroke-width:1.5;" width="194" x="1552" y="1127.0234"/><text fill="#000000" font-family="sans-serif" font-size="14" lengthAdjust="spacing" textLength="28" x="1635" y="1148.5566">agp:</text><text fill="#000000" font-family="sans-serif" font-size="14" lengthAdjust="spacing" textLength="180" x="1559" y="1166.166">AlgoritmoGeradorPasswords</text><rect fill="#FEFECE" filter="url(#f4h0eqoq86guv)" height="49.2188" style="stroke:#A80036;stroke-width:1.5;" width="165" x="1760" y="35.3906"/><text fill="#000000" font-family="sans-serif" font-size="14" lengthAdjust="spacing" textLength="16" x="1834.5" y="56.9238">rc:</text><text fill="#000000" font-family="sans-serif" font-size="14" lengthAdjust="spacing" textLength="151" x="1767" y="74.5332">RepositorioColaborador</text><rect fill="#FEFECE" filter="url(#f4h0eqoq86guv)" height="49.2188" style="stroke:#A80036;stroke-width:1.5;" width="165" x="1760" y="1127.0234"/><text fill="#000000" font-family="sans-serif" font-size="14" lengthAdjust="spacing" textLength="16" x="1834.5" y="1148.5566">rc:</text><text fill="#000000" font-family="sans-serif" font-size="14" lengthAdjust="spacing" textLength="151" x="1767" y="1166.166">RepositorioColaborador</text><rect fill="#FEFECE" filter="url(#f4h0eqoq86guv)" height="49.2188" style="stroke:#A80036;stroke-width:1.5;" width="93" x="2145.5" y="1127.0234"/><text fill="#000000" font-family="sans-serif" font-size="14" lengthAdjust="spacing" textLength="11" x="2186.5" y="1148.5566">c:</text><text fill="#000000" font-family="sans-serif" font-size="14" lengthAdjust="spacing" textLength="79" x="2152.5" y="1166.166">Colaborador</text><text fill="#000000" font-family="sans-serif" font-size="14" lengthAdjust="spacing" textLength="98" x="2252.5" y="86.5332">ColaboradorDB</text><path d="M2286.5,36 C2286.5,26 2304.5,26 2304.5,26 C2304.5,26 2322.5,26 2322.5,36 L2322.5,62 C2322.5,72 2304.5,72 2304.5,72 C2304.5,72 2286.5,72 2286.5,62 L2286.5,36 " fill="#FEFECE" filter="url(#f4h0eqoq86guv)" style="stroke:#000000;stroke-width:1.5;"/><path d="M2286.5,36 C2286.5,46 2304.5,46 2304.5,46 C2304.5,46 2322.5,46 2322.5,36 " fill="none" style="stroke:#000000;stroke-width:1.5;"/><text fill="#000000" font-family="sans-serif" font-size="14" lengthAdjust="spacing" textLength="98" x="2252.5" y="1141.5566">ColaboradorDB</text><path d="M2286.5,1154.6328 C2286.5,1144.6328 2304.5,1144.6328 2304.5,1144.6328 C2304.5,1144.6328 2322.5,1144.6328 2322.5,1154.6328 L2322.5,1180.6328 C2322.5,1190.6328 2304.5,1190.6328 2304.5,1190.6328 C2304.5,1190.6328 2286.5,1190.6328 2286.5,1180.6328 L2286.5,1154.6328 " fill="#FEFECE" filter="url(#f4h0eqoq86guv)" style="stroke:#000000;stroke-width:1.5;"/><path d="M2286.5,1154.6328 C2286.5,1164.6328 2304.5,1164.6328 2304.5,1164.6328 C2304.5,1164.6328 2322.5,1164.6328 2322.5,1154.6328 " fill="none" style="stroke:#000000;stroke-width:1.5;"/><rect fill="#FFFFFF" filter="url(#f4h0eqoq86guv)" height="1019.4141" style="stroke:#A80036;stroke-width:1.0;" width="10" x="76.5" y="99.6094"/><rect fill="#FFFFFF" filter="url(#f4h0eqoq86guv)" height="46.7031" style="stroke:#A80036;stroke-width:1.0;" width="10" x="515.5" y="121.9609"/><rect fill="#FFFFFF" filter="url(#f4h0eqoq86guv)" height="367.3828" style="stroke:#A80036;stroke-width:1.0;" width="10" x="515.5" y="199.0156"/><rect fill="#FFFFFF" filter="url(#f4h0eqoq86guv)" height="513.2734" style="stroke:#A80036;stroke-width:1.0;" width="10" x="515.5" y="596.75"/><rect fill="#FFFFFF" filter="url(#f4h0eqoq86guv)" height="337.0313" style="stroke:#A80036;stroke-width:1.0;" width="10" x="821.5" y="229.3672"/><rect fill="#FFFFFF" filter="url(#f4h0eqoq86guv)" height="419.8672" style="stroke:#A80036;stroke-width:1.0;" width="10" x="821.5" y="627.1016"/><rect fill="#FFFFFF" filter="url(#f4h0eqoq86guv)" height="30" style="stroke:#A80036;stroke-width:1.0;" width="10" x="1056.5" y="259.7188"/><rect fill="#FFFFFF" filter="url(#f4h0eqoq86guv)" height="30.3516" style="stroke:#A80036;stroke-width:1.0;" width="10" x="1056.5" y="380.7734"/><rect fill="#FFFFFF" filter="url(#f4h0eqoq86guv)" height="30.3516" style="stroke:#A80036;stroke-width:1.0;" width="10" x="1149" y="320.0703"/><rect fill="#FFFFFF" filter="url(#f4h0eqoq86guv)" height="30.3516" style="stroke:#A80036;stroke-width:1.0;" width="10" x="1149" y="852.2109"/><rect fill="#FFFFFF" filter="url(#f4h0eqoq86guv)" height="30.3516" style="stroke:#A80036;stroke-width:1.0;" width="10" x="1352.5" y="411.125"/><rect fill="#FFFFFF" filter="url(#f4h0eqoq86guv)" height="30.3516" style="stroke:#A80036;stroke-width:1.0;" width="10" x="1488" y="441.4766"/><rect fill="#FFFFFF" filter="url(#f4h0eqoq86guv)" height="30" style="stroke:#A80036;stroke-width:1.0;" width="10" x="1646" y="718.1563"/><rect fill="#FFFFFF" filter="url(#f4h0eqoq86guv)" height="30.3516" style="stroke:#A80036;stroke-width:1.0;" width="10" x="1839.5" y="471.8281"/><rect fill="#FFFFFF" filter="url(#f4h0eqoq86guv)" height="73.7031" style="stroke:#A80036;stroke-width:1.0;" width="10" x="1839.5" y="778.5078"/><rect fill="#FFFFFF" filter="url(#f4h0eqoq86guv)" height="134.0547" style="stroke:#A80036;stroke-width:1.0;" width="10" x="1839.5" y="882.5625"/><rect fill="#FFFFFF" filter="url(#f4h0eqoq86guv)" height="30.3516" style="stroke:#A80036;stroke-width:1.0;" width="10" x="2189" y="657.4531"/><rect fill="#FFFFFF" filter="url(#f4h0eqoq86guv)" height="30" style="stroke:#A80036;stroke-width:1.0;" width="10" x="2299.5" y="956.2656"/><polygon fill="#A80036" points="503.5,117.9609,513.5,121.9609,503.5,125.9609,507.5,121.9609" style="stroke:#A80036;stroke-width:1.0;"/><line style="stroke:#A80036;stroke-width:1.0;" x1="86.5" x2="509.5" y1="121.9609" y2="121.9609"/><text fill="#000000" font-family="sans-serif" font-size="13" font-weight="bold" lengthAdjust="spacing" textLength="7" x="93.5" y="117.1045">1</text><text fill="#000000" font-family="sans-serif" font-size="13" lengthAdjust="spacing" textLength="286" x="104.5" y="117.1045">começa o processo de registo de um colaborador</text><polygon fill="#A80036" points="97.5,164.6641,87.5,168.6641,97.5,172.6641,93.5,168.6641" style="stroke:#A80036;stroke-width:1.0;"/><line style="stroke:#A80036;stroke-width:1.0;stroke-dasharray:2.0,2.0;" x1="91.5" x2="519.5" y1="168.6641" y2="168.6641"/><text fill="#000000" font-family="sans-serif" font-size="13" font-weight="bold" lengthAdjust="spacing" textLength="7" x="103.5" y="155.6318">2</text><text fill="#000000" font-family="sans-serif" font-size="13" lengthAdjust="spacing" textLength="256" x="114.5" y="147.4561">solicita os dados requeridos sobre o mesmo</text><text fill="#000000" font-family="sans-serif" font-size="13" lengthAdjust="spacing" textLength="183" x="118.5" y="163.8076">(nome, funcao, contacto, email)</text><polygon fill="#A80036" points="503.5,195.0156,513.5,199.0156,503.5,203.0156,507.5,199.0156" style="stroke:#A80036;stroke-width:1.0;"/><line style="stroke:#A80036;stroke-width:1.0;" x1="86.5" x2="509.5" y1="199.0156" y2="199.0156"/><text fill="#000000" font-family="sans-serif" font-size="13" font-weight="bold" lengthAdjust="spacing" textLength="7" x="93.5" y="194.1592">3</text><text fill="#000000" font-family="sans-serif" font-size="13" lengthAdjust="spacing" textLength="211" x="104.5" y="194.1592">insere os dados do novo colaborador</text><polygon fill="#A80036" points="809.5,225.3672,819.5,229.3672,809.5,233.3672,813.5,229.3672" style="stroke:#A80036;stroke-width:1.0;"/><line style="stroke:#A80036;stroke-width:1.0;" x1="525.5" x2="815.5" y1="229.3672" y2="229.3672"/><text fill="#000000" font-family="sans-serif" font-size="13" font-weight="bold" lengthAdjust="spacing" textLength="7" x="532.5" y="224.5107">4</text><text fill="#000000" font-family="sans-serif" font-size="13" lengthAdjust="spacing" textLength="266" x="543.5" y="224.5107">novoColaborador(nome,funcao,contacto,email)</text><polygon fill="#A80036" points="1044.5,255.7188,1054.5,259.7188,1044.5,263.7188,1048.5,259.7188" style="stroke:#A80036;stroke-width:1.0;"/><line style="stroke:#A80036;stroke-width:1.0;" x1="831.5" x2="1050.5" y1="259.7188" y2="259.7188"/><text fill="#000000" font-family="sans-serif" font-size="13" font-weight="bold" lengthAdjust="spacing" textLength="7" x="838.5" y="254.8623">5</text><text fill="#000000" font-family="sans-serif" font-size="13" lengthAdjust="spacing" textLength="178" x="849.5" y="254.8623">plat = Plataforma.getInstance()</text><polygon fill="#A80036" points="1137,316.0703,1147,320.0703,1137,324.0703,1141,320.0703" style="stroke:#A80036;stroke-width:1.0;"/><line style="stroke:#A80036;stroke-width:1.0;" x1="831.5" x2="1143" y1="320.0703" y2="320.0703"/><text fill="#000000" font-family="sans-serif" font-size="13" font-weight="bold" lengthAdjust="spacing" textLength="7" x="838.5" y="315.2139">6</text><text fill="#000000" font-family="sans-serif" font-size="13" lengthAdjust="spacing" textLength="150" x="849.5" y="315.2139">uAPI = plat.getUsersAPI()</text><polygon fill="#A80036" points="1142,346.4219,1152,350.4219,1142,354.4219,1146,350.4219" style="stroke:#A80036;stroke-width:1.0;"/><line style="stroke:#A80036;stroke-width:1.0;" x1="831.5" x2="1148" y1="350.4219" y2="350.4219"/><text fill="#000000" font-family="sans-serif" font-size="13" font-weight="bold" lengthAdjust="spacing" textLength="7" x="838.5" y="345.5654">7</text><text fill="#000000" font-family="sans-serif" font-size="13" lengthAdjust="spacing" textLength="160" x="849.5" y="345.5654">email = getEmailUtilizador()</text><polygon fill="#A80036" points="1044.5,376.7734,1054.5,380.7734,1044.5,384.7734,1048.5,380.7734" style="stroke:#A80036;stroke-width:1.0;"/><line style="stroke:#A80036;stroke-width:1.0;" x1="831.5" x2="1050.5" y1="380.7734" y2="380.7734"/><text fill="#000000" font-family="sans-serif" font-size="13" font-weight="bold" lengthAdjust="spacing" textLength="7" x="838.5" y="375.917">8</text><text fill="#000000" font-family="sans-serif" font-size="13" lengthAdjust="spacing" textLength="195" x="849.5" y="375.917">ro = plat.getRegistoOrganizacao()</text><polygon fill="#A80036" points="1340.5,407.125,1350.5,411.125,1340.5,415.125,1344.5,411.125" style="stroke:#A80036;stroke-width:1.0;"/><line style="stroke:#A80036;stroke-width:1.0;" x1="1061.5" x2="1346.5" y1="411.125" y2="411.125"/><text fill="#000000" font-family="sans-serif" font-size="13" font-weight="bold" lengthAdjust="spacing" textLength="7" x="1068.5" y="406.2686">9</text><text fill="#000000" font-family="sans-serif" font-size="13" lengthAdjust="spacing" textLength="256" x="1079.5" y="406.2686">o = getOrganizacaoByEmailUtilizador(email)</text><polygon fill="#A80036" points="1476,437.4766,1486,441.4766,1476,445.4766,1480,441.4766" style="stroke:#A80036;stroke-width:1.0;"/><line style="stroke:#A80036;stroke-width:1.0;" x1="831.5" x2="1482" y1="441.4766" y2="441.4766"/><text fill="#000000" font-family="sans-serif" font-size="13" font-weight="bold" lengthAdjust="spacing" textLength="14" x="838.5" y="436.6201">10</text><text fill="#000000" font-family="sans-serif" font-size="13" lengthAdjust="spacing" textLength="198" x="856.5" y="436.6201">rc = o.getRepositorioColaborador()</text><polygon fill="#A80036" points="1827.5,467.8281,1837.5,471.8281,1827.5,475.8281,1831.5,471.8281" style="stroke:#A80036;stroke-width:1.0;"/><line style="stroke:#A80036;stroke-width:1.0;" x1="1493" x2="1833.5" y1="471.8281" y2="471.8281"/><text fill="#000000" font-family="sans-serif" font-size="13" font-weight="bold" lengthAdjust="spacing" textLength="14" x="1500" y="466.9717">11</text><text fill="#000000" font-family="sans-serif" font-size="13" lengthAdjust="spacing" textLength="289" x="1518" y="466.9717">c = novoColaborador(nome,funcao,contacto,email)</text><polygon fill="#A80036" points="2133.5,498.1797,2143.5,502.1797,2133.5,506.1797,2137.5,502.1797" style="stroke:#A80036;stroke-width:1.0;"/><line style="stroke:#A80036;stroke-width:1.0;stroke-dasharray:2.0,2.0;" x1="1844.5" x2="2139.5" y1="502.1797" y2="502.1797"/><text fill="#000000" font-family="sans-serif" font-size="13" font-weight="bold" lengthAdjust="spacing" textLength="14" x="1851.5" y="497.3232">12</text><text fill="#000000" font-family="sans-serif" font-size="13" lengthAdjust="spacing" textLength="254" x="1869.5" y="497.3232">colab = create(nome,funcao,contacto,email)</text><rect fill="#FEFECE" filter="url(#f4h0eqoq86guv)" height="49.2188" style="stroke:#A80036;stroke-width:1.5;" width="93" x="2145.5" y="479.8281"/><text fill="#000000" font-family="sans-serif" font-size="14" lengthAdjust="spacing" textLength="11" x="2186.5" y="501.3613">c:</text><text fill="#000000" font-family="sans-serif" font-size="14" lengthAdjust="spacing" textLength="79" x="2152.5" y="518.9707">Colaborador</text><polygon fill="#A80036" points="97.5,562.3984,87.5,566.3984,97.5,570.3984,93.5,566.3984" style="stroke:#A80036;stroke-width:1.0;"/><line style="stroke:#A80036;stroke-width:1.0;stroke-dasharray:2.0,2.0;" x1="91.5" x2="519.5" y1="566.3984" y2="566.3984"/><text fill="#000000" font-family="sans-serif" font-size="13" font-weight="bold" lengthAdjust="spacing" textLength="14" x="103.5" y="561.542">13</text><text fill="#000000" font-family="sans-serif" font-size="13" lengthAdjust="spacing" textLength="387" x="121.5" y="561.542">valida os dados introduzidos, apresenta-os e solicita a confirmação</text><polygon fill="#A80036" points="503.5,592.75,513.5,596.75,503.5,600.75,507.5,596.75" style="stroke:#A80036;stroke-width:1.0;"/><line style="stroke:#A80036;stroke-width:1.0;" x1="86.5" x2="509.5" y1="596.75" y2="596.75"/><text fill="#000000" font-family="sans-serif" font-size="13" font-weight="bold" lengthAdjust="spacing" textLength="14" x="93.5" y="591.8936">14</text><text fill="#000000" font-family="sans-serif" font-size="13" lengthAdjust="spacing" textLength="49" x="111.5" y="591.8936">confirma</text><polygon fill="#A80036" points="809.5,623.1016,819.5,627.1016,809.5,631.1016,813.5,627.1016" style="stroke:#A80036;stroke-width:1.0;"/><line style="stroke:#A80036;stroke-width:1.0;" x1="525.5" x2="815.5" y1="627.1016" y2="627.1016"/><text fill="#000000" font-family="sans-serif" font-size="13" font-weight="bold" lengthAdjust="spacing" textLength="14" x="532.5" y="622.2451">15</text><text fill="#000000" font-family="sans-serif" font-size="13" lengthAdjust="spacing" textLength="116" x="550.5" y="622.2451">registaColaborador()</text><polygon fill="#A80036" points="2177,653.4531,2187,657.4531,2177,661.4531,2181,657.4531" style="stroke:#A80036;stroke-width:1.0;"/><line style="stroke:#A80036;stroke-width:1.0;" x1="831.5" x2="2183" y1="657.4531" y2="657.4531"/><text fill="#000000" font-family="sans-serif" font-size="13" font-weight="bold" lengthAdjust="spacing" textLength="14" x="838.5" y="652.5967">16</text><text fill="#000000" font-family="sans-serif" font-size="13" lengthAdjust="spacing" textLength="108" x="856.5" y="652.5967">nome = getNome()</text><polygon fill="#A80036" points="2182,683.8047,2192,687.8047,2182,691.8047,2186,687.8047" style="stroke:#A80036;stroke-width:1.0;"/><line style="stroke:#A80036;stroke-width:1.0;" x1="831.5" x2="2188" y1="687.8047" y2="687.8047"/><text fill="#000000" font-family="sans-serif" font-size="13" font-weight="bold" lengthAdjust="spacing" textLength="14" x="838.5" y="682.9482">17</text><text fill="#000000" font-family="sans-serif" font-size="13" lengthAdjust="spacing" textLength="106" x="856.5" y="682.9482">email = getEmail()</text><polygon fill="#A80036" points="1634,714.1563,1644,718.1563,1634,722.1563,1638,718.1563" style="stroke:#A80036;stroke-width:1.0;"/><line style="stroke:#A80036;stroke-width:1.0;" x1="831.5" x2="1640" y1="718.1563" y2="718.1563"/><text fill="#000000" font-family="sans-serif" font-size="13" font-weight="bold" lengthAdjust="spacing" textLength="14" x="838.5" y="713.2998">18</text><text fill="#000000" font-family="sans-serif" font-size="13" lengthAdjust="spacing" textLength="161" x="856.5" y="713.2998">password = geraPassword()</text><polygon fill="#A80036" points="1827.5,774.5078,1837.5,778.5078,1827.5,782.5078,1831.5,778.5078" style="stroke:#A80036;stroke-width:1.0;"/><line style="stroke:#A80036;stroke-width:1.0;" x1="831.5" x2="1833.5" y1="778.5078" y2="778.5078"/><text fill="#000000" font-family="sans-serif" font-size="13" font-weight="bold" lengthAdjust="spacing" textLength="14" x="838.5" y="773.6514">19</text><text fill="#000000" font-family="sans-serif" font-size="13" lengthAdjust="spacing" textLength="165" x="856.5" y="773.6514">registaColaborador(funcao,c)</text><line style="stroke:#A80036;stroke-width:1.0;" x1="1849.5" x2="1891.5" y1="808.8594" y2="808.8594"/><line style="stroke:#A80036;stroke-width:1.0;" x1="1891.5" x2="1891.5" y1="808.8594" y2="821.8594"/><line style="stroke:#A80036;stroke-width:1.0;" x1="1850.5" x2="1891.5" y1="821.8594" y2="821.8594"/><polygon fill="#A80036" points="1860.5,817.8594,1850.5,821.8594,1860.5,825.8594,1856.5,821.8594" style="stroke:#A80036;stroke-width:1.0;"/><text fill="#000000" font-family="sans-serif" font-size="13" font-weight="bold" lengthAdjust="spacing" textLength="14" x="1856.5" y="804.0029">20</text><text fill="#000000" font-family="sans-serif" font-size="13" lengthAdjust="spacing" textLength="118" x="1874.5" y="804.0029">validaColaborador(C)</text><polygon fill="#A80036" points="1170,848.2109,1160,852.2109,1170,856.2109,1166,852.2109" style="stroke:#A80036;stroke-width:1.0;"/><line style="stroke:#A80036;stroke-width:1.0;stroke-dasharray:2.0,2.0;" x1="1164" x2="1843.5" y1="852.2109" y2="852.2109"/><text fill="#000000" font-family="sans-serif" font-size="13" font-weight="bold" lengthAdjust="spacing" textLength="14" x="1176" y="847.3545">21</text><text fill="#000000" font-family="sans-serif" font-size="13" lengthAdjust="spacing" textLength="311" x="1194" y="847.3545">RegisterUserWithRoles(nome,email,password,funcao)</text><polygon fill="#A80036" points="1827.5,878.5625,1837.5,882.5625,1827.5,886.5625,1831.5,882.5625" style="stroke:#A80036;stroke-width:1.0;"/><line style="stroke:#A80036;stroke-width:1.0;" x1="1154" x2="1833.5" y1="882.5625" y2="882.5625"/><text fill="#000000" font-family="sans-serif" font-size="13" font-weight="bold" lengthAdjust="spacing" textLength="14" x="1161" y="877.7061">22</text><text fill="#000000" font-family="sans-serif" font-size="13" lengthAdjust="spacing" textLength="53" x="1179" y="877.7061">registado</text><line style="stroke:#A80036;stroke-width:1.0;" x1="1849.5" x2="1891.5" y1="912.9141" y2="912.9141"/><line style="stroke:#A80036;stroke-width:1.0;" x1="1891.5" x2="1891.5" y1="912.9141" y2="925.9141"/><line style="stroke:#A80036;stroke-width:1.0;" x1="1850.5" x2="1891.5" y1="925.9141" y2="925.9141"/><polygon fill="#A80036" points="1860.5,921.9141,1850.5,925.9141,1860.5,929.9141,1856.5,925.9141" style="stroke:#A80036;stroke-width:1.0;"/><text fill="#000000" font-family="sans-serif" font-size="13" font-weight="bold" lengthAdjust="spacing" textLength="14" x="1856.5" y="908.0576">23</text><text fill="#000000" font-family="sans-serif" font-size="13" lengthAdjust="spacing" textLength="105" x="1874.5" y="908.0576">addColaborador(c)</text><polygon fill="#A80036" points="2287.5,952.2656,2297.5,956.2656,2287.5,960.2656,2291.5,956.2656" style="stroke:#A80036;stroke-width:1.0;"/><line style="stroke:#A80036;stroke-width:1.0;" x1="1849.5" x2="2293.5" y1="956.2656" y2="956.2656"/><text fill="#000000" font-family="sans-serif" font-size="13" font-weight="bold" lengthAdjust="spacing" textLength="14" x="1856.5" y="951.4092">24</text><text fill="#000000" font-family="sans-serif" font-size="13" lengthAdjust="spacing" textLength="140" x="1874.5" y="951.4092">insertColaborador(colab)</text><polygon fill="#A80036" points="842.5,1012.6172,832.5,1016.6172,842.5,1020.6172,838.5,1016.6172" style="stroke:#A80036;stroke-width:1.0;"/><line style="stroke:#A80036;stroke-width:1.0;stroke-dasharray:2.0,2.0;" x1="836.5" x2="1843.5" y1="1016.6172" y2="1016.6172"/><text fill="#000000" font-family="sans-serif" font-size="13" font-weight="bold" lengthAdjust="spacing" textLength="14" x="848.5" y="1011.7607">25</text><text fill="#000000" font-family="sans-serif" font-size="13" lengthAdjust="spacing" textLength="144" x="866.5" y="1011.7607">adicionado com sucesso</text><polygon fill="#A80036" points="536.5,1042.9688,526.5,1046.9688,536.5,1050.9688,532.5,1046.9688" style="stroke:#A80036;stroke-width:1.0;"/><line style="stroke:#A80036;stroke-width:1.0;stroke-dasharray:2.0,2.0;" x1="530.5" x2="825.5" y1="1046.9688" y2="1046.9688"/><text fill="#000000" font-family="sans-serif" font-size="13" font-weight="bold" lengthAdjust="spacing" textLength="14" x="542.5" y="1042.1123">26</text><text fill="#000000" font-family="sans-serif" font-size="13" lengthAdjust="spacing" textLength="144" x="560.5" y="1042.1123">adicionado com sucesso</text><polygon fill="#A80036" points="97.5,1106.0234,87.5,1110.0234,97.5,1114.0234,93.5,1110.0234" style="stroke:#A80036;stroke-width:1.0;"/><line style="stroke:#A80036;stroke-width:1.0;stroke-dasharray:2.0,2.0;" x1="91.5" x2="519.5" y1="1110.0234" y2="1110.0234"/><text fill="#000000" font-family="sans-serif" font-size="13" font-weight="bold" lengthAdjust="spacing" textLength="14" x="103.5" y="1088.8154">27</text><text fill="#000000" font-family="sans-serif" font-size="13" lengthAdjust="spacing" textLength="327" x="121.5" y="1072.4639">regista os dados do colaborador, gera-lhe uma password</text><text fill="#000000" font-family="sans-serif" font-size="13" lengthAdjust="spacing" textLength="333" x="121.5" y="1088.8154">(enviando, por email, os dados de acesso ao colaborador)</text><text fill="#000000" font-family="sans-serif" font-size="13" lengthAdjust="spacing" textLength="342" x="121.5" y="1105.167">e informa o gestor de organização do sucesso da operação</text><!--MD5=[ea0a12a72adec2833153d1bd706ae997]
@startuml
autonumber

actor "Gestor de Organização" as GEST
participant ":EspecificarColaboradorUI" as UI
participant ":EspecificarColaboradorController" as CTRL
participant ":Plataforma" as PLAT
participant "uAPI:\nUsersAPI" as UApi
participant "ro:\nRegistoOrganizacoes" as RO
participant "o:\nOrganizacao" as O
participant "agp:\nAlgoritmoGeradorPasswords" as AGP
participant "rc:\nRepositorioColaborador" as RC
participant "c:\nColaborador" as COLAB
database ColaboradorDB as colabDB

activate GEST
GEST -> UI : começa o processo de registo de um colaborador
activate UI

UI - -> GEST : solicita os dados requeridos sobre o mesmo\n (nome, funcao, contacto, email)
deactivate UI

GEST -> UI : insere os dados do novo colaborador
activate UI
UI -> CTRL : novoColaborador(nome,funcao,contacto,email)
activate CTRL
CTRL -> PLAT : plat = Plataforma.getInstance()
activate PLAT
deactivate PLAT
CTRL -> UApi : uAPI = plat.getUsersAPI()
activate UApi
CTRL -> UApi: email = getEmailUtilizador()
deactivate UApi
CTRL -> PLAT : ro = plat.getRegistoOrganizacao()
activate PLAT
PLAT -> RO: o = getOrganizacaoByEmailUtilizador(email)
deactivate PLAT
activate RO 
CTRL -> O : rc = o.getRepositorioColaborador()
deactivate RO
activate O
O -> RC : c = novoColaborador(nome,funcao,contacto,email)
deactivate O
activate RC 
RC - -> COLAB **: colab = create(nome,funcao,contacto,email)
deactivate RC
UI - -> GEST : valida os dados introduzidos, apresenta-os e solicita a confirmação
deactivate O
deactivate PLAT
deactivate UI
deactivate CTRL
GEST -> UI : confirma
activate UI
UI -> CTRL: registaColaborador()
activate CTRL

CTRL -> COLAB : nome = getNome()
activate COLAB
CTRL -> COLAB : email = getEmail()
deactivate COLAB
CTRL -> AGP : password = geraPassword()
activate AGP
deactivate AGP
CTRL -> RC: registaColaborador(funcao,c)
activate RC
RC -> RC : validaColaborador(C)
RC - -> UApi : RegisterUserWithRoles(nome,email,password,funcao)
deactivate RC
activate UApi
UApi -> RC: registado
deactivate UApi
activate RC
RC -> RC: addColaborador(c)
RC -> colabDB : insertColaborador(colab)
activate colabDB
deactivate colabDB
RC - -> CTRL : adicionado com sucesso
deactivate RC
deactivate UApi
CTRL - -> UI: adicionado com sucesso
deactivate CTRL
UI - -> GEST: regista os dados do colaborador, gera-lhe uma password \n(enviando, por email, os dados de acesso ao colaborador) \ne informa o gestor de organização do sucesso da operação
deactivate UI

@enduml

PlantUML version 1.2021.00(Sun Jan 10 10:25:05 WET 2021)
(GPL source distribution)
Java Runtime: Java(TM) SE Runtime Environment
JVM: Java HotSpot(TM) 64-Bit Server VM
Default Encoding: Cp1252
Language: pt
Country: PT
--></g></svg>