<?xml version="1.0" encoding="UTF-8" standalone="no"?><svg xmlns="http://www.w3.org/2000/svg" xmlns:xlink="http://www.w3.org/1999/xlink" contentScriptType="application/ecmascript" contentStyleType="text/css" height="740px" preserveAspectRatio="none" style="width:2892px;height:740px;" version="1.1" viewBox="0 0 2892 740" width="2892px" zoomAndPan="magnify"><defs><filter height="300%" id="fgb6db7ot5fcd" width="300%" x="-1" y="-1"><feGaussianBlur result="blurOut" stdDeviation="2.0"/><feColorMatrix in="blurOut" result="blurOut2" type="matrix" values="0 0 0 0 0 0 0 0 0 0 0 0 0 0 0 0 0 0 .4 0"/><feOffset dx="4.0" dy="4.0" in="blurOut2" result="blurOut3"/><feBlend in="SourceGraphic" in2="blurOut3" mode="normal"/></filter></defs><g><!--MD5=[656b504e23380194a42f986724fc4125]
class RegistarFreelancerUI--><rect codeLine="5" fill="#FEFECE" filter="url(#fgb6db7ot5fcd)" height="48" id="RegistarFreelancerUI" style="stroke:#A80036;stroke-width:1.5;" width="150" x="7" y="370.65"/><ellipse cx="22" cy="386.65" fill="#ADD1B2" rx="11" ry="11" style="stroke:#A80036;stroke-width:1.0;"/><path d="M24.7656,382.525 Q24.9219,382.3063 25.1094,382.1969 Q25.2969,382.0875 25.5156,382.0875 Q25.8906,382.0875 26.125,382.3531 Q26.3594,382.6031 26.3594,383.2125 L26.3594,384.6656 Q26.3594,385.275 26.125,385.5406 Q25.8906,385.8063 25.5156,385.8063 Q25.1719,385.8063 24.9688,385.6031 Q24.7656,385.4156 24.6563,384.9 Q24.6094,384.5406 24.4219,384.3531 Q24.0938,383.9781 23.4844,383.7594 Q22.875,383.5406 22.25,383.5406 Q21.4844,383.5406 20.8438,383.8688 Q20.2188,384.1969 19.7188,384.9469 Q19.2344,385.6969 19.2344,386.7281 L19.2344,387.8219 Q19.2344,389.0563 20.125,389.8844 Q21.0156,390.6969 22.6094,390.6969 Q23.5469,390.6969 24.2031,390.4469 Q24.5938,390.2906 25.0156,389.8531 Q25.2813,389.5875 25.4219,389.5094 Q25.5781,389.4313 25.7813,389.4313 Q26.1094,389.4313 26.3594,389.6969 Q26.625,389.9469 26.625,390.2906 Q26.625,390.6344 26.2813,391.0406 Q25.7813,391.6188 24.9844,391.9469 Q23.9063,392.4 22.6094,392.4 Q21.0938,392.4 19.8906,391.775 Q18.9063,391.275 18.2188,390.2125 Q17.5313,389.1344 17.5313,387.8531 L17.5313,386.6969 Q17.5313,385.3688 18.1406,384.2281 Q18.7656,383.0719 19.8594,382.4625 Q20.9531,381.8375 22.1875,381.8375 Q22.9219,381.8375 23.5625,382.0094 Q24.2188,382.1656 24.7656,382.525 Z " fill="#000000"/><text fill="#000000" font-family="sans-serif" font-size="12" lengthAdjust="spacing" textLength="118" x="36" y="391.5602">RegistarFreelancerUI</text><line style="stroke:#A80036;stroke-width:1.5;" x1="8" x2="156" y1="402.65" y2="402.65"/><line style="stroke:#A80036;stroke-width:1.5;" x1="8" x2="156" y1="410.65" y2="410.65"/><!--MD5=[32c5f543cbb67cb9941cc985f78b5435]
class RegistarFreelancerController--><rect codeLine="9" fill="#FEFECE" filter="url(#fgb6db7ot5fcd)" height="117.1797" id="RegistarFreelancerController" style="stroke:#A80036;stroke-width:1.5;" width="346" x="218" y="336.15"/><ellipse cx="306.75" cy="352.15" fill="#ADD1B2" rx="11" ry="11" style="stroke:#A80036;stroke-width:1.0;"/><path d="M309.5156,348.025 Q309.6719,347.8063 309.8594,347.6969 Q310.0469,347.5875 310.2656,347.5875 Q310.6406,347.5875 310.875,347.8531 Q311.1094,348.1031 311.1094,348.7125 L311.1094,350.1656 Q311.1094,350.775 310.875,351.0406 Q310.6406,351.3063 310.2656,351.3063 Q309.9219,351.3063 309.7188,351.1031 Q309.5156,350.9156 309.4063,350.4 Q309.3594,350.0406 309.1719,349.8531 Q308.8438,349.4781 308.2344,349.2594 Q307.625,349.0406 307,349.0406 Q306.2344,349.0406 305.5938,349.3688 Q304.9688,349.6969 304.4688,350.4469 Q303.9844,351.1969 303.9844,352.2281 L303.9844,353.3219 Q303.9844,354.5563 304.875,355.3844 Q305.7656,356.1969 307.3594,356.1969 Q308.2969,356.1969 308.9531,355.9469 Q309.3438,355.7906 309.7656,355.3531 Q310.0313,355.0875 310.1719,355.0094 Q310.3281,354.9313 310.5313,354.9313 Q310.8594,354.9313 311.1094,355.1969 Q311.375,355.4469 311.375,355.7906 Q311.375,356.1344 311.0313,356.5406 Q310.5313,357.1188 309.7344,357.4469 Q308.6563,357.9 307.3594,357.9 Q305.8438,357.9 304.6406,357.275 Q303.6563,356.775 302.9688,355.7125 Q302.2813,354.6344 302.2813,353.3531 L302.2813,352.1969 Q302.2813,350.8688 302.8906,349.7281 Q303.5156,348.5719 304.6094,347.9625 Q305.7031,347.3375 306.9375,347.3375 Q307.6719,347.3375 308.3125,347.5094 Q308.9688,347.6656 309.5156,348.025 Z " fill="#000000"/><text fill="#000000" font-family="sans-serif" font-size="12" lengthAdjust="spacing" textLength="160" x="327.25" y="357.0602">RegistarFreelancerController</text><line style="stroke:#A80036;stroke-width:1.5;" x1="219" x2="563" y1="368.15" y2="368.15"/><line style="stroke:#A80036;stroke-width:1.5;" x1="219" x2="563" y1="376.15" y2="376.15"/><text fill="#000000" font-family="sans-serif" font-size="11" lengthAdjust="spacing" textLength="226" x="224" y="391.5689">+novoFrelancer(nome, nif, endpost, tele, email)</text><text fill="#000000" font-family="sans-serif" font-size="11" lengthAdjust="spacing" textLength="334" x="224" y="405.4049">+novaHabilitacaoAcademica(grau, descCurso, instituicao, medCurso)</text><text fill="#000000" font-family="sans-serif" font-size="11" lengthAdjust="spacing" textLength="116" x="224" y="419.2408">+getListaCTComGraus()</text><text fill="#000000" font-family="sans-serif" font-size="11" lengthAdjust="spacing" textLength="233" x="224" y="433.0768">+novoReconhecimentoCT(data, codCT, valorGP)</text><text fill="#000000" font-family="sans-serif" font-size="11" lengthAdjust="spacing" textLength="99" x="224" y="446.9127">+registaFreelancer()</text><!--MD5=[ecaed46f78f8cfe1e9ce18477649be18]
class Plataforma--><rect codeLine="18" fill="#FEFECE" filter="url(#fgb6db7ot5fcd)" height="117.1797" id="Plataforma" style="stroke:#A80036;stroke-width:1.5;" width="220" x="625" y="224.15"/><ellipse cx="700.75" cy="240.15" fill="#ADD1B2" rx="11" ry="11" style="stroke:#A80036;stroke-width:1.0;"/><path d="M703.5156,236.025 Q703.6719,235.8062 703.8594,235.6969 Q704.0469,235.5875 704.2656,235.5875 Q704.6406,235.5875 704.875,235.8531 Q705.1094,236.1031 705.1094,236.7125 L705.1094,238.1656 Q705.1094,238.775 704.875,239.0406 Q704.6406,239.3062 704.2656,239.3062 Q703.9219,239.3062 703.7188,239.1031 Q703.5156,238.9156 703.4063,238.4 Q703.3594,238.0406 703.1719,237.8531 Q702.8438,237.4781 702.2344,237.2594 Q701.625,237.0406 701,237.0406 Q700.2344,237.0406 699.5938,237.3687 Q698.9688,237.6969 698.4688,238.4469 Q697.9844,239.1969 697.9844,240.2281 L697.9844,241.3219 Q697.9844,242.5562 698.875,243.3844 Q699.7656,244.1969 701.3594,244.1969 Q702.2969,244.1969 702.9531,243.9469 Q703.3438,243.7906 703.7656,243.3531 Q704.0313,243.0875 704.1719,243.0094 Q704.3281,242.9312 704.5313,242.9312 Q704.8594,242.9312 705.1094,243.1969 Q705.375,243.4469 705.375,243.7906 Q705.375,244.1344 705.0313,244.5406 Q704.5313,245.1187 703.7344,245.4469 Q702.6563,245.9 701.3594,245.9 Q699.8438,245.9 698.6406,245.275 Q697.6563,244.775 696.9688,243.7125 Q696.2813,242.6344 696.2813,241.3531 L696.2813,240.1969 Q696.2813,238.8687 696.8906,237.7281 Q697.5156,236.5719 698.6094,235.9625 Q699.7031,235.3375 700.9375,235.3375 Q701.6719,235.3375 702.3125,235.5094 Q702.9688,235.6656 703.5156,236.025 Z " fill="#000000"/><text fill="#000000" font-family="sans-serif" font-size="12" lengthAdjust="spacing" textLength="60" x="721.25" y="245.0602">Plataforma</text><line style="stroke:#A80036;stroke-width:1.5;" x1="626" x2="844" y1="256.15" y2="256.15"/><text fill="#000000" font-family="sans-serif" font-size="11" lengthAdjust="spacing" textLength="91" x="631" y="271.5689">-String designacao</text><line style="stroke:#A80036;stroke-width:1.5;" x1="626" x2="844" y1="277.9859" y2="277.9859"/><text fill="#000000" font-family="sans-serif" font-size="11" lengthAdjust="spacing" textLength="208" x="631" y="293.4049">+RegistoFreelancer getRegistoFreelancer()</text><text fill="#000000" font-family="sans-serif" font-size="11" lengthAdjust="spacing" textLength="130" x="631" y="307.2408">+RegistoCT getRegistoCT()</text><text fill="#000000" font-family="sans-serif" font-size="11" lengthAdjust="spacing" textLength="136" x="631" y="321.0768">+getAlgoritmoGeradorPwd()</text><text fill="#000000" font-family="sans-serif" font-size="11" lengthAdjust="spacing" textLength="124" x="631" y="334.9127">+getAutorizacaoFacade()</text><!--MD5=[a3d2cd28087633b4d29ef730f7304c83]
class RegistoCT--><rect codeLine="27" fill="#FEFECE" filter="url(#fgb6db7ot5fcd)" height="75.6719" id="RegistoCT" style="stroke:#A80036;stroke-width:1.5;" width="128" x="1259.5" y="125.65"/><ellipse cx="1291.15" cy="141.65" fill="#ADD1B2" rx="11" ry="11" style="stroke:#A80036;stroke-width:1.0;"/><path d="M1293.9156,137.525 Q1294.0719,137.3062 1294.2594,137.1969 Q1294.4469,137.0875 1294.6656,137.0875 Q1295.0406,137.0875 1295.275,137.3531 Q1295.5094,137.6031 1295.5094,138.2125 L1295.5094,139.6656 Q1295.5094,140.275 1295.275,140.5406 Q1295.0406,140.8062 1294.6656,140.8062 Q1294.3219,140.8062 1294.1188,140.6031 Q1293.9156,140.4156 1293.8063,139.9 Q1293.7594,139.5406 1293.5719,139.3531 Q1293.2438,138.9781 1292.6344,138.7594 Q1292.025,138.5406 1291.4,138.5406 Q1290.6344,138.5406 1289.9938,138.8687 Q1289.3688,139.1969 1288.8688,139.9469 Q1288.3844,140.6969 1288.3844,141.7281 L1288.3844,142.8219 Q1288.3844,144.0562 1289.275,144.8844 Q1290.1656,145.6969 1291.7594,145.6969 Q1292.6969,145.6969 1293.3531,145.4469 Q1293.7438,145.2906 1294.1656,144.8531 Q1294.4313,144.5875 1294.5719,144.5094 Q1294.7281,144.4312 1294.9313,144.4312 Q1295.2594,144.4312 1295.5094,144.6969 Q1295.775,144.9469 1295.775,145.2906 Q1295.775,145.6344 1295.4313,146.0406 Q1294.9313,146.6187 1294.1344,146.9469 Q1293.0563,147.4 1291.7594,147.4 Q1290.2438,147.4 1289.0406,146.775 Q1288.0563,146.275 1287.3688,145.2125 Q1286.6813,144.1344 1286.6813,142.8531 L1286.6813,141.6969 Q1286.6813,140.3687 1287.2906,139.2281 Q1287.9156,138.0719 1289.0094,137.4625 Q1290.1031,136.8375 1291.3375,136.8375 Q1292.0719,136.8375 1292.7125,137.0094 Q1293.3688,137.1656 1293.9156,137.525 Z " fill="#000000"/><text fill="#000000" font-family="sans-serif" font-size="12" lengthAdjust="spacing" textLength="59" x="1308.85" y="146.5602">RegistoCT</text><line style="stroke:#A80036;stroke-width:1.5;" x1="1260.5" x2="1386.5" y1="157.65" y2="157.65"/><line style="stroke:#A80036;stroke-width:1.5;" x1="1260.5" x2="1386.5" y1="165.65" y2="165.65"/><text fill="#000000" font-family="sans-serif" font-size="11" lengthAdjust="spacing" textLength="116" x="1265.5" y="181.0689">+getListaCTComGraus()</text><text fill="#000000" font-family="sans-serif" font-size="11" lengthAdjust="spacing" textLength="73" x="1265.5" y="194.9049">+getCT(codCT)</text><!--MD5=[a322db5a7ec64d2ff8f2d6cf1831dcec]
class CompetenciaTecnica--><rect codeLine="32" fill="#FEFECE" filter="url(#fgb6db7ot5fcd)" height="103.3438" id="CompetenciaTecnica" style="stroke:#A80036;stroke-width:1.5;" width="159" x="2365" y="623.15"/><ellipse cx="2384.5" cy="639.15" fill="#ADD1B2" rx="11" ry="11" style="stroke:#A80036;stroke-width:1.0;"/><path d="M2387.2656,635.025 Q2387.4219,634.8063 2387.6094,634.6969 Q2387.7969,634.5875 2388.0156,634.5875 Q2388.3906,634.5875 2388.625,634.8531 Q2388.8594,635.1031 2388.8594,635.7125 L2388.8594,637.1656 Q2388.8594,637.775 2388.625,638.0406 Q2388.3906,638.3063 2388.0156,638.3063 Q2387.6719,638.3063 2387.4688,638.1031 Q2387.2656,637.9156 2387.1563,637.4 Q2387.1094,637.0406 2386.9219,636.8531 Q2386.5938,636.4781 2385.9844,636.2594 Q2385.375,636.0406 2384.75,636.0406 Q2383.9844,636.0406 2383.3438,636.3688 Q2382.7188,636.6969 2382.2188,637.4469 Q2381.7344,638.1969 2381.7344,639.2281 L2381.7344,640.3219 Q2381.7344,641.5563 2382.625,642.3844 Q2383.5156,643.1969 2385.1094,643.1969 Q2386.0469,643.1969 2386.7031,642.9469 Q2387.0938,642.7906 2387.5156,642.3531 Q2387.7813,642.0875 2387.9219,642.0094 Q2388.0781,641.9313 2388.2813,641.9313 Q2388.6094,641.9313 2388.8594,642.1969 Q2389.125,642.4469 2389.125,642.7906 Q2389.125,643.1344 2388.7813,643.5406 Q2388.2813,644.1188 2387.4844,644.4469 Q2386.4063,644.9 2385.1094,644.9 Q2383.5938,644.9 2382.3906,644.275 Q2381.4063,643.775 2380.7188,642.7125 Q2380.0313,641.6344 2380.0313,640.3531 L2380.0313,639.1969 Q2380.0313,637.8688 2380.6406,636.7281 Q2381.2656,635.5719 2382.3594,634.9625 Q2383.4531,634.3375 2384.6875,634.3375 Q2385.4219,634.3375 2386.0625,634.5094 Q2386.7188,634.6656 2387.2656,635.025 Z " fill="#000000"/><text fill="#000000" font-family="sans-serif" font-size="12" lengthAdjust="spacing" textLength="117" x="2399.5" y="644.0602">CompetenciaTecnica</text><line style="stroke:#A80036;stroke-width:1.5;" x1="2366" x2="2523" y1="655.15" y2="655.15"/><text fill="#000000" font-family="sans-serif" font-size="11" lengthAdjust="spacing" textLength="67" x="2371" y="670.5689">-String codigo</text><text fill="#000000" font-family="sans-serif" font-size="11" lengthAdjust="spacing" textLength="88" x="2371" y="684.4049">-String descBreve</text><text fill="#000000" font-family="sans-serif" font-size="11" lengthAdjust="spacing" textLength="107" x="2371" y="698.2408">-String descDetalhada</text><line style="stroke:#A80036;stroke-width:1.5;" x1="2366" x2="2523" y1="704.6578" y2="704.6578"/><text fill="#000000" font-family="sans-serif" font-size="11" lengthAdjust="spacing" textLength="147" x="2371" y="720.0768">+getGrauProficiencia(valorGP)</text><!--MD5=[0d4fe674cc1d46ec0fc990086e50801a]
class GrauProficiencia--><rect codeLine="40" fill="#FEFECE" filter="url(#fgb6db7ot5fcd)" height="75.6719" id="GrauProficiencia" style="stroke:#A80036;stroke-width:1.5;" width="123" x="2755" y="584.65"/><ellipse cx="2770" cy="600.65" fill="#ADD1B2" rx="11" ry="11" style="stroke:#A80036;stroke-width:1.0;"/><path d="M2772.7656,596.525 Q2772.9219,596.3063 2773.1094,596.1969 Q2773.2969,596.0875 2773.5156,596.0875 Q2773.8906,596.0875 2774.125,596.3531 Q2774.3594,596.6031 2774.3594,597.2125 L2774.3594,598.6656 Q2774.3594,599.275 2774.125,599.5406 Q2773.8906,599.8063 2773.5156,599.8063 Q2773.1719,599.8063 2772.9688,599.6031 Q2772.7656,599.4156 2772.6563,598.9 Q2772.6094,598.5406 2772.4219,598.3531 Q2772.0938,597.9781 2771.4844,597.7594 Q2770.875,597.5406 2770.25,597.5406 Q2769.4844,597.5406 2768.8438,597.8688 Q2768.2188,598.1969 2767.7188,598.9469 Q2767.2344,599.6969 2767.2344,600.7281 L2767.2344,601.8219 Q2767.2344,603.0563 2768.125,603.8844 Q2769.0156,604.6969 2770.6094,604.6969 Q2771.5469,604.6969 2772.2031,604.4469 Q2772.5938,604.2906 2773.0156,603.8531 Q2773.2813,603.5875 2773.4219,603.5094 Q2773.5781,603.4313 2773.7813,603.4313 Q2774.1094,603.4313 2774.3594,603.6969 Q2774.625,603.9469 2774.625,604.2906 Q2774.625,604.6344 2774.2813,605.0406 Q2773.7813,605.6188 2772.9844,605.9469 Q2771.9063,606.4 2770.6094,606.4 Q2769.0938,606.4 2767.8906,605.775 Q2766.9063,605.275 2766.2188,604.2125 Q2765.5313,603.1344 2765.5313,601.8531 L2765.5313,600.6969 Q2765.5313,599.3688 2766.1406,598.2281 Q2766.7656,597.0719 2767.8594,596.4625 Q2768.9531,595.8375 2770.1875,595.8375 Q2770.9219,595.8375 2771.5625,596.0094 Q2772.2188,596.1656 2772.7656,596.525 Z " fill="#000000"/><text fill="#000000" font-family="sans-serif" font-size="12" lengthAdjust="spacing" textLength="91" x="2784" y="605.5602">GrauProficiencia</text><line style="stroke:#A80036;stroke-width:1.5;" x1="2756" x2="2877" y1="616.65" y2="616.65"/><text fill="#000000" font-family="sans-serif" font-size="11" lengthAdjust="spacing" textLength="64" x="2761" y="632.0689">-Integer valor</text><text fill="#000000" font-family="sans-serif" font-size="11" lengthAdjust="spacing" textLength="91" x="2761" y="645.9049">-String designacao</text><line style="stroke:#A80036;stroke-width:1.5;" x1="2756" x2="2877" y1="652.3219" y2="652.3219"/><!--MD5=[5989a2e3174efcfc62cf38168ac2ffc8]
class RegistoFreelancer--><rect codeLine="45" fill="#FEFECE" filter="url(#fgb6db7ot5fcd)" height="131.0156" id="RegistoFreelancer" style="stroke:#A80036;stroke-width:1.5;" width="293" x="906" y="261.15"/><ellipse cx="997.25" cy="277.15" fill="#ADD1B2" rx="11" ry="11" style="stroke:#A80036;stroke-width:1.0;"/><path d="M1000.0156,273.025 Q1000.1719,272.8063 1000.3594,272.6969 Q1000.5469,272.5875 1000.7656,272.5875 Q1001.1406,272.5875 1001.375,272.8531 Q1001.6094,273.1031 1001.6094,273.7125 L1001.6094,275.1656 Q1001.6094,275.775 1001.375,276.0406 Q1001.1406,276.3063 1000.7656,276.3063 Q1000.4219,276.3063 1000.2188,276.1031 Q1000.0156,275.9156 999.9063,275.4 Q999.8594,275.0406 999.6719,274.8531 Q999.3438,274.4781 998.7344,274.2594 Q998.125,274.0406 997.5,274.0406 Q996.7344,274.0406 996.0938,274.3688 Q995.4688,274.6969 994.9688,275.4469 Q994.4844,276.1969 994.4844,277.2281 L994.4844,278.3219 Q994.4844,279.5563 995.375,280.3844 Q996.2656,281.1969 997.8594,281.1969 Q998.7969,281.1969 999.4531,280.9469 Q999.8438,280.7906 1000.2656,280.3531 Q1000.5313,280.0875 1000.6719,280.0094 Q1000.8281,279.9313 1001.0313,279.9313 Q1001.3594,279.9313 1001.6094,280.1969 Q1001.875,280.4469 1001.875,280.7906 Q1001.875,281.1344 1001.5313,281.5406 Q1001.0313,282.1188 1000.2344,282.4469 Q999.1563,282.9 997.8594,282.9 Q996.3438,282.9 995.1406,282.275 Q994.1563,281.775 993.4688,280.7125 Q992.7813,279.6344 992.7813,278.3531 L992.7813,277.1969 Q992.7813,275.8688 993.3906,274.7281 Q994.0156,273.5719 995.1094,272.9625 Q996.2031,272.3375 997.4375,272.3375 Q998.1719,272.3375 998.8125,272.5094 Q999.4688,272.6656 1000.0156,273.025 Z " fill="#000000"/><text fill="#000000" font-family="sans-serif" font-size="12" lengthAdjust="spacing" textLength="102" x="1017.75" y="282.0602">RegistoFreelancer</text><line style="stroke:#A80036;stroke-width:1.5;" x1="907" x2="1198" y1="293.15" y2="293.15"/><line style="stroke:#A80036;stroke-width:1.5;" x1="907" x2="1198" y1="301.15" y2="301.15"/><text fill="#000000" font-family="sans-serif" font-size="11" lengthAdjust="spacing" textLength="281" x="912" y="316.5689">+Freelancer novoFrelancer(nome, nif, endpost, tele, email)</text><text fill="#000000" font-family="sans-serif" font-size="11" lengthAdjust="spacing" textLength="107" x="912" y="330.4049">+registaFreelancer(fr)</text><text fill="#000000" font-family="sans-serif" font-size="11" lengthAdjust="spacing" textLength="100" x="912" y="344.2408">-validaFreelancer(fr)</text><text fill="#000000" font-family="sans-serif" font-size="11" lengthAdjust="spacing" textLength="90" x="912" y="358.0768">-addFreelancer(fr)</text><text fill="#000000" font-family="sans-serif" font-size="11" lengthAdjust="spacing" textLength="168" x="912" y="371.9127">-registaFreelancerComoUtilizador()</text><text fill="#000000" font-family="sans-serif" font-size="11" lengthAdjust="spacing" textLength="146" x="912" y="385.7486">-enviaEmail(nome, email, pwd)</text><!--MD5=[1f687b5315377fe49fca59b457947463]
class Freelancer--><rect codeLine="56" fill="#FEFECE" filter="url(#fgb6db7ot5fcd)" height="200.1953" id="Freelancer" style="stroke:#A80036;stroke-width:1.5;" width="346" x="1448" y="392.65"/><ellipse cx="1587.25" cy="408.65" fill="#ADD1B2" rx="11" ry="11" style="stroke:#A80036;stroke-width:1.0;"/><path d="M1590.0156,404.525 Q1590.1719,404.3063 1590.3594,404.1969 Q1590.5469,404.0875 1590.7656,404.0875 Q1591.1406,404.0875 1591.375,404.3531 Q1591.6094,404.6031 1591.6094,405.2125 L1591.6094,406.6656 Q1591.6094,407.275 1591.375,407.5406 Q1591.1406,407.8063 1590.7656,407.8063 Q1590.4219,407.8063 1590.2188,407.6031 Q1590.0156,407.4156 1589.9063,406.9 Q1589.8594,406.5406 1589.6719,406.3531 Q1589.3438,405.9781 1588.7344,405.7594 Q1588.125,405.5406 1587.5,405.5406 Q1586.7344,405.5406 1586.0938,405.8688 Q1585.4688,406.1969 1584.9688,406.9469 Q1584.4844,407.6969 1584.4844,408.7281 L1584.4844,409.8219 Q1584.4844,411.0563 1585.375,411.8844 Q1586.2656,412.6969 1587.8594,412.6969 Q1588.7969,412.6969 1589.4531,412.4469 Q1589.8438,412.2906 1590.2656,411.8531 Q1590.5313,411.5875 1590.6719,411.5094 Q1590.8281,411.4313 1591.0313,411.4313 Q1591.3594,411.4313 1591.6094,411.6969 Q1591.875,411.9469 1591.875,412.2906 Q1591.875,412.6344 1591.5313,413.0406 Q1591.0313,413.6188 1590.2344,413.9469 Q1589.1563,414.4 1587.8594,414.4 Q1586.3438,414.4 1585.1406,413.775 Q1584.1563,413.275 1583.4688,412.2125 Q1582.7813,411.1344 1582.7813,409.8531 L1582.7813,408.6969 Q1582.7813,407.3688 1583.3906,406.2281 Q1584.0156,405.0719 1585.1094,404.4625 Q1586.2031,403.8375 1587.4375,403.8375 Q1588.1719,403.8375 1588.8125,404.0094 Q1589.4688,404.1656 1590.0156,404.525 Z " fill="#000000"/><text fill="#000000" font-family="sans-serif" font-size="12" lengthAdjust="spacing" textLength="59" x="1607.75" y="413.5602">Freelancer</text><line style="stroke:#A80036;stroke-width:1.5;" x1="1449" x2="1793" y1="424.65" y2="424.65"/><text fill="#000000" font-family="sans-serif" font-size="11" lengthAdjust="spacing" textLength="61" x="1454" y="440.0689">-String nome</text><text fill="#000000" font-family="sans-serif" font-size="11" lengthAdjust="spacing" textLength="50" x="1454" y="453.9049">-String NIF</text><text fill="#000000" font-family="sans-serif" font-size="11" lengthAdjust="spacing" textLength="74" x="1454" y="467.7408">-String telefone</text><text fill="#000000" font-family="sans-serif" font-size="11" lengthAdjust="spacing" textLength="59" x="1454" y="481.5768">-String email</text><line style="stroke:#A80036;stroke-width:1.5;" x1="1449" x2="1793" y1="487.9938" y2="487.9938"/><text fill="#000000" font-family="sans-serif" font-size="11" lengthAdjust="spacing" textLength="208" x="1454" y="503.4127">+Freelancer(nome, nif, endpost, tele, email)</text><text fill="#000000" font-family="sans-serif" font-size="11" lengthAdjust="spacing" textLength="334" x="1454" y="517.2486">+novaHabilitacaoAcademica(grau, descCurso, instituicao, medCurso)</text><text fill="#000000" font-family="sans-serif" font-size="11" lengthAdjust="spacing" textLength="148" x="1454" y="531.0846">-addHabilitacaoAcademica(ha)</text><text fill="#000000" font-family="sans-serif" font-size="11" lengthAdjust="spacing" textLength="306" x="1454" y="544.9205">+novoReconhecimentoCT(data, compTecnica, grauProficiencia)</text><text fill="#000000" font-family="sans-serif" font-size="11" lengthAdjust="spacing" textLength="123" x="1454" y="558.7564">-addReconhecimento(rct)</text><text fill="#000000" font-family="sans-serif" font-size="11" lengthAdjust="spacing" textLength="53" x="1454" y="572.5924">+getEmail()</text><text fill="#000000" font-family="sans-serif" font-size="11" lengthAdjust="spacing" textLength="56" x="1454" y="586.4283">+getNome()</text><!--MD5=[87602f047bdeda361e6d6669da197818]
class HabilitacaoAcademica--><rect codeLine="71" fill="#FEFECE" filter="url(#fgb6db7ot5fcd)" height="117.1797" id="HabilitacaoAcademica" style="stroke:#A80036;stroke-width:1.5;" width="322" x="1917" y="333.15"/><ellipse cx="2012.25" cy="349.15" fill="#ADD1B2" rx="11" ry="11" style="stroke:#A80036;stroke-width:1.0;"/><path d="M2015.0156,345.025 Q2015.1719,344.8063 2015.3594,344.6969 Q2015.5469,344.5875 2015.7656,344.5875 Q2016.1406,344.5875 2016.375,344.8531 Q2016.6094,345.1031 2016.6094,345.7125 L2016.6094,347.1656 Q2016.6094,347.775 2016.375,348.0406 Q2016.1406,348.3063 2015.7656,348.3063 Q2015.4219,348.3063 2015.2188,348.1031 Q2015.0156,347.9156 2014.9063,347.4 Q2014.8594,347.0406 2014.6719,346.8531 Q2014.3438,346.4781 2013.7344,346.2594 Q2013.125,346.0406 2012.5,346.0406 Q2011.7344,346.0406 2011.0938,346.3688 Q2010.4688,346.6969 2009.9688,347.4469 Q2009.4844,348.1969 2009.4844,349.2281 L2009.4844,350.3219 Q2009.4844,351.5563 2010.375,352.3844 Q2011.2656,353.1969 2012.8594,353.1969 Q2013.7969,353.1969 2014.4531,352.9469 Q2014.8438,352.7906 2015.2656,352.3531 Q2015.5313,352.0875 2015.6719,352.0094 Q2015.8281,351.9313 2016.0313,351.9313 Q2016.3594,351.9313 2016.6094,352.1969 Q2016.875,352.4469 2016.875,352.7906 Q2016.875,353.1344 2016.5313,353.5406 Q2016.0313,354.1188 2015.2344,354.4469 Q2014.1563,354.9 2012.8594,354.9 Q2011.3438,354.9 2010.1406,354.275 Q2009.1563,353.775 2008.4688,352.7125 Q2007.7813,351.6344 2007.7813,350.3531 L2007.7813,349.1969 Q2007.7813,347.8688 2008.3906,346.7281 Q2009.0156,345.5719 2010.1094,344.9625 Q2011.2031,344.3375 2012.4375,344.3375 Q2013.1719,344.3375 2013.8125,344.5094 Q2014.4688,344.6656 2015.0156,345.025 Z " fill="#000000"/><text fill="#000000" font-family="sans-serif" font-size="12" lengthAdjust="spacing" textLength="123" x="2032.75" y="354.0602">HabilitacaoAcademica</text><line style="stroke:#A80036;stroke-width:1.5;" x1="1918" x2="2238" y1="365.15" y2="365.15"/><text fill="#000000" font-family="sans-serif" font-size="11" lengthAdjust="spacing" textLength="57" x="1923" y="380.5689">-String grau</text><text fill="#000000" font-family="sans-serif" font-size="11" lengthAdjust="spacing" textLength="91" x="1923" y="394.4049">-String designacao</text><text fill="#000000" font-family="sans-serif" font-size="11" lengthAdjust="spacing" textLength="83" x="1923" y="408.2408">-String instituicao</text><text fill="#000000" font-family="sans-serif" font-size="11" lengthAdjust="spacing" textLength="63" x="1923" y="422.0768">-String media</text><line style="stroke:#A80036;stroke-width:1.5;" x1="1918" x2="2238" y1="428.4938" y2="428.4938"/><text fill="#000000" font-family="sans-serif" font-size="11" lengthAdjust="spacing" textLength="310" x="1923" y="443.9127">+HabilitacaoAcademica(grau, descCurso, instituicao, medCurso)</text><!--MD5=[c4dc15e174088596c63903f5b5df879b]
class ReconhecimentoCompetenciaTecnica--><rect codeLine="80" fill="#FEFECE" filter="url(#fgb6db7ot5fcd)" height="103.3438" id="ReconhecimentoCompetenciaTecnica" style="stroke:#A80036;stroke-width:1.5;" width="294" x="1931" y="623.15"/><ellipse cx="1968.95" cy="639.15" fill="#ADD1B2" rx="11" ry="11" style="stroke:#A80036;stroke-width:1.0;"/><path d="M1971.7156,635.025 Q1971.8719,634.8063 1972.0594,634.6969 Q1972.2469,634.5875 1972.4656,634.5875 Q1972.8406,634.5875 1973.075,634.8531 Q1973.3094,635.1031 1973.3094,635.7125 L1973.3094,637.1656 Q1973.3094,637.775 1973.075,638.0406 Q1972.8406,638.3063 1972.4656,638.3063 Q1972.1219,638.3063 1971.9188,638.1031 Q1971.7156,637.9156 1971.6063,637.4 Q1971.5594,637.0406 1971.3719,636.8531 Q1971.0438,636.4781 1970.4344,636.2594 Q1969.825,636.0406 1969.2,636.0406 Q1968.4344,636.0406 1967.7938,636.3688 Q1967.1688,636.6969 1966.6688,637.4469 Q1966.1844,638.1969 1966.1844,639.2281 L1966.1844,640.3219 Q1966.1844,641.5563 1967.075,642.3844 Q1967.9656,643.1969 1969.5594,643.1969 Q1970.4969,643.1969 1971.1531,642.9469 Q1971.5438,642.7906 1971.9656,642.3531 Q1972.2313,642.0875 1972.3719,642.0094 Q1972.5281,641.9313 1972.7313,641.9313 Q1973.0594,641.9313 1973.3094,642.1969 Q1973.575,642.4469 1973.575,642.7906 Q1973.575,643.1344 1973.2313,643.5406 Q1972.7313,644.1188 1971.9344,644.4469 Q1970.8563,644.9 1969.5594,644.9 Q1968.0438,644.9 1966.8406,644.275 Q1965.8563,643.775 1965.1688,642.7125 Q1964.4813,641.6344 1964.4813,640.3531 L1964.4813,639.1969 Q1964.4813,637.8688 1965.0906,636.7281 Q1965.7156,635.5719 1966.8094,634.9625 Q1967.9031,634.3375 1969.1375,634.3375 Q1969.8719,634.3375 1970.5125,634.5094 Q1971.1688,634.6656 1971.7156,635.025 Z " fill="#000000"/><text fill="#000000" font-family="sans-serif" font-size="12" lengthAdjust="spacing" textLength="211" x="1988.05" y="644.0602">ReconhecimentoCompetenciaTecnica</text><line style="stroke:#A80036;stroke-width:1.5;" x1="1932" x2="2224" y1="655.15" y2="655.15"/><text fill="#000000" font-family="sans-serif" font-size="11" lengthAdjust="spacing" textLength="56" x="1937" y="670.5689">-String data</text><text fill="#000000" font-family="sans-serif" font-size="11" lengthAdjust="spacing" textLength="134" x="1937" y="684.4049">-String competenciaTecnica</text><text fill="#000000" font-family="sans-serif" font-size="11" lengthAdjust="spacing" textLength="113" x="1937" y="698.2408">-String grauProficiencia</text><line style="stroke:#A80036;stroke-width:1.5;" x1="1932" x2="2224" y1="704.6578" y2="704.6578"/><text fill="#000000" font-family="sans-serif" font-size="11" lengthAdjust="spacing" textLength="282" x="1937" y="720.0768">+ReconhecimentoCT(data, compTecnica, grauProficiencia)</text><!--MD5=[dcda844062f930f807532403427d3023]
class EnderecoPostal--><rect codeLine="88" fill="#FEFECE" filter="url(#fgb6db7ot5fcd)" height="103.3438" id="EnderecoPostal" style="stroke:#A80036;stroke-width:1.5;" width="148" x="2004" y="485.15"/><ellipse cx="2031.6" cy="501.15" fill="#ADD1B2" rx="11" ry="11" style="stroke:#A80036;stroke-width:1.0;"/><path d="M2034.3656,497.025 Q2034.5219,496.8063 2034.7094,496.6969 Q2034.8969,496.5875 2035.1156,496.5875 Q2035.4906,496.5875 2035.725,496.8531 Q2035.9594,497.1031 2035.9594,497.7125 L2035.9594,499.1656 Q2035.9594,499.775 2035.725,500.0406 Q2035.4906,500.3063 2035.1156,500.3063 Q2034.7719,500.3063 2034.5688,500.1031 Q2034.3656,499.9156 2034.2563,499.4 Q2034.2094,499.0406 2034.0219,498.8531 Q2033.6938,498.4781 2033.0844,498.2594 Q2032.475,498.0406 2031.85,498.0406 Q2031.0844,498.0406 2030.4438,498.3688 Q2029.8188,498.6969 2029.3188,499.4469 Q2028.8344,500.1969 2028.8344,501.2281 L2028.8344,502.3219 Q2028.8344,503.5563 2029.725,504.3844 Q2030.6156,505.1969 2032.2094,505.1969 Q2033.1469,505.1969 2033.8031,504.9469 Q2034.1938,504.7906 2034.6156,504.3531 Q2034.8813,504.0875 2035.0219,504.0094 Q2035.1781,503.9313 2035.3813,503.9313 Q2035.7094,503.9313 2035.9594,504.1969 Q2036.225,504.4469 2036.225,504.7906 Q2036.225,505.1344 2035.8813,505.5406 Q2035.3813,506.1188 2034.5844,506.4469 Q2033.5063,506.9 2032.2094,506.9 Q2030.6938,506.9 2029.4906,506.275 Q2028.5063,505.775 2027.8188,504.7125 Q2027.1313,503.6344 2027.1313,502.3531 L2027.1313,501.1969 Q2027.1313,499.8688 2027.7406,498.7281 Q2028.3656,497.5719 2029.4594,496.9625 Q2030.5531,496.3375 2031.7875,496.3375 Q2032.5219,496.3375 2033.1625,496.5094 Q2033.8188,496.6656 2034.3656,497.025 Z " fill="#000000"/><text fill="#000000" font-family="sans-serif" font-size="12" lengthAdjust="spacing" textLength="88" x="2048.4" y="506.0602">EnderecoPostal</text><line style="stroke:#A80036;stroke-width:1.5;" x1="2005" x2="2151" y1="517.15" y2="517.15"/><text fill="#000000" font-family="sans-serif" font-size="11" lengthAdjust="spacing" textLength="57" x="2010" y="532.5689">-String local</text><text fill="#000000" font-family="sans-serif" font-size="11" lengthAdjust="spacing" textLength="82" x="2010" y="546.4049">-String codPostal</text><text fill="#000000" font-family="sans-serif" font-size="11" lengthAdjust="spacing" textLength="83" x="2010" y="560.2408">-String localidade</text><line style="stroke:#A80036;stroke-width:1.5;" x1="2005" x2="2151" y1="566.6578" y2="566.6578"/><text fill="#000000" font-family="sans-serif" font-size="11" lengthAdjust="spacing" textLength="136" x="2010" y="582.0768">+EnderecoPostal(endPostal)</text><!--MD5=[5dd1d6732c071e710b9290b531f2fa3b]
class Utilizador--><rect codeLine="97" fill="#FEFECE" filter="url(#fgb6db7ot5fcd)" height="89.5078" id="Utilizador" style="stroke:#A80036;stroke-width:1.5;" width="97" x="2029.5" y="207.65"/><ellipse cx="2050.8" cy="223.65" fill="#ADD1B2" rx="11" ry="11" style="stroke:#A80036;stroke-width:1.0;"/><path d="M2053.5656,219.525 Q2053.7219,219.3062 2053.9094,219.1969 Q2054.0969,219.0875 2054.3156,219.0875 Q2054.6906,219.0875 2054.925,219.3531 Q2055.1594,219.6031 2055.1594,220.2125 L2055.1594,221.6656 Q2055.1594,222.275 2054.925,222.5406 Q2054.6906,222.8062 2054.3156,222.8062 Q2053.9719,222.8062 2053.7688,222.6031 Q2053.5656,222.4156 2053.4563,221.9 Q2053.4094,221.5406 2053.2219,221.3531 Q2052.8938,220.9781 2052.2844,220.7594 Q2051.675,220.5406 2051.05,220.5406 Q2050.2844,220.5406 2049.6438,220.8687 Q2049.0188,221.1969 2048.5188,221.9469 Q2048.0344,222.6969 2048.0344,223.7281 L2048.0344,224.8219 Q2048.0344,226.0562 2048.925,226.8844 Q2049.8156,227.6969 2051.4094,227.6969 Q2052.3469,227.6969 2053.0031,227.4469 Q2053.3938,227.2906 2053.8156,226.8531 Q2054.0813,226.5875 2054.2219,226.5094 Q2054.3781,226.4312 2054.5813,226.4312 Q2054.9094,226.4312 2055.1594,226.6969 Q2055.425,226.9469 2055.425,227.2906 Q2055.425,227.6344 2055.0813,228.0406 Q2054.5813,228.6187 2053.7844,228.9469 Q2052.7063,229.4 2051.4094,229.4 Q2049.8938,229.4 2048.6906,228.775 Q2047.7063,228.275 2047.0188,227.2125 Q2046.3313,226.1344 2046.3313,224.8531 L2046.3313,223.6969 Q2046.3313,222.3687 2046.9406,221.2281 Q2047.5656,220.0719 2048.6594,219.4625 Q2049.7531,218.8375 2050.9875,218.8375 Q2051.7219,218.8375 2052.3625,219.0094 Q2053.0188,219.1656 2053.5656,219.525 Z " fill="#000000"/><text fill="#000000" font-family="sans-serif" font-size="12" lengthAdjust="spacing" textLength="51" x="2066.2" y="228.5602">Utilizador</text><line style="stroke:#A80036;stroke-width:1.5;" x1="2030.5" x2="2125.5" y1="239.65" y2="239.65"/><text fill="#000000" font-family="sans-serif" font-size="11" lengthAdjust="spacing" textLength="61" x="2035.5" y="255.0689">-String nome</text><text fill="#000000" font-family="sans-serif" font-size="11" lengthAdjust="spacing" textLength="59" x="2035.5" y="268.9049">-String email</text><text fill="#000000" font-family="sans-serif" font-size="11" lengthAdjust="spacing" textLength="85" x="2035.5" y="282.7408">-String password</text><line style="stroke:#A80036;stroke-width:1.5;" x1="2030.5" x2="2125.5" y1="289.1578" y2="289.1578"/><!--MD5=[ed5c6b4e01c9b1c9efc043b411d08420]
class AutorizacaoFacade--><rect codeLine="103" fill="#FEFECE" filter="url(#fgb6db7ot5fcd)" height="61.8359" id="AutorizacaoFacade" style="stroke:#A80036;stroke-width:1.5;" width="282" x="1480" y="295.65"/><ellipse cx="1564.75" cy="311.65" fill="#ADD1B2" rx="11" ry="11" style="stroke:#A80036;stroke-width:1.0;"/><path d="M1567.5156,307.525 Q1567.6719,307.3063 1567.8594,307.1969 Q1568.0469,307.0875 1568.2656,307.0875 Q1568.6406,307.0875 1568.875,307.3531 Q1569.1094,307.6031 1569.1094,308.2125 L1569.1094,309.6656 Q1569.1094,310.275 1568.875,310.5406 Q1568.6406,310.8063 1568.2656,310.8063 Q1567.9219,310.8063 1567.7188,310.6031 Q1567.5156,310.4156 1567.4063,309.9 Q1567.3594,309.5406 1567.1719,309.3531 Q1566.8438,308.9781 1566.2344,308.7594 Q1565.625,308.5406 1565,308.5406 Q1564.2344,308.5406 1563.5938,308.8688 Q1562.9688,309.1969 1562.4688,309.9469 Q1561.9844,310.6969 1561.9844,311.7281 L1561.9844,312.8219 Q1561.9844,314.0563 1562.875,314.8844 Q1563.7656,315.6969 1565.3594,315.6969 Q1566.2969,315.6969 1566.9531,315.4469 Q1567.3438,315.2906 1567.7656,314.8531 Q1568.0313,314.5875 1568.1719,314.5094 Q1568.3281,314.4313 1568.5313,314.4313 Q1568.8594,314.4313 1569.1094,314.6969 Q1569.375,314.9469 1569.375,315.2906 Q1569.375,315.6344 1569.0313,316.0406 Q1568.5313,316.6188 1567.7344,316.9469 Q1566.6563,317.4 1565.3594,317.4 Q1563.8438,317.4 1562.6406,316.775 Q1561.6563,316.275 1560.9688,315.2125 Q1560.2813,314.1344 1560.2813,312.8531 L1560.2813,311.6969 Q1560.2813,310.3688 1560.8906,309.2281 Q1561.5156,308.0719 1562.6094,307.4625 Q1563.7031,306.8375 1564.9375,306.8375 Q1565.6719,306.8375 1566.3125,307.0094 Q1566.9688,307.1656 1567.5156,307.525 Z " fill="#000000"/><text fill="#000000" font-family="sans-serif" font-size="12" lengthAdjust="spacing" textLength="104" x="1585.25" y="316.5602">AutorizacaoFacade</text><line style="stroke:#A80036;stroke-width:1.5;" x1="1481" x2="1761" y1="327.65" y2="327.65"/><line style="stroke:#A80036;stroke-width:1.5;" x1="1481" x2="1761" y1="335.65" y2="335.65"/><text fill="#000000" font-family="sans-serif" font-size="11" lengthAdjust="spacing" textLength="270" x="1486" y="351.0689">+registaUtilizadorComPapeis(nome,email,pwd,listaPapel)</text><!--MD5=[37bf6c08f758502d5d1a5531d651ab43]
class AlgoritmoGeradorPasswords--><rect codeLine="107" fill="#FEFECE" filter="url(#fgb6db7ot5fcd)" height="70.0234" id="AlgoritmoGeradorPasswords" style="stroke:#A80036;stroke-width:1.5;" width="189" x="1229" y="215.65"/><ellipse cx="1244" cy="235.7437" fill="#B4A7E5" rx="11" ry="11" style="stroke:#A80036;stroke-width:1.0;"/><path d="M1244.9531,232.3844 L1244.9531,239.0406 L1246.6719,239.0406 Q1247.2813,239.0406 1247.5469,239.275 Q1247.8125,239.5094 1247.8125,239.9 Q1247.8125,240.275 1247.5469,240.5094 Q1247.2813,240.7437 1246.6719,240.7437 L1241.5313,240.7437 Q1240.9219,240.7437 1240.6563,240.5094 Q1240.3906,240.275 1240.3906,239.8844 Q1240.3906,239.5094 1240.6563,239.275 Q1240.9219,239.0406 1241.5313,239.0406 L1243.25,239.0406 L1243.25,232.3844 L1241.5313,232.3844 Q1240.9219,232.3844 1240.6563,232.15 Q1240.3906,231.9156 1240.3906,231.525 Q1240.3906,231.15 1240.6563,230.9156 Q1240.9219,230.6812 1241.5313,230.6812 L1246.6719,230.6812 Q1247.2813,230.6812 1247.5469,230.9156 Q1247.8125,231.15 1247.8125,231.525 Q1247.8125,231.9156 1247.5469,232.15 Q1247.2813,232.3844 1246.6719,232.3844 L1244.9531,232.3844 Z " fill="#000000"/><text fill="#000000" font-family="sans-serif" font-size="12" font-style="italic" lengthAdjust="spacing" textLength="61" x="1306" y="233.107">«interface»</text><text fill="#000000" font-family="sans-serif" font-size="12" font-style="italic" lengthAdjust="spacing" textLength="157" x="1258" y="248.2008">AlgoritmoGeradorPasswords</text><line style="stroke:#A80036;stroke-width:1.5;" x1="1230" x2="1417" y1="255.8375" y2="255.8375"/><line style="stroke:#A80036;stroke-width:1.5;" x1="1230" x2="1417" y1="263.8375" y2="263.8375"/><text fill="#000000" font-family="sans-serif" font-size="11" lengthAdjust="spacing" textLength="139" x="1235" y="279.2564">+geraPassword(nome,email)</text><!--MD5=[0d731ff285a62a08178b23be6cceb109]
link CompetenciaTecnica to GrauProficiencia--><path codeLine="111" d="M2524.42,663.56 C2593.4,653.86 2692.09,639.99 2754.98,631.16 " fill="none" id="CompetenciaTecnica-GrauProficiencia" style="stroke:#A80036;stroke-width:1.0;"/><polygon fill="#000000" points="2654.9513,630.13,2645.5853,628.4784,2646.4033,634.299,2654.9513,630.13" style="stroke:#000000;stroke-width:1.0;"/><text fill="#000000" font-family="sans-serif" font-size="13" lengthAdjust="spacing" textLength="34" x="2659" y="636.1451">aplica</text><text fill="#000000" font-family="sans-serif" font-size="13" lengthAdjust="spacing" textLength="7" x="2532.1103" y="676.7706">1</text><text fill="#000000" font-family="sans-serif" font-size="13" lengthAdjust="spacing" textLength="5" x="2742.1776" y="646.7087">*</text><!--MD5=[95722b6f9a6b3365849ad4075c1dbfec]
link RegistarFreelancerUI to RegistarFreelancerController--><path codeLine="113" d="M157.32,394.65 C174.35,394.65 193.17,394.65 212.51,394.65 " fill="none" id="RegistarFreelancerUI-to-RegistarFreelancerController" style="stroke:#A80036;stroke-width:1.0;stroke-dasharray:7.0,7.0;"/><polygon fill="#A80036" points="217.98,394.65,208.98,390.65,212.98,394.65,208.98,398.65,217.98,394.65" style="stroke:#A80036;stroke-width:1.0;"/><!--MD5=[2e555ae67bb8df3432c2357bb816a845]
link RegistarFreelancerController to Plataforma--><path codeLine="114" d="M564,338.32 C582.86,332.15 601.69,325.98 619.6,320.12 " fill="none" id="RegistarFreelancerController-to-Plataforma" style="stroke:#A80036;stroke-width:1.0;stroke-dasharray:7.0,7.0;"/><polygon fill="#A80036" points="624.62,318.47,614.8222,317.4682,619.8681,320.0254,617.3109,325.0713,624.62,318.47" style="stroke:#A80036;stroke-width:1.0;"/><!--MD5=[ee03eb1cbdd0170d11c65c5bf3ec29f4]
link RegistarFreelancerController to RegistoFreelancer--><path codeLine="115" d="M564.11,384 C648.85,377.99 752.44,369.48 845,358.65 C863.03,356.54 881.91,354.03 900.6,351.36 " fill="none" id="RegistarFreelancerController-to-RegistoFreelancer" style="stroke:#A80036;stroke-width:1.0;stroke-dasharray:7.0,7.0;"/><polygon fill="#A80036" points="905.87,350.6,896.3915,347.9245,900.9211,351.3131,897.5325,355.8427,905.87,350.6" style="stroke:#A80036;stroke-width:1.0;"/><!--MD5=[6559eb636a96f7dfb00e6558ace09863]
link RegistarFreelancerController to Freelancer--><path codeLine="116" d="M564.04,408.38 C796.16,426.9 1207.56,459.74 1442.47,478.48 " fill="none" id="RegistarFreelancerController-to-Freelancer" style="stroke:#A80036;stroke-width:1.0;stroke-dasharray:7.0,7.0;"/><polygon fill="#A80036" points="1447.64,478.89,1438.9753,474.2077,1442.6549,478.5043,1438.3583,482.1839,1447.64,478.89" style="stroke:#A80036;stroke-width:1.0;"/><!--MD5=[4f06741411320007e7f35449f94268cd]
link Plataforma to RegistoCT--><path codeLine="117" d="M845.16,257 C865.36,252.43 886.3,247.8 906,243.65 C1028.14,217.92 1171.16,191.18 1253.85,176.06 " fill="none" id="Plataforma-to-RegistoCT" style="stroke:#A80036;stroke-width:1.0;"/><polygon fill="#A80036" points="1259.21,175.08,1249.6367,172.7667,1254.2918,175.9807,1251.0778,180.6359,1259.21,175.08" style="stroke:#A80036;stroke-width:1.0;"/><text fill="#000000" font-family="sans-serif" font-size="13" lengthAdjust="spacing" textLength="7" x="853.1517" y="269.2601">1</text><text fill="#000000" font-family="sans-serif" font-size="13" lengthAdjust="spacing" textLength="7" x="1244.3718" y="190.861">1</text><!--MD5=[957336f8f7652c1733534e96e2968a5f]
link Plataforma to RegistoFreelancer--><path codeLine="118" d="M845.02,297.85 C862.93,300.35 881.77,302.98 900.48,305.59 " fill="none" id="Plataforma-to-RegistoFreelancer" style="stroke:#A80036;stroke-width:1.0;"/><polygon fill="#A80036" points="905.75,306.32,897.383,301.1245,900.7972,305.6349,896.2868,309.0491,905.75,306.32" style="stroke:#A80036;stroke-width:1.0;"/><text fill="#000000" font-family="sans-serif" font-size="13" lengthAdjust="spacing" textLength="7" x="853.0019" y="312.9824">1</text><text fill="#000000" font-family="sans-serif" font-size="13" lengthAdjust="spacing" textLength="7" x="891.0027" y="319.188">1</text><!--MD5=[c2b02cfdb8aa70326365b04c36bb2b6f]
link RegistoCT to CompetenciaTecnica--><path codeLine="120" d="M1387.51,144.28 C1546.55,99.49 1970.61,6 2239,189.65 C2383.99,288.86 2426.54,512.59 2438.74,617.86 " fill="none" id="RegistoCT-to-CompetenciaTecnica" style="stroke:#A80036;stroke-width:1.0;"/><polygon fill="#A80036" points="2439.34,623.09,2442.3098,613.6996,2438.7816,618.1213,2434.3598,614.5931,2439.34,623.09" style="stroke:#A80036;stroke-width:1.0;"/><text fill="#000000" font-family="sans-serif" font-size="13" lengthAdjust="spacing" textLength="7" x="1395.3158" y="156.4998">1</text><text fill="#000000" font-family="sans-serif" font-size="13" lengthAdjust="spacing" textLength="5" x="2433.2628" y="612.21">*</text><!--MD5=[95795e0b4ecb0b567ae2ce3910745252]
link RegistoFreelancer to Freelancer--><path codeLine="122" d="M1199.02,369.29 C1273.36,391.08 1364.43,417.76 1442.83,440.74 " fill="none" id="RegistoFreelancer-to-Freelancer" style="stroke:#A80036;stroke-width:1.0;"/><polygon fill="#A80036" points="1447.98,442.24,1440.46,435.88,1443.18,440.84,1438.22,443.56,1447.98,442.24" style="stroke:#A80036;stroke-width:1.0;"/><text fill="#000000" font-family="sans-serif" font-size="13" lengthAdjust="spacing" textLength="86" x="1280.5" y="376.1451">tem registados</text><text fill="#000000" font-family="sans-serif" font-size="13" lengthAdjust="spacing" textLength="7" x="1207.2242" y="385.5637">1</text><text fill="#000000" font-family="sans-serif" font-size="13" lengthAdjust="spacing" textLength="5" x="1435.0268" y="453.817">*</text><!--MD5=[7a59ad2cb29ff6e914b8672ce881fef8]
link Freelancer to HabilitacaoAcademica--><path codeLine="123" d="M1794.02,454.47 C1832.55,445.91 1873.35,436.86 1911.61,428.36 " fill="none" id="Freelancer-to-HabilitacaoAcademica" style="stroke:#A80036;stroke-width:1.0;"/><polygon fill="#A80036" points="1916.74,427.22,1907.0866,425.2676,1911.8591,428.3047,1908.822,433.0771,1916.74,427.22" style="stroke:#A80036;stroke-width:1.0;"/><text fill="#000000" font-family="sans-serif" font-size="13" lengthAdjust="spacing" textLength="22" x="1844.5" y="432.1451">tem</text><text fill="#000000" font-family="sans-serif" font-size="13" lengthAdjust="spacing" textLength="7" x="1802.0186" y="466.6011">1</text><text fill="#000000" font-family="sans-serif" font-size="13" lengthAdjust="spacing" textLength="20" x="1888.9798" y="442.6933">0..*</text><!--MD5=[2bba5561b974fb2050139d5fa9c0f564]
link Freelancer to ReconhecimentoCompetenciaTecnica--><path codeLine="124" d="M1794.02,561.46 C1843.41,581.21 1896.51,602.45 1943.23,621.14 " fill="none" id="Freelancer-to-ReconhecimentoCompetenciaTecnica" style="stroke:#A80036;stroke-width:1.0;"/><polygon fill="#A80036" points="1948.02,623.06,1941.1568,615.9963,1943.3796,621.1981,1938.1778,623.4209,1948.02,623.06" style="stroke:#A80036;stroke-width:1.0;"/><text fill="#000000" font-family="sans-serif" font-size="13" lengthAdjust="spacing" textLength="54" x="1828.5" y="574.1451">recebe(u)</text><text fill="#000000" font-family="sans-serif" font-size="13" lengthAdjust="spacing" textLength="7" x="1802.0186" y="578.4391">1</text><text fill="#000000" font-family="sans-serif" font-size="13" lengthAdjust="spacing" textLength="20" x="1908.3353" y="612.1758">0..*</text><!--MD5=[b8422db8e85907663c841d4c41f19cc1]
link Freelancer to EnderecoPostal--><path codeLine="125" d="M1794.02,509.28 C1864.49,516.1 1942.53,523.65 1998.78,529.09 " fill="none" id="Freelancer-to-EnderecoPostal" style="stroke:#A80036;stroke-width:1.0;"/><polygon fill="#A80036" points="2003.81,529.57,1995.2278,524.7382,1998.8323,529.098,1994.4726,532.7025,2003.81,529.57" style="stroke:#A80036;stroke-width:1.0;"/><text fill="#000000" font-family="sans-serif" font-size="13" lengthAdjust="spacing" textLength="22" x="1844.5" y="509.1451">tem</text><text fill="#000000" font-family="sans-serif" font-size="13" lengthAdjust="spacing" textLength="7" x="1802.0186" y="523.8947">1</text><text fill="#000000" font-family="sans-serif" font-size="13" lengthAdjust="spacing" textLength="7" x="1988.7982" y="543.1604">1</text><!--MD5=[6a7c57800a31452a20aa2f5037e36afb]
link Freelancer to Utilizador--><path codeLine="126" d="M1777.77,392.65 C1821.95,366.09 1870.66,338.48 1917,315.65 C1951.83,298.49 1992.56,282.51 2024.21,270.94 " fill="none" id="Freelancer-to-Utilizador" style="stroke:#A80036;stroke-width:1.0;"/><polygon fill="#A80036" points="2029.21,269.12,2019.3842,268.4461,2024.5127,270.8333,2022.1255,275.9618,2029.21,269.12" style="stroke:#A80036;stroke-width:1.0;"/><text fill="#000000" font-family="sans-serif" font-size="13" lengthAdjust="spacing" textLength="61" x="1825" y="328.1451">atua como</text><text fill="#000000" font-family="sans-serif" font-size="13" lengthAdjust="spacing" textLength="22" x="1766.9305" y="381.8823">0..1</text><text fill="#000000" font-family="sans-serif" font-size="13" lengthAdjust="spacing" textLength="7" x="2014.5299" y="286.2711">1</text><!--MD5=[a3b528a7f654e905d831144439d7cdb8]
link ReconhecimentoCompetenciaTecnica to CompetenciaTecnica--><path codeLine="129" d="M2225.16,674.65 C2270.84,674.65 2319.67,674.65 2359.55,674.65 " fill="none" id="ReconhecimentoCompetenciaTecnica-to-CompetenciaTecnica" style="stroke:#A80036;stroke-width:1.0;"/><polygon fill="#A80036" points="2364.86,674.65,2355.86,670.65,2359.86,674.65,2355.86,678.65,2364.86,674.65" style="stroke:#A80036;stroke-width:1.0;"/><polygon fill="#000000" points="2279,665.8258,2269.9549,662.8869,2269.9549,668.7647,2279,665.8258" style="stroke:#000000;stroke-width:1.0;"/><text fill="#000000" font-family="sans-serif" font-size="13" lengthAdjust="spacing" textLength="51" x="2283" y="671.1451">relativa a</text><text fill="#000000" font-family="sans-serif" font-size="13" lengthAdjust="spacing" textLength="5" x="2232.8768" y="688.5578">*</text><text fill="#000000" font-family="sans-serif" font-size="13" lengthAdjust="spacing" textLength="7" x="2349.9357" y="688.908">1</text><!--MD5=[156fd9ccca59e4538aad30e9a9b012b9]
link ReconhecimentoCompetenciaTecnica to GrauProficiencia--><path codeLine="130" d="M2225.12,632.36 C2269.64,621.39 2318.97,611.12 2365,605.65 C2523.89,586.75 2565.56,595.19 2725,608.65 C2733,609.33 2741.37,610.28 2749.65,611.38 " fill="none" id="ReconhecimentoCompetenciaTecnica-to-GrauProficiencia" style="stroke:#A80036;stroke-width:1.0;"/><polygon fill="#A80036" points="2754.79,612.08,2746.4103,606.905,2749.8355,611.407,2745.3335,614.8322,2754.79,612.08" style="stroke:#A80036;stroke-width:1.0;"/><polygon fill="#000000" points="2563.996,585.626,2554.8407,583.0509,2555.0756,588.924,2563.996,585.626" style="stroke:#000000;stroke-width:1.0;"/><text fill="#000000" font-family="sans-serif" font-size="13" lengthAdjust="spacing" textLength="46" x="2568" y="591.1451">reconhe</text><text fill="#000000" font-family="sans-serif" font-size="13" lengthAdjust="spacing" textLength="5" x="2232.8348" y="644.0872">*</text><text fill="#000000" font-family="sans-serif" font-size="13" lengthAdjust="spacing" textLength="7" x="2739.8425" y="625.3033">1</text><!--MD5=[4aa6a936df4ad7b844bdcf1457a2ad73]
link AlgoritmoGeradorPasswords to Utilizador--><path codeLine="132" d="M1418.28,250.9 C1580.21,251.33 1906.63,252.2 2029.12,252.52 " fill="none" id="AlgoritmoGeradorPasswords-Utilizador" style="stroke:#A80036;stroke-width:1.0;"/><polygon fill="#000000" points="1581.5,242.839,1572.4627,239.8761,1572.4471,245.754,1581.5,242.839" style="stroke:#000000;stroke-width:1.0;"/><text fill="#000000" font-family="sans-serif" font-size="13" lengthAdjust="spacing" textLength="84" x="1585.5" y="248.1451">gera password</text><text fill="#000000" font-family="sans-serif" font-size="13" lengthAdjust="spacing" textLength="7" x="1426.1117" y="265.0656">1</text><text fill="#000000" font-family="sans-serif" font-size="13" lengthAdjust="spacing" textLength="20" x="2001.576" y="267.0775">0..*</text><!--MD5=[15cec896389339cd2d2fcfdb697eb13d]
link RegistoFreelancer to AutorizacaoFacade--><path codeLine="133" d="M1199.02,326.65 C1283.72,326.65 1390.13,326.65 1474.77,326.65 " fill="none" id="RegistoFreelancer-to-AutorizacaoFacade" style="stroke:#A80036;stroke-width:1.0;stroke-dasharray:7.0,7.0;"/><polygon fill="#A80036" points="1479.8,326.65,1470.8,322.65,1474.8,326.65,1470.8,330.65,1479.8,326.65" style="stroke:#A80036;stroke-width:1.0;"/><!--MD5=[da4b048eddb7144ff25fffb22664bc52]
link AutorizacaoFacade to Utilizador--><path codeLine="134" d="M1762.23,303.84 C1850.86,289.43 1960.33,271.62 2024.05,261.26 " fill="none" id="AutorizacaoFacade-to-Utilizador" style="stroke:#A80036;stroke-width:1.0;stroke-dasharray:7.0,7.0;"/><polygon fill="#A80036" points="2029.31,260.41,2019.7865,257.8993,2024.3742,261.2089,2021.0647,265.7966,2029.31,260.41" style="stroke:#A80036;stroke-width:1.0;"/><!--MD5=[f402423e8224ea779d694d2d2b53a0d7]
link RegistoFreelancer to AlgoritmoGeradorPasswords--><path codeLine="135" d="M1199.02,285.54 C1207.43,283.16 1215.78,280.8 1223.94,278.5 " fill="none" id="RegistoFreelancer-to-AlgoritmoGeradorPasswords" style="stroke:#A80036;stroke-width:1.0;stroke-dasharray:7.0,7.0;"/><polygon fill="#A80036" points="1228.99,277.07,1219.2423,275.662,1224.1776,278.4266,1221.4129,283.3619,1228.99,277.07" style="stroke:#A80036;stroke-width:1.0;"/><!--MD5=[450edff9521a8449a3689303d0eea200]
@startuml
skinparam classAttributeIconSize 0

left to right direction

class RegistarFreelancerUI {
    
}

class RegistarFreelancerController {
    
  +novoFrelancer(nome, nif, endpost, tele, email)
  +novaHabilitacaoAcademica(grau, descCurso, instituicao, medCurso)
  +getListaCTComGraus()
  +novoReconhecimentoCT(data, codCT, valorGP)
  +registaFreelancer()  
}

class Plataforma {
  -String designacao
  
  +RegistoFreelancer getRegistoFreelancer()
  +RegistoCT getRegistoCT()
  +getAlgoritmoGeradorPwd()
  +getAutorizacaoFacade()
}

class RegistoCT {
    +getListaCTComGraus()
    +getCT(codCT)
}

class CompetenciaTecnica {
  -String codigo
  -String descBreve
  -String descDetalhada

  +getGrauProficiencia(valorGP)
}

class GrauProficiencia {
  -Integer valor
  -String designacao
}

class RegistoFreelancer {
    
  +Freelancer novoFrelancer(nome, nif, endpost, tele, email)
  +registaFreelancer(fr)
  -validaFreelancer(fr)
  -addFreelancer(fr)
  -registaFreelancerComoUtilizador()
  -enviaEmail(nome, email, pwd)
  
}

class Freelancer {
  -String nome
  -String NIF
  -String telefone
  -String email

   +Freelancer(nome, nif, endpost, tele, email)
   +novaHabilitacaoAcademica(grau, descCurso, instituicao, medCurso)
   -addHabilitacaoAcademica(ha)
   +novoReconhecimentoCT(data, compTecnica, grauProficiencia)
   -addReconhecimento(rct)
   +getEmail()
   +getNome()
}

class HabilitacaoAcademica {
  -String grau
  -String designacao 
  -String instituicao 
  -String media

  +HabilitacaoAcademica(grau, descCurso, instituicao, medCurso)
}

class ReconhecimentoCompetenciaTecnica {
  -String data
  -String competenciaTecnica
  -String grauProficiencia
  
  +ReconhecimentoCT(data, compTecnica, grauProficiencia)
}

class EnderecoPostal {
  -String local
  -String codPostal
  -String localidade
  
  +EnderecoPostal(endPostal)
}


class Utilizador {
  -String nome
  -String email
  -String password
}

class AutorizacaoFacade {
   +registaUtilizadorComPapeis(nome,email,pwd,listaPapel)
}

interface AlgoritmoGeradorPasswords  <<interface>>{
  +geraPassword(nome,email)
}

CompetenciaTecnica "1" - - - "*" GrauProficiencia : aplica  >

RegistarFreelancerUI ..> RegistarFreelancerController
RegistarFreelancerController ..> Plataforma
RegistarFreelancerController ..> RegistoFreelancer
RegistarFreelancerController ..> Freelancer
Plataforma  "1" - -> "1" RegistoCT
Plataforma  "1" - -> "1" RegistoFreelancer

RegistoCT "1" - -> "*" CompetenciaTecnica

RegistoFreelancer "1" - -> "*" Freelancer : tem registados
Freelancer "1" - -> "0..*" HabilitacaoAcademica: tem
Freelancer "1" - -> "0..*" ReconhecimentoCompetenciaTecnica: recebe(u)
Freelancer "1" - -> "1" EnderecoPostal: tem
Freelancer "0..1" - -> "1" Utilizador: atua como


ReconhecimentoCompetenciaTecnica "*" - -> "1" CompetenciaTecnica: relativa a >
ReconhecimentoCompetenciaTecnica "*" - -> "1" GrauProficiencia: reconhe >

AlgoritmoGeradorPasswords "1" - - "0..*" Utilizador: gera password >
RegistoFreelancer ..> AutorizacaoFacade
AutorizacaoFacade ..> Utilizador
AlgoritmoGeradorPasswords <.l. RegistoFreelancer



@enduml

PlantUML version 1.2021.00(Sun Jan 10 10:25:05 WET 2021)
(GPL source distribution)
Java Runtime: Java(TM) SE Runtime Environment
JVM: Java HotSpot(TM) 64-Bit Server VM
Default Encoding: Cp1252
Language: pt
Country: PT
--></g></svg>