<?xml version="1.0" encoding="UTF-8" standalone="no"?><svg xmlns="http://www.w3.org/2000/svg" xmlns:xlink="http://www.w3.org/1999/xlink" contentScriptType="application/ecmascript" contentStyleType="text/css" height="665px" preserveAspectRatio="none" style="width:594px;height:665px;" version="1.1" viewBox="0 0 594 665" width="594px" zoomAndPan="magnify"><defs><filter height="300%" id="f1xuvi0lhv234d" width="300%" x="-1" y="-1"><feGaussianBlur result="blurOut" stdDeviation="2.0"/><feColorMatrix in="blurOut" result="blurOut2" type="matrix" values="0 0 0 0 0 0 0 0 0 0 0 0 0 0 0 0 0 0 .4 0"/><feOffset dx="4.0" dy="4.0" in="blurOut2" result="blurOut3"/><feBlend in="SourceGraphic" in2="blurOut3" mode="normal"/></filter></defs><g><rect fill="#FFFFFF" filter="url(#f1xuvi0lhv234d)" height="462.625" style="stroke:#A80036;stroke-width:1.0;" width="10" x="62" y="99.6094"/><rect fill="#FFFFFF" filter="url(#f1xuvi0lhv234d)" height="46.7031" style="stroke:#A80036;stroke-width:1.0;" width="10" x="529" y="121.9609"/><rect fill="#FFFFFF" filter="url(#f1xuvi0lhv234d)" height="46.7031" style="stroke:#A80036;stroke-width:1.0;" width="10" x="529" y="199.0156"/><rect fill="#FFFFFF" filter="url(#f1xuvi0lhv234d)" height="30.3516" style="stroke:#A80036;stroke-width:1.0;" width="10" x="529" y="301.4219"/><rect fill="#FFFFFF" filter="url(#f1xuvi0lhv234d)" height="46.7031" style="stroke:#A80036;stroke-width:1.0;" width="10" x="529" y="362.125"/><rect fill="#FFFFFF" filter="url(#f1xuvi0lhv234d)" height="62.3516" style="stroke:#A80036;stroke-width:1.0;" width="10" x="529" y="439.1797"/><rect fill="#FFFFFF" filter="url(#f1xuvi0lhv234d)" height="30.3516" style="stroke:#A80036;stroke-width:1.0;" width="10" x="529" y="531.8828"/><rect fill="#FFFFFF" filter="url(#f1xuvi0lhv234d)" height="211.4609" style="stroke:#000000;stroke-width:2.0;" width="570" x="10" y="260.7188"/><line style="stroke:#A80036;stroke-width:1.0;stroke-dasharray:5.0,5.0;" x1="67" x2="67" y1="89.6094" y2="580.2344"/><line style="stroke:#A80036;stroke-width:1.0;stroke-dasharray:5.0,5.0;" x1="534" x2="534" y1="89.6094" y2="580.2344"/><text fill="#000000" font-family="sans-serif" font-size="14" lengthAdjust="spacing" textLength="88" x="20" y="86.5332">Administrativo</text><ellipse cx="67" cy="15" fill="#FEFECE" filter="url(#f1xuvi0lhv234d)" rx="8" ry="8" style="stroke:#A80036;stroke-width:2.0;"/><path d="M67,23 L67,50 M54,31 L80,31 M67,50 L54,65 M67,50 L80,65 " fill="none" filter="url(#f1xuvi0lhv234d)" style="stroke:#A80036;stroke-width:2.0;"/><text fill="#000000" font-family="sans-serif" font-size="14" lengthAdjust="spacing" textLength="88" x="20" y="593.7676">Administrativo</text><ellipse cx="67" cy="606.8438" fill="#FEFECE" filter="url(#f1xuvi0lhv234d)" rx="8" ry="8" style="stroke:#A80036;stroke-width:2.0;"/><path d="M67,614.8438 L67,641.8438 M54,622.8438 L80,622.8438 M67,641.8438 L54,656.8438 M67,641.8438 L80,656.8438 " fill="none" filter="url(#f1xuvi0lhv234d)" style="stroke:#A80036;stroke-width:2.0;"/><rect fill="#FEFECE" filter="url(#f1xuvi0lhv234d)" height="31.6094" style="stroke:#A80036;stroke-width:1.5;" width="68" x="498" y="53"/><text fill="#000000" font-family="sans-serif" font-size="14" lengthAdjust="spacing" textLength="54" x="505" y="74.5332">:Sistema</text><rect fill="#FEFECE" filter="url(#f1xuvi0lhv234d)" height="31.6094" style="stroke:#A80036;stroke-width:1.5;" width="68" x="498" y="579.2344"/><text fill="#000000" font-family="sans-serif" font-size="14" lengthAdjust="spacing" textLength="54" x="505" y="600.7676">:Sistema</text><rect fill="#FFFFFF" filter="url(#f1xuvi0lhv234d)" height="462.625" style="stroke:#A80036;stroke-width:1.0;" width="10" x="62" y="99.6094"/><rect fill="#FFFFFF" filter="url(#f1xuvi0lhv234d)" height="46.7031" style="stroke:#A80036;stroke-width:1.0;" width="10" x="529" y="121.9609"/><rect fill="#FFFFFF" filter="url(#f1xuvi0lhv234d)" height="46.7031" style="stroke:#A80036;stroke-width:1.0;" width="10" x="529" y="199.0156"/><rect fill="#FFFFFF" filter="url(#f1xuvi0lhv234d)" height="30.3516" style="stroke:#A80036;stroke-width:1.0;" width="10" x="529" y="301.4219"/><rect fill="#FFFFFF" filter="url(#f1xuvi0lhv234d)" height="46.7031" style="stroke:#A80036;stroke-width:1.0;" width="10" x="529" y="362.125"/><rect fill="#FFFFFF" filter="url(#f1xuvi0lhv234d)" height="62.3516" style="stroke:#A80036;stroke-width:1.0;" width="10" x="529" y="439.1797"/><rect fill="#FFFFFF" filter="url(#f1xuvi0lhv234d)" height="30.3516" style="stroke:#A80036;stroke-width:1.0;" width="10" x="529" y="531.8828"/><polygon fill="#A80036" points="517,117.9609,527,121.9609,517,125.9609,521,121.9609" style="stroke:#A80036;stroke-width:1.0;"/><line style="stroke:#A80036;stroke-width:1.0;" x1="72" x2="523" y1="121.9609" y2="121.9609"/><text fill="#000000" font-family="sans-serif" font-size="13" font-weight="bold" lengthAdjust="spacing" textLength="7" x="79" y="117.1045">1</text><text fill="#000000" font-family="sans-serif" font-size="13" lengthAdjust="spacing" textLength="244" x="90" y="117.1045">inicia definição de nova categoria de tarefa</text><polygon fill="#A80036" points="83,164.6641,73,168.6641,83,172.6641,79,168.6641" style="stroke:#A80036;stroke-width:1.0;"/><line style="stroke:#A80036;stroke-width:1.0;stroke-dasharray:2.0,2.0;" x1="77" x2="533" y1="168.6641" y2="168.6641"/><text fill="#000000" font-family="sans-serif" font-size="13" font-weight="bold" lengthAdjust="spacing" textLength="7" x="89" y="155.6318">2</text><text fill="#000000" font-family="sans-serif" font-size="13" lengthAdjust="spacing" textLength="407" x="100" y="147.4561">mostra a lista de áreas de atividade e solicita a descrição da categoria</text><text fill="#000000" font-family="sans-serif" font-size="13" lengthAdjust="spacing" textLength="269" x="100" y="163.8076">de tarefa e a escolha de uma área de atividade</text><polygon fill="#A80036" points="517,195.0156,527,199.0156,517,203.0156,521,199.0156" style="stroke:#A80036;stroke-width:1.0;"/><line style="stroke:#A80036;stroke-width:1.0;" x1="72" x2="523" y1="199.0156" y2="199.0156"/><text fill="#000000" font-family="sans-serif" font-size="13" font-weight="bold" lengthAdjust="spacing" textLength="7" x="79" y="194.1592">3</text><text fill="#000000" font-family="sans-serif" font-size="13" lengthAdjust="spacing" textLength="363" x="90" y="194.1592">introduz a descrição e seleciona a área de atividade pretendida</text><polygon fill="#A80036" points="83,241.7188,73,245.7188,83,249.7188,79,245.7188" style="stroke:#A80036;stroke-width:1.0;"/><line style="stroke:#A80036;stroke-width:1.0;stroke-dasharray:2.0,2.0;" x1="77" x2="533" y1="245.7188" y2="245.7188"/><text fill="#000000" font-family="sans-serif" font-size="13" font-weight="bold" lengthAdjust="spacing" textLength="7" x="89" y="232.6865">4</text><text fill="#000000" font-family="sans-serif" font-size="13" lengthAdjust="spacing" textLength="363" x="100" y="224.5107">mostra a lista de competências técnicas associadas à área de</text><text fill="#000000" font-family="sans-serif" font-size="13" lengthAdjust="spacing" textLength="324" x="100" y="240.8623">atividade especificada e solicita a escolha de uma delas</text><path d="M10,260.7188 L83,260.7188 L83,268.7188 L73,278.7188 L10,278.7188 L10,260.7188 " fill="#EEEEEE" style="stroke:#000000;stroke-width:1.0;"/><rect fill="none" height="211.4609" style="stroke:#000000;stroke-width:2.0;" width="570" x="10" y="260.7188"/><text fill="#000000" font-family="sans-serif" font-size="13" font-weight="bold" lengthAdjust="spacing" textLength="28" x="25" y="275.2139">loop</text><polygon fill="#A80036" points="517,297.4219,527,301.4219,517,305.4219,521,301.4219" style="stroke:#A80036;stroke-width:1.0;"/><line style="stroke:#A80036;stroke-width:1.0;" x1="72" x2="523" y1="301.4219" y2="301.4219"/><text fill="#000000" font-family="sans-serif" font-size="13" font-weight="bold" lengthAdjust="spacing" textLength="7" x="79" y="296.5654">5</text><text fill="#000000" font-family="sans-serif" font-size="13" lengthAdjust="spacing" textLength="238" x="90" y="296.5654">seleciona competência técnica solicitada</text><polygon fill="#A80036" points="83,327.7734,73,331.7734,83,335.7734,79,331.7734" style="stroke:#A80036;stroke-width:1.0;"/><line style="stroke:#A80036;stroke-width:1.0;stroke-dasharray:2.0,2.0;" x1="77" x2="533" y1="331.7734" y2="331.7734"/><text fill="#000000" font-family="sans-serif" font-size="13" font-weight="bold" lengthAdjust="spacing" textLength="7" x="89" y="326.917">6</text><text fill="#000000" font-family="sans-serif" font-size="13" lengthAdjust="spacing" textLength="422" x="100" y="326.917">mostra graus de proficiência relativos à competência técnica selecionada</text><polygon fill="#A80036" points="517,358.125,527,362.125,517,366.125,521,362.125" style="stroke:#A80036;stroke-width:1.0;"/><line style="stroke:#A80036;stroke-width:1.0;" x1="72" x2="523" y1="362.125" y2="362.125"/><text fill="#000000" font-family="sans-serif" font-size="13" font-weight="bold" lengthAdjust="spacing" textLength="7" x="79" y="357.2686">7</text><text fill="#000000" font-family="sans-serif" font-size="13" lengthAdjust="spacing" textLength="228" x="90" y="357.2686">seleciona o grau de proficiencia minimo</text><polygon fill="#A80036" points="83,404.8281,73,408.8281,83,412.8281,79,408.8281" style="stroke:#A80036;stroke-width:1.0;"/><line style="stroke:#A80036;stroke-width:1.0;stroke-dasharray:2.0,2.0;" x1="77" x2="533" y1="408.8281" y2="408.8281"/><text fill="#000000" font-family="sans-serif" font-size="13" font-weight="bold" lengthAdjust="spacing" textLength="7" x="89" y="395.7959">8</text><text fill="#000000" font-family="sans-serif" font-size="13" lengthAdjust="spacing" textLength="187" x="100" y="387.6201">solicita indicação do seu caráter</text><text fill="#000000" font-family="sans-serif" font-size="13" lengthAdjust="spacing" textLength="165" x="104" y="403.9717">(i.e. obrigatória ou desejável)</text><polygon fill="#A80036" points="517,435.1797,527,439.1797,517,443.1797,521,439.1797" style="stroke:#A80036;stroke-width:1.0;"/><line style="stroke:#A80036;stroke-width:1.0;" x1="72" x2="523" y1="439.1797" y2="439.1797"/><text fill="#000000" font-family="sans-serif" font-size="13" font-weight="bold" lengthAdjust="spacing" textLength="7" x="79" y="434.3232">9</text><text fill="#000000" font-family="sans-serif" font-size="13" lengthAdjust="spacing" textLength="155" x="90" y="434.3232">introduz informação pedida</text><polygon fill="#A80036" points="83,497.5313,73,501.5313,83,505.5313,79,501.5313" style="stroke:#A80036;stroke-width:1.0;"/><line style="stroke:#A80036;stroke-width:1.0;stroke-dasharray:2.0,2.0;" x1="77" x2="533" y1="501.5313" y2="501.5313"/><text fill="#000000" font-family="sans-serif" font-size="13" font-weight="bold" lengthAdjust="spacing" textLength="14" x="89" y="496.6748">10</text><text fill="#000000" font-family="sans-serif" font-size="13" lengthAdjust="spacing" textLength="226" x="107" y="496.6748">apresenta dados e solicita confirmação</text><polygon fill="#A80036" points="517,527.8828,527,531.8828,517,535.8828,521,531.8828" style="stroke:#A80036;stroke-width:1.0;"/><line style="stroke:#A80036;stroke-width:1.0;" x1="72" x2="523" y1="531.8828" y2="531.8828"/><text fill="#000000" font-family="sans-serif" font-size="13" font-weight="bold" lengthAdjust="spacing" textLength="14" x="79" y="527.0264">11</text><text fill="#000000" font-family="sans-serif" font-size="13" lengthAdjust="spacing" textLength="49" x="97" y="527.0264">confirma</text><polygon fill="#A80036" points="78,558.2344,68,562.2344,78,566.2344,74,562.2344" style="stroke:#A80036;stroke-width:1.0;"/><line style="stroke:#A80036;stroke-width:1.0;stroke-dasharray:2.0,2.0;" x1="72" x2="533" y1="562.2344" y2="562.2344"/><text fill="#000000" font-family="sans-serif" font-size="13" font-weight="bold" lengthAdjust="spacing" textLength="14" x="84" y="557.3779">12</text><text fill="#000000" font-family="sans-serif" font-size="13" lengthAdjust="spacing" textLength="184" x="102" y="557.3779">informa operação bem sucedida</text><!--MD5=[6f7edb82d0051793cd2a63a8efa2fdde]
@startuml

autonumber

actor "Administrativo" as ADM

participant ":Sistema" as SIST

activate ADM

ADM -> SIST : inicia definição de nova categoria de tarefa
activate SIST
SIST - -> ADM : mostra a lista de áreas de atividade e solicita a descrição da categoria \nde tarefa e a escolha de uma área de atividade
deactivate SIST

ADM -> SIST : introduz a descrição e seleciona a área de atividade pretendida
activate SIST
SIST - -> ADM : mostra a lista de competências técnicas associadas à área de \natividade especificada e solicita a escolha de uma delas
deactivate SIST

loop
ADM -> SIST : seleciona competência técnica solicitada
activate SIST
SIST - -> ADM : mostra graus de proficiência relativos à competência técnica selecionada
deactivate SIST

ADM -> SIST: seleciona o grau de proficiencia minimo
activate SIST

SIST - -> ADM : solicita indicação do seu caráter \n (i.e. obrigatória ou desejável)
deactivate SIST

ADM -> SIST : introduz informação pedida
|||
activate SIST
end loop
SIST - -> ADM : apresenta dados e solicita confirmação
deactivate SIST

ADM -> SIST : confirma
activate SIST
SIST - -> ADM : informa operação bem sucedida
deactivate SIST

deactivate ADM

@enduml

PlantUML version 1.2021.00(Sun Jan 10 10:25:05 WET 2021)
(GPL source distribution)
Java Runtime: Java(TM) SE Runtime Environment
JVM: Java HotSpot(TM) 64-Bit Server VM
Default Encoding: Cp1252
Language: pt
Country: PT
--></g></svg>